<svg xmlns:xlink="http://www.w3.org/1999/xlink" xmlns="http://www.w3.org/2000/svg" style="width:100%;height:100%" width="137"  height="30" ><defs><svg viewBox="0 0 137 30" id="svg9245165025"><path d="M 29.278 14.725 C 29.278 19.003 27.462 22.87 24.55 25.56 L 21.037 25.56 C 21.113 25.214 20.93 24.977 20.693 24.815 C 20.199 24.469 19.888 23.896 19.963 23.302 C 20.156 21.736 21.102 19.737 24.551 17.901 C 26.882 16.648 27.312 14.066 27.473 13.688 C 27.71 13.061 27.645 12.531 27.151 12.024 C 26.259 11.105 25.292 10.274 24.121 9.733 C 22.477 8.956 20.801 8.999 19.136 9.625 C 18.846 9.733 18.91 9.506 18.889 9.409 C 18.663 8.307 18.287 7.249 17.75 6.255 C 16.665 4.289 15.15 2.841 12.893 2.355 C 12.56 2.279 12.216 2.258 11.873 2.214 C 11.711 2.193 11.625 2.236 11.669 2.431 C 11.969 3.878 12.388 5.272 13.301 6.46 C 13.721 7.011 14.29 7.378 14.849 7.756 C 15.44 8.167 16.063 8.545 16.622 9.01 C 17.148 9.463 17.578 9.993 17.782 10.749 C 17.707 10.673 17.674 10.652 17.653 10.619 C 15.934 7.875 12.571 6.665 9.187 7.659 C 8.875 7.746 8.918 7.854 9.068 8.08 C 10.046 9.593 11.389 10.673 12.979 11.505 C 14.161 12.121 15.386 12.629 16.718 12.801 C 17.32 12.877 17.03 13.288 17.126 13.774 C 17.255 14.53 17.567 14.768 17.46 14.703 C 15.418 13.882 13.721 13.558 12.313 13.558 C 6.5 13.558 5.555 19.132 5.598 19.197 C 5.512 19.165 4.115 18.646 3.804 20.05 C 3.481 21.476 5.383 22.405 5.383 22.405 C 5.63 20.72 7.134 20.353 7.317 20.31 C 7.167 20.396 6.189 20.968 5.888 22.535 C 5.63 23.918 6.715 25.138 7.124 25.56 L 4.717 25.56 C 1.816 22.87 0 19.003 0 14.725 C 0 6.59 6.543 0 14.634 0 C 22.724 0 29.278 6.59 29.278 14.725 Z M 18.641 25.56 L 17.094 25.56 C 17.169 25.484 17.223 25.376 17.244 25.257 C 17.373 24.501 16.729 24.35 16.729 24.35 L 13.162 24.35 C 13.162 24.35 14.58 24.285 15.88 23.745 C 17.169 23.194 18.211 22.232 18.394 21.973 C 17.792 23.399 18.083 24.598 18.329 25.203 C 18.383 25.354 18.501 25.484 18.641 25.56 Z" fill="#FF4702"></path><path d="M 41.225 22.24 C 39.846 22.24 38.626 21.933 37.565 21.32 C 36.517 20.693 35.689 19.84 35.078 18.76 C 34.482 17.667 34.183 16.413 34.183 15 C 34.183 13.587 34.482 12.34 35.078 11.26 C 35.689 10.167 36.517 9.313 37.565 8.7 C 38.626 8.073 39.846 7.76 41.225 7.76 C 42.233 7.76 43.154 7.94 43.99 8.3 C 44.839 8.647 45.568 9.14 46.178 9.78 C 46.798 10.416 47.285 11.171 47.61 12 L 44.606 13.02 C 44.415 12.564 44.138 12.15 43.791 11.8 C 43.465 11.457 43.072 11.185 42.637 11 C 42.213 10.813 41.742 10.72 41.225 10.72 C 40.496 10.72 39.846 10.9 39.275 11.26 C 38.705 11.62 38.261 12.127 37.943 12.78 C 37.625 13.42 37.465 14.16 37.465 15 C 37.465 15.84 37.625 16.587 37.943 17.24 C 38.274 17.88 38.725 18.387 39.295 18.76 C 39.879 19.12 40.542 19.3 41.284 19.3 C 41.828 19.3 42.312 19.2 42.737 19 C 43.161 18.8 43.526 18.52 43.831 18.16 C 44.149 17.8 44.421 17.387 44.646 16.92 L 47.65 17.94 C 47.338 18.783 46.857 19.552 46.237 20.2 C 45.614 20.84 44.878 21.34 44.029 21.7 C 43.181 22.06 42.246 22.24 41.225 22.24 Z M 53.071 22.24 C 52.024 22.24 51.102 22.02 50.306 21.58 C 49.511 21.127 48.881 20.507 48.417 19.72 C 47.966 18.933 47.74 18.027 47.74 17 C 47.74 15.973 47.959 15.067 48.397 14.28 C 48.848 13.493 49.471 12.88 50.267 12.44 C 51.076 11.987 51.991 11.76 53.012 11.76 C 54.059 11.76 54.981 11.987 55.776 12.44 C 56.585 12.88 57.209 13.493 57.646 14.28 C 58.097 15.067 58.322 15.973 58.322 17 C 58.322 18.027 58.097 18.933 57.646 19.72 C 57.209 20.507 56.592 21.127 55.796 21.58 C 55.001 22.02 54.092 22.24 53.071 22.24 Z M 53.071 19.36 C 53.469 19.36 53.821 19.26 54.125 19.06 C 54.444 18.86 54.689 18.587 54.861 18.24 C 55.047 17.88 55.14 17.467 55.14 17 C 55.14 16.533 55.047 16.127 54.861 15.78 C 54.689 15.42 54.444 15.14 54.125 14.94 C 53.807 14.74 53.443 14.64 53.031 14.64 C 52.62 14.64 52.256 14.74 51.937 14.94 C 51.619 15.14 51.367 15.42 51.182 15.78 C 51.009 16.127 50.923 16.533 50.923 17 C 50.923 17.467 51.009 17.88 51.182 18.24 C 51.367 18.587 51.619 18.86 51.937 19.06 C 52.269 19.26 52.647 19.36 53.071 19.36 Z M 65.981 22 L 65.842 20.14 L 65.842 8 L 68.945 8 L 68.945 22 Z M 63.018 22.24 C 62.089 22.24 61.287 22.033 60.611 21.62 C 59.948 21.193 59.43 20.587 59.059 19.8 C 58.701 19.013 58.522 18.08 58.522 17 C 58.522 15.907 58.701 14.973 59.059 14.2 C 59.43 13.413 59.948 12.813 60.611 12.4 C 61.287 11.973 62.089 11.76 63.018 11.76 C 63.84 11.76 64.529 11.973 65.086 12.4 C 65.656 12.813 66.081 13.413 66.359 14.2 C 66.638 14.973 66.777 15.907 66.777 17 C 66.777 18.08 66.638 19.013 66.359 19.8 C 66.081 20.587 65.656 21.193 65.086 21.62 C 64.529 22.033 63.84 22.24 63.018 22.24 Z M 63.833 19.36 C 64.217 19.36 64.562 19.26 64.867 19.06 C 65.172 18.86 65.411 18.587 65.583 18.24 C 65.756 17.88 65.842 17.467 65.842 17 C 65.842 16.533 65.756 16.127 65.583 15.78 C 65.411 15.42 65.172 15.14 64.867 14.94 C 64.562 14.74 64.211 14.64 63.813 14.64 C 63.415 14.64 63.064 14.74 62.759 14.94 C 62.454 15.14 62.208 15.42 62.023 15.78 C 61.85 16.127 61.758 16.533 61.744 17 C 61.758 17.467 61.85 17.88 62.023 18.24 C 62.208 18.587 62.454 18.86 62.759 19.06 C 63.077 19.26 63.435 19.36 63.833 19.36 Z M 74.944 22.24 C 73.91 22.24 72.995 22.02 72.199 21.58 C 71.404 21.14 70.781 20.527 70.329 19.74 C 69.879 18.953 69.653 18.04 69.653 17 C 69.653 15.96 69.879 15.047 70.329 14.26 C 70.781 13.473 71.404 12.86 72.199 12.42 C 73.008 11.98 73.936 11.76 74.984 11.76 C 75.926 11.76 76.774 11.987 77.53 12.44 C 78.286 12.893 78.883 13.573 79.32 14.48 C 79.771 15.373 79.997 16.48 79.997 17.8 L 72.518 17.8 L 72.856 17.42 C 72.856 17.873 72.949 18.273 73.134 18.62 C 73.32 18.967 73.578 19.233 73.91 19.42 C 74.242 19.593 74.613 19.68 75.024 19.68 C 75.515 19.68 75.926 19.573 76.257 19.36 C 76.589 19.133 76.821 18.853 76.953 18.52 L 79.718 19.46 C 79.453 20.1 79.075 20.627 78.584 21.04 C 78.107 21.453 77.557 21.76 76.933 21.96 C 76.31 22.147 75.647 22.24 74.944 22.24 Z M 72.935 16.14 L 72.617 15.72 L 77.073 15.72 L 76.774 16.14 C 76.774 15.633 76.675 15.24 76.476 14.96 C 76.277 14.667 76.032 14.453 75.74 14.32 C 75.461 14.187 75.176 14.12 74.885 14.12 C 74.593 14.12 74.295 14.187 73.989 14.32 C 73.698 14.453 73.446 14.667 73.234 14.96 C 73.035 15.24 72.935 15.633 72.935 16.14 Z M 80.843 22 L 80.843 8 L 86.313 8 C 87.321 8 88.216 8.2 88.999 8.6 C 89.781 8.987 90.391 9.533 90.829 10.24 C 91.28 10.933 91.505 11.733 91.505 12.64 C 91.505 13.547 91.28 14.353 90.829 15.06 C 90.378 15.767 89.755 16.32 88.959 16.72 C 88.177 17.107 87.275 17.3 86.254 17.3 L 84.046 17.3 L 84.046 22 Z M 88.402 22 L 85.259 16.44 L 87.666 14.66 L 92.062 22 Z M 84.046 14.34 L 86.214 14.34 C 86.585 14.34 86.917 14.267 87.209 14.12 C 87.5 13.973 87.726 13.773 87.885 13.52 C 88.056 13.259 88.146 12.953 88.143 12.64 C 88.143 12.147 87.958 11.74 87.587 11.42 C 87.228 11.1 86.751 10.94 86.154 10.94 L 84.046 10.94 Z M 98.632 22 L 98.533 19.84 L 98.533 17.02 C 98.533 16.487 98.486 16.02 98.393 15.62 C 98.314 15.22 98.148 14.913 97.896 14.7 C 97.657 14.473 97.306 14.36 96.842 14.36 C 96.471 14.36 96.146 14.447 95.867 14.62 C 95.589 14.793 95.35 15.027 95.151 15.32 L 92.426 14.42 C 92.665 13.926 92.981 13.474 93.361 13.08 C 93.759 12.68 94.243 12.36 94.813 12.12 C 95.383 11.88 96.046 11.76 96.802 11.76 C 97.836 11.76 98.712 11.953 99.428 12.34 C 100.144 12.727 100.681 13.267 101.039 13.96 C 101.397 14.653 101.576 15.473 101.576 16.42 L 101.536 22 Z M 95.907 22.24 C 94.74 22.24 93.832 21.98 93.182 21.46 C 92.532 20.927 92.207 20.167 92.207 19.18 C 92.207 18.127 92.545 17.34 93.222 16.82 C 93.898 16.3 94.846 16.04 96.066 16.04 L 98.791 16.04 L 98.791 18.06 L 97.22 18.06 C 96.57 18.06 96.099 18.153 95.808 18.34 C 95.516 18.513 95.37 18.767 95.37 19.1 C 95.37 19.34 95.476 19.533 95.688 19.68 C 95.914 19.813 96.219 19.88 96.603 19.88 C 96.988 19.88 97.319 19.8 97.598 19.64 C 97.889 19.467 98.115 19.24 98.274 18.96 C 98.446 18.68 98.533 18.38 98.533 18.06 L 99.328 18.06 C 99.328 19.38 99.043 20.407 98.473 21.14 C 97.916 21.873 97.061 22.24 95.907 22.24 Z M 102.671 22 L 102.671 8 L 105.774 8 L 105.774 20.14 L 105.615 22 Z M 108.598 22.24 C 107.776 22.24 107.087 22.033 106.53 21.62 C 105.973 21.193 105.555 20.587 105.276 19.8 C 104.998 19.013 104.859 18.08 104.859 17 C 104.859 15.907 104.998 14.973 105.276 14.2 C 105.555 13.413 105.973 12.813 106.53 12.4 C 107.087 11.973 107.776 11.76 108.598 11.76 C 109.526 11.76 110.329 11.973 111.005 12.4 C 111.681 12.813 112.199 13.413 112.557 14.2 C 112.915 14.973 113.094 15.907 113.094 17 C 113.094 18.08 112.915 19.013 112.557 19.8 C 112.199 20.587 111.681 21.193 111.005 21.62 C 110.329 22.033 109.526 22.24 108.598 22.24 Z M 107.803 19.36 C 108.2 19.36 108.552 19.26 108.857 19.06 C 109.162 18.86 109.407 18.587 109.593 18.24 C 109.779 17.88 109.871 17.467 109.871 17 C 109.871 16.533 109.785 16.127 109.613 15.78 C 109.44 15.42 109.195 15.14 108.877 14.94 C 108.572 14.74 108.22 14.64 107.822 14.64 C 107.425 14.64 107.067 14.74 106.748 14.94 C 106.443 15.14 106.205 15.42 106.032 15.78 C 105.86 16.14 105.774 16.547 105.774 17 C 105.774 17.467 105.86 17.88 106.032 18.24 C 106.205 18.587 106.443 18.86 106.748 19.06 C 107.053 19.26 107.405 19.36 107.803 19.36 Z M 113.802 22 L 113.802 8 L 116.905 8 L 116.905 20.14 L 116.746 22 Z M 119.73 22.24 C 118.907 22.24 118.218 22.033 117.661 21.62 C 117.104 21.193 116.686 20.587 116.408 19.8 C 116.129 19.013 115.99 18.08 115.99 17 C 115.99 15.907 116.129 14.973 116.408 14.2 C 116.686 13.413 117.104 12.813 117.661 12.4 C 118.218 11.973 118.907 11.76 119.73 11.76 C 120.658 11.76 121.46 11.973 122.136 12.4 C 122.813 12.813 123.33 13.413 123.688 14.2 C 124.046 14.973 124.225 15.907 124.225 17 C 124.225 18.08 124.046 19.013 123.688 19.8 C 123.33 20.587 122.813 21.193 122.136 21.62 C 121.46 22.033 120.658 22.24 119.73 22.24 Z M 118.934 19.36 C 119.332 19.36 119.683 19.26 119.988 19.06 C 120.293 18.86 120.538 18.587 120.724 18.24 C 120.91 17.88 121.003 17.467 121.003 17 C 121.003 16.533 120.916 16.127 120.744 15.78 C 120.571 15.42 120.326 15.14 120.008 14.94 C 119.703 14.74 119.352 14.64 118.954 14.64 C 118.556 14.64 118.198 14.74 117.88 14.94 C 117.575 15.14 117.336 15.42 117.164 15.78 C 116.991 16.14 116.905 16.547 116.905 17 C 116.905 17.467 116.991 17.88 117.164 18.24 C 117.336 18.587 117.575 18.86 117.88 19.06 C 118.185 19.26 118.536 19.36 118.934 19.36 Z M 125.112 22 L 125.112 12 L 128.215 12 L 128.215 22 Z M 126.664 10.72 C 126.2 10.72 125.788 10.547 125.43 10.2 C 125.086 9.84 124.913 9.427 124.913 8.96 C 124.913 8.467 125.086 8.053 125.43 7.72 C 125.788 7.373 126.2 7.2 126.664 7.2 C 127.141 7.2 127.552 7.373 127.897 7.72 C 128.242 8.053 128.414 8.467 128.414 8.96 C 128.414 9.427 128.242 9.84 127.897 10.2 C 127.552 10.547 127.141 10.72 126.664 10.72 Z M 133.911 22.24 C 132.731 22.24 131.849 21.96 131.266 21.4 C 130.696 20.827 130.411 20.013 130.411 18.96 L 130.411 8.88 L 133.514 8.88 L 133.514 18.18 C 133.514 18.58 133.586 18.873 133.732 19.06 C 133.878 19.247 134.104 19.34 134.409 19.34 C 134.528 19.34 134.667 19.313 134.826 19.26 C 134.98 19.196 135.127 19.116 135.264 19.02 L 136.338 21.3 C 136.02 21.567 135.635 21.793 135.184 21.98 C 134.747 22.153 134.322 22.24 133.911 22.24 Z M 128.859 14.62 L 128.859 12 L 135.781 12 L 135.781 14.62 Z" fill="#FF4702"></path></svg></defs><use href="#svg9245165025"></use></svg>