<?xml version="1.0" encoding="UTF-8" standalone="no"?>
<!-- Generator: Adobe Illustrator 21.0.0, SVG Export Plug-In . SVG Version: 6.00 Build 0)  -->

<svg
        xmlns:dc="http://purl.org/dc/elements/1.1/"
        xmlns:cc="http://creativecommons.org/ns#"
        xmlns:rdf="http://www.w3.org/1999/02/22-rdf-syntax-ns#"
        xmlns="http://www.w3.org/2000/svg"
        xmlns:sodipodi="http://sodipodi.sourceforge.net/DTD/sodipodi-0.dtd"
        xmlns:inkscape="http://www.inkscape.org/namespaces/inkscape"
        version="1.1"
        id="BUAA"
        x="0px"
        y="0px"
        viewBox="0 0 213 213"
        enable-background="new 0 0 233 43"
        xml:space="preserve"
        sodipodi:docname="Beihang_University_Logo.svg"
        inkscape:version="0.92.0 r15299"
        width="80"
        height="80"><metadata
     id="metadata137"><rdf:RDF><cc:Work
         rdf:about=""><dc:format>image/svg+xml</dc:format><dc:type
           rdf:resource="http://purl.org/dc/dcmitype/StillImage" /><dc:title></dc:title></cc:Work></rdf:RDF></metadata><defs
     id="defs135" /><sodipodi:namedview
     pagecolor="#ffffff"
     bordercolor="#666666"
     borderopacity="1"
     objecttolerance="10"
     gridtolerance="10"
     guidetolerance="10"
     inkscape:pageopacity="0"
     inkscape:pageshadow="2"
     inkscape:window-width="1920"
     inkscape:window-height="1001"
     id="namedview133"
     showgrid="false"
     inkscape:zoom="7.72"
     inkscape:cx="139.32185"
     inkscape:cy="156.21503"
     inkscape:window-x="-9"
     inkscape:window-y="-9"
     inkscape:window-maximized="1"
     inkscape:current-layer="BUAA" /><path
     d="m 92.764995,162.1091 2.34659,-1.1385 h 0.23465 v 8.1184 c 0,0.53385 0.025,0.87365 0.0649,1.00835 0.05,0.13 0.14475,0.2295 0.28465,0.2995 0.14475,0.075 0.4342,0.1095 0.868715,0.125 v 0.2645 h -3.624715 v -0.2645 c 0.45435,-0.015 0.74385,-0.05 0.878695,-0.115 0.13485,-0.0745 0.22465,-0.1645 0.2796,-0.279 0.05,-0.115 0.0749,-0.4645 0.0749,-1.03855 v -5.18775 c 0,-0.69875 -0.02,-1.1531 -0.06985,-1.34785 -0.035,-0.155 -0.09485,-0.265 -0.1847,-0.3345 -0.08495,-0.075 -0.1898,-0.11 -0.3096,-0.11 -0.1798,0 -0.42445,0.0745 -0.733945,0.2245 z"
     id="path32"
     inkscape:connector-curvature="0"
     style="fill:#01519a;stroke-width:4.99273348" /><path
     d="m 99.420345,170.9009 v -0.264 c 0.614035,-0.005 1.188305,-0.1495 1.722425,-0.4195 0.52924,-0.2795 1.04347,-0.7685 1.5328,-1.4578 0.4992,-0.689 0.84388,-1.4481 1.03845,-2.2767 -0.74385,0.4795 -1.41289,0.714 -2.01702,0.714 -0.67894,0 -1.26319,-0.2595 -1.74246,-0.774 -0.4843,-0.52905 -0.723965,-1.2281 -0.723965,-2.0868 0,-0.83865 0.23965,-1.59285 0.723965,-2.2468 0.58417,-0.7987 1.34296,-1.1982 2.28169,-1.1982 0.79383,0 1.46789,0.3245 2.03195,0.9736 0.69402,0.81365 1.03853,1.80735 1.03853,3.0004 0,1.0635 -0.2596,2.06215 -0.7888,2.98575 -0.52422,0.9188 -1.25809,1.6876 -2.19186,2.2965 -0.76892,0.5046 -1.60267,0.7539 -2.501325,0.7539 h -0.40435 z m 4.408565,-4.94275 c 0.0849,-0.6137 0.1298,-1.1031 0.1298,-1.47245 0,-0.4595 -0.08,-0.9538 -0.23465,-1.48285 -0.1598,-0.5345 -0.37945,-0.94405 -0.67407,-1.22835 -0.2796,-0.2845 -0.60413,-0.4245 -0.97362,-0.4245 -0.4193,0 -0.7888,0.1845 -1.10831,0.56925 -0.31465,0.3745 -0.4743,0.94345 -0.4743,1.6827 0,1.0032 0.20965,1.78755 0.63414,2.34645 0.3044,0.4045 0.6839,0.60885 1.13818,0.60885 0.21485,0 0.47445,-0.05 0.77387,-0.1595 0.29955,-0.0995 0.56428,-0.2495 0.78895,-0.4395"
     id="path34"
     inkscape:connector-curvature="0"
     style="fill:#01519a;stroke-width:4.99273348" /><path
     d="m 113.34997,161.1702 -0.55416,1.2086 h -2.90075 l -0.62897,1.2881 c 1.24803,0.1845 2.24664,0.64875 2.98059,1.3978 0.63415,0.6393 0.94863,1.3981 0.94863,2.27175 0,0.50435 -0.0999,0.96845 -0.3096,1.4027 -0.20965,0.4295 -0.46925,0.79415 -0.7789,1.09855 -0.30955,0.2995 -0.65898,0.54425 -1.0434,0.72925 -0.54928,0.2595 -1.10344,0.389 -1.68258,0.389 -0.57427,0 -0.99861,-0.0945 -1.26311,-0.29 -0.25965,-0.1995 -0.38945,-0.414 -0.38945,-0.6488 0,-0.14 0.0549,-0.2545 0.1647,-0.3495 0.10485,-0.1095 0.24455,-0.1595 0.41445,-0.1595 0.11485,0 0.22455,0.02 0.31955,0.0595 0.0948,0.035 0.24975,0.1345 0.4743,0.2895 0.3544,0.2495 0.71391,0.3695 1.07844,0.3695 0.55416,0 1.04349,-0.2095 1.45785,-0.6241 0.4194,-0.4245 0.63399,-0.9334 0.63399,-1.5328 0,-0.579 -0.1896,-1.12325 -0.56406,-1.6227 -0.36945,-0.5092 -0.88875,-0.89835 -1.54789,-1.1732 -0.51911,-0.2095 -1.21809,-0.3345 -2.11179,-0.3695 l 1.84728,-3.7348 z"
     id="path36"
     inkscape:connector-curvature="0"
     style="fill:#01519a;stroke-width:4.99273348" /><path
     d="m 121.69787,168.93415 -0.67902,1.8522 h -5.69164 v -0.2645 c 1.67748,-1.5179 2.8558,-2.7609 3.53482,-3.72965 0.68397,-0.96385 1.0284,-1.84725 1.0284,-2.64595 0,-0.6095 -0.18965,-1.10865 -0.56406,-1.4981 -0.3745,-0.399 -0.82384,-0.58935 -1.34311,-0.58935 -0.4743,0 -0.89866,0.14 -1.2782,0.42 -0.3794,0.2695 -0.65396,0.67895 -0.83374,1.208 h -0.2645 c 0.1198,-0.874 0.42435,-1.54255 0.91358,-2.01215 0.48935,-0.469 1.10344,-0.69875 1.84234,-0.69875 0.7789,0 1.43292,0.2445 1.95219,0.749 0.52924,0.499 0.7888,1.0879 0.7888,1.77235 0,0.484 -0.1098,0.9733 -0.33945,1.45785 -0.35455,0.76365 -0.91869,1.57755 -1.70254,2.43115 -1.18327,1.2884 -1.92217,2.0673 -2.21677,2.3269 h 2.51633 c 0.51423,0 0.87374,-0.015 1.07844,-0.055 0.2047,-0.04 0.39445,-0.115 0.55423,-0.2295 0.16975,-0.12 0.3145,-0.2795 0.43935,-0.4945 z"
     id="path38"
     inkscape:connector-curvature="0"
     style="fill:#01519a;stroke-width:4.99273348" /><path
     d="m 195.72015,84.60135 c -0.4743,0.03 -0.95365,0.0645 -0.98855,-0.4195 -0.98855,-0.4145 -2.20679,-4.18885 -2.2717,-5.14755 -0.035,-0.4745 0.84875,-1.50295 0.37445,-1.47305 -0.03,-0.474 -0.54417,-0.92335 -0.54417,-0.92335 -0.50929,-0.4495 -0.54426,-0.92885 -0.57922,-1.41335 -0.47426,0.04 -0.47426,0.04 -0.98353,-0.4095 l -0.50921,-0.4445 c -0.51439,-0.4545 -0.54424,-0.9285 -1.05848,-1.378 -0.03,-0.4795 -0.50929,-0.4445 -0.54426,-0.9285 -0.4743,0.03 -0.98855,-0.4145 -1.02359,-0.8886 -0.47425,0.03 -2.48129,-1.27835 -2.51625,-1.75285 -0.60909,-1.89235 4.19388,-1.7473 4.74308,-0.8185 0.53922,0.9285 -0.89378,1.02815 -0.82369,1.98685 0.4792,-0.03 0.4443,-0.5144 0.92357,-0.54425 0.4743,-0.035 0.91868,-0.54425 1.87227,-0.61375 l 0.44435,-0.5095 c 0.4743,-0.035 0.91862,-0.5491 0.91862,-0.5491 0.4443,-0.5144 1.36307,-1.06355 1.84234,-1.09825 -0.03,-0.4745 0.4494,-0.50955 0.4494,-0.50955 0.50921,0.4445 0.50921,0.4445 0.5441,0.92885 -0.4094,0.9934 -1.77735,2.05695 -2.73596,2.11665 -0.95358,0.07 -1.39804,0.5845 -2.35154,0.6491 0.035,0.4795 -0.4444,0.5144 -0.4444,0.5144 0,0 -0.43935,0.5092 0.035,0.4795 0.035,0.4795 0.50921,0.4445 0.50921,0.4445 0.4443,-0.5141 0.92364,-0.5446 1.39796,-0.5842 0.4743,-0.03 0.4743,-0.03 0.95365,-0.0595 -0.03,-0.4795 0.4443,-0.5144 0.92365,-0.5491 0.4394,-0.5096 0.4394,-0.5096 0.91874,-0.5443 0.47925,-0.03 0.44935,-0.5144 0.9286,-0.54425 0.94863,-0.07 1.46287,0.379 1.01354,0.89345 0.035,0.4795 -0.4094,0.98855 -0.8787,1.0236 0,0 -0.47935,0.03 -0.95869,0.065 0.03,0.4845 -0.44925,0.51925 -0.91861,0.54915 0,0 -0.47925,0.03 -0.95861,0.07 l -0.47925,0.03 c 0,0 -0.4394,0.5092 -0.91869,0.54425 0,0 -0.47925,0.035 -0.4443,0.51435 l 0.47425,-0.035 c 0.47935,-0.03 0.98863,0.4145 1.4679,0.3795 0,0 0.4394,-0.5144 0.92364,-0.54425 0.50418,0.4445 0.07,0.96355 0.53923,0.92855 0,0 0.50928,0.4445 0.47935,-0.035 0,0 -0.51439,-0.4495 -0.5492,-0.92365 -0.03,-0.4845 0.92859,-0.54915 1.40291,-0.5845 l 0.43935,-0.5089 0.47935,-0.035 c 0.035,0.4795 0.0699,0.96355 0.58409,1.40815 0.98353,0.4145 2.31658,-1.1284 2.8958,0.2795 0.035,0.4845 0.0699,0.9587 0.0999,1.44325 -0.44435,0.51405 -0.88868,1.0233 -1.88233,0.6137 -0.50418,-0.449 -0.0597,-0.96355 -1.01347,-0.89835 l -0.4843,0.035 c 0.035,0.4795 -0.43935,0.5144 -0.40435,0.99345 -0.44435,0.5144 -1.46789,-0.379 -1.94716,-0.3495 -0.47425,0.035 -0.47425,0.035 -0.95374,0.07 l 0.035,0.484 -0.47935,0.03 c -0.4443,0.5095 -0.3794,1.47305 0.57922,1.4033 0.47925,-0.03 0.4444,-0.5092 0.41435,-0.98885 l 0.46925,-0.04 c 0.51431,0.449 0.57914,1.40295 1.53783,1.34295 -0.035,-0.4795 0.37435,-1.4728 0.81882,-1.9823 0.95358,-0.07 0.61403,1.87745 1.59763,2.29705 l 0.92357,-0.5494 c 0.4744,-0.03 0.4094,-0.9834 0.4094,-0.9834 l 0.47935,-0.04 c 0.035,0.4845 0.50936,0.4445 0.50936,0.4445 0.51423,0.4445 1.02344,0.89865 1.53265,1.34325 0,0 0.065,0.9587 0.1,1.43775 l 0.03,0.4845 c -0.88364,1.02815 -1.90213,0.13 -2.89571,-0.2795 0,0 -0.95359,0.065 -1.43293,0.1 -0.4744,0.03 -0.95358,0.0595 -1.46287,-0.3845 -0.4744,0.035 -0.95358,0.065 -1.43293,0.095 -0.47925,0.04 -0.47925,0.04 -0.98352,-0.4045 l 0.03,0.474 0.035,0.4845 c 0.50418,0.4445 1.01857,0.89375 1.05346,1.3731 0.51423,0.449 0.57914,1.4079 0.1648,2.39645 0,0 -0.47935,0.035 -0.44435,0.51925"
     id="path40"
     inkscape:connector-curvature="0"
     style="fill:#01519a;stroke-width:4.99273348" /><path
     d="m 188.87511,82.66325 c -1.4679,-0.3795 -1.0236,-0.8938 -1.57273,-1.8223 -0.03,-0.4795 -0.50426,-0.45 -0.53922,-0.9288 0,0 -0.035,-0.479 -0.54425,-0.92365 -0.47425,0.03 -1.39789,0.5744 -1.87715,0.60915 l -0.4443,0.51925 c -0.4744,0.03 -0.4744,0.03 -0.95374,0.065 -0.91854,0.54395 -4.35866,-0.664 -4.42852,-1.6227 0.41435,-0.9983 1.23317,-2.98055 2.15681,-3.53 0,0 0.4394,-0.5144 0.46925,-0.03 0.51926,0.4445 0.54928,0.9282 0.58417,1.40235 0.03,0.485 0.03,0.485 0.51431,0.449 0.5342,0.9337 0.56916,1.4079 1.49281,0.86395 0.4743,-0.03 0.95861,-0.07 1.43293,-0.0995 0.37945,-1.47795 -2.14189,-3.2305 -1.79739,-5.1826 0.4743,-0.035 0.4444,-0.5141 0.91862,-0.54945 0,0 0.51431,0.4445 0.5492,0.92885 0.46935,-0.03 0.50433,0.445 0.53922,0.9288 0.035,0.474 0.61412,1.88265 0.64908,2.36655 0.50426,0.449 1.4279,-0.1 1.90222,-0.135 0.4843,-0.03 0.4843,-0.03 0.95854,-0.07 l -0.50921,-0.4445 c -0.51424,-0.444 -0.54913,-0.92395 -1.02345,-0.88855 -0.0649,-0.9639 -0.13485,-1.92195 0.82377,-1.99235 l 0.50929,0.4445 c 0.03,0.485 0.0998,1.44805 0.609,1.89235 0.51431,0.4445 0.54425,0.92855 1.05849,1.378 0.50928,0.4445 1.01857,0.8941 1.49288,0.86365 0.035,0.474 0.61411,1.87715 0.16975,2.3915 0,0 -0.4743,0.04 -0.95358,0.0705 -0.035,-0.48 -0.50929,-0.45 -0.54433,-0.9291 -0.50913,-0.449 -2.49126,-1.2683 -2.49126,-1.2683 -0.40435,0.98365 0.61411,1.87715 1.15821,2.8066 0,0 0.035,0.484 0.54433,0.9282 0,0 0.035,0.479 -0.44435,0.51925 0.035,0.474 -0.43935,0.50465 -0.4094,0.98855"
     id="path42"
     inkscape:connector-curvature="0"
     style="fill:#01519a;stroke-width:4.99273348" /><path
     d="m 176.28845,62.6003 c -0.95862,-0.025 -1.88729,-1.0184 -2.33662,-1.99235 -0.4743,-0.015 -0.9436,-0.5089 -0.92364,-0.98825 -0.46935,-0.4945 -0.93865,-0.99375 -0.93865,-0.99375 l 0.015,-0.474 c 0.015,-0.4845 0.03,-0.96355 0.04,-1.44805 0.03,-0.9584 0.0597,-1.92195 0.0698,-2.4013 0.015,-0.4845 0.59416,-3.83445 0.59416,-3.83445 -0.46435,-0.4995 -1.43293,-0.045 -1.92721,0.4245 -0.4792,-0.015 -0.95366,-0.03 -1.43788,-0.045 -0.96859,0.4545 -1.92217,0.4295 -2.38651,-0.07 -0.95861,-0.025 -1.88728,-1.01355 -2.33661,-1.99205 0.015,-0.4795 -0.46935,-0.4895 -0.4543,-0.9736 -0.44445,-0.9785 0.9884,-0.9389 1.46774,-0.91875 0.46445,0.494 0.92868,0.98855 1.39293,1.4828 1.418,0.52415 3.81464,0.58905 4.79801,-0.3395 l 0.015,-0.484 c 0.01,-0.4795 0.01,-0.4795 -0.4643,-0.4995 -0.44935,-0.9785 -0.91869,-1.4627 -1.85224,-2.4613 l -0.4594,-0.4895 c 0,0 0.015,-0.484 0.03,-0.9584 0,0 0.015,-0.4845 0.48935,-0.4745 0.01,-0.4795 0.98353,-0.9334 1.45289,-0.4395 0.47425,0.015 0.4643,0.4995 0.92357,0.9986 l 0.4644,0.4895 c 0,0 0.4643,0.4945 0.92859,0.98855 0,0 0.4843,0.015 0.95862,0.03 0.4643,0.4945 0.45435,0.97395 1.40786,0.9986 0.47935,0.02 1.95729,-1.38805 1.9672,-1.8622 0.50928,-0.9538 0.53419,-1.91735 1.97215,-1.87745 0.015,-0.474 0.48935,-0.464 0.48935,-0.464 0.4643,0.499 0.4643,0.499 0.9436,0.5092 -0.015,0.4795 -0.025,0.96355 0.43935,1.4627 -0.015,0.4745 0.4594,0.4895 0.44435,0.97365 l -0.015,0.474 c -0.51431,1.43315 -1.48778,1.8875 -2.44144,1.86255 -0.47935,-0.015 -0.95861,-0.03 -0.97354,0.449 -0.96867,0.4545 0.93362,0.98885 0.93362,0.98885 0.95359,0.035 2.3565,1.03335 1.85719,1.982 -0.4792,-0.015 -0.4792,-0.015 0,0 -0.4942,0.4695 -0.03,0.96355 -0.52413,1.42765 -0.4943,0.4695 -1.43293,-0.04 -1.89727,-0.5339 0,0 -0.4643,-0.4895 -0.9436,-0.5095 0.015,-0.479 -1.40794,-0.9983 -1.89727,-0.53905 0,0 -0.4993,0.4745 -0.5092,0.9486 -0.50426,0.95385 -0.0849,2.8907 -0.1298,4.3336 0.46925,0.4995 -0.025,0.9587 0.43935,1.45815 -0.04,1.43775 -0.065,2.4013 -0.10985,3.8494 0.46435,0.489 0.44935,0.9733 0.4343,1.44775 z"
     id="path44"
     inkscape:connector-curvature="0"
     style="fill:#01519a;stroke-width:4.99273348" /><path
     d="m 156.19265,42.97735 c -1.89719,-0.225 -4.69311,-1.0434 -5.95135,-2.6411 -0.4194,-0.5342 -0.7789,-1.54775 -1.19821,-2.08225 -0.30944,-1.4877 -0.55423,-3.45475 -1.33304,-5.00245 l 0.0549,-0.479 c -0.4744,-0.055 -0.41935,-0.5345 -0.89369,-0.58935 -0.5892,0.89865 -1.59268,1.2683 -2.54634,1.1531 -1.4778,0.3145 -3.85441,0.03 -4.74803,-0.5589 -0.4194,-0.53935 -0.89371,-0.5942 -0.83878,-1.07355 0.0548,-0.4745 0.58402,-0.89865 0.58402,-0.89865 0.47935,0.055 1.37312,0.64905 1.84744,0.7088 0.9436,0.11 3.43495,-0.56405 3.96914,-0.98855 0.52924,-0.424 -0.71902,-2.0271 -0.66888,-2.50125 -0.4795,-0.0595 0.11975,-0.9587 0.64908,-1.378 1.05338,-0.8435 3.15519,1.8272 3.80938,0.449 0.57914,-0.89835 0.22465,-1.9119 0.2796,-2.39155 -0.4294,-0.5339 -1.25824,-1.5974 -0.1948,-2.4464 0,0 0.4744,0.055 0.94863,0.115 0.4643,0.055 1.36307,0.64905 2.32168,0.7588 0.47425,0.055 0.94863,0.115 1.89223,0.2245 0.95861,0.115 2.38156,0.2795 2.79082,0.81395 0.42955,0.5339 0.42955,0.5339 0.3745,1.01355 -0.0648,0.474 -0.65411,1.3728 -1.12828,1.31765 l -0.4743,-0.055 -0.0549,0.4795 c -0.4795,-0.055 -1.48282,0.3045 -1.95729,0.2495 -0.47425,-0.055 -0.89363,-0.5839 -1.42797,-0.1645 l -0.0549,0.4795 c -0.0548,0.4745 0.41945,0.5342 0.41945,0.5342 0.89363,0.58935 2.3216,0.7539 2.68103,1.76745 0.83383,1.0684 -0.649,1.378 -1.11334,1.32315 -1.49288,0.3095 -2.79592,-0.8188 -3.86446,0.025 -0.46925,-0.055 -0.1696,1.43775 0.30465,1.4926 0.36435,1.0135 0.24965,1.9722 0.66896,2.50155 0.36445,1.0135 0.72907,2.0219 1.6227,2.6161 0.3544,1.00865 1.19325,2.08195 2.50627,3.2003 -0.0549,0.4795 0.89378,0.59425 0.83885,1.0684 l 0.4194,0.5345 c -0.47935,-0.0605 -0.53427,0.424 -0.53427,0.424"
     id="path46"
     inkscape:connector-curvature="0"
     style="fill:#01519a;stroke-width:4.99273348" /><path
     d="m 88.650955,28.78415 c -0.95869,0 -1.432855,0 -1.432855,-0.4795 -0.4743,-1.9271 0.95854,-1.9271 1.9122,-1.9271 0.47925,0 1.433005,-0.479 1.917225,-0.9587 0,0 0.4743,0 0.4743,-0.484 0,-0.4795 -0.958535,-0.9636 -1.43293,-1.44325 v -0.96355 c 0,0 -0.47935,-0.479 0,-0.479 0,-0.4795 0.4744,-0.4795 0.958615,-0.4795 0,-0.484 0.4743,-0.484 0.95861,-0.96355 0,-0.4795 0.47425,-0.96385 0.958535,-1.4429 0.47425,-0.96845 0.47425,-1.9271 0.948625,-2.8904 0.47935,-0.48 0.963645,-0.48 1.43796,-0.48 0.4743,0 1.44291,-0.96355 1.44291,-1.44775 0,0 0,-0.479 -0.48425,-0.479 -0.4844,0.479 -0.95869,0.479 -1.433005,0.479 -0.4843,0.484 -0.963645,0.484 -1.43803,0.96415 0,0 -0.47425,0 -0.958535,0.4835 -0.47425,0 -0.958535,0.48 -1.91707,0.9636 -0.4744,0.4795 -1.91235,0.9593 -2.38667,1.4383 -0.48435,0 -0.48435,0.484 -0.48435,0.484 -0.47415,0.4845 -0.94848,0.96355 -1.422795,1.44805 h -0.4844 l -0.4842,-0.4845 c -0.47425,-0.479 -0.95363,-0.96355 -0.95363,-1.9265 0,-0.9593 1.92225,-3.37065 2.87088,-3.37065 0.47415,-0.479 0.958535,0.484 0.47415,0.484 v 0.96355 c 0.48435,0.48 2.87104,-0.96355 2.87104,-0.96355 0.48425,0 0.48425,-0.484 0.958535,-0.484 -0.958535,0 -0.958535,-0.9584 -1.43293,-1.4429 0,0 -0.47935,-0.479 -0.95861,-0.479 0,-0.4795 -0.47935,-0.4795 -0.47935,-0.4795 -0.4743,-0.479 0.95861,-0.96295 1.437955,-1.4426 0.4744,0 1.43293,0 2.391465,-0.484 0.4843,0 0.958535,0.484 1.43292,0.96355 0.47935,0.484 0.963645,1.4426 0.47935,1.92165 0,0.4845 -0.47935,0.4845 -0.47935,0.4845 0.963645,0 1.43796,0 2.39665,-0.4845 h 0.958535 c 0.47415,0 0.958535,-0.479 1.43285,-0.479 0.953655,-0.4795 1.437955,0.479 1.912195,0.96355 0.48435,0.4795 0.95869,0.9584 0.95869,1.4426 -0.95869,0.48 -0.95869,0.96355 -1.91723,0.96355 h -0.4743 -0.953655 -0.48435 c -0.47415,0.48 -0.47415,0.48 -0.94848,0.48 h -0.48425 c -0.4844,0 0,0.4835 0,0.9633 v 0.4795 c -0.4844,0.479 -0.95869,0.96295 -1.433005,0.96295 -0.96364,0.4845 -1.43803,1.44805 -1.91227,1.9274 l -0.4843,0.4795 c 0.4843,0 2.87088,-0.9587 3.345195,-0.4795 0,0.9636 -0.4743,1.92195 -1.432925,2.4065 h -0.47935 c -0.4744,0.479 0,0.479 0,0.95865 l -0.4744,0.484 c 1.43803,0 3.355255,-0.9636 4.30373,-0.484 0.4844,0 0.95869,0.484 1.43803,0.9636 0,0.484 0,1.4426 -0.47935,1.4426 -0.4743,0.4795 -0.95869,0 -1.43285,0 -0.4743,0.4795 -0.958535,0.4795 -1.917225,0.4795 -0.4743,0 -0.95861,0.4845 -1.43796,0.4845 h -1.43292 c -0.47425,0 -0.47425,0.4795 -0.958535,0.4795 -0.4743,0 -0.958535,0.484 -1.43293,0.484 -0.47935,0.4795 -0.95861,0.4795 -1.437955,0.4795"
     id="path48"
     inkscape:connector-curvature="0"
     style="fill:#01519a;stroke-width:4.99273348" /><path
     d="m 90.568175,20.1246 h -0.95358 c 0,-0.484 -0.47925,-1.4478 0,-1.92715 0.4743,-0.4795 0.95358,0 1.43293,0 l 0.95861,-0.4795 v 0.4795 c 0,0.4795 0,0.4795 -0.47925,0.4795 v 0.96355 c -0.47935,0.484 -0.47935,0.484 -0.95869,0.484"
     id="path50"
     inkscape:connector-curvature="0"
     style="fill:#01519a;stroke-width:4.99273348" /><polygon
     points="19.953003,14.733398 22.466995,14.312378 19.929001,13.843384 19.503006,11.2724 19.014999,13.783325 16.353012,14.212402 18.978989,14.781372 19.427994,17.353394 "
     id="polygon52"
     transform="matrix(4.9927332,0,0,4.9927332,0,0.0016)"
     style="fill:#01519a" /><path
     d="m 29.57198,86.81495 c -0.47439,0 -0.958612,-0.479 -1.432928,-0.479 -0.479265,0.479 -0.958611,0 -0.958611,-0.4795 -0.479265,-0.484 0.47934,-0.9639 0.47934,-1.4478 0,0 -0.47934,-2.40615 -0.47934,-2.8858 -0.479265,-0.4795 -0.953584,-0.9636 -1.432927,-0.9636 -1.917224,-1.92225 -1.917224,1.92255 -3.829418,1.44325 -1.432928,-0.4795 0,-2.88645 -0.47934,-3.3655 -0.953584,-1.4432 -2.391539,-0.4795 -3.350074,-1.4432 -0.958612,-0.96785 0.47934,-3.3694 1.437879,-3.8494 0.958611,-0.4835 1.912195,0 2.391539,0 0.953659,0.48 0.953659,0.48 1.432851,0.9593 0.47934,0.484 0.958687,0.9636 1.433003,0.9636 0.963564,0.95865 2.39649,1.4429 3.355102,2.40615 0,0.484 0.474315,0.484 0.958536,0.96355 v 1.4429 c 0,0.4795 0.47439,0.9633 0.47439,1.44295 0.479265,0.95895 0.479265,1.44745 0.479265,1.92225 0.47934,0.96355 0.958611,2.41135 -0.479265,3.3697"
     id="path54"
     inkscape:connector-curvature="0"
     style="fill:#01519a;stroke-width:4.99273348" /><path
     d="M 30.530591,73.3467 H 29.57198 c -0.958612,-0.489 -1.912195,-0.9639 -2.870806,-0.9639 0,-0.489 -0.474315,-0.489 -0.474315,-0.489 -0.479345,-0.474 -1.442909,-0.474 -1.917224,-0.96355 -0.479345,-0.4745 -0.958688,-0.9584 -1.437879,-1.43805 h -0.95366 c -1.432928,0 -1.917223,-0.479 -2.391539,-1.4426 -0.47934,-0.4845 0,-1.4432 0,-1.9271 0.474315,-0.4845 0.958611,-0.4845 1.432851,-0.9587 1.438032,0 1.438032,1.92225 2.391539,1.92225 0.47934,0 0.47934,-0.4795 0.47934,-0.96355 V 65.638 c 0,-0.474 0.479345,-1.43775 1.437956,-1.43775 0,0 0.47927,0 0.958611,0.474 v 0.4895 c 0.474315,0.9587 0,1.92225 0,2.4013 -0.479341,0.4845 -0.479341,0.4845 -0.479341,0.96355 0.479341,0.4845 0.479341,0.4845 0.95366,0.96355 0,0 0.479265,0 0.479265,0.4795 0.47934,0.484 1.432928,0.9584 1.917147,0.9584 h 0.948708 c 0.484295,-0.4745 0.484295,-0.9584 0.484295,-1.43805 0,-0.96355 0.479265,-1.4426 0.479265,-1.9271 0.474389,0 0.953659,-0.479 0.953659,-0.479 0.479265,-0.4795 0.953584,0 1.432775,0 0.484369,0.479 0.963715,0.479 0.963715,0.96355 0,1.4426 -1.917223,3.8442 -2.39649,4.80805 -0.479265,0 -1.432926,0 -1.432926,0.489"
     id="path56"
     inkscape:connector-curvature="0"
     style="fill:#01519a;stroke-width:4.99273348" /><path
     d="m 41.589477,61.3716 h -0.958611 c -0.474315,-0.484 -1.912271,-1.9271 -1.432928,-2.41165 0.474315,-0.474 1.432928,0 1.432928,-0.474 0,0 0.958611,-0.96355 0.958611,-0.4845 v 0.9587 c 0.47934,0.96385 0.953584,1.92745 0,2.41165"
     id="path58"
     inkscape:connector-curvature="0"
     style="fill:#01519a;stroke-width:4.99273348" /><path
     d="m 47.810434,50.784 h -0.958536 c -0.48437,0 -0.48437,0 -0.953659,-0.4845 h -1.43788 l -0.47439,-0.479 c 0.47439,-1.44805 2.381557,-2.8858 3.824464,-2.8858 0,0.474 0.474315,0.474 0.474315,0.474 0.484295,0.4895 0.958688,1.92715 0.484295,2.41165 10e-7,0.479 -0.484295,0.9636 -0.958611,0.9636"
     id="path60"
     inkscape:connector-curvature="0"
     style="fill:#01519a;stroke-width:4.99273348" /><path
     d="m 32.497714,53.18835 c 0,0 -0.47439,0 -0.953583,-0.484 0,0 -0.479341,0 -0.479341,-0.4795 -0.484369,-0.9636 0.958536,-1.4426 1.432928,-1.92195 0,-0.484 0.479265,-1.4478 0.963563,-1.92745 0,-0.479 0.47424,-0.96295 0.47424,-1.4426 0.474396,-0.484 0.474396,-0.96355 0,-1.4432 h -0.474244 c -0.484296,0.4795 -1.917147,0.9593 -1.917147,-0.4835 V 43.5675 c 0.479194,0 0.953583,-0.484 1.432851,-0.96785 0.484294,0 0.484294,-0.4795 0.958535,-0.96415 0.953736,-0.479 1.912347,0.485 1.912347,1.44805 0.958535,0 0.958535,-0.96325 1.437879,-0.96325 l 0.474315,-0.485 c 0.47927,-0.479 2.396493,-2.88585 2.870809,-1.92165 0.479265,0 0.479265,0.484 0.479265,0.484 -0.479265,0.4795 -0.95358,0.959 -0.95358,1.43775 -0.484295,0.485 -0.958612,0.485 -1.437956,0.96415 -0.958536,1.4475 -2.391539,2.40645 -2.870731,3.8494 -0.479345,0.96355 -0.479345,1.44745 -0.95861,1.9265 V 49.339 c -0.47934,0.4795 -0.953736,1.4432 -0.953736,1.92225 -0.47424,0.4795 0,0.96355 -0.47424,1.4432 0,0.484 -0.484295,0.484 -0.963564,0.484"
     id="path62"
     inkscape:connector-curvature="0"
     style="fill:#01519a;stroke-width:4.99273348" /><path
     d="m 45.898239,56.55715 h -0.958612 c -0.479265,0 -2.396566,0 -2.396566,-0.4845 0,-0.4795 0.95861,-0.4795 0.95861,-0.96355 v -0.4795 c 0,-0.479 -1.432851,-1.4426 -1.907166,-1.4426 -0.958611,0 -0.958611,0.96355 -1.437955,0.96355 -0.958612,0.479 -3.83437,-2.4068 -3.83437,-2.8907 0.48422,-0.474 0.958535,-1.92225 0.958535,-2.4016 0.484296,-0.484 0.484296,-0.95865 0.958612,-1.9274 0,0 0.484295,-0.484 0.484295,-0.9636 0.474315,-0.479 0.95366,-0.479 0.95366,-0.96355 0.47927,-0.474 0.958611,-1.4377 1.437879,-0.96355 h 0.47934 c 0.474314,0 0.474314,0 0.474314,0.4895 0,0.474 0,1.4377 -0.474314,2.4013 v 0.96875 c 0,0.4745 0.948555,0.4745 0.948555,1.438 v 0.484 c 0,0 0,0.4795 -0.47424,0.4795 0.958536,0.4845 2.870806,2.40645 3.355102,2.8858 0,0.479 0.474315,0.479 0.474315,0.479 0.474315,0.4845 0.474315,1.44325 0.474315,1.92745 0,0.4795 -0.474315,0.96355 -0.474315,0.96355 m -6.700295,-5.29715 c 0,-0.474 0.47934,-1.43805 0.47934,-2.4016 h -0.47934 v -0.484 0.484 c -0.474315,0.4795 -1.432927,1.92745 0,2.4016"
     id="path64"
     inkscape:connector-curvature="0"
     style="fill:#01519a;stroke-width:4.99273348" /><path
     d="m 62.47918,27.96565 -0.4844,-0.484 c -0.46935,-0.9636 0.4844,-1.44295 0.963565,-1.92745 0,-0.474 0.4743,-0.9581 0.4743,-0.9581 0,-0.96385 -1.43788,-0.4845 -1.43788,-0.96385 -0.46935,-0.4795 0.4844,-1.92225 0.4844,-2.40645 0.4792,0 1.42782,-0.4795 1.91204,-0.9587 0.47935,-0.4795 1.91219,0 1.91219,0.9587 v 1.44775 h -0.4792 0.4792 c 0.47935,0.4795 1.9173,-1.9271 2.87089,-1.44775 0,0.484 0,0.96355 -0.47935,0.96355 0,0.484 -0.953505,1.4429 -1.4378,1.4429 -0.953735,0.4795 -0.953735,0.4795 -1.432925,0.96385 -0.4743,0 -0.4743,0.484 -0.95366,0.484 -0.47935,0.95865 -1.43788,2.4016 -2.391385,2.8858"
     id="path66"
     inkscape:connector-curvature="0"
     style="fill:#01519a;stroke-width:4.99273348" /><path
     d="M 60.082535,40.4761 C 58.17034,39.9916 58.64968,37.1058 57.6961,37.1058 l -0.47935,0.4845 c 0,0 -0.4842,0.479 -0.4842,0.96355 l -0.95374,0.479 c -0.95861,0 -0.95861,-0.96355 -0.95861,-1.4426 0,-0.4845 0,-0.96355 0.47935,-0.96355 0,-0.4795 0.47925,-0.4795 0.95861,-0.4795 0.4744,-0.484 0.958615,-1.4429 0.958615,-1.9274 0,-0.479 0,-0.479 -0.4842,-0.9584 0,-0.96385 0,-1.92745 -0.4744,-2.41105 -0.47935,-0.48 -0.95861,-0.48 -0.95861,-0.96355 -0.47935,-0.48 -0.953665,-0.48 -0.953665,-0.9642 -0.47925,-0.4785 0.4743,-1.438 0.4743,-1.92165 0.47935,-0.95895 -0.4743,-2.8858 0.47935,-3.36575 0.47925,-0.484 0.47925,-0.484 0.95861,-0.484 0.4744,0 0.958615,-0.4795 1.437955,-0.4795 0,0 0.47425,0.4795 0.95358,0.4795 0,0.484 0.47925,0.96385 0,1.9271 0,0.4795 -1.43292,1.4426 -1.917145,1.92255 -0.4744,0 -0.4744,0.4835 -0.953735,0.4835 0,0.4795 -0.47925,0.4795 -0.47925,0.9593 0,0 0,0.4785 0.47925,0.4785 0.47935,0.484 0.47935,0.484 0.953735,0.484 V 28.4432 c 0,-0.4795 0.4842,-0.9593 0.4842,-1.44295 0.47935,-0.48 0.95358,-0.48 1.43292,-0.48 1.432855,-0.479 1.9122,1.44325 2.391465,2.4016 v 0.9642 c 0.4843,0.96355 0.95366,1.44715 0.95366,2.4107 0.4844,0.4795 0.4844,0.9639 0.4844,1.44325 0.953505,0.96355 2.391385,3.84935 1.91204,5.29195 0,0.4795 -0.958535,0.4795 -0.958535,0.4795 -0.4743,-0.4795 -0.4743,-0.9587 -0.953505,-1.4432 -0.4844,-0.479 -1.438035,-0.96355 -1.9173,-1.92195 0,-0.484 0.47925,-0.484 0.47925,-0.484 l 0.95366,0.96355 h 0.4844 c 0,-0.4795 -0.4844,-1.92225 -0.95374,-1.92225 v -0.4845 l -0.4843,-0.479 c -0.47925,0.479 -0.47925,0.479 -0.47925,0.96355 -0.47935,0.479 -0.47935,0.479 -0.95374,0.9587 v 0.96355 c 0,0.96355 0.95374,2.8858 0.4744,3.84935 M 58.64968,32.7765 V 32.297 c 0,-0.484 -0.95358,-1.44715 0,-1.44715 h 0.95846 c 0,-0.48 0,-0.96355 -0.4792,-0.96355 0,-0.48 -0.95861,-1.4429 -0.95861,-0.9642 -0.47425,0 -0.47425,0.484 -0.47425,0.9642 v 1.44715 c 0,0.4795 0.47425,1.4432 0.95358,1.4432"
     id="path68"
     inkscape:connector-curvature="0"
     style="fill:#01519a;stroke-width:4.99273348" /><path
     d="m 65.824225,36.62795 c -0.4743,0 -0.95366,-0.484 -0.95366,-0.484 V 35.1807 c 0,-0.9593 -0.47935,-1.4429 -0.47935,-1.92225 V 30.3723 c 0,-0.484 -0.47935,-1.44805 -0.47935,-1.44805 0.47935,0 0.47935,-0.4785 0.47935,-0.4785 0.47935,0 0.95869,-0.4795 1.433005,-0.4795 0.4843,-0.96355 0.4843,-2.41225 1.432925,-2.41225 1.91715,-0.9581 0.96356,1.4487 1.44291,2.41225 0,0.9581 0.47425,1.92225 1.4378,2.40615 0,0.4795 0.4744,0.4795 0.4744,0.4795 0.47425,0.484 2.87081,0 2.87081,-0.4795 0,-0.484 -0.47925,-1.44805 -0.47925,-1.9268 v -0.4795 c 0,0 0.47925,0 0.47925,0.4795 0.4743,0 0.4743,0.4785 0.953505,0.96355 0.4795,0.4795 0.963715,0.96325 1.43803,1.4429 0,0.484 0.47925,0.96295 0,1.44295 0,0.4835 -0.4743,0.4835 -0.958535,0.96355 0,0 -0.4795,0 -0.95869,0.4795 -0.95358,0 -3.81951,0 -4.78307,-0.9593 -0.47425,-0.96355 -0.953585,-1.92655 -1.43285,-2.8901 -0.4843,-0.4795 -0.4843,-0.96415 -0.95366,-0.96415 h -0.47925 c -0.95861,0.96415 0,2.41165 0,3.37065 0.47925,1.4429 0.47925,3.3694 -0.4843,4.33295 m -0.4743,-3.3694 V 32.29515 30.8522 h -0.47935 v 0.484 c 0,0.479 0,1.4426 0.47935,1.92255"
     id="path70"
     inkscape:connector-curvature="0"
     style="fill:#01519a;stroke-width:4.99273348" /><path
     d="m 127.27478,16.2158 c -0.95861,0 -2.39649,-0.9636 -2.39649,-1.92715 0,-0.4795 0,-0.4795 0.47935,-0.4795 0,-0.484 0.48425,-0.484 0.95854,-0.484 h 0.95861 1.43795 c 0,0.484 0.47426,0.484 0.47426,0.484 0.47425,0.9639 -0.95861,1.92715 -1.9122,2.4065"
     id="path72"
     inkscape:connector-curvature="0"
     style="fill:#01519a;stroke-width:4.99273348" /><path
     d="m 116.74506,13.8087 h -0.47425 c 0,-0.96325 0.47425,-1.4429 0.94863,-1.9268 0.48425,-0.4795 0.48425,-0.4795 0.48425,-0.9587 0.4743,-0.4795 0.95366,-0.96355 1.42798,-0.96355 0.4842,0 0.96859,0 1.4429,0.484 0,0 0.95854,0 0.95854,0.4795 0.47935,0 0.47935,0.479 0.47935,0.9587 -0.47935,1.9268 -1.9122,0.96355 -3.35511,0.96355 H 118.178 c -0.4743,0.484 -0.95853,0.96325 -1.43292,0.96325"
     id="path74"
     inkscape:connector-curvature="0"
     style="fill:#01519a;stroke-width:4.99273348" /><path
     d="m 128.7077,29.20775 c -0.48429,0 -1.43802,-0.479 -1.91722,-0.9636 -0.95358,-0.479 -1.91219,-1.92225 -1.91219,-2.8858 0,-0.9584 0,-2.8858 0.4743,-3.36485 V 21.509 h -0.4743 c 0,0 -0.48425,0 -0.95861,0.4845 -0.47935,0.9587 -0.95861,1.4429 -1.43796,2.40645 -0.4743,0 -0.4743,0.4795 -0.94863,0.9584 -0.4843,0.4795 -0.95854,0.4795 -1.43788,0.4795 -0.47935,0 -0.96356,0 -0.96356,-0.4795 -0.4743,-0.479 1.4429,-0.9584 1.91714,-0.9584 v -0.484 c 0.4843,-0.96355 0.95861,-1.4432 1.43293,-2.40675 0,-0.479 -0.4743,-1.4426 0,-1.92655 h 0.47935 c 0.95861,0 0.95861,0.96815 1.91723,0.96815 0.4743,0 0.95861,-0.96815 1.91219,-0.96815 0.47919,0 0.95869,0 0.95869,0.96815 0,0 -0.95869,0.4795 -0.95869,0.9584 -0.47936,0.4845 -0.95358,2.40675 -0.95358,2.89095 0,0.4795 0,0.4795 0.47425,0.9584 0,0.4795 1.43803,1.4432 1.91227,0.96355 0.48429,-0.484 0.48429,-0.96355 0.95861,-1.4426 h 0.47919 l 0.4795,0.479 c 0,0 0,2.8858 -0.4795,2.8858 0,0.4845 -0.47919,0.4845 -0.9535,0.9636"
     id="path76"
     inkscape:connector-curvature="0"
     style="fill:#01519a;stroke-width:4.99273348" /><path
     d="m 122.48675,18.6204 h -0.95366 l -0.47925,-0.4795 v -0.4845 c 0.47925,0 0.47925,0 0.47925,-0.479 h 0.47935 0.94863 3.82941 c 0.95869,0 1.43788,-0.4795 1.92225,-0.4795 0.47425,-0.484 0.47425,-0.484 0.94848,-0.484 h 0.4844 c 0.4743,0 0.95359,0.96355 0.4743,1.4426 -0.4743,0 -1.43293,0.4845 -1.90717,0.4845 h -0.96356 -1.43301 c -0.4743,0.4795 -1.43787,0.4795 -1.91722,0.4795 h -0.95358 -0.4843 z"
     id="path78"
     inkscape:connector-curvature="0"
     style="fill:#01519a;stroke-width:4.99273348" /><path
     d="m 117.21945,27.2852 h -0.4744 c -0.47425,-0.484 -1.43293,-3.8494 -0.47425,-3.8494 0,0 0,-0.484 0,0 l 0.47425,0.96355 c 0.4744,-0.484 0.95861,-2.40645 0.4744,-2.89065 -0.4744,0 -2.38156,0.96355 -2.38156,0.96355 -0.96364,0.4795 -1.92225,2.8858 -2.88086,2.8858 v -1.4429 c 0.48425,-0.4795 0.95861,-0.4795 1.43795,-1.4429 -0.47935,-0.4795 -0.95373,0 -1.43795,0 h -0.47425 c -0.95861,-0.4795 0,-2.4065 0.47425,-2.88585 0.48425,-0.4795 0.95861,0.4795 1.43795,0.4795 h 0.95861 c 0,0 0.4843,0 0.4843,-0.4795 0.47425,-0.4795 0.47425,-1.44775 0.47425,-2.4113 0.4744,-0.4795 0.4744,-1.43805 0.95869,-1.92225 0,-0.4795 0,-0.4795 0.47426,-0.4795 0.47439,0.4795 0,1.4429 0,2.4016 0,0 -0.47426,0 0,0 h 0.9586 l 0.4743,0.484 h 0.47936 l 0.4743,-1.4426 c -0.4743,-0.4795 -1.42798,-0.4795 -1.42798,-0.4795 v -0.484 l 0.4743,-0.4795 c 0.95366,0 1.92225,-0.4845 2.39657,0.4795 v 0.96355 l -0.4743,0.479 c 0,0.4795 -0.4844,1.4432 -0.4844,1.92225 -0.4842,0 -0.95854,0.4895 -0.95854,0.96875 h 0.4743 c 0.4842,0 0.4842,0.4795 0.4842,0.4795 v 0.479 c -0.4842,0.4845 -0.95853,0.4845 -0.95853,0.9639 v 0.96355 c 0,0.4795 -0.47935,0.96355 -0.47935,1.4429 0,1.4429 0,2.4068 -0.95854,3.37005 m -0.4743,-7.21945 V 19.1072 18.13875 h -0.47425 c 0,0.479 0,0.96845 -0.4843,1.44775 v 0.4795 h 0.95853 z"
     id="path80"
     inkscape:connector-curvature="0"
     style="fill:#01519a;stroke-width:4.99273348" /><path
     d="m 98.491675,99.45765 c 0.01,0 -6.69527,-2.152 -12.95615,-2.30165 l -0.1647,-0.69385 7.29933,-3.37035 v 0.7789 l -5.656745,2.59145 c 0,0 7.53397,0.96355 11.063835,2.0819 0.4195,0.8935 0.4094,0.90875 0.41445,0.9136"
     id="path82"
     inkscape:connector-curvature="0"
     style="fill:#01519a;stroke-width:4.99273348" /><polygon
     points="31.238998,12.792175 31.327011,12.910156 18.926987,31.212647 18.798996,31.133667 21.009995,24.689697 21.194,24.413696 19.175003,30.571655 31.00798,13.060181 27.459,14.721191 27.645004,14.444214 "
     id="polygon84"
     transform="matrix(4.9927332,0,0,4.9927332,0,0.0016)"
     style="fill:#01519a" /><path
     d="m 155.41878,118.62225 -1.39803,-5.29745 -29.40712,-0.025 -3.55486,5.2926 z m -48.28459,-5.2371 -8.996995,-0.02 c -0.39455,1.5529 -1.05346,3.29505 -1.592685,5.22735 l 9.30142,-0.02 c 0.51927,-1.87225 0.95854,-3.62445 1.28826,-5.18715 m -10.774425,-0.1 -42.56302,0.055 -1.41297,5.23225 42.473205,0.07 c 0.4743,-1.6876 1.05346,-3.56475 1.502785,-5.35715"
     id="path86"
     inkscape:connector-curvature="0"
     style="fill:#01519a;stroke-width:4.99273348" /><path
     d="m 51.75466,104.58965 c 0,-14.82855 18.00381,-27.1952 41.894055,-29.9963 C 81.77604,79.132 73.333285,90.6899 73.333285,104.245 c 0,2.4217 0.26955,4.7782 0.783845,7.0448 H 53.01282 c -0.823765,-2.1566 -1.25816,-4.3985 -1.25816,-6.70015 m 22.876705,8.6873 c 0.54433,1.85735 1.258165,3.63455 2.111945,5.3252 H 57.54625 c -1.487855,-1.68545 -2.8059,-3.46785 -3.74455,-5.3252 z m 2.895795,6.77815 c 0.3445,0.5991 0.704005,1.1885 1.088425,1.7626 h -17.79918 c -0.66904,-0.5741 -1.303035,-1.1635 -1.907165,-1.7626 z m 2.10692,3.2104 c 1.522825,2.042 3.285245,3.89415 5.247415,5.5123 h -12.89132 c -3.50983,-1.59805 -6.665255,-3.44535 -9.38118,-5.5123 z m 7.1446,6.95975 c 1.283075,0.90385 2.636085,1.72265 4.04913,2.4266 -0.17475,0.4995 -0.34945,0.9937 -0.519265,1.47765 -5.337235,-0.8484 -10.339945,-2.17155 -14.85326,-3.90425 z m 5.307215,2.99065 c 1.457995,0.6491 3.09547,1.2634 4.65829,1.68275 -1.65759,-0.1345 -3.43997,-0.3145 -5.042635,-0.5394 0.1148,-0.3545 0.26455,-0.7935 0.38435,-1.14335 m 24.80399,-58.26785 c 4.2987,0.6387 8.37769,1.5974 12.17725,2.8206 l -4.25879,1.96735 c -2.37158,-1.96735 -5.03768,-3.58975 -7.91846,-4.78795 m 27.34514,10.2 c 7.43425,5.2822 11.89767,12.05735 11.89767,19.4416 0,2.49635 -0.51417,4.91775 -1.4778,7.23955 h -19.24195 c 0.59407,-2.4315 0.90864,-4.97265 0.90864,-7.5842 0,-2.20655 -0.2247,-4.36315 -0.65411,-6.4454 z m 9.76088,28.1289 c -0.93369,1.85735 -2.1668,3.63975 -3.65473,5.3252 h -17.43471 c 0.85888,-1.69065 1.56282,-3.46785 2.11704,-5.3252 z m -5.02275,6.77815 c -0.5991,0.5991 -1.23828,1.1885 -1.90229,1.7626 h -16.03158 c 0.37945,-0.5741 0.7389,-1.1635 1.0834,-1.7626 z m -3.6996,3.2104 c -2.71601,2.06695 -5.87646,3.91425 -9.38637,5.5123 H 124.7634 c 1.96705,-1.61815 3.72962,-3.4703 5.25237,-5.5123 z m -12.8463,6.95975 c -5.55694,2.12705 -11.84783,3.65495 -18.60794,4.41375 3.27031,-0.9837 6.32579,-2.4863 9.05687,-4.41375 z"
     id="path88"
     inkscape:connector-curvature="0"
     style="fill:#01519a;stroke-width:4.99273348" /><path
     d="M 145.93269,58.40535 82.360135,88.9709 c 0,0 6.800025,0.4595 12.01255,3.34505 0.01,0.005 0.015,0.005 0.025,0.01 0.005,0.01 0.015,0.015 0.02,0.015 3.27526,1.8275 5.911425,4.61335 5.826485,8.847 0,0.085 0,0.175 0,0.265 l -0.01,-0.005 c 0,0.03 0,0.055 0,0.08 -0.60908,11.30375 -14.219335,49.6177 -14.219335,49.6177 z m -45.68865,42.7826 c -0.005,0.085 -0.005,0.175 -0.01,0.2595 l 0.01,0.005 c 0,-0.09 0,-0.18 0,-0.265"
     id="path90"
     inkscape:connector-curvature="0"
     style="fill:#01519a;stroke-width:4.99273348" /><path
     d="m 155.77326,123.29565 2.33661,5.47695 h -44.05582 l 3.88434,-5.4721 z m -52.22395,5.47695 h -1.74245 l 3.09547,-5.5071 0.4743,-0.005 c -0.57915,1.78755 -1.16834,3.6452 -1.82733,5.5123 m -3.07551,-0.04 h -6.979895 c 0.649085,-1.9372 1.123395,-3.72475 1.657595,-5.43705 l 8.89209,-0.08 z m -8.4228,0.04 H 56.44783 56.27808 51.380195 l 1.163315,-3.3603 0.05,-0.1395 0.6391,-1.9972 40.39622,0.02 c -0.62409,1.932 -0.95861,3.75945 -1.57775,5.47695"
     id="path92"
     inkscape:connector-curvature="0"
     style="fill:#01519a;stroke-width:4.99273348" /><path
     d="m 188.30092,131.5984 0.80388,-2.32145 0.1797,0.0645 -0.045,0.1345 c -0.03,0.085 -0.035,0.215 -0.02,0.4045 0.02,0.1895 0.0699,0.3795 0.15975,0.56435 0.0948,0.1795 0.2596,0.424 0.50426,0.7289 l 1.91219,2.486 1.6326,0.5845 c 0.3945,0.1395 0.65914,0.1895 0.79398,0.13 0.17965,-0.075 0.3145,-0.245 0.40435,-0.5144 l 0.0749,-0.2195 0.17975,0.0645 -0.97857,2.8258 -0.1799,-0.065 0.08,-0.2345 c 0.0999,-0.2795 0.0849,-0.5141 -0.04,-0.6887 -0.075,-0.1095 -0.29955,-0.225 -0.65906,-0.3595 l -1.54279,-0.54915 -3.3551,0.8539 c -0.3945,0.0945 -0.63903,0.1745 -0.74888,0.2195 -0.10985,0.05 -0.2596,0.17 -0.45435,0.3695 -0.0549,0.055 -0.10485,0.145 -0.1498,0.275 l -0.17475,-0.065 0.98352,-2.8456 0.1798,0.065 -0.05,0.1495 c -0.0549,0.15 -0.07,0.305 -0.04,0.4595 0.02,0.155 0.1049,0.2595 0.2447,0.3045 0.11475,0.045 0.35945,0.02 0.72892,-0.07 l 2.57628,-0.63905 -1.55276,-2.0219 c -0.23455,-0.3 -0.42445,-0.4845 -0.56916,-0.5296 -0.0899,-0.04 -0.1798,-0.045 -0.2696,-0.015 -0.0849,0.02 -0.15975,0.07 -0.23465,0.14 -0.0699,0.075 -0.13485,0.205 -0.1948,0.379 z"
     id="path94"
     inkscape:connector-curvature="0"
     style="fill:#01519a;stroke-width:4.99273348" /><path
     d="m 183.91727,142.3079 1.46789,0.689 -0.0898,0.1745 c -0.26475,-0.0995 -0.4743,-0.15 -0.60916,-0.15 -0.22465,0.005 -0.41435,0.065 -0.57922,0.18 -0.1647,0.12 -0.30945,0.3045 -0.4443,0.5595 l -0.44934,0.8837 4.67817,2.461 c 0.3745,0.2 0.62912,0.2795 0.76388,0.25 0.18975,-0.05 0.33961,-0.195 0.4643,-0.4395 l 0.10986,-0.2195 0.16975,0.085 -1.35302,2.65605 -0.16475,-0.0845 0.1149,-0.225 c 0.1298,-0.2645 0.1498,-0.4895 0.045,-0.689 -0.0549,-0.115 -0.2596,-0.2695 -0.60413,-0.449 l -4.67322,-2.4613 -0.38445,0.7539 c -0.1449,0.2895 -0.2297,0.50405 -0.2547,0.65395 -0.02,0.1895 0.02,0.3895 0.12485,0.5839 0.10485,0.2 0.2896,0.3795 0.55416,0.5494 l -0.0899,0.1745 -1.39788,-0.82885 z"
     id="path96"
     inkscape:connector-curvature="0"
     style="fill:#01519a;stroke-width:4.99273348" /><path
     d="m 182.05002,157.191 0.1498,0.115 -1.76242,2.43115 -0.14475,-0.1145 0.1397,-0.2 c 0.16975,-0.2345 0.2297,-0.459 0.16975,-0.664 -0.035,-0.1245 -0.21965,-0.3245 -0.55416,-0.5741 l -3.58472,-2.68625 c -0.2796,-0.2145 -0.47935,-0.3345 -0.59415,-0.3695 -0.0849,-0.02 -0.1898,-0.01 -0.29465,0.045 -0.1598,0.075 -0.28455,0.1745 -0.37945,0.3095 l -0.14475,0.2045 -0.15485,-0.1195 1.75754,-2.43175 0.1548,0.12 -0.14985,0.205 c -0.1647,0.23 -0.21965,0.4445 -0.1647,0.65395 0.04,0.1345 0.21965,0.3245 0.55416,0.57415 l 3.57984,2.69625 c 0.2796,0.2095 0.47925,0.329 0.59407,0.359 0.0899,0.025 0.18975,0.01 0.3045,-0.04 0.15485,-0.07 0.2747,-0.1745 0.3745,-0.3095 z"
     id="path98"
     inkscape:connector-curvature="0"
     style="fill:#01519a;stroke-width:4.99273348" /><path
     d="m 169.92761,161.9241 1.78246,1.6029 -0.1198,0.15 c -0.38445,-0.265 -0.72892,-0.425 -1.03838,-0.4845 -0.30465,-0.065 -0.61921,-0.035 -0.92867,0.0845 -0.31465,0.115 -0.57411,0.2895 -0.7789,0.5293 -0.2348,0.2695 -0.3445,0.5641 -0.33955,0.8889 0.01,0.3245 0.11486,0.56925 0.3195,0.75395 0.1598,0.145 0.34955,0.2195 0.57923,0.2245 0.32945,0.01 0.91358,-0.1495 1.75244,-0.4645 0.68899,-0.2595 1.17817,-0.4245 1.47284,-0.4795 0.29465,-0.05 0.57914,-0.045 0.84876,0.02 0.27455,0.075 0.51423,0.205 0.71894,0.3895 0.3945,0.3495 0.59415,0.80875 0.60916,1.378 0.015,0.55885 -0.1898,1.0885 -0.61419,1.5779 -0.13485,0.1545 -0.26465,0.2845 -0.4094,0.399 -0.0798,0.07 -0.26955,0.2 -0.56909,0.3795 -0.2996,0.1795 -0.47935,0.3045 -0.53427,0.3745 -0.0598,0.0645 -0.0798,0.1345 -0.0798,0.2 0.005,0.0745 0.0599,0.1745 0.16465,0.299 l -0.1247,0.145 -1.76753,-1.59285 0.11995,-0.14 c 0.4294,0.2645 0.7888,0.4195 1.07342,0.469 0.2796,0.055 0.58417,0.015 0.90871,-0.1095 0.32455,-0.13 0.60908,-0.3295 0.85378,-0.60915 0.2796,-0.3245 0.4194,-0.65915 0.40935,-0.9986 -0.005,-0.3395 -0.1198,-0.60885 -0.3494,-0.81365 -0.1249,-0.115 -0.2847,-0.195 -0.47445,-0.24 -0.18965,-0.045 -0.4094,-0.04 -0.64908,0.005 -0.1646,0.035 -0.56406,0.1645 -1.20316,0.399 -0.63894,0.2245 -1.11341,0.3695 -1.4279,0.4295 -0.31455,0.055 -0.60413,0.055 -0.86376,0 -0.26455,-0.065 -0.49925,-0.19 -0.71399,-0.3845 -0.36945,-0.3295 -0.56413,-0.7588 -0.57914,-1.29815 -0.02,-0.52935 0.16975,-1.01845 0.55918,-1.4679 0.23965,-0.2845 0.56924,-0.5193 0.97362,-0.714 0.18475,-0.09 0.30955,-0.165 0.35945,-0.2195 0.0548,-0.07 0.0849,-0.145 0.0849,-0.2245 -0.005,-0.08 -0.05,-0.18 -0.14485,-0.3145 z"
     id="path100"
     inkscape:connector-curvature="0"
     style="fill:#01519a;stroke-width:4.99273348" /><path
     d="m 149.60715,179.89815 1.4231,2.36655 1.29306,-0.81395 c 0.33955,-0.2145 0.52924,-0.4045 0.57922,-0.579 0.0748,-0.225 0.01,-0.51925 -0.17485,-0.87365 l 0.15975,-0.1 1.25321,2.0868 -0.1598,0.1 c -0.2146,-0.265 -0.36945,-0.4295 -0.45925,-0.489 -0.1149,-0.065 -0.24965,-0.095 -0.40445,-0.075 -0.1498,0.015 -0.3545,0.1 -0.59918,0.2495 l -1.28802,0.8188 1.18327,1.96705 c 0.15975,0.2695 0.2696,0.4195 0.3295,0.4695 0.0549,0.04 0.1198,0.0595 0.1996,0.0595 0.08,-0.01 0.2048,-0.0595 0.3596,-0.1595 l 0.99845,-0.6241 c 0.3346,-0.215 0.55926,-0.3895 0.68413,-0.5296 0.11985,-0.1395 0.20965,-0.3245 0.26455,-0.5488 0.0699,-0.2945 0.0898,-0.68905 0.0549,-1.17355 l 0.16975,-0.1095 0.39935,1.8174 -4.53335,2.8508 -0.0948,-0.1595 0.2047,-0.13 c 0.1397,-0.0895 0.24975,-0.2095 0.3345,-0.3495 0.0649,-0.1095 0.0847,-0.22 0.0649,-0.3345 -0.03,-0.1095 -0.12475,-0.3195 -0.3045,-0.60885 l -2.33654,-3.8896 c -0.2297,-0.3795 -0.4094,-0.58935 -0.53922,-0.62895 -0.17485,-0.055 -0.37945,-0.005 -0.62409,0.1495 l -0.2047,0.13 -0.0999,-0.165 4.53342,-2.8456 0.84876,1.268 -0.16975,0.105 c -0.2447,-0.275 -0.4444,-0.4495 -0.5892,-0.52445 -0.1447,-0.065 -0.30955,-0.09 -0.48925,-0.06 -0.14485,0.03 -0.35955,0.135 -0.64908,0.3145 z"
     id="path102"
     inkscape:connector-curvature="0"
     style="fill:#01519a;stroke-width:4.99273348" /><path
     d="m 142.36275,183.71735 0.075,0.175 c -0.2098,0.145 -0.3445,0.2895 -0.41445,0.4445 -0.0999,0.2295 -0.14475,0.5345 -0.13475,0.9136 l 0.13475,6.47065 -0.17475,0.075 -4.73797,-4.49845 c -0.2447,-0.2295 -0.4045,-0.3645 -0.4795,-0.4045 -0.1198,-0.065 -0.2495,-0.1 -0.38435,-0.105 -0.1398,-0.005 -0.30955,0.035 -0.50425,0.0995 l -0.0798,-0.1795 2.58619,-1.1534 0.0749,0.18 c -0.28465,0.1595 -0.44935,0.2945 -0.50433,0.4045 -0.0548,0.1095 -0.0599,0.2245 -0.01,0.339 0.0649,0.1605 0.2447,0.375 0.52917,0.6442 l 3.22041,3.05585 -0.0949,-4.3936 c -0.01,-0.4345 -0.05,-0.72405 -0.10985,-0.86395 -0.04,-0.09 -0.12475,-0.1595 -0.24465,-0.1995 -0.1298,-0.045 -0.30465,-0.04 -0.53922,0.025 -0.015,0.005 -0.04,0.01 -0.0849,0.02 l -0.0698,-0.18 z"
     id="path104"
     inkscape:connector-curvature="0"
     style="fill:#01519a;stroke-width:4.99273348" /><path
     d="m 130.87953,195.3953 0.05,0.185 -2.86578,0.76885 -0.045,-0.1845 0.23465,-0.065 c 0.27455,-0.0745 0.45435,-0.2095 0.53923,-0.409 0.0548,-0.125 0.025,-0.3945 -0.075,-0.8039 l -1.11822,-4.39365 c -0.09,-0.3445 -0.1699,-0.5692 -0.23479,-0.66915 -0.0549,-0.075 -0.13971,-0.125 -0.25965,-0.1595 -0.1647,-0.04 -0.32445,-0.04 -0.4842,0 l -0.2347,0.065 -0.05,-0.1855 2.86585,-0.76855 0.045,0.1845 -0.2447,0.07 c -0.2697,0.07 -0.44935,0.2045 -0.52917,0.399 -0.055,0.13 -0.03,0.399 0.0699,0.80875 l 1.11829,4.39365 c 0.085,0.3445 0.16485,0.56925 0.2347,0.6692 0.0549,0.0745 0.1398,0.125 0.26455,0.1595 0.1598,0.04 0.31955,0.04 0.47935,0.005 z"
     id="path106"
     inkscape:connector-curvature="0"
     style="fill:#01519a;stroke-width:4.99273348" /><path
     d="m 112.52627,191.07665 1.86222,-0.2245 4.76806,4.74315 -0.44429,-4.0292 c -0.05,-0.429 -0.12486,-0.69385 -0.23471,-0.78865 -0.1399,-0.13 -0.34449,-0.185 -0.61403,-0.145 l -0.2348,0.025 -0.025,-0.1895 2.38148,-0.2845 0.02,0.1895 -0.23465,0.025 c -0.28951,0.04 -0.4843,0.15 -0.59416,0.3445 -0.0549,0.115 -0.06,0.3695 -0.02,0.7643 l 0.65906,5.89625 -0.18485,0.02 -5.14243,-5.0927 0.47935,4.30865 c 0.045,0.4295 0.11985,0.69415 0.22465,0.78895 0.14475,0.1245 0.34945,0.1745 0.61907,0.1445 l 0.23465,-0.03 0.025,0.1895 -2.38141,0.29 -0.02,-0.19 0.23455,-0.035 c 0.29465,-0.03 0.48435,-0.15 0.59423,-0.3395 0.06,-0.12 0.0649,-0.375 0.02,-0.76915 l -0.53918,-4.8576 c -0.2247,-0.215 -0.3943,-0.3495 -0.50418,-0.4145 -0.10985,-0.0645 -0.2697,-0.1145 -0.48435,-0.1595 -0.0948,-0.015 -0.2395,-0.015 -0.4394,0.01 z"
     id="path108"
     inkscape:connector-curvature="0"
     style="fill:#01519a;stroke-width:4.99273348" /><path
     d="m 104.05357,191.3914 0.005,-0.1945 2.44151,0.055 -0.005,0.1945 -0.2596,-0.005 c -0.26955,-0.01 -0.4844,0.105 -0.63415,0.3295 -0.0748,0.1095 -0.1198,0.3545 -0.1247,0.749 l -0.0749,2.8508 c -0.02,0.7091 -0.1,1.25335 -0.2496,1.63245 -0.1449,0.3895 -0.4245,0.71915 -0.8339,0.98855 -0.40941,0.2695 -0.95869,0.3945 -1.64769,0.3795 -0.75376,-0.02 -1.323,-0.165 -1.70239,-0.4395 -0.3845,-0.275 -0.64908,-0.63905 -0.80388,-1.0885 -0.0998,-0.3145 -0.1398,-0.8938 -0.1198,-1.7425 l 0.0749,-2.7511 c 0.01,-0.429 -0.04,-0.7137 -0.154855,-0.85385 -0.11475,-0.1345 -0.2994,-0.2045 -0.564135,-0.2145 l -0.25955,-0.005 0.005,-0.1945 2.98059,0.0695 -0.005,0.19 -0.2647,-0.005 c -0.2845,-0.005 -0.4892,0.08 -0.61899,0.2595 -0.0849,0.125 -0.13485,0.3845 -0.14485,0.7789 l -0.0798,3.06075 c -0.005,0.2795 0.01,0.58905 0.05,0.94345 0.04,0.3545 0.1247,0.63445 0.24965,0.83375 0.1198,0.2 0.29955,0.3645 0.53922,0.499 0.23965,0.1355 0.53907,0.205 0.88875,0.215 0.4543,0.01 0.85859,-0.085 1.21817,-0.275 0.35945,-0.1895 0.60908,-0.4445 0.74888,-0.7539 0.1398,-0.3095 0.21975,-0.83375 0.23965,-1.5828 l 0.0699,-2.85075 c 0.01,-0.439 -0.03,-0.7137 -0.11985,-0.8286 -0.1298,-0.155 -0.3245,-0.2345 -0.5841,-0.2395 z"
     id="path110"
     inkscape:connector-curvature="0"
     style="fill:#01519a;stroke-width:4.99273348" /><path
     d="m 82.140425,187.532 -0.524215,2.16175 -0.1648,-0.055 c 0,-0.58415 -0.0898,-1.0483 -0.27455,-1.40785 -0.26455,-0.5144 -0.698985,-0.874 -1.30814,-1.07875 -0.83375,-0.2845 -1.5776,-0.1595 -2.23171,0.3645 -0.54928,0.4445 -0.95366,1.05865 -1.208265,1.8375 -0.20965,0.64425 -0.2796,1.26345 -0.2147,1.8723 0.06995,0.6043 0.2596,1.0934 0.574265,1.4679 0.30945,0.3795 0.669045,0.63415 1.0783,0.7792 0.2447,0.08 0.48935,0.1245 0.733945,0.1395 0.2447,0.01 0.48925,-0.01 0.738975,-0.055 l 0.63407,-1.9323 c 0.10985,-0.3345 0.15475,-0.5592 0.1398,-0.68415 -0.015,-0.115 -0.0649,-0.2195 -0.1548,-0.3095 -0.0849,-0.0895 -0.25965,-0.1795 -0.524215,-0.2695 l 0.05995,-0.1845 2.53126,0.8487 -0.05985,0.19 -0.11985,-0.04 c -0.24965,-0.085 -0.44935,-0.0595 -0.599175,0.0845 -0.10485,0.095 -0.2147,0.3295 -0.33445,0.6844 l -0.66904,2.03685 c -0.4344,0.08 -0.848755,0.1095 -1.243305,0.08 -0.38945,-0.025 -0.803735,-0.1095 -1.248035,-0.2595 -1.25824,-0.424 -2.087115,-1.16315 -2.471455,-2.20685 -0.28955,-0.78865 -0.29955,-1.58765 -0.035,-2.39645 0.1947,-0.58935 0.51926,-1.1083 0.96859,-1.5526 0.539225,-0.5293 1.15326,-0.8639 1.83723,-1.0187 0.569315,-0.1245 1.183425,-0.075 1.837385,0.15 0.2347,0.075 0.4494,0.1645 0.62912,0.2745 0.1798,0.105 0.4294,0.285 0.738975,0.53905 0.15975,0.13 0.2696,0.205 0.32945,0.22 0.06485,0.025 0.12475,0.01 0.18475,-0.03 0.05985,-0.045 0.12475,-0.145 0.18965,-0.3095 z"
     id="path112"
     inkscape:connector-curvature="0"
     style="fill:#01519a;stroke-width:4.99273348" /><path
     d="m 63.62238,179.4587 1.677555,0.8487 1.462865,6.63525 1.7775,-3.63945 c 0.1847,-0.3845 0.25965,-0.64935 0.22455,-0.78895 -0.05,-0.1845 -0.19465,-0.3445 -0.43935,-0.4645 l -0.2147,-0.1095 0.0849,-0.17 2.15186,1.08335 -0.0848,0.175 -0.21975,-0.11 c -0.2596,-0.1345 -0.48425,-0.145 -0.67407,-0.04 -0.1148,0.065 -0.25465,0.275 -0.4294,0.62405 l -2.591215,5.3225 -0.16475,-0.08 -1.59268,-7.1399 -1.89719,3.8844 c -0.1898,0.389 -0.2647,0.6543 -0.2297,0.78895 0.05,0.1845 0.19975,0.3445 0.4344,0.4645 l 0.21965,0.1095 -0.0849,0.1745 -2.146915,-1.0882 0.08495,-0.175 0.20975,0.1145 c 0.26955,0.13 0.4942,0.14 0.683965,0.035 0.11475,-0.065 0.25965,-0.275 0.4294,-0.62405 l 2.141885,-4.38875 c -0.0749,-0.3045 -0.14485,-0.5144 -0.19975,-0.629 -0.06495,-0.115 -0.1646,-0.245 -0.31955,-0.3945 -0.0749,-0.0745 -0.19965,-0.1545 -0.37945,-0.2445 z"
     id="path114"
     inkscape:connector-curvature="0"
     style="fill:#01519a;stroke-width:4.99273348" /><path
     d="m 42.418272,166.1931 2.286635,2.28155 1.383028,-1.43775 c 0.2447,-0.2595 0.394325,-0.4445 0.439345,-0.5595 0.03495,-0.0895 0.03495,-0.1895 0.0051,-0.3095 -0.05005,-0.165 -0.129815,-0.3045 -0.24965,-0.4195 l -0.16974,-0.1745 0.129815,-0.14 2.106919,2.10205 -0.134845,0.1395 -0.174765,-0.1745 c -0.114805,-0.115 -0.249575,-0.195 -0.409255,-0.245 -0.114965,-0.035 -0.22977,-0.03 -0.3346,0.02 -0.10498,0.055 -0.274715,0.2095 -0.509284,0.4545 l -3.120534,3.25 c -0.24455,0.255 -0.394325,0.4395 -0.43927,0.5494 -0.03495,0.085 -0.03495,0.1945 -0.0051,0.31 0.05,0.1695 0.129816,0.304 0.249651,0.424 l 0.174684,0.175 -0.13477,0.1345 -2.10189,-2.102 0.129815,-0.1345 0.174685,0.1745 c 0.199755,0.1995 0.404455,0.2845 0.614188,0.2545 0.13972,-0.02 0.34945,-0.1845 0.639023,-0.479 l 1.472868,-1.5376 -2.286635,-2.28185 -1.472923,1.53285 c -0.244625,0.255 -0.38945,0.4395 -0.43432,0.5491 -0.03495,0.09 -0.03495,0.1945 0,0.3195 0.0449,0.1595 0.12479,0.3 0.244625,0.4195 l 0.174765,0.1745 -0.129815,0.135 -2.106919,-2.10205 0.129815,-0.14 0.17461,0.175 c 0.19983,0.205 0.40941,0.2895 0.619215,0.2595 0.129815,-0.025 0.344501,-0.1845 0.634072,-0.4845 l 3.120534,-3.25515 c 0.24455,-0.2495 0.394326,-0.4395 0.43927,-0.554 0.03495,-0.0855 0.03495,-0.1845 0.0051,-0.3045 -0.05,-0.165 -0.134845,-0.3095 -0.24965,-0.4195 l -0.17484,-0.175 0.134845,-0.1395 2.107071,2.10175 -0.129815,0.14 -0.179796,-0.175 c -0.119835,-0.1145 -0.254679,-0.1995 -0.409409,-0.2445 -0.114885,-0.035 -0.224736,-0.03 -0.329566,0.02 -0.109855,0.055 -0.279595,0.205 -0.519264,0.4495 z"
     id="path116"
     inkscape:connector-curvature="0"
     style="fill:#01519a;stroke-width:4.99273348" /><path
     d="m 33.596121,161.7443 -0.149775,0.115 -1.757467,-2.4165 0.149775,-0.115 0.144826,0.2045 c 0.16966,0.23 0.359355,0.35 0.569163,0.35 0.13477,0.005 0.36949,-0.125 0.703931,-0.3795 l 3.579842,-2.71575 c 0.279596,-0.21 0.454356,-0.3695 0.514237,-0.4695 0.04985,-0.0845 0.06978,-0.1845 0.05493,-0.3095 -0.02505,-0.17 -0.08487,-0.325 -0.17972,-0.4545 l -0.14985,-0.1995 0.15488,-0.12 1.75739,2.4214 -0.149775,0.115 -0.149775,-0.205 c -0.16981,-0.2295 -0.35448,-0.3495 -0.564211,-0.3495 -0.139795,-0.005 -0.374365,0.115 -0.70896,0.3695 l -3.579772,2.7161 c -0.279595,0.2145 -0.454435,0.374 -0.514312,0.479 -0.0499,0.08 -0.0649,0.18 -0.0499,0.3045 0.01995,0.17 0.07991,0.3245 0.174765,0.459 z"
     id="path118"
     inkscape:connector-curvature="0"
     style="fill:#01519a;stroke-width:4.99273348" /><path
     d="m 31.688879,145.78275 -2.321603,1.463 0.788799,1.318 c 0.20973,0.3395 0.394475,0.5342 0.564212,0.58905 0.224665,0.065 0.509207,0.005 0.858735,-0.1845 l 0.09492,0.155 -2.047039,1.29325 -0.09484,-0.165 c 0.259555,-0.2195 0.41939,-0.379 0.47424,-0.469 0.06994,-0.115 0.09492,-0.255 0.07991,-0.4095 -0.01505,-0.16 -0.09484,-0.3645 -0.244625,-0.6143 l -0.793829,-1.3132 -1.937183,1.21805 c -0.25963,0.165 -0.414435,0.275 -0.454355,0.3345 -0.04495,0.06 -0.0649,0.125 -0.06003,0.205 0,0.08 0.055,0.2095 0.15488,0.3745 l 0.609083,1.00835 c 0.2047,0.3395 0.374515,0.5741 0.514236,0.69415 0.13987,0.13 0.31448,0.2195 0.539224,0.2695 0.28462,0.07 0.669039,0.09 1.148383,0.055 l 0.104825,0.175 -1.787407,0.4145 -2.775959,-4.613 0.15968,-0.105 0.12989,0.215 c 0.08495,0.1345 0.194725,0.255 0.33955,0.3345 0.104826,0.07 0.209655,0.0895 0.32454,0.0595 0.11481,-0.02 0.314481,-0.125 0.599104,-0.3045 l 3.819438,-2.4013 c 0.37444,-0.2345 0.579143,-0.4145 0.61914,-0.54915 0.05485,-0.175 0.0049,-0.3895 -0.1449,-0.63445 l -0.12479,-0.2195 0.15983,-0.1 2.775958,4.61855 -1.248183,0.87365 -0.1049,-0.1745 c 0.27464,-0.255 0.444375,-0.4545 0.514312,-0.6046 0.06978,-0.1445 0.09484,-0.3095 0.06491,-0.494 -0.02495,-0.1495 -0.129815,-0.3745 -0.30961,-0.66885 z"
     id="path120"
     inkscape:connector-curvature="0"
     style="fill:#01519a;stroke-width:4.99273348" /><path
     d="m 24.709062,137.95935 c 0.08479,0.4945 0.06499,0.8935 -0.05493,1.2031 -0.174765,0.429 -0.474315,0.7289 -0.898808,0.90385 -0.349374,0.1395 -0.718863,0.1545 -1.103283,0.055 -0.369485,-0.1 -0.679019,-0.2945 -0.938651,-0.5793 -0.284545,-0.2995 -0.569164,-0.8188 -0.86384,-1.5578 l -1.233099,-3.0854 0.17972,-0.07 0.09492,0.245 c 0.10978,0.2745 0.274485,0.4395 0.4942,0.484 0.13987,0.035 0.394475,-0.03 0.763964,-0.1795 l 4.223742,-1.6824 c 0.40453,-0.165 0.644052,-0.315 0.709036,-0.4495 0.09484,-0.18 0.0899,-0.3945 -0.01,-0.63905 l -0.09988,-0.245 0.17972,-0.0745 1.128424,2.8209 c 0.209655,0.52415 0.33947,0.96355 0.3944,1.3183 0.06499,0.479 0.01995,0.9035 -0.139795,1.26795 -0.174765,0.4095 -0.474316,0.6988 -0.898656,0.8688 -0.71894,0.2845 -1.358039,0.0845 -1.927203,-0.60395 m -0.748941,-2.62615 c 0.05,0.2545 0.149775,0.56405 0.294675,0.93855 0.329415,0.8185 0.748727,1.268 1.258087,1.353 0.25963,0.045 0.514235,0.01 0.758936,-0.085 0.464259,-0.185 0.743851,-0.5293 0.833747,-1.0236 0.07489,-0.4145 0.01505,-0.87365 -0.184745,-1.36275 -0.124865,-0.325 -0.279595,-0.5991 -0.449325,-0.82885 z m -3.125411,1.24815 c 0.06499,0.409 0.164785,0.78865 0.30953,1.1531 0.194725,0.4845 0.46426,0.849 0.793828,1.0934 0.39943,0.2845 0.828796,0.3345 1.28818,0.155 0.604055,-0.2445 0.913663,-0.7088 0.933623,-1.3981 0.0099,-0.3645 -0.07488,-0.7789 -0.25963,-1.243 -0.16471,-0.4045 -0.294525,-0.68415 -0.38442,-0.83375 z"
     id="path122"
     inkscape:connector-curvature="0"
     style="fill:#01519a;stroke-width:4.99273348" /><path
     d="m 53.88161,178.69995 -2.2218,-1.57275 -1.0335,0.62895 c -0.2546,0.155 -0.42435,0.2845 -0.49925,0.399 -0.14978,0.205 -0.01,0.4795 0.4094,0.8289 l -0.10985,0.155 -1.807442,-1.27805 0.109855,-0.155 c 0.26961,0.125 0.46426,0.18 0.57922,0.16 0.239595,-0.03 0.589123,-0.1945 1.063437,-0.484 l 5.367175,-3.30025 0.1498,0.105 -1.38295,6.19095 c -0.0899,0.424 -0.1298,0.72405 -0.10985,0.89865 0.025,0.2895 0.16975,0.5342 0.4344,0.74385 l -0.10985,0.1595 -2.26675,-1.60745 0.10985,-0.155 c 0.3994,0.26 0.679015,0.2795 0.833745,0.0605 0.08495,-0.125 0.16975,-0.3595 0.24965,-0.70945 z m 0.0998,-0.4045 0.67407,-3.0059 -2.64614,1.61265 z"
     id="path124"
     inkscape:connector-curvature="0"
     style="fill:#01519a;stroke-width:4.99273348" /><path
     d="m 167.96552,174.63085 -1.41784,1.22805 -3.94933,-0.9087 c -0.13475,0.115 -0.23965,0.2095 -0.32455,0.2845 -0.0699,0.06 -0.1498,0.125 -0.23465,0.2 l 1.33808,1.5377 c 0.2896,0.3295 0.50418,0.5092 0.65396,0.5241 0.19975,0.025 0.39445,-0.045 0.59422,-0.2195 l 0.2046,-0.18 0.12475,0.1495 -2.27162,1.9771 -0.12475,-0.145 0.19965,-0.175 c 0.2247,-0.1945 0.3196,-0.409 0.2946,-0.6338 -0.025,-0.1345 -0.15975,-0.3495 -0.42445,-0.6491 l -2.98558,-3.43015 c -0.2896,-0.3345 -0.50425,-0.5092 -0.64908,-0.5293 -0.19965,-0.025 -0.40435,0.045 -0.60405,0.2195 l -0.19975,0.175 -0.1298,-0.14 1.93718,-1.68765 c 0.4743,-0.4095 0.84365,-0.69385 1.10838,-0.83375 0.43935,-0.2495 0.88365,-0.3345 1.32308,-0.265 0.3794,0.055 0.69898,0.245 0.96859,0.54915 0.61906,0.7091 0.57914,1.54315 -0.1298,2.50155 l 2.42148,0.5592 c 0.4942,0.12 0.86871,0.17 1.11844,0.145 0.3393,-0.02 0.68397,-0.1605 1.03342,-0.4045 z m -6.14607,0.5491 c 0.03,-0.02 0.0649,-0.05 0.1149,-0.095 0.045,-0.04 0.0849,-0.0745 0.10485,-0.0945 0.42935,-0.3695 0.704,-0.75875 0.82369,-1.16345 0.1449,-0.4895 0.045,-0.9337 -0.3044,-1.3381 -0.28965,-0.3295 -0.62912,-0.5092 -1.01856,-0.53415 -0.3894,-0.025 -0.74888,0.115 -1.08835,0.4095 -0.15485,0.1245 -0.33955,0.3345 -0.55431,0.60885 z"
     id="path126"
     inkscape:connector-curvature="0"
     style="fill:#01519a;stroke-width:4.99273348" /><path
     d="M 213,106.50125 C 213,47.6818 165.31938,0.0016 106.50003,0.0016 47.685645,0.0016 0,47.6818 0,106.50125 0,165.31945 47.685645,213 106.50003,213 165.31938,213 213,165.31945 213,106.50125 m -3.06058,0 c 0,57.1257 -46.3126,103.4383 -103.43939,103.4383 -57.126777,0 -103.4394516,-46.3126 -103.4394516,-103.4383 C 3.0605784,49.3743 49.373253,3.0617 106.50003,3.0617 c 57.12679,0 103.43939,46.3126 103.43939,103.43955"
     id="path128"
     inkscape:connector-curvature="0"
     style="fill:#01519a;stroke-width:4.99273348" /><path
     d="m 179.42886,106.28365 c 0,-40.07165 -32.4827,-72.5543 -72.55431,-72.5543 -40.07183,0 -72.559489,32.48265 -72.559489,72.5543 0,40.0732 32.487659,72.55615 72.559489,72.55615 40.07161,0 72.55431,-32.48295 72.55431,-72.55615 m -3.66958,0 c 0,38.04645 -30.84027,68.88625 -68.88473,68.88625 -38.04475,0 -68.884799,-30.8398 -68.884799,-68.88625 0,-38.0446 30.840049,-68.8847 68.884799,-68.8847 38.04445,0 68.88473,30.8401 68.88473,68.8847"
     id="path130"
     inkscape:connector-curvature="0"
     style="fill:#01519a;stroke-width:4.99273348" /></svg>