<?xml version="1.0" standalone="no"?><!DOCTYPE svg PUBLIC "-//W3C//DTD SVG 1.1//EN" "http://www.w3.org/Graphics/SVG/1.1/DTD/svg11.dtd"><svg class="icon" width="200px" height="200.00px" viewBox="0 0 1024 1024" version="1.1" xmlns="http://www.w3.org/2000/svg"><path d="M356.571429 804.571429v128h-18.285715v-128a109.714286 109.714286 0 0 1-109.348571-100.571429H109.714286v-18.285714h118.857143v-91.428572H109.714286v-18.285714h118.857143v-91.428571H109.714286v-18.285715h118.857143v-91.428571H109.714286v-18.285714h119.222857A109.714286 109.714286 0 0 1 338.285714 256V128h18.285715v128h91.428571V128h18.285714v128h91.428572V128h18.285714v128h91.428571V128h18.285715v129.517714a109.769143 109.769143 0 0 1 91.062857 99.053715H914.285714v18.285714h-137.142857v91.428571H914.285714v18.285715h-137.142857v91.428571H914.285714v18.285714h-137.142857v91.428572H914.285714v18.285714h-137.508571a109.769143 109.769143 0 0 1-91.062857 99.053714V932.571429h-18.285715v-128h-91.428571v128h-18.285714v-128h-91.428572v128h-18.285714v-128h-91.428571zM256 365.714286v329.142857a82.285714 82.285714 0 0 0 82.285714 82.285714h329.142857A82.285714 82.285714 0 0 0 749.714286 694.857143V365.714286a82.285714 82.285714 0 0 0-82.285715-82.285715h-329.142857A82.285714 82.285714 0 0 0 256 365.714286z m64 256V438.857143a91.428571 91.428571 0 0 1 91.428571-91.428572h182.857143a91.428571 91.428571 0 0 1 91.428572 91.428572v182.857143a91.428571 91.428571 0 0 1-91.428572 91.428571h-182.857143a91.428571 91.428571 0 0 1-91.428571-91.428571z m18.285714 0a73.142857 73.142857 0 0 0 73.142857 73.142857h182.857143a73.142857 73.142857 0 0 0 73.142857-73.142857V438.857143a73.142857 73.142857 0 0 0-73.142857-73.142857h-182.857143a73.142857 73.142857 0 0 0-73.142857 73.142857v182.857143z" fill="#979797" /></svg>