<?xml version="1.0" standalone="no"?><!DOCTYPE svg PUBLIC "-//W3C//DTD SVG 1.1//EN" "http://www.w3.org/Graphics/SVG/1.1/DTD/svg11.dtd"><svg class="icon" width="200px" height="200.00px" viewBox="0 0 1024 1024" version="1.1" xmlns="http://www.w3.org/2000/svg"><path d="M481.655483 85.33675h139.530244v645.870954c-71.577602 13.585067-124.129284 19.022507-181.210459 19.022508-170.342406-0.003413-259.133449-77.004803-259.133449-224.699741 0-142.254085 94.23531-234.663261 240.100702-234.663261 22.650881 0 39.867735 1.809067 60.706135 7.243093z m0 325.102944c-16.308907-5.430614-29.900801-7.243094-47.114242-7.243094-70.673069 0-111.445337 43.492695-111.445337 119.596377 0 74.301442 38.963201 115.070297 110.53739 115.070298 15.394134 0 28.088321-0.904533 48.018775-3.618134z" fill="#43A047" /><path d="M843.168455 300.817077v323.457717c0 111.445337-8.154454 164.898139-32.614401 211.114674-22.654294 44.404055-52.558508 72.482136-114.165764 103.294297l-129.570138-61.610669c61.610669-28.992854 91.51147-54.357335 110.537391-93.330777 19.937281-39.864321 26.282668-86.070616 26.282667-207.482886V300.823903z m-139.526832-214.732807h139.526832v143.155204h-139.526832z" fill="#43A047" /></svg>