<svg xmlns="http://www.w3.org/2000/svg" xmlns:xlink="http://www.w3.org/1999/xlink" height="800" width="1200" viewBox="-71.10975 -54.0925 616.2845 324.555"><path fill="#1D427C" d="M204.756 143.92h.068v-17.889h3.185v22.22h-4.072l-10.064-18.267h-.063v18.266h-3.18v-22.219h4.328z"/><g transform="translate(-.012 -.852)"><defs><path id="a" d="M0 0h474.837v217.59H0z"/></defs><clipPath id="b"><use height="100%" width="100%" overflow="visible" xlink:href="#a"/></clipPath><path d="M214.288 136.559c1.208-1.01 3.024-1.647 4.708-1.647 2.995 0 4.017 1.432 4.017 4.236-1.178-.068-2.009-.068-3.188-.068-3.083 0-7.542 1.268-7.542 5.348 0 3.525 2.453 5.063 5.954 5.063 2.736 0 4.329-1.499 5.03-2.487h.06v2.103h2.803c-.066-.481-.126-1.337-.126-3.188v-6.71c0-4.426-1.875-6.719-6.524-6.719-2.074 0-3.856.634-5.352 1.528zm8.725 6.247c0 2.414-1.563 4.265-4.527 4.265-1.36 0-3.02-.929-3.02-2.644 0-2.864 4.013-3.118 5.638-3.118.633 0 1.267.059 1.909.059zm16.674-7.518h-4.295v8.882c0 1.879 1.149 2.896 2.517 2.896.926 0 1.593-.286 2.036-.569v2.543c-.672.192-1.593.45-2.548.45-3.086 0-4.996-1.464-4.996-4.718v-9.484h-3.661v-2.416h3.661v-3.759l2.99-.949v4.708h4.295v2.416zm7.327-9.418h-3.379v3.375h3.379zm-3.19 23.232h2.995v-16.234h-2.995zm7.383-8.113c0 4.642 3.375 8.498 8.278 8.498 4.869 0 8.243-3.856 8.243-8.498 0-4.937-3.307-8.501-8.243-8.501-4.963 0-8.278 3.564-8.278 8.501m3.185 0c0-3.088 1.875-6.077 5.094-6.077 3.18 0 5.059 2.989 5.059 6.077 0 2.896-1.554 6.082-5.059 6.082-3.532 0-5.094-3.186-5.094-6.082m17.353-8.117h2.893v2.577h.06c.896-1.847 3.062-2.961 5.321-2.961 4.197 0 6.081 2.61 6.081 6.973v9.645h-2.998v-8.402c0-3.789-.819-5.634-3.435-5.791-3.407 0-4.932 2.732-4.932 6.677v7.517h-2.99zm20.364 3.687c1.213-1.01 3.023-1.647 4.709-1.647 2.995 0 4.012 1.432 4.012 4.236-1.174-.068-2.006-.068-3.18-.068-3.083 0-7.542 1.268-7.542 5.348 0 3.525 2.449 5.063 5.95 5.063 2.736 0 4.328-1.499 5.029-2.487h.06v2.103h2.804c-.063-.481-.126-1.337-.126-3.188v-6.71c0-4.426-1.876-6.719-6.529-6.719-2.058 0-3.848.634-5.343 1.528zm8.721 6.247c0 2.414-1.554 4.265-4.519 4.265-1.368 0-3.023-.929-3.023-2.644 0-2.864 4.008-3.118 5.638-3.118.63 0 1.271.059 1.904.059zm8.439-17.574h2.99v23.873h-2.99zm33.998 14.676c0 6.234-3.151 9.582-8.625 9.582s-8.628-3.348-8.628-9.582v-13.024h3.188v12.61c0 4.263 1.33 7.188 5.439 7.188 4.105 0 5.44-2.925 5.44-7.188v-12.61h3.185v13.024zm5.413-7.036h2.897v2.577h.06c.895-1.847 3.062-2.961 5.317-2.961 4.201 0 6.085 2.61 6.085 6.973v9.645h-2.994v-8.402c0-3.789-.832-5.634-3.442-5.791-3.403 0-4.932 2.732-4.932 6.677v7.517h-2.991zm23.012-3.627h-3.375v-3.375h3.375zm-3.188 3.627h2.995v16.233h-2.995zm6.275-.004h3.278l4.392 13.248h.068l4.485-13.248h2.99l-5.824 16.234h-3.564zm30.555 12.577c-.729.604-3.023 1.621-4.995 1.621-2.829 0-5.347-2.2-5.347-5.414h11.584c0-5.216-1.752-9.16-7.162-9.16-4.582 0-7.61 3.403-7.61 8.211 0 5.277 2.647 8.787 8.408 8.787 2.67 0 3.979-.641 5.122-1.051zm-10.342-6.019c.22-2.104 1.431-4.515 4.358-4.515 2.576 0 4.038 2.036 4.038 4.515zm15.596-6.554h2.8v2.514h.068c.789-1.69 2.513-2.897 4.228-2.897.892 0 1.338.093 1.977.228v2.67c-.544-.225-1.148-.287-1.655-.287-2.678 0-4.422 2.546-4.422 6.626v7.381h-2.995v-16.235zm11.175 13.045c1.171.765 2.863 1.154 3.721 1.154 1.369 0 3.059-.574 3.059-2.322 0-2.966-7.045-2.707-7.045-7.265 0-3.37 2.517-4.996 5.735-4.996 1.402 0 2.542.287 3.729.634l-.258 2.618c-.668-.423-2.454-.828-3.151-.828-1.528 0-2.863.638-2.863 1.973 0 3.307 7.032 2.352 7.032 7.543 0 3.463-2.771 5.063-5.668 5.063-1.528 0-3.082-.159-4.455-.894zm17.151-16.672h-3.374v-3.375h3.374zm-3.185 3.627h2.995v16.233h-2.995zm17.092 2.416h-4.287v8.882c0 1.879 1.137 2.896 2.509 2.896.926 0 1.588-.286 2.036-.569v2.543c-.667.192-1.593.45-2.543.45-3.092 0-5-1.464-5-4.718v-9.484h-3.661v-2.416h3.661v-3.759l2.998-.949v4.708h4.287zm2.551 18.211c.381.127.887.254 1.397.254 2.673 0 3.564-3.692 3.564-4.01 0-.35-.38-1.182-.574-1.722l-5.508-15.149h3.282l4.359 13.439h.063l4.46-13.439h3.027l-5.984 16.58c-1.114 3.118-2.297 6.715-6.241 6.715-.959 0-1.499-.122-2.036-.219zm-266.068 25.106c0 4.646 3.37 8.497 8.276 8.497 4.865 0 8.245-3.852 8.245-8.497 0-4.934-3.316-8.501-8.245-8.501-4.966 0-8.276 3.567-8.276 8.501m3.183 0c0-3.087 1.875-6.076 5.093-6.076 3.181 0 5.06 2.989 5.06 6.076 0 2.893-1.559 6.081-5.06 6.081-3.539 0-5.093-3.188-5.093-6.081m19.284-5.693h-3.818v-2.423h3.818v-1.495c0-3.945 1.026-6.526 5.449-6.526.76 0 1.397.094 1.998.195l-.119 2.416c-.351-.132-.934-.19-1.436-.19-2.581 0-2.894 1.656-2.894 3.853v1.748h4.3v2.423h-4.3v13.802h-2.999v-13.803zm28.781-5.063c-1.622-.638-2.512-.925-4.164-.925-1.787 0-3.89.637-3.89 2.961 0 4.27 9.549 3.272 9.549 10.6 0 4.738-3.657 6.622-8.117 6.622-1.554 0-3.087-.452-4.545-.924l.313-2.961c1.082.448 2.99 1.081 4.616 1.081 1.816 0 4.363-1.018 4.363-3.634 0-4.957-9.548-3.589-9.548-10.493 0-3.958 3.117-6.053 7.133-6.053 1.461 0 3.209.254 4.734.791zm9.106-.987h-3.375v-3.371h3.375zm-3.184 3.631h2.998v16.225h-2.998zm8.467-.004h2.896v2.58h.063c.896-1.851 3.057-2.97 5.313-2.97 4.206 0 6.086 2.62 6.086 6.981v9.633h-2.998v-8.395c0-3.788-.824-5.63-3.438-5.79-3.404 0-4.928 2.735-4.928 6.68v7.505h-2.994zm33.806 0h-2.771v2.423h-.066c-.892-1.752-2.476-2.808-5.343-2.808-4.907 0-7.26 4.459-7.26 8.633 0 4.197 2.289 7.977 6.935 7.977 2.074 0 4.177-.819 5.448-2.508h.059v1.593c0 3.437-1.875 5.569-5.029 5.569-2.196 0-3.561-.408-5.854-1.462l-.321 2.769c2.614.889 4.109 1.114 5.828 1.114 5.824 0 8.374-2.829 8.374-7.772zm-7.736 13.814c-2.8 0-4.519-2.674-4.519-5.73 0-2.767 1.499-6.044 4.519-6.044 3.185 0 4.738 2.893 4.738 6.267 0 3.023-1.938 5.507-4.738 5.507m13.751-10.12c1.208-1.021 3.02-1.654 4.709-1.654 2.99 0 4.008 1.432 4.008 4.23-1.17-.065-2.002-.065-3.18-.065-3.087 0-7.543 1.278-7.543 5.346 0 3.538 2.449 5.067 5.95 5.067 2.733 0 4.329-1.499 5.034-2.491h.059v2.102h2.8c-.063-.476-.122-1.325-.122-3.184v-6.711c0-4.42-1.887-6.719-6.528-6.719-2.065 0-3.853.638-5.347 1.534zm8.717 6.234c0 2.421-1.554 4.27-4.52 4.27-1.367 0-3.019-.924-3.019-2.646 0-2.859 4.008-3.113 5.634-3.113.633 0 1.271.063 1.904.063v1.426zm8.053 12.992h2.995v-8.913h.063c.924 1.497 2.546 2.611 5.413 2.611 4.903 0 6.969-4.328 6.969-8.793 0-4.354-2.289-8.21-7.003-8.21-2.867 0-4.713 1.471-5.506 2.679h-.063v-2.294h-2.868zm12.256-14.867c.067 2.551-1.268 6.145-4.484 6.145-3.375 0-4.776-3.343-4.776-6.05 0-3.018 1.563-6.107 4.806-6.107 3.243 0 4.521 3.089 4.454 6.012m6.111.063c0 4.646 3.379 8.497 8.277 8.497 4.865 0 8.244-3.852 8.244-8.497 0-4.934-3.312-8.501-8.244-8.501-4.97 0-8.277 3.567-8.277 8.501m3.185 0c0-3.087 1.874-6.076 5.093-6.076 3.18 0 5.059 2.989 5.059 6.076 0 2.893-1.562 6.081-5.059 6.081-3.535 0-5.093-3.188-5.093-6.081m17.35-8.116h2.795v2.517h.063c.799-1.688 2.517-2.906 4.235-2.906.887 0 1.335.103 1.973.232v2.674c-.54-.223-1.14-.286-1.651-.286-2.673 0-4.426 2.545-4.426 6.62v7.374h-2.989zm24.818 12.571c-.726.605-3.023 1.626-4.991 1.626-2.838 0-5.351-2.2-5.351-5.41h11.584c0-5.224-1.744-9.172-7.153-9.172-4.587 0-7.61 3.408-7.61 8.215 0 5.278 2.639 8.783 8.404 8.783 2.673 0 3.978-.633 5.117-1.046zm-10.342-6.013c.224-2.1 1.431-4.519 4.362-4.519 2.58 0 4.042 2.034 4.042 4.519zm31.471-94.453c6.095 5.625 18.109 10.748 32.778 10.977 12.863.219 23.235-3.649 23.873-14.313 1.364-23.076-57.816-13.845-55.522-52.799C398.65 6.964 418.005.507 438.884.866c11.285.19 22.569 2.863 28.757 6.001l.024 13.843c-7.547-5.173-18.074-8.467-26.783-8.632-13.248-.241-23.764 2.196-23.933 11.88-.358 20.196 59.345 15.352 57.064 53.991-1.28 21.753-22.422 28.426-44.556 28.021-12.729-.173-25.195-2.759-33.047-6.778zm-55.983 23.486c-27.489 0-43.318-12.345-43.318-37.743V3.86h20.609l.008 64.476c0 15.791 7.581 25.369 22.701 25.369 15.115 0 22.704-9.579 22.704-25.369l.005-64.476h20.6v64.476c0 25.399-15.828 37.744-43.309 37.744M263.603 3.86v72.627L216.37 9a12.377 12.377 0 00-10.043-5.139h-15.635v99.031h13.738v-72.67l47.153 67.285c2.242 3.214 5.955 5.385 10.208 5.385h15.546V3.86zM166.97 106.351V3.873H.025V106.43c-.008.084-.013.351-.013.786 0 4.843 1.047 30.462 21.648 62.913 22.506 35.509 59.641 46.485 61.208 46.938l.562.155.557-.155c1.575-.452 38.824-11.425 61.343-46.938 22.455-35.378 21.679-62.638 21.64-63.778" fill="#1D427C" clip-path="url(#b)"/><path d="M78.193 16.192c-.283-.055-7.078-1.25-15.19-1.25-6.432 0-12.235 1.935-14.786 2.918-2.551-.984-8.354-2.918-14.781-2.918-8.113 0-14.913 1.195-15.195 1.25l-.917.165v43.211l1.347-.291c.055-.013 5.68-1.221 13.958-1.221 6.221 0 12.67 1.736 15.208 2.648l.38.14.38-.14c2.538-.913 8.987-2.648 15.216-2.648 8.269 0 13.894 1.208 13.949 1.221l1.348.291V16.357z" fill="#EC8023" clip-path="url(#b)"/><path d="M47.152 19.862c-2.572-.963-7.876-2.644-13.67-2.644-6.276 0-11.816.752-13.89 1.068v32.671c2.17-.372 6.846-1.021 13.088-1.021 5.592 0 11.188 1.28 14.473 2.293V19.862zm15.901-2.644c-5.87 0-11.242 1.727-13.776 2.682v32.367c3.273-1.026 8.928-2.327 14.583-2.327 6.242 0 10.913.643 13.084 1.014V18.287c-2.079-.321-7.615-1.069-13.891-1.069" fill="#FFF" clip-path="url(#b)"/><path d="M25.749 22.666c-.802.215-1.246.95-1.001 1.647.25.693 1.099 1.077 1.901.866.042-.013 4.189-.744 7.724-.744 3.21 0 6.808 1.458 6.846 1.47.785.258 1.655-.088 1.951-.769.295-.68-.105-1.436-.888-1.698-.177-.059-4.138-1.63-7.91-1.63-4.002.001-8.437.812-8.623.858m0 6.487c-.802.219-1.246.954-1.001 1.651.25.688 1.099 1.081 1.901.861.042-.008 4.189-.739 7.724-.739 3.21 0 6.808 1.457 6.846 1.47.785.253 1.655-.093 1.951-.773.295-.679-.105-1.436-.888-1.689-.177-.06-4.138-1.639-7.91-1.639-4.002.001-8.437.812-8.623.858m0 6.495c-.802.216-1.246.955-1.001 1.644.25.692 1.099 1.085 1.901.865.042-.008 4.189-.744 7.724-.744 3.21 0 6.808 1.458 6.846 1.47.785.258 1.655-.088 1.951-.769.295-.684-.105-1.436-.888-1.689-.177-.055-4.138-1.639-7.91-1.639-4.002.001-8.437.808-8.623.862m0 6.488c-.802.219-1.246.958-1.001 1.647.25.692 1.099 1.082 1.901.866.042-.008 4.189-.748 7.724-.748 3.21 0 6.808 1.465 6.846 1.474.785.258 1.655-.084 1.951-.769.295-.68-.105-1.44-.888-1.689-.177-.06-4.138-1.644-7.91-1.644-4.002 0-8.437.816-8.623.863m45.16-19.47c.803.215 1.246.95 1.001 1.647-.25.693-1.098 1.077-1.9.866-.039-.013-4.19-.744-7.725-.744-3.206 0-6.804 1.458-6.842 1.47-.785.258-1.659-.088-1.951-.769-.295-.68.101-1.436.887-1.698.168-.059 4.139-1.63 7.906-1.63 4.007.001 8.437.812 8.624.858m0 6.487c.803.219 1.246.954 1.001 1.651-.25.688-1.098 1.081-1.9.861-.039-.008-4.19-.739-7.725-.739-3.206 0-6.804 1.457-6.842 1.47-.785.253-1.659-.093-1.951-.773-.295-.679.101-1.436.887-1.689.168-.06 4.139-1.639 7.906-1.639 4.007.001 8.437.812 8.624.858m0 6.495c.803.216 1.246.955 1.001 1.644-.25.692-1.098 1.085-1.9.865-.039-.008-4.19-.744-7.725-.744-3.206 0-6.804 1.458-6.842 1.47-.785.258-1.659-.088-1.951-.769-.295-.684.101-1.436.887-1.689.168-.055 4.139-1.639 7.906-1.639 4.007.001 8.437.808 8.624.862m0 6.488c.803.219 1.246.958 1.001 1.647-.25.692-1.098 1.082-1.9.866-.039-.008-4.19-.748-7.725-.748-3.206 0-6.804 1.465-6.842 1.474-.785.258-1.659-.084-1.951-.769-.295-.68.101-1.44.887-1.689.168-.06 4.139-1.644 7.906-1.644 4.007 0 8.437.816 8.624.863" fill="#1D427C" clip-path="url(#b)"/><path d="M142.003 167.769c-20.226 31.903-53.796 43.532-58.467 45.023-4.646-1.494-38.106-13.12-58.324-45.023-20.275-31.94-21.014-57.551-21.014-61.043 0-.249.004-.388.004-.406V70.042H163v36.203c0 .025.013.165.013.426.001 3.585-.748 29.174-21.01 61.098" fill="#FFF" clip-path="url(#b)"/><path d="M155.517 99.432c-.82-2.986-2.327-4.312-4.333-5.375-5.537-2.936-12.767-.875-19.107 1.279-4.784 1.634-6.229 2.125-11.651 2.956-4.097.629-17.793 2.403-22.126-1.179-.617-.515-1.241-1.639-1.304-2.36-.124-1.491.552-3.274 1.072-3.839 1.095-1.2 3.645-1.778 7.8-1.778l10.605.166c.663.853 2.36 2.225 6.668 3.146 6.85 1.465 14.384-.917 14.384-.917s-1.246-.245-2.28-1.022c-.916-.684-.836-1.715-.836-1.715s1.507.727 3.708.664c2.736-.081 4.013-1.382 6.567-2.031 2.555-.651 5.405-.114 5.405-.114s-2.584-2.763-5.148-3.253c-2.55-.485-5.739.169-5.739.169s.799-.359 1.749-1.216c.765-.688.916-1.862.916-1.862s-3.062 1.183-6.166 1.022c-3.104-.161-2.876-1.285-8.903-1.449-4.57-.119-8.346 2.597-9.908 3.919-4.885-.32-8.732-.494-10.988-.494-6.208 0-9.794 1.018-11.99 3.399-1.829 1.99-2.626 4.57-2.36 7.666.202 2.403 1.275 4.426 3.191 6.006 5.794 4.797 21.341 3.328 26.844 2.352 6.162-1.088 8.003-1.566 11.571-2.745 0-.003.203-.067.203-.067 2.762-.93 11.162-3.733 14.685-1.863.718.375 1.208 1.085 1.507 2.167.135.489.198.924.198 1.33 0 .731-.22 1.338-.676 1.892-3.209 3.924-15.276 4.595-20.517 4.874-.574-.14-4.075-.926-8.729-.95-3.116-.018-5.722.182-8.48.388-5.033.38-10.241.773-18.89-.216-4.013-.46-7.771-1.19-10.605-2.027-.135-1.077-.633-2.099-1.71-3.307 2.074.671 4.771-1.609 5.528-2.745-.008-.115-3.683-1.086-3.903-3.472-.004-.076 2.602.216 3.687-3.362-2.602-1.41-1.787-1.93-3.037-3.687-1.102-1.546-2.698-2.327-4.666-2.277.798-.105.87 0 1.736-.434 1.132-.571 1.917-2.125 3.041-2.062-2.268-3.547-8.354-4.012-10.879-3.265.651-.806 1.647-1.702 1.66-2.808-3.365.929-6.66-.818-10.055-.185-2.813.528-4.417 1.671-5.296 4.345h-.126c-.887-2.673-2.487-3.817-5.304-4.345-3.387-.633-6.689 1.114-10.051.185.017 1.106 1.009 2.002 1.655 2.808-2.521-.747-8.607-.282-10.875 3.265 1.128-.063 1.909 1.491 3.037 2.062 1 .498 1.199.396 1.735.434-1.959-.05-3.56.731-4.663 2.277-1.259 1.757-.435 2.277-3.041 3.687 1.09 3.578 3.7 3.286 3.695 3.362-.224 2.386-3.898 3.357-3.911 3.472.761 1.135 3.455 3.416 5.537 2.745-1.706 1.908-1.989 3.366-1.601 5.288-2.648-2.01-5.258-4.227-6.647-6.064-.325-.474-1.364-3.89-2.052-6.15l-.562-1.842-.274-.98c-.828-3.045-1.63-5.595-3.015-5.933a6.911 6.911 0 00-2.049-.187c-.477-.747-1.144-1.533-1.921-1.778-1.605-.486-2.382-.135-2.382-.135s1.301.934 1.74 1.892c.11.245.178.482.224.693a5.101 5.101 0 00-.773.523l-.118.093c-.165.131-.389.317-.629.533-.11-.034-.22-.06-.334-.072-1.664-.22-2.374.262-2.374.262s.904.443 1.576 1.061c-.579.806-1.061 1.84-1.061 3.12 0 .123.013.253.025.389-1.588.117-2.179.697-2.179.697s1.545.417 2.297 1.153c.081.084.157.169.22.249-.072.084-.127.143-.127.143a3.068 3.068 0 00-.464 1.669c0 1.389.777 2.885 1.85 3.869l3.125 2.584c1.128 2.522 2.377 4.739 3.197 5.672.258.316 2.002 3.323 3.852 6.504.245.422.495.857.752 1.297.397 1.95.849 4.379 1.047 6.288.367 3.434.017 7.268.017 7.268s2.226-.11 3.235-1.559c.021-.037.819 2.378.705 5.098-.093 2.011-.629 4.802-.629 4.802s2.171-1.152 3.801-2.597c.823-.723 1.651-1.922 2.158-2.707 1.791 1.14 6.926-.686 9.485-1.71.499 1.013 1.187 2.141 2.132 3.415.376-1.536 2.015-2.306 2.775-3.534.228-.004.464-.004.697-.004.093 1.681-.393 3.261 1.195 6.406.452.892 2.661 4.186 4.265 5.87-.603 2.851-1.76 8.045-2.952 12.298-1.368 4.865-2.475 7.281-3.104 8.405-1.833.089-5.178.202-6.242.155-2.546-.122-4.435.415-5.604 1.588-.088.085-.157.174-.232.263-.888.122-1.905.401-2.458 1.022-1.111 1.258-1.115 2.112-1.115 2.112s1.385-.801 2.437-.801c.08 0 .152.01.224.015v.216c.017.248.156.645.393 1.131a2.192 2.192 0 00-.452.422c-1.021 1.325-.967 2.185-.967 2.185s1.301-.876 2.348-.96c.326.523.692 1.061 1.082 1.584-.047.051-.098.105-.131.161-.92 1.405-.798 2.255-.798 2.255s1.03-.812 2.006-1.077c.334.38.659.723.971.992 1.533 1.352 5.338.477 10.161-.807l2.986-.739c2.112-.392 3.421-1.236 4.388-2.819.232-.373.439-.985.764-1.966l.279-.836c.667-1.874 1.187-3.065 2.509-5.191.046-.063 1.339-2.144 3.096-5.009 1.558-1.295 3.437-2.798 4.801-3.728 2.086-1.402 6.238-3.523 6.238-3.523s-1.106-1.797-2.758-2.048c-.034-.003 2.104-2.175 3.895-2.946 2.014-.88 4.62-1.356 4.62-1.356s-.95-1.942-2.416-2.886c.612-.201 1.17-.556 1.862-1.013 3.505-2.288 6.09-2.204 8.531-1.52.093-1.58-.304-2.552-1.673-3.468 1.153-.485 2.344-.908 3.607-1.208.798 1.372 1.702 2.889 2.111 3.472 1.808 2.563 4.528 6.09 6.729 8.295.054.054.08.155.08.3 0 .92-1.124 3.47-1.769 4.927l-.55 1.26c0 .005-2.212 5.208-2.858 6.724-1.288.075-5.026.279-6.335.211-2.483-.114-4.32.406-5.46 1.542a3.413 3.413 0 00-.38.443c-.925.164-2.032.502-2.581 1.203-1.039 1.323-.997 2.17-.997 2.17s1.335-.873 2.386-.936c.166-.01.318-.005.466.007.042.274.194.676.431 1.145-.245.179-.461.375-.612.612-.921 1.403-.802 2.247-.802 2.247s1.254-.987 2.301-1.14c.038-.005.071-.005.114-.01.25.385.524.779.802 1.159a2.533 2.533 0 00-.27.319c-.921 1.407-.803 2.259-.803 2.259s1.204-.952 2.23-1.131c.32.368.633.692.924.95 1.466 1.293 4.599.521 8.865-.706l3.041-.793c2.056-.385 3.336-1.203 4.283-2.749l.797-1.723c.376-.87.807-1.86 1.132-2.374.494-.776 1.014-1.715 1.542-2.728a55.162 55.162 0 011.85-1.53c1.361-1.041 4.815-2.946 4.815-2.946s-.689-1.513-2.1-1.656c-.017-.005 1.374-1.551 3.042-2.513 1.182-.689 3.53-1.093 3.53-1.093s-1.622-1.373-2.851-1.91c-.494-.211-1.141-.358-1.752-.464-.08-.702-.447-1.487-1.124-2.529-1.211-1.877.562-5.905 1.833-8.186.642.903 1.791 2.407 3.708 4.535 0 0 6.154 6.729 7.51 8.218a80.312 80.312 0 01-2.488 8.136c-.984 2.693-2.391 5.502-3.108 6.888-1.482.08-4.843.254-6.073.197-2.479-.122-4.316.398-5.461 1.539a3.597 3.597 0 00-.473.586c-.836.202-1.744.55-2.212 1.171-1.015 1.342-.955 2.196-.955 2.196s1.009-.948 2.369-.98c.067 0 .122.004.182.004.063.286.223.676.459 1.131a2.345 2.345 0 00-.607.601c-.917 1.405-.799 2.255-.799 2.255s1.254-.997 2.298-1.145c.038-.008.075-.008.109-.012.326.49.675.992 1.034 1.466a.064.064 0 01-.021.023c-.921 1.398-.797 2.252-.797 2.252s.924-.734 1.85-1.034c.266.3.533.569.773.781 1.47 1.297 4.616.527 8.894-.706l3.011-.793c2.062-.381 3.34-1.204 4.282-2.75.419-.689 2.29-5.046 2.805-6.306a137.073 137.073 0 012.974-6.74c.507-.432.979-.813 1.359-1.081 1.686-1.169 5.288-3.222 5.288-3.222s-.718-1.541-2.103-1.656c-.018-.004 1.415-1.372 2.842-2.284 1.322-.85 3.729-1.321 3.729-1.321s-1.736-1.323-2.961-1.851c-.721-.313-1.744-.512-2.47-.624-.216-1.023-.73-1.365-1.507-1.757-.688-.353-1.63-.828-3.071-2.522-1.845-2.175-2.129-6.331-2.129-10.478 0-.912.018-1.825.026-2.716l.008-3.979c-.119-4.679-.802-7.943-1.452-10.099 6.102-.552 17.281-1.789 21.863-7.389 1.373-1.681 2.069-3.649 2.069-5.794a11.39 11.39 0 00-.421-2.973" fill="#1D427C" clip-path="url(#b)"/><path d="M111.755 150.318c.807-.756 1.216-1.166 1.216-1.698 0-.455-.3-1.009-.903-1.945-.461-.706-.643-1.556-.643-2.458 0-3.003 1.998-6.619 2.788-7.928-.224-.283-.549-.692-.942-1.233-.211-.14-.393-.266-.503-.342-.51-.363-1.824-1.466-2.644-2.542-.114-.152-.228-.343-.351-.546-1.693-.05-5.637-.164-9.704 1.073 1.254.718 1.545 1.651 1.6 2.851-2.677-.583-4.933-.617-6.964-.321.71 1.208 1.436 2.42 1.774 2.902 1.773 2.512 4.43 5.954 6.559 8.096.346.345.499.803.499 1.363 0 1.323-.833 3.209-1.867 5.558l-.544 1.246-3.227 7.587-.473.027c-.216.017-5.304.326-6.969.242-1.815-.089-3.206.223-4.058.887.101.345.173.802.042 1.233-.169.57-.523.852-.811 1 .038.084.08.169.135.268.997-.336 1.951-.432 1.951-.432s.549.727.326 1.635c-.178.692-.511 1.056-.748 1.236.068.101.136.194.208.291 1.127-.46 2.36-.577 2.36-.577s.58.877.39 1.832c-.106.517-.364.807-.604.98 1.364.435 4.882-.574 7.074-1.208l3.18-.828c1.634-.305 2.546-.88 3.256-2.041l.708-1.532c.397-.924.849-1.978 1.247-2.592.975-1.541 2.086-3.794 3.154-5.978 1.394-2.834 2.602-5.288 3.488-6.106m-60.721-19.579c.008.034 0 .063.008.093h.025c-.012-.03-.025-.059-.033-.093" fill="#F19320" clip-path="url(#b)"/><path d="M44.479 121.984c-.988 1.482-2.775 2.176-5.089 2.459.439-2.307.039-3.887-.811-5.715-.743-1.613-2.779-4.777-3.383-6.571-.169-.507-.329-.976-.481-1.423-3.218-2.34-6.753-5.187-8.53-7.543-.418-.557-1.052-2.542-2.298-6.626l-.557-1.837-.288-1.026c-.819-3.006-1.466-4.637-1.917-4.853a5.236 5.236 0 00-.87-.135v.005s-.144.921-1.689.848a1.928 1.928 0 01-.9-.274 2.97 2.97 0 00-.363.266l-.131.097-.228.19c.908.824 1.558 1.888 1.558 1.888s-.346.942-1.524 1.153c-.853.148-1.512-.456-1.512-.456s.008-.296-.11-.718a3.652 3.652 0 00-.338 2.438c1.195.617 2.23 1.736 2.23 1.736s-.025.887-1.258 1.507c-.464.24-.942.101-1.25-.047-.152.908.363 2.197 1.309 3.066l3.332 2.758.076.165c1.06 2.391 2.302 4.629 3.028 5.457.274.304 1.267 1.997 4.024 6.745 3.657 6.296 9.186 15.812 10.609 17.39.549.516 4.32-.367 8.041-1.85-1.326-3.68-.173-5.931-.68-9.094m109.577-22.159c-.676-2.48-1.824-3.501-3.577-4.43-4.997-2.652-11.859-.681-17.898 1.377-5.14 1.752-6.559 2.196-11.909 3.015-5.452.841-18.638 2.369-23.326-1.512-.941-.772-1.756-2.263-1.862-3.399-.148-1.871.642-4.096 1.47-5 1.436-1.575 4.189-2.275 8.928-2.275 0 0 7.107.114 11.035.172l.832-.742-.811-.867c-4.911-.325-8.779-.502-11.022-.502-5.739 0-8.992.871-10.866 2.914-1.533 1.66-2.188 3.848-1.968 6.5.169 1.981 1.061 3.649 2.644 4.958 4.929 4.08 19.384 3.129 25.609 2.023 6.064-1.064 7.868-1.533 11.357-2.687l.202-.071c3.223-1.077 11.779-3.94 15.884-1.762 1.102.587 1.845 1.605 2.255 3.118.506 1.837.258 3.336-.764 4.586-3.649 4.463-15.39 5.093-21.7 5.434l-.135.006-.106-.026c-.042-.009-3.703-.903-8.497-.933-3.048-.018-5.625.182-8.353.384-5.106.39-10.39.786-19.183-.215-3.902-.453-7.589-1.161-10.469-1.986-.182 1.179-.651 2.517-1.237 4.253-.604 1.791-2.631 4.954-3.379 6.567-.848 1.829-1.249 3.407-.819 5.719-2.31-.288-4.097-.979-5.085-2.463-.692 4.342 1.761 6.948-3.396 13.907-.52-2.104-3.408-2.766-3.155-5.148-.904 2.476.554 3.911-1.52 8.02-.52 1.031-3.413 5.296-4.979 6.539-.633 2.956-1.752 7.934-2.897 12.035-1.57 5.593-2.85 8.121-3.479 9.135l-.207.343-.397.021c-1.66.085-5.566.228-6.803.174-1.715-.084-3.062.181-3.954.751.085.427.131 1.034-.135 1.476-.304.53-.739.763-.963.856.034.094.084.194.144.312 1.111-.316 2.234-.342 2.234-.342s.46.934-.017 2.062c-.194.46-.46.688-.663.803.109.157.219.305.33.455 1.178-.519 2.559-.655 2.559-.655s.533.695.186 2.131c-.109.445-.35.671-.557.785 1.554.481 5.92-.678 8.375-1.332l3.1-.763c1.685-.314 2.635-.905 3.37-2.116.148-.241.397-.989.612-1.646 0 0 .295-.858.295-.865.688-1.945 1.259-3.266 2.652-5.492 3.176-5.079 12.56-20.431 12.939-21.665.018-.063.018-.139.018-.228 0-.815-.397-2.61-.718-3.751l-.203-.726 32.159-9.405-1.871-3.231 1.107-1c.096.071 2.433 1.77 3.716 3.053 1.132 1.127 2.222 2.871 3.37 4.713l.588.938c1.301 2.064 2.581 3.59 2.597 3.603l.047.059.033.06c.009.017 1.026 1.785 4.206 5.329l8.054 8.805-.088.395c-.013.037-.968 4.143-2.639 8.698-1.099 3.008-2.738 6.212-3.388 7.451l-.203.385-.426.021c-1.551.092-5.288.287-6.665.229-1.707-.085-3.027.18-3.894.755.118.401.229 1.022-.008 1.504-.262.539-.65.835-.869.976.033.068.075.139.117.219 1.002-.338 1.968-.435 1.968-.435s.486.798.33 1.805c-.114.675-.464.978-.723 1.118.094.134.195.271.292.401 1.212-.584 2.719-.734 2.719-.734s.507.699.334 1.785c-.076.503-.418.836-.688 1.04 1.563.185 4.692-.718 6.711-1.303l3.155-.818c1.629-.303 2.542-.877 3.26-2.048.308-.502 2.04-4.493 2.694-6.086 1.909-4.68 4.717-10.597 6.542-13.759l1.014-1.598c.596-.892 1.115-1.658 1.068-2.182-.063-.716-.105-.736-.75-1.065-.761-.385-1.91-.966-3.548-2.893-2.623-3.088-2.539-8.996-2.462-14.199l.008-3.922c-.135-5.148-.966-8.586-1.647-10.563l-.312-.916.972-.085c5.625-.503 17.336-1.546 21.741-6.927 1.658-2.042 2.126-4.597 1.358-7.405" fill="#EC8023" clip-path="url(#b)"/><path d="M123.678 39.205a11.925 11.925 0 011.625 2.826c-.531.076-1.072.122-1.625.122-.553 0-1.093-.042-1.626-.114a12.334 12.334 0 011.626-2.834" fill="#FFF" clip-path="url(#b)"/><path d="M116.925 38.854a11.357 11.357 0 01-2.981-3.42c.021 0 .042-.004.063-.004 1.542 0 3.02.321 4.38.892a18.098 18.098 0 00-1.462 2.532m-9.663-1.136a18.096 18.096 0 007.945 8.294c-.005.198-.021.396-.021.596 0 3.813 1.182 7.347 3.196 10.274-1.377.588-2.863.9-4.375.9-6.162 0-11.178-5.009-11.178-11.174-.001-3.628 1.747-6.85 4.433-8.89m26.092-2.289l.059.004a11.16 11.16 0 01-2.981 3.408 18.288 18.288 0 00-1.428-2.517 11.17 11.17 0 014.35-.895m-19.348-6.99c-.473 0-.945.038-1.415.072.709-5.541 5.368-9.73 11.09-9.73 5.68 0 10.376 4.265 11.073 9.76l-1.402-.102c-3.443 0-6.761.971-9.655 2.788a18.115 18.115 0 00-9.691-2.788m18.152 17.578a18.256 18.256 0 007.932-8.312c2.795 2.111 4.442 5.351 4.442 8.903 0 6.165-5.017 11.174-11.179 11.174-1.554 0-3.032-.312-4.375-.887a17.963 17.963 0 003.196-10.287zm-9.882 2.006l1.406.105c.473 0 .938-.034 1.402-.071a10.921 10.921 0 01-1.402 4.133 11.083 11.083 0 01-1.406-4.167m19.545-17.481c.008-.193.029-.388.029-.583 0-10.021-8.151-18.172-18.168-18.172s-18.173 8.151-18.173 18.172l.021.587c-5.76 3.053-9.688 9.105-9.688 16.062 0 10.017 8.146 18.168 18.164 18.168 3.459 0 6.787-.976 9.684-2.804a18.039 18.039 0 009.663 2.804c10.013 0 18.168-8.151 18.168-18.168.001-6.715-3.792-12.937-9.7-16.066" fill="#EC8023" clip-path="url(#b)"/><path d="M127.132 47.871a18.119 18.119 0 002.969-.857 15.926 15.926 0 01-2.956 8.987 10.958 10.958 0 01-2.204-1.939 13.179 13.179 0 002.191-6.191m-3.454-33.942c8.895 0 16.133 7.238 16.133 16.132 0 8.898-7.239 16.137-16.133 16.137l-1.478-.109c.05-.989.228-1.952.533-2.876l.945.063c7.281 0 13.21-5.93 13.21-13.215 0-7.281-5.929-13.21-13.21-13.21a13.116 13.116 0 00-13.142 12.036 18.077 18.077 0 00-2.978.862c.169-8.751 7.327-15.82 16.12-15.82" fill="#FFF" clip-path="url(#b)"/><path d="M133.349 30.576l1.475.11a11.01 11.01 0 01-.541 2.876l-.934-.06c-1.95 0-3.876.457-5.625 1.285a17.922 17.922 0 00-2.225-2.167 16.03 16.03 0 017.85-2.044m-19.343 32.275c-8.898 0-16.137-7.243-16.137-16.137 0-8.895 7.239-16.138 16.137-16.138 6.399 0 12.07 3.691 14.685 9.464-.87.436-1.794.773-2.771.972a13.145 13.145 0 00-11.914-7.51c-7.285 0-13.215 5.93-13.215 13.211 0 7.281 5.93 13.21 13.215 13.21 1.964 0 3.895-.461 5.655-1.301a18.588 18.588 0 002.217 2.167 15.955 15.955 0 01-7.872 2.062" fill="#FFF" clip-path="url(#b)"/><path d="M111.764 35.763a13.393 13.393 0 004.367 5.135c-.33.979-.574 1.984-.731 3.014a16.085 16.085 0 01-6.402-7.178c.87-.435 1.791-.773 2.766-.971m21.585 27.088c-8.898 0-16.136-7.243-16.136-16.137 0-3.392 1.034-6.588 2.977-9.322a11.032 11.032 0 012.208 1.939 13.118 13.118 0 00-2.264 7.383c0 7.281 5.929 13.21 13.214 13.21 7.281 0 13.21-5.929 13.21-13.21 0-4.38-2.125-8.354-5.685-10.829a18.36 18.36 0 00.736-3.028c4.818 2.889 7.872 8.181 7.872 13.857.001 8.893-7.237 16.137-16.132 16.137" fill="#FFF" clip-path="url(#b)"/><path d="M69.852 94.774c.955-.664 3.235-2.556 2.019-4.853-1.292-2.428-4.265-1.44-5.147-1.077-.123-.126-6.699-2.986-6.788-2.936.063-.042-2.567 3.042-2.567 3.042s-2.614-3.084-2.56-3.042c-.093-.05-6.664 2.81-6.787 2.936-.883-.363-3.852-1.351-5.144 1.077-1.225 2.296 1.06 4.188 2.015 4.853-.013.038-.021.055-.021.055s-2.145 3.8-2.12 3.753c.034-.063 6.195 7.462 6.195 7.462.009-.017-.012 4.845-.012 4.866 0 0 2.449 1.646 2.635 1.697.393 1.846.512 2.799.942 3.801.14.32 2.487 1.006 4.772 1.043h.182c2.276-.037 4.633-.723 4.764-1.043.435-1.002.554-1.955.942-3.801.194-.051 2.627-1.697 2.627-1.697.004.004 0-4.854.004-4.866-.004 0 6.162-7.526 6.192-7.462.029.047-2.116-3.753-2.116-3.753l-.027-.055" fill="#EC8023" clip-path="url(#b)"/><path fill="#1D427C" clip-path="url(#b)" d="M48.551 95.15l5.718-.067-.207 3.205zm12.851 3.214l.878 7.673s-4.029 2.184-4.227 2.29c-.005.215-.026 2.559-.026 2.74.186.14.913.685 1.665 1.002 1.359.573 2.719.24 2.736.235l.338-.088-.288 1.018-.123.021c-.063.013-1.596.288-2.846-.088-1.082-.329-1.647-.743-1.799-.862h-.654c-.148.11-.743.533-1.841.862-1.241.376-2.779.101-2.838.088l-.126-.021-.288-1.018.338.088c.017.005 1.376.338 2.741-.235.752-.317 1.479-.862 1.66-1.002l-.008-2.771c-.165-.109-4.215-2.99-4.215-2.99s7.154-.008 7.539-.013V95.255l5.955-.046.752-.005c-.001.001-5.108 3.028-5.323 3.16"/></g></svg>