<?xml version="1.0" standalone="no"?><!DOCTYPE svg PUBLIC "-//W3C//DTD SVG 1.1//EN" "http://www.w3.org/Graphics/SVG/1.1/DTD/svg11.dtd"><svg class="icon" width="200px" height="200.00px" viewBox="0 0 1024 1024" version="1.1" xmlns="http://www.w3.org/2000/svg"><path d="M438.923636 422.167273H944.872727v310.458182H438.923636z" fill="#BBEBA1" /><path d="M407.272727 322.56m-160.581818 0a160.581818 160.581818 0 1 0 321.163636 0 160.581818 160.581818 0 1 0-321.163636 0Z" fill="#BBEBA1" /><path d="M491.985455 920.203636c-29.323636 0-53.527273-24.203636-53.527273-53.527272v-128c0-29.323636 24.203636-53.527273 53.527273-53.527273s53.527273 24.203636 53.527272 53.527273v128c0 29.323636-24.203636 53.527273-53.527272 53.527272zM515.258182 501.294545c-29.323636 0-53.527273-24.203636-53.527273-53.527272V319.767273c0-29.323636 24.203636-53.527273 53.527273-53.527273s53.527273 24.203636 53.527273 53.527273v128c0 29.323636-24.203636 53.527273-53.527273 53.527272zM891.345455 920.203636c-29.323636 0-53.527273-24.203636-53.527273-53.527272v-128c0-29.323636 24.203636-53.527273 53.527273-53.527273s53.527273 24.203636 53.527272 53.527273v128c0 29.323636-24.203636 53.527273-53.527272 53.527272zM924.858182 442.181818c-3.723636 0-6.981818-0.930909-10.24-2.327273-11.170909-5.585455-16.290909-19.549091-10.705455-30.72 2.792727-6.981818 4.654545-33.047273 1.861818-42.356363-1.861818-4.189091-14.894545-16.756364-26.530909-24.669091-10.705455-7.447273-13.032727-21.876364-5.585454-32.581818 7.447273-10.705455 21.876364-13.032727 32.581818-5.585455 11.170909 7.912727 38.167273 28.392727 44.683636 49.803637 6.516364 20.945455 2.792727 61.44-4.654545 75.86909-4.654545 7.912727-13.032727 12.567273-21.410909 12.567273z" fill="#BBEBA1" /><path d="M451.490909 403.549091L260.654545 335.127273l-99.141818 40.494545s-55.854545 33.978182 0 94.487273 75.869091 87.04 200.145455 60.509091c18.618182 21.876364 77.730909 99.141818 77.730909 99.141818l52.596364-49.803636L451.490909 403.549091z" fill="#BBEBA1" /><path d="M392.378182 707.490909c-13.032727 0-23.272727-10.24-23.272727-23.272727v-93.090909c0-13.032727 10.24-23.272727 23.272727-23.272728s23.272727 10.24 23.272727 23.272728v93.090909c0 13.032727-10.705455 23.272727-23.272727 23.272727zM791.272727 707.490909h-291.84c-13.032727 0-23.272727-10.24-23.272727-23.272727s10.24-23.272727 23.272727-23.272727H791.272727c13.032727 0 23.272727 10.24 23.272728 23.272727s-10.24 23.272727-23.272728 23.272727zM898.327273 707.490909c-13.032727 0-23.272727-10.24-23.272728-23.272727V397.032727h-342.10909c-13.032727 0-23.272727-10.24-23.272728-23.272727s10.24-23.272727 23.272728-23.272727H921.6V684.218182c0 13.032727-10.24 23.272727-23.272727 23.272727zM521.309091 297.890909c-13.032727 0-23.272727-10.24-23.272727-23.272727 0-75.869091-61.44-137.309091-137.309091-137.309091S223.418182 198.749091 223.418182 274.618182c0 13.032727-10.24 23.272727-23.272727 23.272727s-23.272727-10.24-23.272728-23.272727c0-101.469091 82.385455-183.854545 183.854546-183.854546S544.581818 173.149091 544.581818 274.618182c0 13.032727-10.24 23.272727-23.272727 23.272727z" fill="#353E43" /><path d="M445.44 895.069091c-42.356364 0-76.8-34.443636-76.8-76.8v-128c0-13.032727 10.24-23.272727 23.272727-23.272727s23.272727 10.24 23.272728 23.272727v128c0 16.756364 13.498182 30.254545 30.254545 30.254545s30.254545-13.498182 30.254545-30.254545v-128c0-13.032727 10.24-23.272727 23.272728-23.272727s23.272727 10.24 23.272727 23.272727v128c0 42.356364-34.443636 76.8-76.8 76.8zM844.8 895.069091c-42.356364 0-76.8-34.443636-76.8-76.8v-128c0-13.032727 10.24-23.272727 23.272727-23.272727s23.272727 10.24 23.272728 23.272727v128c0 16.756364 13.498182 30.254545 30.254545 30.254545s30.254545-13.498182 30.254545-30.254545v-128c0-13.032727 10.24-23.272727 23.272728-23.272727s23.272727 10.24 23.272727 23.272727v128c0 42.356364-34.443636 76.8-76.8 76.8zM901.585455 380.276364c-3.723636 0-6.981818-0.930909-10.24-2.327273-11.170909-5.585455-16.290909-19.549091-10.705455-30.72 2.792727-6.981818 4.654545-33.047273 1.861818-42.356364-1.861818-4.189091-14.894545-16.756364-26.530909-24.669091-10.705455-7.447273-13.032727-21.876364-5.585454-32.581818 7.447273-10.705455 21.876364-13.032727 32.581818-5.585454 11.170909 7.912727 38.167273 28.392727 44.683636 49.803636 6.516364 20.945455 2.792727 61.44-4.654545 75.869091-4.654545 7.912727-13.032727 12.567273-21.410909 12.567273zM392.378182 614.4c-6.981818 0-13.498182-3.258182-18.152727-8.843636-0.465455-0.930909-52.596364-67.025455-77.73091-97.28-116.829091 22.341818-147.549091-4.654545-203.86909-65.629091l-4.654546-4.654546c-23.738182-25.6-33.978182-51.665455-30.254545-76.8 4.654545-33.978182 32.116364-51.665455 35.374545-53.527272l2.327273-0.93091 94.487273-45.14909c11.636364-5.585455 25.6-0.465455 31.185454 11.170909 5.585455 11.636364 0.465455 25.6-11.170909 31.185454l-93.090909 44.218182c-2.327273 1.861818-11.636364 9.309091-13.032727 20.014545-1.861818 13.498182 9.309091 28.392727 18.618181 38.632728l4.654546 4.654545c50.734545 54.923636 66.094545 71.68 173.614545 48.872727l13.498182-2.792727 8.843637 10.705455c18.618182 21.876364 84.712727 105.658182 87.505454 109.381818 7.912727 10.24 6.050909 24.669091-3.723636 32.581818-4.189091 2.792727-9.309091 4.189091-14.429091 4.189091z" fill="#353E43" /><path d="M287.185455 316.509091m-26.53091 0a26.530909 26.530909 0 1 0 53.061819 0 26.530909 26.530909 0 1 0-53.061819 0Z" fill="#353E43" /><path d="M518.981818 473.367273c-83.781818 0-146.618182-67.025455-146.618182-155.927273V249.949091c0-13.032727 10.24-23.272727 23.272728-23.272727s23.272727 10.24 23.272727 23.272727v67.490909c0 62.370909 42.821818 109.381818 100.072727 109.381818 13.032727 0 23.272727 10.24 23.272727 23.272727s-10.24 23.272727-23.272727 23.272728z" fill="#353E43" /><path d="M521.309091 472.436364c-13.032727 0-23.272727-10.24-23.272727-23.272728V270.894545c0-13.032727 10.24-23.272727 23.272727-23.272727s23.272727 10.24 23.272727 23.272727v177.803637c0 13.498182-10.24 23.738182-23.272727 23.738182zM331.869091 535.272727c-8.378182 0-16.290909-4.654545-20.48-12.101818-6.050909-11.170909-1.861818-25.6 9.309091-31.650909 0.465455 0 42.356364-22.807273 63.767273-38.632727 20.014545-14.429091 36.305455-37.701818 36.770909-38.167273 7.447273-10.24 21.876364-13.032727 32.581818-5.585455 10.705455 7.447273 13.032727 21.876364 5.585454 32.581819-0.930909 1.396364-20.945455 29.789091-47.010909 48.872727-24.203636 17.687273-67.490909 40.96-69.352727 41.890909-3.723636 1.861818-7.447273 2.792727-11.170909 2.792727z" fill="#353E43" /></svg>