<?xml version="1.0" standalone="no"?><!DOCTYPE svg PUBLIC "-//W3C//DTD SVG 1.1//EN" "http://www.w3.org/Graphics/SVG/1.1/DTD/svg11.dtd"><svg class="icon" width="200px" height="200.00px" viewBox="0 0 1024 1024" version="1.1" xmlns="http://www.w3.org/2000/svg"><path d="M729.045333 841.429333c-100.693333 58.026667-238.506667 64-378.026666 4.266667a589.098667 589.098667 0 0 1-265.813334-226.986667c28.586667 23.466667 62.293333 42.666667 98.133334 59.733334 143.786667 66.986667 287.146667 62.293333 388.266666 0-143.786667-110.506667-266.24-254.293333-357.12-371.626667-19.2-19.2-33.28-43.093333-47.786666-64.426667 353.28 258.133333 337.92 323.84 102.826666-43.093333 208.64 210.773333 402.346667 330.24 402.346667 330.24 6.826667 3.84 10.666667 6.826667 15.36 9.386667 4.266667-10.666667 8.106667-21.76 11.093333-33.28 33.706667-121.6-4.693333-261.12-88.746666-375.893334 194.133333 117.333333 309.333333 337.493333 261.12 522.24-1.28 4.693333-2.56 9.386667-2.133334 16.64 95.573333 120.746667 69.973333 246.613333 57.6 222.72-51.626667-101.973333-148.48-70.4-197.12-49.92z" fill="#FE5E2F" /></svg>