<?xml version="1.0" standalone="no"?><!DOCTYPE svg PUBLIC "-//W3C//DTD SVG 1.1//EN" "http://www.w3.org/Graphics/SVG/1.1/DTD/svg11.dtd"><svg class="icon" width="200px" height="200.00px" viewBox="0 0 1024 1024" version="1.1" xmlns="http://www.w3.org/2000/svg"><path d="M277.333333 418.133333c31.274667-125.184 109.525333-187.733333 234.666667-187.733333 187.733333 0 211.242667 140.8 305.109333 164.266667 62.592 15.658667 117.333333-7.850667 164.266667-70.4-31.232 125.141333-109.482667 187.733333-234.666667 187.733333-187.733333 0-211.2-140.8-305.066666-164.266667-62.634667-15.701333-117.376 7.808-164.352 70.4zM42.581333 699.733333c31.274667-125.141333 109.525333-187.733333 234.666667-187.733333 187.776 0 211.2 140.8 305.152 164.266667 62.549333 15.701333 117.333333-7.808 164.266667-70.4-31.317333 125.184-109.525333 187.733333-234.666667 187.733333-187.776 0-211.242667-140.8-305.152-164.266667-62.549333-15.658667-117.333333 7.850667-164.266667 70.4z" fill="#4DB6AC" /></svg>