<?xml version="1.0" standalone="no"?><!DOCTYPE svg PUBLIC "-//W3C//DTD SVG 1.1//EN" "http://www.w3.org/Graphics/SVG/1.1/DTD/svg11.dtd"><svg class="icon" width="200px" height="200.00px" viewBox="0 0 1024 1024" version="1.1" xmlns="http://www.w3.org/2000/svg"><path d="M682.666667 42.666667a42.666667 42.666667 0 0 1 42.666666 42.666666v42.624L938.666667 128v256l-86.186667-0.042667 118.058667 324.096a170.666667 170.666667 0 0 1-325.12 102.656h-181.461334a170.752 170.752 0 0 1-332.8-9.728A85.205333 85.205333 0 0 1 85.333333 725.333333v-213.333333h384a42.666667 42.666667 0 0 0 37.674667 42.368L512 554.666667h85.333333a42.666667 42.666667 0 0 0 42.368-37.674667L640 512V128h-128V42.666667h170.666667zM298.666667 682.666667a85.333333 85.333333 0 1 0 0 170.666666 85.333333 85.333333 0 0 0 0-170.666666z m512 0a85.333333 85.333333 0 1 0 0 170.666666 85.333333 85.333333 0 0 0 0-170.666666zM426.666667 128a42.666667 42.666667 0 0 1 42.666666 42.666667v298.666666H85.333333V170.666667a42.666667 42.666667 0 0 1 42.666667-42.666667h298.666667z m426.666666 85.333333h-128v85.333334h128V213.333333zM384 213.333333H170.666667v42.666667h213.333333V213.333333z" fill="#ea9518" /></svg>