<?xml version="1.0" standalone="no"?><!DOCTYPE svg PUBLIC "-//W3C//DTD SVG 1.1//EN" "http://www.w3.org/Graphics/SVG/1.1/DTD/svg11.dtd"><svg class="icon" width="200px" height="200.00px" viewBox="0 0 1024 1024" version="1.1" xmlns="http://www.w3.org/2000/svg"><path d="M94.208 94.208v835.584h835.584V94.208H94.208z m634.92096 405.85216v0.012288c8.011776 0.024576 17.119232 0.436224 23.967744 1.179648 27.891712 3.016704 49.6128 15.050752 68.091904 37.715968 9.201664 11.290624 12.34944 16.2304 11.679744 18.343936-0.432128 1.363968-6.746112 5.885952-26.820608 19.21024-19.720192 13.092864-26.07104 17.014784-27.5456 17.014784-1.497088 0-4.614144-3.207168-9.105408-9.365504-8.6528-11.855872-17.485824-17.266688-31.13984-19.070976-14.68416-1.9456-27.856896 2.68288-34.308096 12.058624-5.515264 8.011776-6.3488 20.901888-1.96608 30.26944 5.07904 10.848256 14.270464 16.846848 49.494016 32.290816 40.624128 17.813504 61.210624 30.005248 76.204032 45.13792 16.146432 16.293888 24.326144 35.106816 26.83904 61.718528 1.226752 12.972032-0.272384 28.34432-3.98336 40.843264-9.10336 30.640128-33.66912 53.075968-69.67296 63.635456-9.95328 2.9184-19.214336 4.661248-28.37504 5.332992-13.985792 1.030144-34.002944 0.462848-46.051328-1.29024-30.482432-4.442112-64.892928-22.17984-82.051072-42.2912-8.423424-9.873408-19.177472-26.12224-19.177472-28.9792 0-1.380352 0.684032-2.164736 3.391488-3.885056 8.032256-5.103616 54.054912-31.412224 54.94784-31.412224 0.540672 0 2.945024 2.832384 5.341184 6.295552 5.429248 7.839744 18.78016 21.313536 25.567232 25.808896 5.543936 3.672064 12.634112 6.619136 21.051392 8.747008 4.820992 1.202176 7.3728 1.417216 17.891328 1.417216 10.747904-0.004096 12.951552-0.18432 17.760256-1.476608 12.71808-3.422208 22.644736-10.50624 26.851328-19.156992 1.8432-3.7376 1.880064-4.204544 1.880064-13.27104v-9.40032l-2.260992-4.48512c-5.474304-10.866688-17.270784-18.323456-54.56896-34.47808-17.13152-7.421952-38.11328-17.885184-46.30528-23.0912-18.696192-11.880448-31.653888-25.462784-40.157184-42.088448-8.45824-16.533504-9.71776-22.687744-9.73824-47.548416-0.02048-19.462144-0.053248-19.222528 3.975168-31.643648 3.65568-11.272192 11.139072-23.863296 19.400704-32.64512 16.4864-17.524736 40.577024-28.788736 66.367488-31.029248 3.29728-0.313344 7.716864-0.434176 12.52352-0.41984z m-221.92128 3.844096h0.008192c49.670144 0.024576 78.143488 0.196608 78.600192 0.483328 0.86016 0.53248 0.968704 4.855808 0.968704 32.444416v31.827968l-49.563648 0.180224-49.563648 0.180224v140.724224c0 77.400064-0.157696 141.185024-0.372736 141.748224-0.350208 0.948224-4.163584 1.019904-36.41344 1.019904h-36.018176l-0.372736-1.45408c-0.239616-0.79872-0.415744-64.587776-0.41984-141.750272l-0.012288-140.296192-49.5616-0.176128-49.565696-0.180224v-31.451136c0-24.94464 0.172032-31.625216 0.837632-32.288768 0.681984-0.702464 25.976832-0.882688 134.967296-0.991232 21.01248-0.02048 39.92576-0.03072 56.48384-0.02048z" fill="#0288D1" /></svg>