<svg width="600" height="600" viewBox="0 0 600 600" fill="none" xmlns="http://www.w3.org/2000/svg">
<rect width="600" height="600" fill="#F1F2F6"/>
<path d="M447.29 337.42V351.676C447.29 352.996 447.35 354.112 447.47 355.024C447.614 355.912 447.938 356.704 448.442 357.4C448.946 358.096 449.75 358.78 450.854 359.452L449.666 361.36C448.346 360.664 447.35 359.884 446.678 359.02C446.006 358.132 445.55 357.1 445.31 355.924C445.094 354.748 444.986 353.332 444.986 351.676V339.688L444.266 337.42H447.29ZM452.893 351.46C452.893 351.004 452.905 350.464 452.929 349.84C452.953 349.216 453.061 348.568 453.253 347.896C453.469 347.224 453.841 346.6 454.369 346.024C455.041 345.304 455.773 344.86 456.565 344.692C457.381 344.524 458.089 344.44 458.689 344.44C459.313 344.44 460.021 344.524 460.813 344.692C461.605 344.86 462.337 345.304 463.009 346.024C463.537 346.6 463.897 347.224 464.089 347.896C464.305 348.568 464.425 349.216 464.449 349.84C464.473 350.464 464.485 351.004 464.485 351.46V357.328L465.709 358.804C464.749 359.644 463.693 360.28 462.541 360.712C461.389 361.144 460.105 361.36 458.689 361.36C457.297 361.36 456.121 361.192 455.161 360.856C454.225 360.496 453.469 360.124 452.893 359.74V351.46ZM455.197 358.264C455.749 358.648 456.337 358.9 456.961 359.02C457.585 359.14 458.161 359.2 458.689 359.2C459.217 359.2 459.793 359.14 460.417 359.02C461.065 358.9 461.653 358.648 462.181 358.264V351.388C462.181 350.86 462.145 350.26 462.073 349.588C462.025 348.916 461.821 348.328 461.461 347.824C461.293 347.584 460.993 347.32 460.561 347.032C460.129 346.744 459.505 346.6 458.689 346.6C457.873 346.6 457.249 346.744 456.817 347.032C456.409 347.32 456.109 347.584 455.917 347.824C455.557 348.328 455.341 348.916 455.269 349.588C455.221 350.26 455.197 350.86 455.197 351.388V358.264ZM470.305 344.44C471.313 344.44 472.321 344.536 473.329 344.728C474.337 344.896 475.261 345.208 476.101 345.664C476.941 346.096 477.613 346.732 478.117 347.572C478.621 348.388 478.873 349.444 478.873 350.74V357.94L479.845 359.596C478.741 360.22 477.637 360.676 476.533 360.964C475.453 361.228 474.457 361.36 473.545 361.36C472.369 361.36 471.421 361.216 470.701 360.928C469.981 360.616 469.417 360.268 469.009 359.884C468.625 359.476 468.289 358.972 468.001 358.372C467.713 357.748 467.569 357.052 467.569 356.284C467.569 355.084 467.821 354.1 468.325 353.332C468.829 352.54 469.501 351.928 470.341 351.496C471.205 351.064 472.165 350.764 473.221 350.596C474.301 350.404 475.417 350.308 476.569 350.308C476.521 349.516 476.281 348.892 475.849 348.436C475.441 347.956 474.913 347.596 474.265 347.356C473.641 347.116 472.969 346.96 472.249 346.888C471.529 346.792 470.821 346.732 470.125 346.708L470.305 344.44ZM476.569 352.468C475.993 352.468 475.333 352.504 474.589 352.576C473.845 352.648 473.125 352.804 472.429 353.044C471.733 353.26 471.157 353.608 470.701 354.088C470.245 354.568 470.017 355.216 470.017 356.032C470.017 356.584 470.101 357.052 470.269 357.436C470.437 357.796 470.629 358.072 470.845 358.264C471.229 358.648 471.661 358.9 472.141 359.02C472.645 359.14 473.137 359.2 473.617 359.2C474.193 359.2 474.721 359.14 475.201 359.02C475.681 358.9 476.137 358.756 476.569 358.588V352.468ZM495.48 359.704C494.736 360.136 493.848 360.52 492.816 360.856C491.784 361.192 490.644 361.36 489.396 361.36C487.764 361.36 486.444 360.952 485.436 360.136C484.428 359.32 483.696 358.276 483.24 357.004C482.808 355.708 482.592 354.34 482.592 352.9C482.592 351.46 482.832 350.104 483.312 348.832C483.816 347.536 484.56 346.48 485.544 345.664C486.528 344.848 487.764 344.44 489.252 344.44C489.804 344.44 490.308 344.476 490.764 344.548C491.22 344.62 491.7 344.728 492.204 344.872V339.688L491.484 337.42H494.508V357.868L495.48 359.704ZM492.204 347.176C491.94 347.056 491.58 346.936 491.124 346.816C490.692 346.672 490.188 346.6 489.612 346.6C488.436 346.6 487.512 346.924 486.84 347.572C486.168 348.22 485.688 349.036 485.4 350.02C485.112 350.98 484.968 351.94 484.968 352.9C484.968 353.86 485.088 354.832 485.328 355.816C485.592 356.776 486.06 357.58 486.732 358.228C487.404 358.876 488.34 359.2 489.54 359.2C490.548 359.2 491.436 359.008 492.204 358.624V347.176ZM501.508 338.824V341.524H498.952V338.824H501.508ZM501.364 344.8V361H499.096V347.068L498.34 344.8H501.364ZM504.983 346.096C505.607 345.712 506.435 345.34 507.467 344.98C508.499 344.62 509.735 344.44 511.175 344.44C511.799 344.44 512.459 344.512 513.155 344.656C513.875 344.776 514.559 345.04 515.207 345.448C515.855 345.832 516.383 346.444 516.791 347.284C516.959 347.644 517.079 348.076 517.151 348.58C517.247 349.084 517.319 349.744 517.367 350.56C517.415 351.352 517.439 352.396 517.439 353.692V361H515.135V353.62C515.135 352.036 515.087 350.836 514.991 350.02C514.919 349.18 514.739 348.532 514.451 348.076C514.235 347.74 513.863 347.416 513.335 347.104C512.831 346.768 512.063 346.6 511.031 346.6C510.455 346.6 509.927 346.648 509.447 346.744C508.967 346.84 508.523 346.972 508.115 347.14V361H505.811V347.86L504.983 346.096ZM532.61 347.896V350.884C532.61 352.636 532.082 354.04 531.026 355.096C529.994 356.152 528.554 356.68 526.706 356.68C526.538 356.68 526.37 356.68 526.202 356.68C526.034 356.656 525.89 356.632 525.77 356.608V358.84H527.678C528.662 358.84 529.61 358.972 530.522 359.236C531.458 359.5 532.214 359.968 532.79 360.64C533.39 361.312 533.69 362.26 533.69 363.484V364.348L534.914 365.824C533.906 366.736 532.742 367.42 531.422 367.876C530.126 368.356 528.758 368.596 527.318 368.596C524.558 368.596 522.182 367.804 520.19 366.22L521.414 364.384C522.542 365.2 523.526 365.74 524.366 366.004C525.23 366.292 526.214 366.436 527.318 366.436C528.254 366.436 529.058 366.328 529.73 366.112C530.402 365.896 530.954 365.644 531.386 365.356V364.6C531.386 363.4 531.134 362.5 530.63 361.9C530.15 361.3 529.166 361 527.678 361H523.43V356.068C522.566 355.66 521.906 355.036 521.45 354.196C520.994 353.356 520.766 352.372 520.766 351.244V349.984C520.766 348.736 521.054 347.704 521.63 346.888C522.206 346.072 522.974 345.46 523.934 345.052C524.918 344.644 525.998 344.44 527.174 344.44C528.734 344.44 530.03 344.632 531.062 345.016C532.094 345.376 532.886 345.7 533.438 345.988L532.61 347.896ZM530.306 347.284C529.898 347.092 529.418 346.936 528.866 346.816C528.314 346.672 527.678 346.6 526.958 346.6C525.83 346.6 524.894 346.9 524.15 347.5C523.43 348.076 523.07 348.904 523.07 349.984V351.244C523.07 352.276 523.394 353.08 524.042 353.656C524.714 354.232 525.578 354.52 526.634 354.52C527.738 354.52 528.614 354.208 529.262 353.584C529.91 352.96 530.258 352.048 530.306 350.848V347.284ZM539.336 357.976V361H536.312V357.976H539.336ZM545.664 357.976V361H542.64V357.976H545.664ZM551.993 357.976V361H548.969V357.976H551.993ZM178.5 426.848H188.652V429.368H178.5V426.848ZM208.512 420.908C208.944 420.764 209.412 420.656 209.916 420.584C210.444 420.488 210.984 420.44 211.536 420.44C212.136 420.44 212.796 420.512 213.516 420.656C214.236 420.776 214.92 421.04 215.568 421.448C216.216 421.832 216.732 422.444 217.116 423.284C217.284 423.644 217.416 424.076 217.512 424.58C217.608 425.084 217.668 425.744 217.692 426.56C217.74 427.352 217.764 428.396 217.764 429.692V437H215.46V429.62C215.46 428.036 215.424 426.836 215.352 426.02C215.28 425.18 215.088 424.532 214.776 424.076C214.584 423.74 214.224 423.416 213.696 423.104C213.192 422.768 212.424 422.6 211.392 422.6C210.792 422.6 210.252 422.648 209.772 422.744C209.316 422.84 208.896 422.972 208.512 423.14V437H206.208V415.688L205.488 413.42H208.512V420.908ZM223.649 420.44C224.657 420.44 225.665 420.536 226.673 420.728C227.681 420.896 228.605 421.208 229.445 421.664C230.285 422.096 230.957 422.732 231.461 423.572C231.965 424.388 232.217 425.444 232.217 426.74V433.94L233.189 435.596C232.085 436.22 230.981 436.676 229.877 436.964C228.797 437.228 227.801 437.36 226.889 437.36C225.713 437.36 224.765 437.216 224.045 436.928C223.325 436.616 222.761 436.268 222.353 435.884C221.969 435.476 221.633 434.972 221.345 434.372C221.057 433.748 220.913 433.052 220.913 432.284C220.913 431.084 221.165 430.1 221.669 429.332C222.173 428.54 222.845 427.928 223.685 427.496C224.549 427.064 225.509 426.764 226.565 426.596C227.645 426.404 228.761 426.308 229.913 426.308C229.865 425.516 229.625 424.892 229.193 424.436C228.785 423.956 228.257 423.596 227.609 423.356C226.985 423.116 226.313 422.96 225.593 422.888C224.873 422.792 224.165 422.732 223.469 422.708L223.649 420.44ZM229.913 428.468C229.337 428.468 228.677 428.504 227.933 428.576C227.189 428.648 226.469 428.804 225.773 429.044C225.077 429.26 224.501 429.608 224.045 430.088C223.589 430.568 223.361 431.216 223.361 432.032C223.361 432.584 223.445 433.052 223.613 433.436C223.781 433.796 223.973 434.072 224.189 434.264C224.573 434.648 225.005 434.9 225.485 435.02C225.989 435.14 226.481 435.2 226.961 435.2C227.537 435.2 228.065 435.14 228.545 435.02C229.025 434.9 229.481 434.756 229.913 434.588V428.468ZM235.792 422.096C236.416 421.712 237.244 421.34 238.276 420.98C239.308 420.62 240.544 420.44 241.984 420.44C242.608 420.44 243.268 420.512 243.964 420.656C244.684 420.776 245.368 421.04 246.016 421.448C246.664 421.832 247.192 422.444 247.6 423.284C247.768 423.644 247.888 424.076 247.96 424.58C248.056 425.084 248.128 425.744 248.176 426.56C248.224 427.352 248.248 428.396 248.248 429.692V437H245.944V429.62C245.944 428.036 245.896 426.836 245.8 426.02C245.728 425.18 245.548 424.532 245.26 424.076C245.044 423.74 244.672 423.416 244.144 423.104C243.64 422.768 242.872 422.6 241.84 422.6C241.264 422.6 240.736 422.648 240.256 422.744C239.776 422.84 239.332 422.972 238.924 423.14V437H236.62V423.86L235.792 422.096ZM261.186 423.752C260.514 423.416 259.854 423.152 259.206 422.96C258.582 422.768 257.862 422.672 257.046 422.672C256.254 422.672 255.57 422.828 254.994 423.14C254.442 423.452 254.166 424.028 254.166 424.868C254.166 425.516 254.382 426.032 254.814 426.416C255.246 426.776 255.774 427.112 256.398 427.424L258.774 428.576C259.83 429.08 260.658 429.668 261.258 430.34C261.858 430.988 262.158 431.792 262.158 432.752V433.58L263.382 435.056C262.35 436.016 261.258 436.64 260.106 436.928C258.954 437.216 257.85 437.36 256.794 437.36C255.762 437.36 254.826 437.264 253.986 437.072C253.146 436.904 252.438 436.7 251.862 436.46V434.156C252.534 434.444 253.23 434.696 253.95 434.912C254.694 435.104 255.618 435.2 256.722 435.2C257.37 435.2 257.97 435.128 258.522 434.984C259.098 434.84 259.542 434.648 259.854 434.408V433.688C259.854 432.968 259.698 432.38 259.386 431.924C259.098 431.444 258.498 430.976 257.586 430.52L254.814 429.152C254.022 428.744 253.326 428.228 252.726 427.604C252.15 426.98 251.862 426.068 251.862 424.868C251.862 423.524 252.318 422.456 253.23 421.664C254.166 420.848 255.438 420.44 257.046 420.44C258.078 420.44 259.014 420.56 259.854 420.8C260.718 421.04 261.474 421.352 262.122 421.736L261.186 423.752ZM268.418 413.42V437H266.114V415.688L265.394 413.42H268.418ZM268.922 429.188C269.09 427.868 269.474 426.62 270.074 425.444C270.698 424.244 271.526 423.212 272.558 422.348C273.59 421.46 274.778 420.824 276.122 420.44L276.914 422.6C275.666 422.96 274.574 423.56 273.638 424.4C272.702 425.216 272.018 426.284 271.586 427.604L277.31 436.064L275.366 437.36L269.894 429.188H268.922ZM282.344 414.824V417.524H279.788V414.824H282.344ZM282.2 420.8V437H279.932V423.068L279.176 420.8H282.2ZM285.819 422.096C286.443 421.712 287.271 421.34 288.303 420.98C289.335 420.62 290.571 420.44 292.011 420.44C292.635 420.44 293.295 420.512 293.991 420.656C294.711 420.776 295.395 421.04 296.043 421.448C296.691 421.832 297.219 422.444 297.627 423.284C297.795 423.644 297.915 424.076 297.987 424.58C298.083 425.084 298.155 425.744 298.203 426.56C298.251 427.352 298.275 428.396 298.275 429.692V437H295.971V429.62C295.971 428.036 295.923 426.836 295.827 426.02C295.755 425.18 295.575 424.532 295.287 424.076C295.071 423.74 294.699 423.416 294.171 423.104C293.667 422.768 292.899 422.6 291.867 422.6C291.291 422.6 290.763 422.648 290.283 422.744C289.803 422.84 289.359 422.972 288.951 423.14V437H286.647V423.86L285.819 422.096ZM313.446 423.896V426.884C313.446 428.636 312.918 430.04 311.862 431.096C310.83 432.152 309.39 432.68 307.542 432.68C307.374 432.68 307.206 432.68 307.038 432.68C306.87 432.656 306.726 432.632 306.606 432.608V434.84H308.514C309.498 434.84 310.446 434.972 311.358 435.236C312.294 435.5 313.05 435.968 313.626 436.64C314.226 437.312 314.526 438.26 314.526 439.484V440.348L315.75 441.824C314.742 442.736 313.578 443.42 312.258 443.876C310.962 444.356 309.594 444.596 308.154 444.596C305.394 444.596 303.018 443.804 301.026 442.22L302.25 440.384C303.378 441.2 304.362 441.74 305.202 442.004C306.066 442.292 307.05 442.436 308.154 442.436C309.09 442.436 309.894 442.328 310.566 442.112C311.238 441.896 311.79 441.644 312.222 441.356V440.6C312.222 439.4 311.97 438.5 311.466 437.9C310.986 437.3 310.002 437 308.514 437H304.266V432.068C303.402 431.66 302.742 431.036 302.286 430.196C301.83 429.356 301.602 428.372 301.602 427.244V425.984C301.602 424.736 301.89 423.704 302.466 422.888C303.042 422.072 303.81 421.46 304.77 421.052C305.754 420.644 306.834 420.44 308.01 420.44C309.57 420.44 310.866 420.632 311.898 421.016C312.93 421.376 313.722 421.7 314.274 421.988L313.446 423.896ZM311.142 423.284C310.734 423.092 310.254 422.936 309.702 422.816C309.15 422.672 308.514 422.6 307.794 422.6C306.666 422.6 305.73 422.9 304.986 423.5C304.266 424.076 303.906 424.904 303.906 425.984V427.244C303.906 428.276 304.23 429.08 304.878 429.656C305.55 430.232 306.414 430.52 307.47 430.52C308.574 430.52 309.45 430.208 310.098 429.584C310.746 428.96 311.094 428.048 311.142 426.848V423.284ZM326.796 414.464L328.992 415.22L318.444 444.596L316.248 443.84L326.796 414.464ZM334.266 420.908C334.698 420.764 335.166 420.656 335.67 420.584C336.198 420.488 336.738 420.44 337.29 420.44C337.89 420.44 338.55 420.512 339.27 420.656C339.99 420.776 340.674 421.04 341.322 421.448C341.97 421.832 342.486 422.444 342.87 423.284C343.038 423.644 343.17 424.076 343.266 424.58C343.362 425.084 343.422 425.744 343.446 426.56C343.494 427.352 343.518 428.396 343.518 429.692V437H341.214V429.62C341.214 428.036 341.178 426.836 341.106 426.02C341.034 425.18 340.842 424.532 340.53 424.076C340.338 423.74 339.978 423.416 339.45 423.104C338.946 422.768 338.178 422.6 337.146 422.6C336.546 422.6 336.006 422.648 335.526 422.744C335.07 422.84 334.65 422.972 334.266 423.14V437H331.962V415.688L331.242 413.42H334.266V420.908ZM349.403 420.44C350.411 420.44 351.419 420.536 352.427 420.728C353.435 420.896 354.359 421.208 355.199 421.664C356.039 422.096 356.711 422.732 357.215 423.572C357.719 424.388 357.971 425.444 357.971 426.74V433.94L358.943 435.596C357.839 436.22 356.735 436.676 355.631 436.964C354.551 437.228 353.555 437.36 352.643 437.36C351.467 437.36 350.519 437.216 349.799 436.928C349.079 436.616 348.515 436.268 348.107 435.884C347.723 435.476 347.387 434.972 347.099 434.372C346.811 433.748 346.667 433.052 346.667 432.284C346.667 431.084 346.919 430.1 347.423 429.332C347.927 428.54 348.599 427.928 349.439 427.496C350.303 427.064 351.263 426.764 352.319 426.596C353.399 426.404 354.515 426.308 355.667 426.308C355.619 425.516 355.379 424.892 354.947 424.436C354.539 423.956 354.011 423.596 353.363 423.356C352.739 423.116 352.067 422.96 351.347 422.888C350.627 422.792 349.919 422.732 349.223 422.708L349.403 420.44ZM355.667 428.468C355.091 428.468 354.431 428.504 353.687 428.576C352.943 428.648 352.223 428.804 351.527 429.044C350.831 429.26 350.255 429.608 349.799 430.088C349.343 430.568 349.115 431.216 349.115 432.032C349.115 432.584 349.199 433.052 349.367 433.436C349.535 433.796 349.727 434.072 349.943 434.264C350.327 434.648 350.759 434.9 351.239 435.02C351.743 435.14 352.235 435.2 352.715 435.2C353.291 435.2 353.819 435.14 354.299 435.02C354.779 434.9 355.235 434.756 355.667 434.588V428.468ZM361.545 422.096C362.169 421.712 362.997 421.34 364.029 420.98C365.061 420.62 366.297 420.44 367.737 420.44C368.361 420.44 369.021 420.512 369.717 420.656C370.437 420.776 371.121 421.04 371.769 421.448C372.417 421.832 372.945 422.444 373.353 423.284C373.521 423.644 373.641 424.076 373.713 424.58C373.809 425.084 373.881 425.744 373.929 426.56C373.977 427.352 374.001 428.396 374.001 429.692V437H371.697V429.62C371.697 428.036 371.649 426.836 371.553 426.02C371.481 425.18 371.301 424.532 371.013 424.076C370.797 423.74 370.425 423.416 369.897 423.104C369.393 422.768 368.625 422.6 367.593 422.6C367.017 422.6 366.489 422.648 366.009 422.744C365.529 422.84 365.085 422.972 364.677 423.14V437H362.373V423.86L361.545 422.096ZM386.94 423.752C386.268 423.416 385.608 423.152 384.96 422.96C384.336 422.768 383.616 422.672 382.8 422.672C382.008 422.672 381.324 422.828 380.748 423.14C380.196 423.452 379.92 424.028 379.92 424.868C379.92 425.516 380.136 426.032 380.568 426.416C381 426.776 381.528 427.112 382.152 427.424L384.528 428.576C385.584 429.08 386.412 429.668 387.012 430.34C387.612 430.988 387.912 431.792 387.912 432.752V433.58L389.136 435.056C388.104 436.016 387.012 436.64 385.86 436.928C384.708 437.216 383.604 437.36 382.548 437.36C381.516 437.36 380.58 437.264 379.74 437.072C378.9 436.904 378.192 436.7 377.616 436.46V434.156C378.288 434.444 378.984 434.696 379.704 434.912C380.448 435.104 381.372 435.2 382.476 435.2C383.124 435.2 383.724 435.128 384.276 434.984C384.852 434.84 385.296 434.648 385.608 434.408V433.688C385.608 432.968 385.452 432.38 385.14 431.924C384.852 431.444 384.252 430.976 383.34 430.52L380.568 429.152C379.776 428.744 379.08 428.228 378.48 427.604C377.904 426.98 377.616 426.068 377.616 424.868C377.616 423.524 378.072 422.456 378.984 421.664C379.92 420.848 381.192 420.44 382.8 420.44C383.832 420.44 384.768 420.56 385.608 420.8C386.472 421.04 387.228 421.352 387.876 421.736L386.94 423.752ZM394.172 413.42V437H391.868V415.688L391.148 413.42H394.172ZM394.676 429.188C394.844 427.868 395.228 426.62 395.828 425.444C396.452 424.244 397.28 423.212 398.312 422.348C399.344 421.46 400.532 420.824 401.876 420.44L402.668 422.6C401.42 422.96 400.328 423.56 399.392 424.4C398.456 425.216 397.772 426.284 397.34 427.604L403.064 436.064L401.12 437.36L395.648 429.188H394.676ZM408.098 414.824V417.524H405.542V414.824H408.098ZM407.954 420.8V437H405.686V423.068L404.93 420.8H407.954ZM411.573 422.096C412.197 421.712 413.025 421.34 414.057 420.98C415.089 420.62 416.325 420.44 417.765 420.44C418.389 420.44 419.049 420.512 419.745 420.656C420.465 420.776 421.149 421.04 421.797 421.448C422.445 421.832 422.973 422.444 423.381 423.284C423.549 423.644 423.669 424.076 423.741 424.58C423.837 425.084 423.909 425.744 423.957 426.56C424.005 427.352 424.029 428.396 424.029 429.692V437H421.725V429.62C421.725 428.036 421.677 426.836 421.581 426.02C421.509 425.18 421.329 424.532 421.041 424.076C420.825 423.74 420.453 423.416 419.925 423.104C419.421 422.768 418.653 422.6 417.621 422.6C417.045 422.6 416.517 422.648 416.037 422.744C415.557 422.84 415.113 422.972 414.705 423.14V437H412.401V423.86L411.573 422.096ZM439.199 423.896V426.884C439.199 428.636 438.671 430.04 437.615 431.096C436.583 432.152 435.143 432.68 433.295 432.68C433.127 432.68 432.959 432.68 432.791 432.68C432.623 432.656 432.479 432.632 432.359 432.608V434.84H434.267C435.251 434.84 436.199 434.972 437.111 435.236C438.047 435.5 438.803 435.968 439.379 436.64C439.979 437.312 440.279 438.26 440.279 439.484V440.348L441.503 441.824C440.495 442.736 439.331 443.42 438.011 443.876C436.715 444.356 435.347 444.596 433.907 444.596C431.147 444.596 428.771 443.804 426.779 442.22L428.003 440.384C429.131 441.2 430.115 441.74 430.955 442.004C431.819 442.292 432.803 442.436 433.907 442.436C434.843 442.436 435.647 442.328 436.319 442.112C436.991 441.896 437.543 441.644 437.975 441.356V440.6C437.975 439.4 437.723 438.5 437.219 437.9C436.739 437.3 435.755 437 434.267 437H430.019V432.068C429.155 431.66 428.495 431.036 428.039 430.196C427.583 429.356 427.355 428.372 427.355 427.244V425.984C427.355 424.736 427.643 423.704 428.219 422.888C428.795 422.072 429.563 421.46 430.523 421.052C431.507 420.644 432.587 420.44 433.763 420.44C435.323 420.44 436.619 420.632 437.651 421.016C438.683 421.376 439.475 421.7 440.027 421.988L439.199 423.896ZM436.895 423.284C436.487 423.092 436.007 422.936 435.455 422.816C434.903 422.672 434.267 422.6 433.547 422.6C432.419 422.6 431.483 422.9 430.739 423.5C430.019 424.076 429.659 424.904 429.659 425.984V427.244C429.659 428.276 429.983 429.08 430.631 429.656C431.303 430.232 432.167 430.52 433.223 430.52C434.327 430.52 435.203 430.208 435.851 429.584C436.499 428.96 436.847 428.048 436.895 426.848V423.284ZM452.55 414.464L454.746 415.22L444.198 444.596L442.002 443.84L452.55 414.464ZM460.02 420.908C460.452 420.764 460.92 420.656 461.424 420.584C461.952 420.488 462.492 420.44 463.044 420.44C463.644 420.44 464.304 420.512 465.024 420.656C465.744 420.776 466.428 421.04 467.076 421.448C467.724 421.832 468.24 422.444 468.624 423.284C468.792 423.644 468.924 424.076 469.02 424.58C469.116 425.084 469.176 425.744 469.2 426.56C469.248 427.352 469.272 428.396 469.272 429.692V437H466.968V429.62C466.968 428.036 466.932 426.836 466.86 426.02C466.788 425.18 466.596 424.532 466.284 424.076C466.092 423.74 465.732 423.416 465.204 423.104C464.7 422.768 463.932 422.6 462.9 422.6C462.3 422.6 461.76 422.648 461.28 422.744C460.824 422.84 460.404 422.972 460.02 423.14V437H457.716V415.688L456.996 413.42H460.02V420.908ZM475.157 420.44C476.165 420.44 477.173 420.536 478.181 420.728C479.189 420.896 480.113 421.208 480.953 421.664C481.793 422.096 482.465 422.732 482.969 423.572C483.473 424.388 483.725 425.444 483.725 426.74V433.94L484.697 435.596C483.593 436.22 482.489 436.676 481.385 436.964C480.305 437.228 479.309 437.36 478.397 437.36C477.221 437.36 476.273 437.216 475.553 436.928C474.833 436.616 474.269 436.268 473.861 435.884C473.477 435.476 473.141 434.972 472.853 434.372C472.565 433.748 472.421 433.052 472.421 432.284C472.421 431.084 472.673 430.1 473.177 429.332C473.681 428.54 474.353 427.928 475.193 427.496C476.057 427.064 477.017 426.764 478.073 426.596C479.153 426.404 480.269 426.308 481.421 426.308C481.373 425.516 481.133 424.892 480.701 424.436C480.293 423.956 479.765 423.596 479.117 423.356C478.493 423.116 477.821 422.96 477.101 422.888C476.381 422.792 475.673 422.732 474.977 422.708L475.157 420.44ZM481.421 428.468C480.845 428.468 480.185 428.504 479.441 428.576C478.697 428.648 477.977 428.804 477.281 429.044C476.585 429.26 476.009 429.608 475.553 430.088C475.097 430.568 474.869 431.216 474.869 432.032C474.869 432.584 474.953 433.052 475.121 433.436C475.289 433.796 475.481 434.072 475.697 434.264C476.081 434.648 476.513 434.9 476.993 435.02C477.497 435.14 477.989 435.2 478.469 435.2C479.045 435.2 479.573 435.14 480.053 435.02C480.533 434.9 480.989 434.756 481.421 434.588V428.468ZM487.299 422.096C487.923 421.712 488.751 421.34 489.783 420.98C490.815 420.62 492.051 420.44 493.491 420.44C494.115 420.44 494.775 420.512 495.471 420.656C496.191 420.776 496.875 421.04 497.523 421.448C498.171 421.832 498.699 422.444 499.107 423.284C499.275 423.644 499.395 424.076 499.467 424.58C499.563 425.084 499.635 425.744 499.683 426.56C499.731 427.352 499.755 428.396 499.755 429.692V437H497.451V429.62C497.451 428.036 497.403 426.836 497.307 426.02C497.235 425.18 497.055 424.532 496.767 424.076C496.551 423.74 496.179 423.416 495.651 423.104C495.147 422.768 494.379 422.6 493.347 422.6C492.771 422.6 492.243 422.648 491.763 422.744C491.283 422.84 490.839 422.972 490.431 423.14V437H488.127V423.86L487.299 422.096ZM512.694 423.752C512.022 423.416 511.362 423.152 510.714 422.96C510.09 422.768 509.37 422.672 508.554 422.672C507.762 422.672 507.078 422.828 506.502 423.14C505.95 423.452 505.674 424.028 505.674 424.868C505.674 425.516 505.89 426.032 506.322 426.416C506.754 426.776 507.282 427.112 507.906 427.424L510.282 428.576C511.338 429.08 512.166 429.668 512.766 430.34C513.366 430.988 513.666 431.792 513.666 432.752V433.58L514.89 435.056C513.858 436.016 512.766 436.64 511.614 436.928C510.462 437.216 509.358 437.36 508.302 437.36C507.27 437.36 506.334 437.264 505.494 437.072C504.654 436.904 503.946 436.7 503.37 436.46V434.156C504.042 434.444 504.738 434.696 505.458 434.912C506.202 435.104 507.126 435.2 508.23 435.2C508.878 435.2 509.478 435.128 510.03 434.984C510.606 434.84 511.05 434.648 511.362 434.408V433.688C511.362 432.968 511.206 432.38 510.894 431.924C510.606 431.444 510.006 430.976 509.094 430.52L506.322 429.152C505.53 428.744 504.834 428.228 504.234 427.604C503.658 426.98 503.37 426.068 503.37 424.868C503.37 423.524 503.826 422.456 504.738 421.664C505.674 420.848 506.946 420.44 508.554 420.44C509.586 420.44 510.522 420.56 511.362 420.8C512.226 421.04 512.982 421.352 513.63 421.736L512.694 423.752ZM519.926 413.42V437H517.622V415.688L516.902 413.42H519.926ZM520.43 429.188C520.598 427.868 520.982 426.62 521.582 425.444C522.206 424.244 523.034 423.212 524.066 422.348C525.098 421.46 526.286 420.824 527.63 420.44L528.422 422.6C527.174 422.96 526.082 423.56 525.146 424.4C524.21 425.216 523.526 426.284 523.094 427.604L528.818 436.064L526.874 437.36L521.402 429.188H520.43ZM533.852 414.824V417.524H531.296V414.824H533.852ZM533.708 420.8V437H531.44V423.068L530.684 420.8H533.708ZM537.327 422.096C537.951 421.712 538.779 421.34 539.811 420.98C540.843 420.62 542.079 420.44 543.519 420.44C544.143 420.44 544.803 420.512 545.499 420.656C546.219 420.776 546.903 421.04 547.551 421.448C548.199 421.832 548.727 422.444 549.135 423.284C549.303 423.644 549.423 424.076 549.495 424.58C549.591 425.084 549.663 425.744 549.711 426.56C549.759 427.352 549.783 428.396 549.783 429.692V437H547.479V429.62C547.479 428.036 547.431 426.836 547.335 426.02C547.263 425.18 547.083 424.532 546.795 424.076C546.579 423.74 546.207 423.416 545.679 423.104C545.175 422.768 544.407 422.6 543.375 422.6C542.799 422.6 542.271 422.648 541.791 422.744C541.311 422.84 540.867 422.972 540.459 423.14V437H538.155V423.86L537.327 422.096ZM564.953 423.896V426.884C564.953 428.636 564.425 430.04 563.369 431.096C562.337 432.152 560.897 432.68 559.049 432.68C558.881 432.68 558.713 432.68 558.545 432.68C558.377 432.656 558.233 432.632 558.113 432.608V434.84H560.021C561.005 434.84 561.953 434.972 562.865 435.236C563.801 435.5 564.557 435.968 565.133 436.64C565.733 437.312 566.033 438.26 566.033 439.484V440.348L567.257 441.824C566.249 442.736 565.085 443.42 563.765 443.876C562.469 444.356 561.101 444.596 559.661 444.596C556.901 444.596 554.525 443.804 552.533 442.22L553.757 440.384C554.885 441.2 555.869 441.74 556.709 442.004C557.573 442.292 558.557 442.436 559.661 442.436C560.597 442.436 561.401 442.328 562.073 442.112C562.745 441.896 563.297 441.644 563.729 441.356V440.6C563.729 439.4 563.477 438.5 562.973 437.9C562.493 437.3 561.509 437 560.021 437H555.773V432.068C554.909 431.66 554.249 431.036 553.793 430.196C553.337 429.356 553.109 428.372 553.109 427.244V425.984C553.109 424.736 553.397 423.704 553.973 422.888C554.549 422.072 555.317 421.46 556.277 421.052C557.261 420.644 558.341 420.44 559.517 420.44C561.077 420.44 562.373 420.632 563.405 421.016C564.437 421.376 565.229 421.7 565.781 421.988L564.953 423.896ZM562.649 423.284C562.241 423.092 561.761 422.936 561.209 422.816C560.657 422.672 560.021 422.6 559.301 422.6C558.173 422.6 557.237 422.9 556.493 423.5C555.773 424.076 555.413 424.904 555.413 425.984V427.244C555.413 428.276 555.737 429.08 556.385 429.656C557.057 430.232 557.921 430.52 558.977 430.52C560.081 430.52 560.957 430.208 561.605 429.584C562.253 428.96 562.601 428.048 562.649 426.848V423.284Z" fill="#80CDF7"/>
</svg>
