<svg width="600" height="600" viewBox="0 0 600 600" fill="none" xmlns="http://www.w3.org/2000/svg">
<rect width="600" height="600" fill="#F1F2F6"/>
<path d="M186.5 403.908C186.932 403.764 187.4 403.656 187.904 403.584C188.432 403.488 188.972 403.44 189.524 403.44C190.124 403.44 190.784 403.512 191.504 403.656C192.224 403.776 192.908 404.04 193.556 404.448C194.204 404.832 194.72 405.444 195.104 406.284C195.272 406.644 195.404 407.076 195.5 407.58C195.596 408.084 195.656 408.744 195.68 409.56C195.728 410.352 195.752 411.396 195.752 412.692V420H193.448V412.62C193.448 411.036 193.412 409.836 193.34 409.02C193.268 408.18 193.076 407.532 192.764 407.076C192.572 406.74 192.212 406.416 191.684 406.104C191.18 405.768 190.412 405.6 189.38 405.6C188.78 405.6 188.24 405.648 187.76 405.744C187.304 405.84 186.884 405.972 186.5 406.14V420H184.196V398.688L183.476 396.42H186.5V403.908ZM201.637 403.44C202.645 403.44 203.653 403.536 204.661 403.728C205.669 403.896 206.593 404.208 207.433 404.664C208.273 405.096 208.945 405.732 209.449 406.572C209.953 407.388 210.205 408.444 210.205 409.74V416.94L211.177 418.596C210.073 419.22 208.969 419.676 207.865 419.964C206.785 420.228 205.789 420.36 204.877 420.36C203.701 420.36 202.753 420.216 202.033 419.928C201.313 419.616 200.749 419.268 200.341 418.884C199.957 418.476 199.621 417.972 199.333 417.372C199.045 416.748 198.901 416.052 198.901 415.284C198.901 414.084 199.153 413.1 199.657 412.332C200.161 411.54 200.833 410.928 201.673 410.496C202.537 410.064 203.497 409.764 204.553 409.596C205.633 409.404 206.749 409.308 207.901 409.308C207.853 408.516 207.613 407.892 207.181 407.436C206.773 406.956 206.245 406.596 205.597 406.356C204.973 406.116 204.301 405.96 203.581 405.888C202.861 405.792 202.153 405.732 201.457 405.708L201.637 403.44ZM207.901 411.468C207.325 411.468 206.665 411.504 205.921 411.576C205.177 411.648 204.457 411.804 203.761 412.044C203.065 412.26 202.489 412.608 202.033 413.088C201.577 413.568 201.349 414.216 201.349 415.032C201.349 415.584 201.433 416.052 201.601 416.436C201.769 416.796 201.961 417.072 202.177 417.264C202.561 417.648 202.993 417.9 203.473 418.02C203.977 418.14 204.469 418.2 204.949 418.2C205.525 418.2 206.053 418.14 206.533 418.02C207.013 417.9 207.469 417.756 207.901 417.588V411.468ZM213.78 405.096C214.404 404.712 215.232 404.34 216.264 403.98C217.296 403.62 218.532 403.44 219.972 403.44C220.596 403.44 221.256 403.512 221.952 403.656C222.672 403.776 223.356 404.04 224.004 404.448C224.652 404.832 225.18 405.444 225.588 406.284C225.756 406.644 225.876 407.076 225.948 407.58C226.044 408.084 226.116 408.744 226.164 409.56C226.212 410.352 226.236 411.396 226.236 412.692V420H223.932V412.62C223.932 411.036 223.884 409.836 223.788 409.02C223.716 408.18 223.536 407.532 223.248 407.076C223.032 406.74 222.66 406.416 222.132 406.104C221.628 405.768 220.86 405.6 219.828 405.6C219.252 405.6 218.724 405.648 218.244 405.744C217.764 405.84 217.32 405.972 216.912 406.14V420H214.608V406.86L213.78 405.096ZM239.174 406.752C238.502 406.416 237.842 406.152 237.194 405.96C236.57 405.768 235.85 405.672 235.034 405.672C234.242 405.672 233.558 405.828 232.982 406.14C232.43 406.452 232.154 407.028 232.154 407.868C232.154 408.516 232.37 409.032 232.802 409.416C233.234 409.776 233.762 410.112 234.386 410.424L236.762 411.576C237.818 412.08 238.646 412.668 239.246 413.34C239.846 413.988 240.146 414.792 240.146 415.752V416.58L241.37 418.056C240.338 419.016 239.246 419.64 238.094 419.928C236.942 420.216 235.838 420.36 234.782 420.36C233.75 420.36 232.814 420.264 231.974 420.072C231.134 419.904 230.426 419.7 229.85 419.46V417.156C230.522 417.444 231.218 417.696 231.938 417.912C232.682 418.104 233.606 418.2 234.71 418.2C235.358 418.2 235.958 418.128 236.51 417.984C237.086 417.84 237.53 417.648 237.842 417.408V416.688C237.842 415.968 237.686 415.38 237.374 414.924C237.086 414.444 236.486 413.976 235.574 413.52L232.802 412.152C232.01 411.744 231.314 411.228 230.714 410.604C230.138 409.98 229.85 409.068 229.85 407.868C229.85 406.524 230.306 405.456 231.218 404.664C232.154 403.848 233.426 403.44 235.034 403.44C236.066 403.44 237.002 403.56 237.842 403.8C238.706 404.04 239.462 404.352 240.11 404.736L239.174 406.752ZM246.406 396.42V420H244.102V398.688L243.382 396.42H246.406ZM246.91 412.188C247.078 410.868 247.462 409.62 248.062 408.444C248.686 407.244 249.514 406.212 250.546 405.348C251.578 404.46 252.766 403.824 254.11 403.44L254.902 405.6C253.654 405.96 252.562 406.56 251.626 407.4C250.69 408.216 250.006 409.284 249.574 410.604L255.298 419.064L253.354 420.36L247.882 412.188H246.91ZM260.332 397.824V400.524H257.776V397.824H260.332ZM260.188 403.8V420H257.92V406.068L257.164 403.8H260.188ZM263.807 405.096C264.431 404.712 265.259 404.34 266.291 403.98C267.323 403.62 268.559 403.44 269.999 403.44C270.623 403.44 271.283 403.512 271.979 403.656C272.699 403.776 273.383 404.04 274.031 404.448C274.679 404.832 275.207 405.444 275.615 406.284C275.783 406.644 275.903 407.076 275.975 407.58C276.071 408.084 276.143 408.744 276.191 409.56C276.239 410.352 276.263 411.396 276.263 412.692V420H273.959V412.62C273.959 411.036 273.911 409.836 273.815 409.02C273.743 408.18 273.563 407.532 273.275 407.076C273.059 406.74 272.687 406.416 272.159 406.104C271.655 405.768 270.887 405.6 269.855 405.6C269.279 405.6 268.751 405.648 268.271 405.744C267.791 405.84 267.347 405.972 266.939 406.14V420H264.635V406.86L263.807 405.096ZM291.434 406.896V409.884C291.434 411.636 290.906 413.04 289.85 414.096C288.818 415.152 287.378 415.68 285.53 415.68C285.362 415.68 285.194 415.68 285.026 415.68C284.858 415.656 284.714 415.632 284.594 415.608V417.84H286.502C287.486 417.84 288.434 417.972 289.346 418.236C290.282 418.5 291.038 418.968 291.614 419.64C292.214 420.312 292.514 421.26 292.514 422.484V423.348L293.738 424.824C292.73 425.736 291.566 426.42 290.246 426.876C288.95 427.356 287.582 427.596 286.142 427.596C283.382 427.596 281.006 426.804 279.014 425.22L280.238 423.384C281.366 424.2 282.35 424.74 283.19 425.004C284.054 425.292 285.038 425.436 286.142 425.436C287.078 425.436 287.882 425.328 288.554 425.112C289.226 424.896 289.778 424.644 290.21 424.356V423.6C290.21 422.4 289.958 421.5 289.454 420.9C288.974 420.3 287.99 420 286.502 420H282.254V415.068C281.39 414.66 280.73 414.036 280.274 413.196C279.818 412.356 279.59 411.372 279.59 410.244V408.984C279.59 407.736 279.878 406.704 280.454 405.888C281.03 405.072 281.798 404.46 282.758 404.052C283.742 403.644 284.822 403.44 285.998 403.44C287.558 403.44 288.854 403.632 289.886 404.016C290.918 404.376 291.71 404.7 292.262 404.988L291.434 406.896ZM289.13 406.284C288.722 406.092 288.242 405.936 287.69 405.816C287.138 405.672 286.502 405.6 285.782 405.6C284.654 405.6 283.718 405.9 282.974 406.5C282.254 407.076 281.894 407.904 281.894 408.984V410.244C281.894 411.276 282.218 412.08 282.866 412.656C283.538 413.232 284.402 413.52 285.458 413.52C286.562 413.52 287.438 413.208 288.086 412.584C288.734 411.96 289.082 411.048 289.13 409.848V406.284ZM304.784 397.464L306.98 398.22L296.432 427.596L294.236 426.84L304.784 397.464ZM312.254 403.908C312.686 403.764 313.154 403.656 313.658 403.584C314.186 403.488 314.726 403.44 315.278 403.44C315.878 403.44 316.538 403.512 317.258 403.656C317.978 403.776 318.662 404.04 319.31 404.448C319.958 404.832 320.474 405.444 320.858 406.284C321.026 406.644 321.158 407.076 321.254 407.58C321.35 408.084 321.41 408.744 321.434 409.56C321.482 410.352 321.506 411.396 321.506 412.692V420H319.202V412.62C319.202 411.036 319.166 409.836 319.094 409.02C319.022 408.18 318.83 407.532 318.518 407.076C318.326 406.74 317.966 406.416 317.438 406.104C316.934 405.768 316.166 405.6 315.134 405.6C314.534 405.6 313.994 405.648 313.514 405.744C313.058 405.84 312.638 405.972 312.254 406.14V420H309.95V398.688L309.23 396.42H312.254V403.908ZM327.391 403.44C328.399 403.44 329.407 403.536 330.415 403.728C331.423 403.896 332.347 404.208 333.187 404.664C334.027 405.096 334.699 405.732 335.203 406.572C335.707 407.388 335.959 408.444 335.959 409.74V416.94L336.931 418.596C335.827 419.22 334.723 419.676 333.619 419.964C332.539 420.228 331.543 420.36 330.631 420.36C329.455 420.36 328.507 420.216 327.787 419.928C327.067 419.616 326.503 419.268 326.095 418.884C325.711 418.476 325.375 417.972 325.087 417.372C324.799 416.748 324.655 416.052 324.655 415.284C324.655 414.084 324.907 413.1 325.411 412.332C325.915 411.54 326.587 410.928 327.427 410.496C328.291 410.064 329.251 409.764 330.307 409.596C331.387 409.404 332.503 409.308 333.655 409.308C333.607 408.516 333.367 407.892 332.935 407.436C332.527 406.956 331.999 406.596 331.351 406.356C330.727 406.116 330.055 405.96 329.335 405.888C328.615 405.792 327.907 405.732 327.211 405.708L327.391 403.44ZM333.655 411.468C333.079 411.468 332.419 411.504 331.675 411.576C330.931 411.648 330.211 411.804 329.515 412.044C328.819 412.26 328.243 412.608 327.787 413.088C327.331 413.568 327.103 414.216 327.103 415.032C327.103 415.584 327.187 416.052 327.355 416.436C327.523 416.796 327.715 417.072 327.931 417.264C328.315 417.648 328.747 417.9 329.227 418.02C329.731 418.14 330.223 418.2 330.703 418.2C331.279 418.2 331.807 418.14 332.287 418.02C332.767 417.9 333.223 417.756 333.655 417.588V411.468ZM339.534 405.096C340.158 404.712 340.986 404.34 342.018 403.98C343.05 403.62 344.286 403.44 345.726 403.44C346.35 403.44 347.01 403.512 347.706 403.656C348.426 403.776 349.11 404.04 349.758 404.448C350.406 404.832 350.934 405.444 351.342 406.284C351.51 406.644 351.63 407.076 351.702 407.58C351.798 408.084 351.87 408.744 351.918 409.56C351.966 410.352 351.99 411.396 351.99 412.692V420H349.686V412.62C349.686 411.036 349.638 409.836 349.542 409.02C349.47 408.18 349.29 407.532 349.002 407.076C348.786 406.74 348.414 406.416 347.886 406.104C347.382 405.768 346.614 405.6 345.582 405.6C345.006 405.6 344.478 405.648 343.998 405.744C343.518 405.84 343.074 405.972 342.666 406.14V420H340.362V406.86L339.534 405.096ZM364.928 406.752C364.256 406.416 363.596 406.152 362.948 405.96C362.324 405.768 361.604 405.672 360.788 405.672C359.996 405.672 359.312 405.828 358.736 406.14C358.184 406.452 357.908 407.028 357.908 407.868C357.908 408.516 358.124 409.032 358.556 409.416C358.988 409.776 359.516 410.112 360.14 410.424L362.516 411.576C363.572 412.08 364.4 412.668 365 413.34C365.6 413.988 365.9 414.792 365.9 415.752V416.58L367.124 418.056C366.092 419.016 365 419.64 363.848 419.928C362.696 420.216 361.592 420.36 360.536 420.36C359.504 420.36 358.568 420.264 357.728 420.072C356.888 419.904 356.18 419.7 355.604 419.46V417.156C356.276 417.444 356.972 417.696 357.692 417.912C358.436 418.104 359.36 418.2 360.464 418.2C361.112 418.2 361.712 418.128 362.264 417.984C362.84 417.84 363.284 417.648 363.596 417.408V416.688C363.596 415.968 363.44 415.38 363.128 414.924C362.84 414.444 362.24 413.976 361.328 413.52L358.556 412.152C357.764 411.744 357.068 411.228 356.468 410.604C355.892 409.98 355.604 409.068 355.604 407.868C355.604 406.524 356.06 405.456 356.972 404.664C357.908 403.848 359.18 403.44 360.788 403.44C361.82 403.44 362.756 403.56 363.596 403.8C364.46 404.04 365.216 404.352 365.864 404.736L364.928 406.752ZM372.16 396.42V420H369.856V398.688L369.136 396.42H372.16ZM372.664 412.188C372.832 410.868 373.216 409.62 373.816 408.444C374.44 407.244 375.268 406.212 376.3 405.348C377.332 404.46 378.52 403.824 379.864 403.44L380.656 405.6C379.408 405.96 378.316 406.56 377.38 407.4C376.444 408.216 375.76 409.284 375.328 410.604L381.052 419.064L379.108 420.36L373.636 412.188H372.664ZM386.086 397.824V400.524H383.53V397.824H386.086ZM385.942 403.8V420H383.674V406.068L382.918 403.8H385.942ZM389.561 405.096C390.185 404.712 391.013 404.34 392.045 403.98C393.077 403.62 394.313 403.44 395.753 403.44C396.377 403.44 397.037 403.512 397.733 403.656C398.453 403.776 399.137 404.04 399.785 404.448C400.433 404.832 400.961 405.444 401.369 406.284C401.537 406.644 401.657 407.076 401.729 407.58C401.825 408.084 401.897 408.744 401.945 409.56C401.993 410.352 402.017 411.396 402.017 412.692V420H399.713V412.62C399.713 411.036 399.665 409.836 399.569 409.02C399.497 408.18 399.317 407.532 399.029 407.076C398.813 406.74 398.441 406.416 397.913 406.104C397.409 405.768 396.641 405.6 395.609 405.6C395.033 405.6 394.505 405.648 394.025 405.744C393.545 405.84 393.101 405.972 392.693 406.14V420H390.389V406.86L389.561 405.096ZM417.188 406.896V409.884C417.188 411.636 416.66 413.04 415.604 414.096C414.572 415.152 413.132 415.68 411.284 415.68C411.116 415.68 410.948 415.68 410.78 415.68C410.612 415.656 410.468 415.632 410.348 415.608V417.84H412.256C413.24 417.84 414.188 417.972 415.1 418.236C416.036 418.5 416.792 418.968 417.368 419.64C417.968 420.312 418.268 421.26 418.268 422.484V423.348L419.492 424.824C418.484 425.736 417.32 426.42 416 426.876C414.704 427.356 413.336 427.596 411.896 427.596C409.136 427.596 406.76 426.804 404.768 425.22L405.992 423.384C407.12 424.2 408.104 424.74 408.944 425.004C409.808 425.292 410.792 425.436 411.896 425.436C412.832 425.436 413.636 425.328 414.308 425.112C414.98 424.896 415.532 424.644 415.964 424.356V423.6C415.964 422.4 415.712 421.5 415.208 420.9C414.728 420.3 413.744 420 412.256 420H408.008V415.068C407.144 414.66 406.484 414.036 406.028 413.196C405.572 412.356 405.344 411.372 405.344 410.244V408.984C405.344 407.736 405.632 406.704 406.208 405.888C406.784 405.072 407.552 404.46 408.512 404.052C409.496 403.644 410.576 403.44 411.752 403.44C413.312 403.44 414.608 403.632 415.64 404.016C416.672 404.376 417.464 404.7 418.016 404.988L417.188 406.896ZM414.884 406.284C414.476 406.092 413.996 405.936 413.444 405.816C412.892 405.672 412.256 405.6 411.536 405.6C410.408 405.6 409.472 405.9 408.728 406.5C408.008 407.076 407.648 407.904 407.648 408.984V410.244C407.648 411.276 407.972 412.08 408.62 412.656C409.292 413.232 410.156 413.52 411.212 413.52C412.316 413.52 413.192 413.208 413.84 412.584C414.488 411.96 414.836 411.048 414.884 409.848V406.284ZM430.538 397.464L432.734 398.22L422.186 427.596L419.99 426.84L430.538 397.464ZM438.008 403.908C438.44 403.764 438.908 403.656 439.412 403.584C439.94 403.488 440.48 403.44 441.032 403.44C441.632 403.44 442.292 403.512 443.012 403.656C443.732 403.776 444.416 404.04 445.064 404.448C445.712 404.832 446.228 405.444 446.612 406.284C446.78 406.644 446.912 407.076 447.008 407.58C447.104 408.084 447.164 408.744 447.188 409.56C447.236 410.352 447.26 411.396 447.26 412.692V420H444.956V412.62C444.956 411.036 444.92 409.836 444.848 409.02C444.776 408.18 444.584 407.532 444.272 407.076C444.08 406.74 443.72 406.416 443.192 406.104C442.688 405.768 441.92 405.6 440.888 405.6C440.288 405.6 439.748 405.648 439.268 405.744C438.812 405.84 438.392 405.972 438.008 406.14V420H435.704V398.688L434.984 396.42H438.008V403.908ZM453.145 403.44C454.153 403.44 455.161 403.536 456.169 403.728C457.177 403.896 458.101 404.208 458.941 404.664C459.781 405.096 460.453 405.732 460.957 406.572C461.461 407.388 461.713 408.444 461.713 409.74V416.94L462.685 418.596C461.581 419.22 460.477 419.676 459.373 419.964C458.293 420.228 457.297 420.36 456.385 420.36C455.209 420.36 454.261 420.216 453.541 419.928C452.821 419.616 452.257 419.268 451.849 418.884C451.465 418.476 451.129 417.972 450.841 417.372C450.553 416.748 450.409 416.052 450.409 415.284C450.409 414.084 450.661 413.1 451.165 412.332C451.669 411.54 452.341 410.928 453.181 410.496C454.045 410.064 455.005 409.764 456.061 409.596C457.141 409.404 458.257 409.308 459.409 409.308C459.361 408.516 459.121 407.892 458.689 407.436C458.281 406.956 457.753 406.596 457.105 406.356C456.481 406.116 455.809 405.96 455.089 405.888C454.369 405.792 453.661 405.732 452.965 405.708L453.145 403.44ZM459.409 411.468C458.833 411.468 458.173 411.504 457.429 411.576C456.685 411.648 455.965 411.804 455.269 412.044C454.573 412.26 453.997 412.608 453.541 413.088C453.085 413.568 452.857 414.216 452.857 415.032C452.857 415.584 452.941 416.052 453.109 416.436C453.277 416.796 453.469 417.072 453.685 417.264C454.069 417.648 454.501 417.9 454.981 418.02C455.485 418.14 455.977 418.2 456.457 418.2C457.033 418.2 457.561 418.14 458.041 418.02C458.521 417.9 458.977 417.756 459.409 417.588V411.468ZM465.288 405.096C465.912 404.712 466.74 404.34 467.772 403.98C468.804 403.62 470.04 403.44 471.48 403.44C472.104 403.44 472.764 403.512 473.46 403.656C474.18 403.776 474.864 404.04 475.512 404.448C476.16 404.832 476.688 405.444 477.096 406.284C477.264 406.644 477.384 407.076 477.456 407.58C477.552 408.084 477.624 408.744 477.672 409.56C477.72 410.352 477.744 411.396 477.744 412.692V420H475.44V412.62C475.44 411.036 475.392 409.836 475.296 409.02C475.224 408.18 475.044 407.532 474.756 407.076C474.54 406.74 474.168 406.416 473.64 406.104C473.136 405.768 472.368 405.6 471.336 405.6C470.76 405.6 470.232 405.648 469.752 405.744C469.272 405.84 468.828 405.972 468.42 406.14V420H466.116V406.86L465.288 405.096ZM490.682 406.752C490.01 406.416 489.35 406.152 488.702 405.96C488.078 405.768 487.358 405.672 486.542 405.672C485.75 405.672 485.066 405.828 484.49 406.14C483.938 406.452 483.662 407.028 483.662 407.868C483.662 408.516 483.878 409.032 484.31 409.416C484.742 409.776 485.27 410.112 485.894 410.424L488.27 411.576C489.326 412.08 490.154 412.668 490.754 413.34C491.354 413.988 491.654 414.792 491.654 415.752V416.58L492.878 418.056C491.846 419.016 490.754 419.64 489.602 419.928C488.45 420.216 487.346 420.36 486.29 420.36C485.258 420.36 484.322 420.264 483.482 420.072C482.642 419.904 481.934 419.7 481.358 419.46V417.156C482.03 417.444 482.726 417.696 483.446 417.912C484.19 418.104 485.114 418.2 486.218 418.2C486.866 418.2 487.466 418.128 488.018 417.984C488.594 417.84 489.038 417.648 489.35 417.408V416.688C489.35 415.968 489.194 415.38 488.882 414.924C488.594 414.444 487.994 413.976 487.082 413.52L484.31 412.152C483.518 411.744 482.822 411.228 482.222 410.604C481.646 409.98 481.358 409.068 481.358 407.868C481.358 406.524 481.814 405.456 482.726 404.664C483.662 403.848 484.934 403.44 486.542 403.44C487.574 403.44 488.51 403.56 489.35 403.8C490.214 404.04 490.97 404.352 491.618 404.736L490.682 406.752ZM497.914 396.42V420H495.61V398.688L494.89 396.42H497.914ZM498.418 412.188C498.586 410.868 498.97 409.62 499.57 408.444C500.194 407.244 501.022 406.212 502.054 405.348C503.086 404.46 504.274 403.824 505.618 403.44L506.41 405.6C505.162 405.96 504.07 406.56 503.134 407.4C502.198 408.216 501.514 409.284 501.082 410.604L506.806 419.064L504.862 420.36L499.39 412.188H498.418ZM511.84 397.824V400.524H509.284V397.824H511.84ZM511.696 403.8V420H509.428V406.068L508.672 403.8H511.696ZM515.315 405.096C515.939 404.712 516.767 404.34 517.799 403.98C518.831 403.62 520.067 403.44 521.507 403.44C522.131 403.44 522.791 403.512 523.487 403.656C524.207 403.776 524.891 404.04 525.539 404.448C526.187 404.832 526.715 405.444 527.123 406.284C527.291 406.644 527.411 407.076 527.483 407.58C527.579 408.084 527.651 408.744 527.699 409.56C527.747 410.352 527.771 411.396 527.771 412.692V420H525.467V412.62C525.467 411.036 525.419 409.836 525.323 409.02C525.251 408.18 525.071 407.532 524.783 407.076C524.567 406.74 524.195 406.416 523.667 406.104C523.163 405.768 522.395 405.6 521.363 405.6C520.787 405.6 520.259 405.648 519.779 405.744C519.299 405.84 518.855 405.972 518.447 406.14V420H516.143V406.86L515.315 405.096ZM542.942 406.896V409.884C542.942 411.636 542.414 413.04 541.358 414.096C540.326 415.152 538.886 415.68 537.038 415.68C536.87 415.68 536.702 415.68 536.534 415.68C536.366 415.656 536.222 415.632 536.102 415.608V417.84H538.01C538.994 417.84 539.942 417.972 540.854 418.236C541.79 418.5 542.546 418.968 543.122 419.64C543.722 420.312 544.022 421.26 544.022 422.484V423.348L545.246 424.824C544.238 425.736 543.074 426.42 541.754 426.876C540.458 427.356 539.09 427.596 537.65 427.596C534.89 427.596 532.514 426.804 530.522 425.22L531.746 423.384C532.874 424.2 533.858 424.74 534.698 425.004C535.562 425.292 536.546 425.436 537.65 425.436C538.586 425.436 539.39 425.328 540.062 425.112C540.734 424.896 541.286 424.644 541.718 424.356V423.6C541.718 422.4 541.466 421.5 540.962 420.9C540.482 420.3 539.498 420 538.01 420H533.762V415.068C532.898 414.66 532.238 414.036 531.782 413.196C531.326 412.356 531.098 411.372 531.098 410.244V408.984C531.098 407.736 531.386 406.704 531.962 405.888C532.538 405.072 533.306 404.46 534.266 404.052C535.25 403.644 536.33 403.44 537.506 403.44C539.066 403.44 540.362 403.632 541.394 404.016C542.426 404.376 543.218 404.7 543.77 404.988L542.942 406.896ZM540.638 406.284C540.23 406.092 539.75 405.936 539.198 405.816C538.646 405.672 538.01 405.6 537.29 405.6C536.162 405.6 535.226 405.9 534.482 406.5C533.762 407.076 533.402 407.904 533.402 408.984V410.244C533.402 411.276 533.726 412.08 534.374 412.656C535.046 413.232 535.91 413.52 536.966 413.52C538.07 413.52 538.946 413.208 539.594 412.584C540.242 411.96 540.59 411.048 540.638 409.848V406.284Z" fill="#80CDF7"/>
</svg>
