<?xml version="1.0" encoding="iso-8859-1"?>
<!-- Uploaded to: SVG Repo, www.svgrepo.com, Generator: SVG Repo Mixer Tools -->
<svg fill="#000000" version="1.1" id="Layer_1" xmlns="http://www.w3.org/2000/svg" xmlns:xlink="http://www.w3.org/1999/xlink" 
	 viewBox="0 0 32 32" xml:space="preserve">
<path id="machine--learning--03_1_" d="M29.36,15.695v-3.389c0.575-0.159,1-0.681,1-1.305c0-0.75-0.61-1.36-1.36-1.36
	c-0.191,0-0.372,0.04-0.537,0.111l-2.365-2.956C26.261,6.572,26.36,6.298,26.36,6c0-0.75-0.61-1.36-1.36-1.36
	c-0.401,0-0.758,0.177-1.007,0.454l-3.659-1.83C20.351,3.179,20.36,3.091,20.36,3c0-0.75-0.61-1.36-1.36-1.36
	c-0.625,0-1.147,0.425-1.306,1h-4.389c-0.159-0.575-0.681-1-1.305-1c-0.75,0-1.36,0.61-1.36,1.36c0,0.091,0.01,0.179,0.027,0.264
	l-2.66,1.33C7.758,4.318,7.401,4.14,7,4.14c-0.75,0-1.36,0.61-1.36,1.36c0,0.273,0.082,0.526,0.221,0.739L3.598,8.785
	C3.417,8.695,3.216,8.64,3,8.64c-0.75,0-1.36,0.61-1.36,1.36c0,0.625,0.425,1.146,1,1.305v3.389c-0.575,0.159-1,0.681-1,1.305
	c0,0.75,0.61,1.36,1.36,1.36c0.546,0,1.014-0.325,1.231-0.791l3.424,0.571C7.726,17.824,8.298,18.36,9,18.36
	c0.091,0,0.179-0.01,0.264-0.027l0.83,1.659C9.818,20.242,9.64,20.599,9.64,21c0,0.75,0.61,1.36,1.36,1.36
	c0.47,0,0.885-0.24,1.13-0.604l3.518,1.173C15.646,22.953,15.64,22.976,15.64,23c0,0.625,0.425,1.147,1,1.306v3.388
	c-0.575,0.159-1,0.681-1,1.306c0,0.75,0.61,1.36,1.36,1.36s1.36-0.61,1.36-1.36c0-0.624-0.425-1.147-1-1.306v-3.389
	c0.575-0.159,1-0.681,1-1.306c0-0.452-0.224-0.85-0.564-1.098l0.682-1.82l3.163,0.904c0,0.005-0.001,0.01-0.001,0.015
	c0,0.624,0.425,1.147,1,1.306v5.389c-0.575,0.159-1,0.681-1,1.306c0,0.75,0.61,1.36,1.36,1.36s1.36-0.61,1.36-1.36
	c0-0.624-0.425-1.147-1-1.306v-5.389c0.575-0.159,1-0.681,1-1.306c0-0.149-0.03-0.29-0.074-0.424l3.828-2.553
	C28.353,18.231,28.66,18.36,29,18.36c0.75,0,1.36-0.61,1.36-1.36C30.36,16.376,29.935,15.854,29.36,15.695z M21.354,14.932
	c-0.002-0.045-0.007-0.09-0.014-0.134l3.049-1.355l3.313,2.899L21.354,14.932z M20,15.64c-0.353,0-0.64-0.287-0.64-0.64
	s0.287-0.64,0.64-0.64s0.64,0.287,0.64,0.64S20.353,15.64,20,15.64z M20,13.64c-0.75,0-1.36,0.61-1.36,1.36
	c0,0.452,0.224,0.85,0.564,1.097l-1.166,3.11l-1.902-0.543l-1.465-5.126l5.463-3.756l0.628,0.489l3.028,2.65l-2.745,1.22
	C20.796,13.838,20.423,13.64,20,13.64z M9.131,15.653L8.122,9.85l3.612-0.361V9.485C11.93,9.995,12.421,10.36,13,10.36
	c0.005,0,0.009-0.001,0.014-0.001l0.823,2.879l-3.966,2.726C9.666,15.792,9.412,15.681,9.131,15.653z M13,9.64
	c-0.353,0-0.64-0.287-0.64-0.64S12.647,8.36,13,8.36S13.64,8.647,13.64,9S13.353,9.64,13,9.64z M10.28,16.557l3.765-2.589
	l1.275,4.463l-4.962-1.418c0-0.005,0.001-0.009,0.001-0.014C10.36,16.844,10.328,16.697,10.28,16.557z M24.129,7.036
	C24.366,7.235,24.667,7.36,25,7.36c0.191,0,0.372-0.04,0.537-0.111l2.365,2.955C27.739,10.428,27.64,10.702,27.64,11
	c0,0.069,0.01,0.135,0.02,0.201l-3.144,1.397l-3.295-2.883l-0.464-0.361L24.129,7.036z M28.251,15.866l-3.138-2.745l2.841-1.262
	c0.176,0.213,0.412,0.371,0.686,0.446v3.389C28.501,15.733,28.369,15.789,28.251,15.866z M29.64,11c0,0.353-0.287,0.64-0.64,0.64
	s-0.64-0.287-0.64-0.64s0.287-0.64,0.64-0.64S29.64,10.647,29.64,11z M25,5.36c0.353,0,0.64,0.287,0.64,0.64S25.353,6.64,25,6.64
	S24.36,6.353,24.36,6S24.647,5.36,25,5.36z M19,2.36c0.353,0,0.64,0.287,0.64,0.64S19.353,3.64,19,3.64S18.36,3.353,18.36,3
	S18.647,2.36,19,2.36z M19,4.36c0.401,0,0.758-0.177,1.007-0.454l3.659,1.83C23.649,5.821,23.64,5.909,23.64,6
	c0,0.156,0.032,0.303,0.08,0.443l-3.56,2.448l-6.904-5.37c0.021-0.051,0.035-0.106,0.05-0.161h4.389
	C17.853,3.935,18.375,4.36,19,4.36z M12,2.36c0.353,0,0.64,0.287,0.64,0.64S12.353,3.64,12,3.64S11.36,3.353,11.36,3
	S11.647,2.36,12,2.36z M10.993,3.906C11.242,4.182,11.599,4.36,12,4.36c0.304,0,0.583-0.104,0.81-0.274l6.728,5.232l-5.075,3.489
	l-0.757-2.65C14.096,9.918,14.36,9.491,14.36,9c0-0.75-0.61-1.36-1.36-1.36c-0.673,0-1.229,0.492-1.337,1.135V8.772L7.998,9.138
	l-0.42-2.412C8.039,6.508,8.36,6.042,8.36,5.5c0-0.091-0.01-0.179-0.027-0.264L10.993,3.906z M4.265,9.511
	C4.231,9.423,4.19,9.339,4.139,9.261l2.263-2.546c0.143,0.071,0.3,0.115,0.467,0.132L7.28,9.21L4.265,9.511z M7,4.86
	c0.353,0,0.64,0.287,0.64,0.64S7.353,6.14,7,6.14S6.36,5.853,6.36,5.5S6.647,4.86,7,4.86z M2.36,10c0-0.353,0.287-0.64,0.64-0.64
	S3.64,9.647,3.64,10S3.353,10.64,3,10.64S2.36,10.353,2.36,10z M3,16.64c-0.353,0-0.64-0.287-0.64-0.64S2.647,15.36,3,15.36
	S3.64,15.647,3.64,16C3.64,16.353,3.353,16.64,3,16.64z M7.769,16.43l-3.424-0.571c-0.059-0.561-0.455-1.018-0.986-1.165v-3.389
	c0.503-0.139,0.888-0.556,0.977-1.077l3.067-0.307l1.018,5.853C8.135,15.91,7.904,16.142,7.769,16.43z M8.36,17
	c0-0.353,0.287-0.64,0.64-0.64S9.64,16.647,9.64,17S9.353,17.64,9,17.64S8.36,17.353,8.36,17z M11,21.64
	c-0.353,0-0.64-0.287-0.64-0.64s0.287-0.64,0.64-0.64s0.64,0.287,0.64,0.64S11.353,21.64,11,21.64z M12.353,21.071
	c0.001-0.024,0.007-0.047,0.007-0.071c0-0.75-0.61-1.36-1.36-1.36c-0.091,0-0.179,0.01-0.264,0.027l-0.83-1.659
	c0.098-0.088,0.182-0.189,0.251-0.302l5.396,1.541l0.742,2.596c-0.168,0.103-0.315,0.238-0.425,0.402L12.353,21.071z M17.64,29
	c0,0.353-0.287,0.64-0.64,0.64c-0.353,0-0.64-0.287-0.64-0.64s0.287-0.64,0.64-0.64C17.353,28.36,17.64,28.647,17.64,29z M17,23.64
	c-0.353,0-0.64-0.287-0.64-0.64s0.287-0.64,0.64-0.64c0.353,0,0.64,0.287,0.64,0.64S17.353,23.64,17,23.64z M17.121,21.652
	C17.08,21.648,17.041,21.64,17,21.64c-0.005,0-0.009,0.001-0.014,0.001l-0.618-2.162l1.416,0.404L17.121,21.652z M18.732,19.406
	l1.147-3.059c0.041,0.004,0.08,0.012,0.121,0.012c0.519,0,0.967-0.296,1.196-0.725l6.451,1.433c0.006,0.124,0.03,0.243,0.068,0.356
	l-3.828,2.553C23.647,19.769,23.34,19.64,23,19.64c-0.491,0-0.918,0.264-1.158,0.655L18.732,19.406z M23.64,29
	c0,0.353-0.287,0.64-0.64,0.64s-0.64-0.287-0.64-0.64s0.287-0.64,0.64-0.64S23.64,28.647,23.64,29z M23,21.64
	c-0.353,0-0.64-0.287-0.64-0.64s0.287-0.64,0.64-0.64s0.64,0.287,0.64,0.64S23.353,21.64,23,21.64z M29,17.64
	c-0.353,0-0.64-0.287-0.64-0.64c0-0.353,0.287-0.64,0.64-0.64s0.64,0.287,0.64,0.64C29.64,17.353,29.353,17.64,29,17.64z"/>
<rect id="_Transparent_Rectangle" style="fill:none;" width="32" height="32"/>
</svg>