<?xml version="1.0" ?><!-- Uploaded to: SVG Repo, www.svgrepo.com, Generator: SVG Repo Mixer Tools -->
<svg fill="#000000" width="800px" height="800px" viewBox="0 0 96 96" id="Layer_1_1_" version="1.1" xml:space="preserve" xmlns="http://www.w3.org/2000/svg" xmlns:xlink="http://www.w3.org/1999/xlink"><path d="M91,33.049V5.951C91,3.769,89.231,2,87.049,2H54.951C52.769,2,51,3.769,51,5.951V32h-5.184c-0.413-1.163-1.512-2-2.816-2  c-1.657,0-3,1.343-3,3s1.343,3,3,3c1.304,0,2.403-0.837,2.816-2H51v-0.951C51,35.231,52.769,37,54.951,37h32.098  C89.231,37,91,35.231,91,33.049z M75,34h-8v-2h8V34z M87,29H55V6h32V29z"/><path d="M64.906,15.508l6.305,8.106C71.401,23.858,71.692,24,72,24c0.025,0,0.051-0.001,0.077-0.003  c0.335-0.025,0.634-0.218,0.797-0.512l4.079-7.343l1.152,2.305C78.275,18.786,78.621,19,79,19h4v-2h-3.382l-1.724-3.447  c-0.166-0.332-0.502-0.545-0.873-0.553c-0.373,0-0.716,0.189-0.896,0.515l-4.266,7.677l-6.071-7.806  c-0.176-0.227-0.44-0.366-0.727-0.384c-0.297-0.015-0.566,0.088-0.77,0.291l-6,6l1.414,1.414L64.906,15.508z"/><rect height="4" width="8" x="67" y="39"/><path d="M53,46v30c0,0.553,0.447,1,1,1h34c0.553,0,1-0.447,1-1V46c0-0.553-0.447-1-1-1H54C53.447,45,53,45.447,53,46z M55,47h32v28  H55V47z"/><rect height="17" width="6" x="58" y="51"/><rect height="9" width="6" x="68" y="59"/><rect height="14" width="6" x="78" y="54"/><rect height="2" width="2" x="60" y="71"/><rect height="2" width="2" x="70" y="71"/><rect height="2" width="2" x="80" y="71"/><path d="M35.001,51.64l1.961-0.393c-0.831-4.156-4.053-7.378-8.209-8.209l-0.393,1.961C31.723,45.671,34.329,48.277,35.001,51.64z"/><path d="M30.082,54.234l1.898-0.633c-0.874-2.622-2.96-4.708-5.582-5.582l-0.633,1.898C27.794,50.593,29.407,52.206,30.082,54.234z"/><path d="M41.948,48.583C40.3,43.637,36.363,39.7,31.417,38.052l-0.633,1.896c4.353,1.451,7.816,4.915,9.268,9.268L41.948,48.583z"/><path d="M6,16h14c2.209,0,4-1.791,4-4c0-2.209-1.791-4-4-4c-0.353,0-0.689,0.06-1.015,0.146C18.987,8.096,19,8.05,19,8  c0-2.761-2.239-5-5-5S9,5.239,9,8c0,0.047,0.013,0.091,0.014,0.137C7.943,8.41,7.055,9.112,6.526,10.053C6.355,10.023,6.18,10,6,10  c-1.657,0-3,1.343-3,3S4.343,16,6,16z"/><path d="M48,78l-5-0.625v-3.444c3.945-0.493,7-3.852,7-7.931c-4.079,0-7.438,3.055-7.931,7h-0.138c-0.493-3.945-3.852-7-7.931-7  c0,4.079,3.055,7.438,7,7.931v3.194L40,77l-5,2h-3l-3,1h-2v6h-1.168V74c0-0.197-0.059-0.391-0.168-0.555L24,70.949V63  c0-3.314-2.686-6-6-6s-6,2.686-6,6v7.949l-1.664,2.496c-0.109,0.164-0.168,0.357-0.168,0.555v12H9v-6H7l-5-2v16h92V80H52L48,78z   M17,62h2v2h-2V62z M12,90h-2v-2h2V90z M13,80v6h-1V74l0.818-1H17v13h-1v-6H13z M19,90h-2v-2h2V90z M20,80v6h-1V73h4.052L24,74.303  V86h-1v-6H20z M25.832,90h-2v-2h2V90z M44,90h-4v-2h4V90z M86,87h4v2h-4V87z M68,84h5v2h-5V84z"/></svg>