<?xml version="1.0" encoding="UTF-8" standalone="no"?>
<!-- Created with Inkscape (http://www.inkscape.org/) -->

<svg
   version="1.1"
   id="svg1"
   width="377.95334"
   height="377.95334"
   viewBox="0 0 377.95334 377.95334"
   sodipodi:docname="642c8943-da0b-4536-96ae-9448012219ec.ai"
   xmlns:inkscape="http://www.inkscape.org/namespaces/inkscape"
   xmlns:sodipodi="http://sodipodi.sourceforge.net/DTD/sodipodi-0.dtd"
   xmlns="http://www.w3.org/2000/svg"
   xmlns:svg="http://www.w3.org/2000/svg">
  <defs
     id="defs1">
    <clipPath
       clipPathUnits="userSpaceOnUse"
       id="clipPath2">
      <path
         d="M 0,283.465 H 283.465 V 0 H 0 Z"
         transform="translate(-256.16221,-104.2138)"
         id="path2" />
    </clipPath>
  </defs>
  <sodipodi:namedview
     id="namedview1"
     pagecolor="#ffffff"
     bordercolor="#000000"
     borderopacity="0.25"
     inkscape:showpageshadow="2"
     inkscape:pageopacity="0.0"
     inkscape:pagecheckerboard="0"
     inkscape:deskcolor="#d1d1d1">
    <inkscape:page
       x="0"
       y="0"
       inkscape:label="1"
       id="page1"
       width="377.95334"
       height="377.95334"
       margin="9.2664938 22.909334 16.941334 26.224934"
       bleed="0" />
  </sodipodi:namedview>
  <g
     id="layer-MC0"
     inkscape:groupmode="layer"
     inkscape:label="Layer 1">
    <path
       id="path1"
       d="m 0,0 c -2.694,-9.55 -12.358,-16.634 -22.934,-13.395 -5.909,1.81 -11.256,6.771 -13.906,11.74 -0.81,1.52 -2.723,0.832 -2.376,-0.857 1.591,-7.8 1.359,-15.9 -5.073,-20.708 -7.674,-5.734 -17.682,-3.552 -23.153,3.389 -5.201,6.607 -2.026,18.299 4.416,23.108 1.031,0.772 0.841,1.869 -0.392,2.244 l -32.843,10.055 c -4.477,1.257 -9.171,-1.262 -10.598,-5.691 l -6.105,-19.983 -0.463,-1.485 c -4.448,-14.585 15.812,-22.344 21.911,-10.441 2.061,-3.332 2.931,-8.36 1.741,-12.807 -4.43,-16.523 -23.154,-15.09 -31.337,-3.585 -1.001,1.408 -2.829,0.45 -2.24,-1.177 5.038,-13.894 0.444,-22.549 -6.46,-29.022 -5.88,-5.52 -13.292,-8.902 -19.266,-14.199 -0.801,3.124 -2.099,6.114 -3.327,9.087 -6.199,14.98 -10.684,28.867 6.164,41.142 1.399,1.018 0.42,2.834 -1.197,2.227 -4.616,-1.731 -10.666,-1.636 -14.683,-0.069 -14.582,5.678 -12.82,24.762 -0.695,30.228 -1.591,-13.28 19.539,-18.193 24,-3.614 l 0.446,1.494 6.106,19.98 c 1.293,4.475 -1.19,9.187 -5.603,10.652 l -32.844,10.054 c -1.235,0.377 -2.004,-0.424 -1.579,-1.641 2.653,-7.594 -1.248,-19.065 -9.254,-21.626 -8.414,-2.695 -17.927,1.1 -21.086,10.15 -2.643,7.589 1.69,14.434 7.369,20.007 1.229,1.206 0.031,2.846 -1.494,2.04 -4.971,-2.635 -12.179,-3.755 -18.088,-1.944 -10.575,3.235 -14.627,14.519 -11.528,23.927 2.694,9.551 12.355,16.633 22.933,13.395 5.91,-1.809 11.257,-6.773 13.907,-11.74 0.808,-1.521 2.719,-0.832 2.376,0.857 -1.591,7.798 -1.359,15.899 5.073,20.708 7.674,5.734 17.682,3.555 23.15,-3.391 5.203,-6.606 2.028,-18.297 -4.413,-23.108 -1.034,-0.772 -0.842,-1.865 0.392,-2.243 l 32.843,-10.054 c 4.475,-1.258 9.169,1.26 10.598,5.689 l 6.105,19.983 0.462,1.486 c 4.449,14.585 -15.811,22.346 -21.913,10.442 -2.059,3.331 -2.931,8.358 -1.739,12.808 4.431,16.52 23.157,15.089 31.335,3.584 1.004,-1.409 2.83,-0.451 2.242,1.174 -5.038,13.898 -0.444,22.552 6.457,29.025 5.879,5.517 13.293,8.9 19.26,14.201 0.804,-3.125 2.104,-6.116 3.332,-9.089 6.204,-14.978 10.689,-28.869 -6.159,-41.142 -1.396,-1.019 -0.42,-2.835 1.197,-2.228 4.616,1.731 10.663,1.635 14.681,0.07 14.584,-5.679 12.82,-24.764 0.694,-30.228 1.594,13.282 -19.539,18.192 -23.998,3.612 L -88.001,71.6 -94.11,51.616 c -1.287,-4.47 1.19,-9.186 5.606,-10.65 L -55.66,30.913 c 1.233,-0.377 2.004,0.425 1.579,1.639 -2.651,7.596 1.247,19.066 9.254,21.63 8.417,2.693 17.927,-1.103 21.085,-10.153 2.644,-7.588 -1.689,-14.434 -7.37,-20.008 -1.229,-1.205 -0.027,-2.843 1.494,-2.04 4.972,2.638 12.18,3.755 18.09,1.946 C -0.954,20.689 3.1,9.408 0,0 m -32.462,-32.474 c -17.256,-21.028 -39.998,-34.28 -64.006,-39.481 16.31,7.537 31.539,20.392 43.931,37.041 10.131,0.688 19.399,8.523 19.783,20.649 3.01,-3.049 5.877,-5.008 8.829,-6.194 -2.587,-4.219 -5.437,-8.236 -8.537,-12.015 m -89.563,-40.339 c 4.949,5.186 8.952,12.659 7.207,21.244 18.327,-11.237 36.005,5.953 32.677,22.935 -1.568,7.999 -7.067,14.021 -13.477,17.066 1.999,-4.245 -1.642,-9.944 -6.954,-8.403 -3.578,1.041 -5.217,4.44 -4.309,7.534 l 0.576,1.876 5.649,18.5 c 0.321,0.995 1.364,1.557 2.355,1.303 l 26.092,-7.987 c -9.583,-13.869 -4.798,-28.786 9.87,-34.542 -16.959,-22.468 -38.478,-36.377 -59.686,-39.526 m -70.873,175.178 c 17.254,21.028 39.995,34.28 64.004,39.479 -16.496,-7.623 -31.894,-20.692 -44.362,-37.618 -10.353,-0.421 -19.973,-8.325 -20.361,-20.682 -2.834,2.873 -5.545,4.779 -8.32,5.98 2.72,4.522 5.74,8.82 9.039,12.841 m 89.074,40.262 c -5.187,-5.201 -9.536,-12.895 -7.729,-21.779 -18.327,11.238 -36.005,-5.951 -32.677,-22.933 1.57,-8 7.067,-14.022 13.477,-17.068 -1.999,4.246 1.642,9.944 6.953,8.403 3.579,-1.041 5.218,-4.439 4.31,-7.535 l -0.576,-1.875 -5.652,-18.498 c -0.32,-0.996 -1.361,-1.559 -2.35,-1.304 l -26.094,7.987 c 9.49,13.734 4.89,28.497 -9.446,34.37 16.917,22.753 38.49,36.907 59.784,40.232 M 1.013,25.795 c 2.037,27.153 -5.635,57.112 -28.054,81.638 -0.543,0.601 -1.114,0.632 -0.521,-0.121 16.923,-23.421 22.94,-51.052 20.392,-77.284 -3.424,0.97 -7.252,1.075 -12.014,0.117 5.934,9.436 3.626,20.069 -3.006,26.575 -0.329,23.465 -7.225,44.622 -19.82,61.944 -3.014,4.144 -9.644,10.192 -12.36,11.887 -0.41,0.254 -0.515,0.024 -0.226,-0.262 14.372,-14.282 23.493,-39.163 23.655,-68.371 l -0.247,0.074 c -16.246,4.704 -29.579,-5.073 -29.375,-22.618 l -26.091,7.985 c -0.963,0.343 -1.513,1.394 -1.224,2.399 l 5.654,18.496 0.572,1.878 c 0.976,3.075 4.23,4.976 7.781,3.833 5.267,-1.696 5.097,-8.457 1.067,-10.857 7.017,-1.064 14.941,0.848 20.71,6.601 12.249,12.214 7.202,36.36 -14.271,37.306 8.065,7.931 7.145,19.694 4.399,27.397 -2.173,6.093 -10.271,25.452 -10.919,32.133 -4.145,-5.024 -20.782,-16.02 -26.516,-20.168 -45.547,5.336 -89.654,-16.182 -112.316,-55.096 l -0.337,-0.007 c -7.157,-0.159 -18.367,-4.34 -22.959,-19.35 -4.574,-14.994 2.381,-24.739 8.225,-28.878 l 0.327,-0.23 c -1.703,-26.813 6.078,-56.215 28.143,-80.355 0.543,-0.6 1.117,-0.631 0.524,0.118 -16.74,23.17 -22.808,50.457 -20.474,76.43 3.186,-0.739 6.746,-0.748 11.079,0.124 -6.236,-9.915 -3.369,-21.152 4.052,-27.533 0.607,-22.836 7.478,-43.438 19.79,-60.369 3.015,-4.147 9.643,-10.195 12.361,-11.888 0.408,-0.254 0.512,-0.024 0.225,0.261 -14.224,14.134 -23.304,38.652 -23.648,67.47 15.891,-4.178 28.8,5.567 28.6,22.833 l 26.092,-7.987 c 0.962,-0.344 1.513,-1.395 1.224,-2.398 l -5.654,-18.498 -0.575,-1.878 c -0.973,-3.073 -4.23,-4.975 -7.778,-3.83 -5.268,1.696 -5.099,8.455 -1.069,10.857 -7.015,1.062 -14.941,-0.849 -20.708,-6.603 -12.249,-12.215 -7.203,-36.36 14.269,-37.306 -8.066,-7.928 -7.143,-19.696 -4.399,-27.396 2.175,-6.093 10.271,-25.454 10.921,-32.132 4.266,5.175 21.799,16.689 27.005,20.524 l 0.362,0.272 c 45.37,-5.379 89.336,15.899 112.127,54.482 7.167,0.279 18.108,4.56 22.632,19.341 4.42,14.489 -1.921,24.075 -7.627,28.44"
       style="fill:#263462;fill-opacity:1;fill-rule:nonzero;stroke:none"
       transform="matrix(1.3333333,0,0,-1.3333333,341.5496,239.0016)"
       clip-path="url(#clipPath2)" />
  </g>
</svg>
