<svg xmlns="http://www.w3.org/2000/svg" xmlns:xlink="http://www.w3.org/1999/xlink" width="53.87" height="43.61" zoomAndPan="magnify" viewBox="0 0 810 809.999993" preserveAspectRatio="xMidYMid meet" version="1.0"><defs><clipPath id="1fc2316807"><path d="M 295 225.484375 L 653.21875 225.484375 L 653.21875 548 L 295 548 Z M 295 225.484375 " clip-rule="nonzero"/></clipPath><clipPath id="b263aa4c21"><path d="M 213 260 L 574 260 L 574 584.734375 L 213 584.734375 Z M 213 260 " clip-rule="nonzero"/></clipPath></defs><path fill="#818cf8" d="M 152.933594 455.234375 C 151.1875 446.746094 149.851562 438.144531 148.976562 429.542969 C 148.066406 420.734375 147.621094 412.042969 147.621094 403.53125 C 147.621094 373.363281 152.972656 343.617188 163.207031 315.640625 C 173.445312 287.660156 188.546875 261.464844 208.054688 238.394531 L 222.082031 250.265625 C 203.96875 271.703125 189.960938 295.984375 180.464844 321.902344 C 170.992188 347.816406 166.03125 375.425781 166.03125 403.53125 C 166.03125 411.761719 166.441406 419.824219 167.238281 427.664062 C 168.054688 435.710938 169.28125 443.679688 170.917969 451.574219 Z M 187.453125 619.632812 C 146.65625 578.835938 119.085938 528.285156 106.246094 474.238281 C 93.390625 420.214844 95.269531 362.679688 113.324219 307.894531 L 141.285156 317.089844 C 124.957031 366.597656 123.285156 418.617188 134.894531 467.460938 C 146.507812 516.28125 171.417969 561.964844 208.277344 598.824219 Z M 435.058594 707.46875 C 394.484375 711.667969 353.949219 707.691406 315.695312 696.210938 C 277.445312 684.730469 241.382812 665.6875 209.800781 639.789062 L 228.433594 617.125 C 256.859375 640.4375 289.445312 657.605469 324.09375 668.007812 C 358.757812 678.414062 395.433594 682.015625 432.066406 678.226562 Z M 96.566406 516.246094 C 75.296875 458.320312 71.265625 396.84375 83.0625 338.582031 C 94.878906 280.339844 122.558594 225.296875 164.710938 180.207031 L 170.0625 185.203125 C 128.855469 229.269531 101.789062 283.074219 90.25 340.015625 C 78.714844 396.957031 82.671875 457.054688 103.460938 513.71875 Z M 231.109375 125.71875 C 240.601562 119.828125 250.320312 114.457031 260.222656 109.628906 C 270.160156 104.78125 280.398438 100.433594 290.820312 96.585938 C 327.046875 83.285156 365.09375 76.597656 403.140625 76.558594 C 441.171875 76.523438 479.21875 83.117188 515.484375 96.328125 L 512.976562 103.238281 C 477.492188 90.308594 440.296875 83.859375 403.140625 83.898438 C 365.984375 83.933594 328.792969 90.476562 293.347656 103.496094 C 283.183594 107.230469 273.1875 111.488281 263.4375 116.242188 C 253.625 121.015625 244.113281 126.273438 234.957031 131.960938 Z M 559.882812 116.371094 C 577.085938 125.734375 593.398438 136.605469 608.558594 148.828125 C 623.738281 161.050781 637.839844 174.632812 650.65625 189.441406 L 645.101562 194.234375 C 632.582031 179.777344 618.796875 166.496094 603.953125 154.550781 C 589.089844 142.585938 573.167969 131.960938 556.375 122.820312 Z M 678.597656 226.746094 C 685.082031 236.832031 690.988281 247.234375 696.304688 257.898438 C 701.632812 268.601562 706.371094 279.597656 710.496094 290.855469 C 741.167969 374.402344 735.613281 462.554688 701.652344 537.90625 C 667.691406 613.257812 605.328125 675.8125 522.429688 708.175781 L 519.757812 701.335938 C 600.792969 669.699219 661.765625 608.558594 694.964844 534.898438 C 728.164062 461.234375 733.589844 375.070312 703.605469 293.402344 C 699.574219 282.421875 694.929688 271.664062 689.726562 261.207031 C 684.523438 250.726562 678.726562 240.546875 672.429688 230.738281 Z M 415.125 730.320312 C 355.378906 732.4375 297.414062 718.152344 246.789062 690.507812 C 196.144531 662.84375 152.824219 621.785156 122.316406 570.382812 L 128.632812 566.648438 C 158.453125 616.902344 200.808594 657.027344 250.300781 684.058594 C 299.792969 711.089844 356.457031 725.042969 414.863281 722.980469 Z M 183.53125 691.566406 C 129.171875 650.042969 88.800781 594.941406 65.191406 533.410156 C 41.578125 471.898438 34.703125 403.941406 47.300781 336.726562 L 65.355469 340.105469 C 53.394531 403.976562 59.894531 468.480469 82.320312 526.871094 C 104.722656 585.242188 143.050781 637.523438 194.679688 676.964844 Z M 76.988281 246.289062 C 82.320312 235.234375 88.207031 224.421875 94.636719 213.960938 C 101.0625 203.484375 108.050781 193.304688 115.519531 183.53125 C 141.488281 149.535156 173.089844 120.644531 208.667969 97.980469 C 244.207031 75.316406 283.703125 58.835938 325.503906 49.621094 L 329.460938 67.53125 C 289.78125 76.28125 252.269531 91.925781 218.53125 113.4375 C 184.8125 134.949219 154.808594 162.351562 130.140625 194.679688 C 123.042969 203.96875 116.429688 213.589844 110.335938 223.53125 C 104.242188 233.449219 98.628906 243.722656 93.558594 254.277344 Z M 378.917969 41.929688 C 400.558594 40.460938 422.257812 40.925781 443.734375 43.324219 C 465.230469 45.71875 486.519531 50.03125 507.273438 56.234375 L 502.015625 73.867188 C 482.265625 67.976562 462.070312 63.871094 441.710938 61.605469 C 421.3125 59.339844 400.691406 58.875 380.144531 60.285156 Z M 555.59375 74.515625 C 567.6875 80.109375 579.410156 86.332031 590.707031 93.132812 C 601.980469 99.929688 612.941406 107.398438 623.550781 115.5 C 701.96875 175.394531 749.210938 261.152344 762.292969 351.8125 C 775.351562 442.472656 754.246094 538.074219 695.949219 617.664062 L 681.144531 606.8125 C 736.46875 531.257812 756.515625 440.484375 744.085938 354.394531 C 731.675781 268.320312 686.828125 186.914062 612.40625 130.082031 C 602.464844 122.484375 592.042969 115.40625 581.210938 108.867188 C 570.398438 102.347656 559.273438 96.4375 547.882812 91.179688 Z M 608.800781 702.246094 C 554.164062 739.792969 491.460938 760.933594 427.703125 765.191406 C 363.90625 769.445312 298.957031 756.847656 239.839844 726.917969 L 248.109375 710.515625 C 304.234375 738.921875 365.894531 750.902344 426.476562 746.851562 C 487.078125 742.804688 546.621094 722.757812 598.433594 687.144531 Z M 148.289062 235.644531 C 154.046875 226.894531 160.179688 218.515625 166.664062 210.582031 C 173.386719 202.332031 180.335938 194.605469 187.46875 187.46875 C 212.960938 161.980469 242.609375 141.398438 274.917969 126.40625 C 307.167969 111.429688 342.019531 102.085938 377.949219 99.058594 L 380.367188 128.390625 C 347.835938 131.125 316.328125 139.578125 287.214844 153.101562 C 258.160156 166.589844 231.390625 185.203125 208.277344 208.296875 C 201.460938 215.113281 195.160156 222.0625 189.421875 229.105469 C 183.4375 236.441406 177.867188 244.023438 172.792969 251.75 Z M 148.289062 235.644531 " fill-opacity="1" fill-rule="nonzero"/><g clip-path="url(#1fc2316807)"><path fill="#818cf8" d="M 408.558594 503.398438 L 522.347656 503.398438 C 523.53125 503.398438 524.546875 503 525.402344 502.203125 L 605.644531 428.246094 C 607.449219 426.597656 607.738281 426.828125 606.515625 428.945312 L 539.074219 546.371094 C 538.628906 547.144531 537.949219 547.535156 537.039062 547.535156 L 296.484375 547.535156 C 295.070312 547.535156 294.882812 547.058594 295.933594 546.109375 L 651.960938 225.835938 C 652.234375 225.582031 652.503906 225.582031 652.777344 225.835938 L 653.359375 226.445312 C 653.4375 226.542969 653.4375 226.640625 653.359375 226.738281 C 648.121094 231.855469 642.875 237.386719 637.617188 243.320312 C 562.011719 328.957031 485.542969 415.375 408.207031 502.582031 C 408.074219 502.738281 408.050781 502.910156 408.128906 503.097656 C 408.210938 503.285156 408.351562 503.386719 408.558594 503.398438 Z M 408.558594 503.398438 " fill-opacity="1" fill-rule="nonzero"/></g><g clip-path="url(#b263aa4c21)"><path fill="#818cf8" d="M 459.152344 304.273438 L 346.554688 304.273438 C 345.316406 304.273438 344.230469 304.691406 343.296875 305.523438 L 265.410156 377.273438 C 261.921875 380.472656 261.359375 380.015625 263.722656 375.90625 L 329.128906 262.085938 C 329.886719 260.75 331.039062 260.078125 332.589844 260.078125 L 571.3125 260.136719 C 573.289062 260.136719 573.542969 260.796875 572.070312 262.117188 C 453.03125 369.164062 333.726562 476.542969 214.148438 584.25 C 213.933594 584.445312 213.730469 584.445312 213.535156 584.25 L 213.535156 584.222656 C 213.324219 584.027344 213.3125 583.824219 213.507812 583.609375 C 294.601562 492.351562 376.679688 399.675781 459.734375 305.582031 C 459.960938 305.332031 460.003906 305.050781 459.867188 304.742188 C 459.730469 304.429688 459.492188 304.273438 459.152344 304.273438 Z M 459.152344 304.273438 " fill-opacity="1" fill-rule="nonzero"/></g></svg>