<?xml version="1.0" standalone="no"?>
<!DOCTYPE svg PUBLIC "-//W3C//DTD SVG 20010904//EN"
 "http://www.w3.org/TR/2001/REC-SVG-20010904/DTD/svg10.dtd">
<svg version="1.0" xmlns="http://www.w3.org/2000/svg"
 width="948.000000pt" height="948.000000pt" viewBox="0 0 948.000000 948.000000"
 preserveAspectRatio="xMidYMid meet">
<metadata>
Created by potrace 1.14, written by Peter Selinger 2001-2017
</metadata>
<g transform="translate(0.000000,948.000000) scale(0.100000,-0.100000)"
fill="#000000" stroke="none">
<path d="M4146 9378 c15 -24 238 -336 254 -355 5 -7 10 -15 10 -19 0 -3 12
-23 28 -43 15 -20 32 -45 39 -56 7 -11 55 -90 107 -175 89 -147 191 -330 182
-330 -2 0 -23 7 -47 15 -104 37 -559 162 -694 190 -11 3 -51 12 -90 20 -225
50 -613 121 -754 140 -14 2 -62 8 -106 14 -105 15 -129 18 -255 31 -58 6 -123
13 -145 15 -39 4 -143 12 -255 20 -228 15 -790 25 -790 14 0 -3 55 -43 123
-89 115 -79 386 -276 397 -289 3 -3 52 -44 110 -90 118 -95 217 -180 305 -261
95 -89 295 -293 295 -303 0 -4 -3 -6 -8 -4 -14 9 -237 20 -402 20 -147 0 -342
-8 -425 -18 -16 -2 -61 -6 -100 -10 -38 -4 -79 -9 -90 -11 -10 -2 -37 -6 -60
-9 -81 -12 -271 -46 -290 -52 -11 -4 -22 -7 -25 -8 -6 -1 -81 -17 -95 -20 -5
-2 -37 -10 -70 -19 -33 -9 -70 -19 -83 -22 -27 -6 -732 -241 -737 -246 -2 -2
35 -2 83 0 181 6 781 6 877 -1 219 -16 274 -22 485 -57 63 -11 149 -28 190
-38 90 -22 100 -16 -155 -97 -99 -31 -207 -67 -240 -80 -33 -13 -94 -35 -135
-51 -378 -139 -796 -347 -1080 -537 -93 -62 -216 -151 -230 -167 -3 -3 -44
-36 -92 -75 -48 -38 -86 -70 -84 -72 1 -1 33 -5 72 -8 86 -6 178 -14 224 -20
83 -11 117 -16 135 -19 285 -58 512 -132 715 -230 82 -40 95 -48 170 -95 l35
-22 -60 6 c-33 3 -73 8 -90 10 -102 15 -308 28 -440 29 -98 0 -365 -13 -374
-18 -3 -2 -31 -7 -62 -10 -31 -4 -67 -9 -79 -11 -12 -2 -47 -7 -78 -11 -30 -3
-63 -8 -71 -9 -9 -2 -41 -6 -71 -10 -30 -4 -62 -9 -70 -11 -8 -1 -24 -3 -35
-3 -45 -2 13 -23 230 -81 235 -64 393 -116 519 -171 140 -62 294 -138 361
-178 37 -23 69 -41 71 -41 11 0 193 -132 282 -205 1 -1 -75 -2 -170 -1 -177 1
-223 -2 -363 -28 -278 -50 -266 -46 -327 -93 -32 -24 -58 -46 -58 -47 0 -2 21
-14 48 -26 33 -16 70 -23 122 -25 127 -5 341 -26 405 -40 22 -4 81 -15 107
-19 52 -8 264 -66 350 -95 222 -75 459 -197 615 -316 l42 -32 -51 -23 c-127
-57 -207 -184 -259 -410 -7 -30 -13 -111 -13 -180 0 -111 4 -133 28 -200 41
-113 48 -157 61 -340 7 -105 17 -204 30 -305 12 -87 56 -239 89 -309 49 -102
120 -177 209 -221 102 -50 169 -58 277 -33 11 2 13 -47 15 -282 1 -157 5 -303
9 -325 4 -22 12 -65 17 -95 18 -95 20 -103 45 -180 73 -219 212 -417 405 -575
332 -273 362 -300 407 -363 68 -95 294 -250 520 -355 180 -85 313 -127 421
-135 102 -7 659 -10 776 -3 164 9 418 112 679 274 103 64 137 92 196 165 19
23 64 66 99 95 82 68 99 82 141 121 19 17 101 86 181 153 188 156 284 263 371
413 60 103 128 305 143 425 4 28 9 61 12 75 3 14 7 156 8 315 l1 290 30 -3
c16 -2 38 -4 48 -6 21 -3 102 10 126 21 8 3 20 7 26 8 32 7 115 65 160 112 78
80 155 254 179 403 3 19 7 46 10 60 10 53 22 143 30 230 19 199 33 279 56 327
11 22 26 70 33 105 15 71 13 253 -3 313 -5 22 -12 51 -15 65 -34 177 -159 336
-286 366 -19 4 -38 9 -42 10 -5 1 -16 2 -27 3 -18 1 -18 3 1 69 20 71 52 246
63 347 3 32 8 62 10 65 1 3 6 46 10 95 4 50 8 92 10 95 1 3 6 37 9 75 4 39 9
77 11 85 2 8 6 40 10 70 3 30 7 66 9 80 2 14 7 46 10 71 4 25 9 57 11 70 2 13
6 37 9 53 3 16 9 50 13 75 4 25 8 48 8 51 1 3 5 25 9 50 5 25 10 54 12 65 5
24 4 213 -1 270 -4 53 -14 120 -25 170 -5 22 -11 54 -14 71 -11 58 -75 268
-115 374 -64 171 -123 305 -208 475 -80 160 -185 348 -235 422 -15 23 -28 45
-28 48 0 8 -347 524 -365 543 -7 7 5 -51 27 -130 74 -273 136 -514 161 -628
42 -189 57 -263 54 -267 -2 -1 -10 9 -18 25 -38 74 -237 393 -266 427 -5 6
-24 33 -43 60 -19 28 -71 97 -116 155 -517 665 -1158 1158 -1859 1430 -60 24
-119 46 -130 51 -88 35 -149 49 -209 49 -51 0 -65 -3 -60 -12z"/>
</g>
</svg>
