<svg width="107" height="107" viewBox="0 0 107 107" fill="none" xmlns="http://www.w3.org/2000/svg">
<path fill-rule="evenodd" clip-rule="evenodd" d="M35.4183 61.7574C35.419 61.6694 35.4216 61.5807 35.4264 61.4917C35.5798 58.7091 37.8796 56.531 40.666 56.5291C43.5596 56.5271 45.9088 58.866 45.9212 61.7574H35.4183ZM28.1639 61.7574C28.1301 60.4061 27.064 59.2831 25.6908 59.2048C24.2444 59.1223 23.0045 60.2277 22.922 61.6745C22.9204 61.7022 22.9192 61.7298 22.9185 61.7574H28.1639ZM17.455 61.7574C17.4182 60.8992 16.7364 60.1914 15.8604 60.141L15.8552 60.1404C14.9197 60.0881 14.119 60.8037 14.0664 61.7392C14.066 61.745 14.0657 61.7512 14.0654 61.7574H17.455ZM92.0215 61.7574C92.0686 60.8254 91.3552 60.0293 90.4226 59.976C89.4871 59.9237 88.6864 60.6393 88.6338 61.5748C88.6302 61.6362 88.6302 61.6973 88.6331 61.7574H92.0215ZM83.1662 61.7574C83.2026 60.347 82.1121 59.1529 80.6932 59.072C79.2467 58.9895 78.0069 60.0949 77.9244 61.5417C77.9201 61.6141 77.9192 61.6859 77.9208 61.7574H83.1662ZM70.6682 61.7574C70.6686 61.7437 70.6686 61.7301 70.6686 61.7165C70.6686 58.932 68.4945 56.632 65.7145 56.4755V56.4836C62.8199 56.3189 60.3398 58.5318 60.1752 61.4264C60.1687 61.5371 60.1661 61.6476 60.1667 61.7574H70.6682ZM35.8357 28.739C36.2609 29.5741 35.9286 30.5954 35.0938 31.0206C35.0928 31.0212 35.0912 31.0215 35.0902 31.0222C34.2515 31.4445 33.229 31.1067 32.8067 30.2679C32.3896 29.4341 32.7232 28.42 33.5541 27.997C34.3893 27.5718 35.4105 27.9041 35.8357 28.739ZM41.5807 36.7864C42.2327 38.0792 41.7129 39.6556 40.4201 40.3072C39.1266 40.9579 37.5505 40.4381 36.8986 39.1453C36.2476 37.8528 36.7677 36.2773 38.0599 35.6257C39.3527 34.9738 40.9291 35.4935 41.5807 36.7864ZM25.4901 46.0707C24.8365 47.0686 23.4976 47.3477 22.4997 46.6938C21.5021 46.0402 21.2237 44.7012 21.8767 43.7034C22.5302 42.7055 23.8692 42.4264 24.8671 43.0803C25.865 43.7339 26.144 45.0729 25.4901 46.0707ZM37.2533 52.8887C36.3191 54.3137 34.4065 54.711 32.9818 53.7768C32.9805 53.7758 32.9792 53.7751 32.9779 53.7742C31.5547 52.8393 31.1591 50.9276 32.094 49.5045C33.0282 48.0802 34.9405 47.6829 36.3652 48.6171C37.7903 49.5513 38.1875 51.4639 37.2533 52.8887ZM68.9359 39.3454C68.141 40.5567 66.5143 40.8942 65.303 40.0993C64.0926 39.3045 63.7542 37.6767 64.549 36.4664C65.3439 35.2551 66.9707 34.9176 68.182 35.7125C69.3933 36.5073 69.7308 38.1341 68.9359 39.3454ZM73.0317 30.3514C72.5185 31.1356 71.467 31.3548 70.6832 30.8419L70.6802 30.84C69.8974 30.3251 69.6801 29.2733 70.1946 28.4905C70.7085 27.7086 71.7584 27.4906 72.5412 28.0029C73.3254 28.5161 73.545 29.5673 73.0317 30.3514ZM46.8356 56.2942C44.8518 56.3027 43.0347 55.1862 42.1456 53.4129V53.4071C40.8404 50.8178 41.8815 47.6611 44.4708 46.3563C47.06 45.0511 50.2167 46.0922 51.5216 48.6814C51.8913 49.4139 52.0839 50.2234 52.0839 51.0439C52.0845 53.9431 49.7347 56.2936 46.8356 56.2942ZM84.2368 43.7826C84.778 44.8458 84.3551 46.1464 83.2919 46.6876L83.2841 46.6915C82.2173 47.2278 80.9177 46.798 80.3811 45.7313C79.8483 44.6694 80.2732 43.3766 81.3319 42.8377C82.395 42.2965 83.6957 42.7194 84.2368 43.7826ZM68.6215 52.5031C67.8542 50.9819 68.4655 49.1264 69.9867 48.3592C71.5096 47.5936 73.364 48.2059 74.1319 49.7271C74.8972 51.2483 74.2856 53.1014 72.7654 53.8684C71.2442 54.6356 69.3887 54.0243 68.6215 52.5031ZM55.1233 28.0142C55.0568 29.2051 54.0371 30.1166 52.8459 30.05C52.8414 30.05 52.8372 30.0493 52.8326 30.0493C51.6431 29.9762 50.7378 28.9527 50.8109 27.7632C50.8823 26.5762 51.9004 25.6703 53.0876 25.7368C54.2785 25.8034 55.1899 26.8234 55.1233 28.0142ZM56.0712 40.7292C55.9773 42.4303 54.5221 43.7336 52.8209 43.64L52.8154 43.6394C51.1143 43.5429 49.8136 42.0854 49.9104 40.3842C50.0072 38.6853 51.4612 37.3854 53.1604 37.4789C54.8619 37.5728 56.1648 39.028 56.0712 40.7292ZM56.3265 55.4009C53.9036 53.8154 53.225 50.5658 54.8105 48.1428C55.7824 46.6623 57.4342 45.7706 59.2052 45.7709C60.2226 45.7725 61.2175 46.0698 62.0686 46.6269C64.4915 48.2124 65.1701 51.462 63.5846 53.8849C61.9991 56.3079 58.7495 56.9864 56.3265 55.4009Z" fill="#FF9600"/>
<path fill-rule="evenodd" clip-rule="evenodd" d="M35.4183 61.7574C35.419 61.6694 35.4216 61.5807 35.4264 61.4917C35.5798 58.7091 37.8796 56.531 40.666 56.5291C43.5596 56.5271 45.9088 58.866 45.9212 61.7574H35.4183ZM28.1639 61.7574C28.1301 60.4061 27.064 59.2831 25.6908 59.2048C24.2444 59.1223 23.0045 60.2277 22.922 61.6745C22.9204 61.7022 22.9192 61.7298 22.9185 61.7574H28.1639ZM17.455 61.7574C17.4182 60.8992 16.7364 60.1914 15.8604 60.141L15.8552 60.1404C14.9197 60.0881 14.119 60.8037 14.0664 61.7392C14.066 61.745 14.0657 61.7512 14.0654 61.7574H17.455ZM92.0215 61.7574C92.0686 60.8254 91.3552 60.0293 90.4226 59.976C89.4871 59.9237 88.6864 60.6393 88.6338 61.5748C88.6302 61.6362 88.6302 61.6973 88.6331 61.7574H92.0215ZM83.1662 61.7574C83.2026 60.347 82.1121 59.1529 80.6932 59.072C79.2467 58.9895 78.0069 60.0949 77.9244 61.5417C77.9201 61.6141 77.9192 61.6859 77.9208 61.7574H83.1662ZM70.6682 61.7574C70.6686 61.7437 70.6686 61.7301 70.6686 61.7165C70.6686 58.932 68.4945 56.632 65.7145 56.4755V56.4836C62.8199 56.3189 60.3398 58.5318 60.1752 61.4264C60.1687 61.5371 60.1661 61.6476 60.1667 61.7574H70.6682ZM35.8357 28.739C36.2609 29.5741 35.9286 30.5954 35.0938 31.0206C35.0928 31.0212 35.0912 31.0215 35.0902 31.0222C34.2515 31.4445 33.229 31.1067 32.8067 30.2679C32.3896 29.4341 32.7232 28.42 33.5541 27.997C34.3893 27.5718 35.4105 27.9041 35.8357 28.739ZM41.5807 36.7864C42.2327 38.0792 41.7129 39.6556 40.4201 40.3072C39.1266 40.9579 37.5505 40.4381 36.8986 39.1453C36.2476 37.8528 36.7677 36.2773 38.0599 35.6257C39.3527 34.9738 40.9291 35.4935 41.5807 36.7864ZM25.4901 46.0707C24.8365 47.0686 23.4976 47.3477 22.4997 46.6938C21.5021 46.0402 21.2237 44.7012 21.8767 43.7034C22.5302 42.7055 23.8692 42.4264 24.8671 43.0803C25.865 43.7339 26.144 45.0729 25.4901 46.0707ZM37.2533 52.8887C36.3191 54.3137 34.4065 54.711 32.9818 53.7768C32.9805 53.7758 32.9792 53.7751 32.9779 53.7742C31.5547 52.8393 31.1591 50.9276 32.094 49.5045C33.0282 48.0802 34.9405 47.6829 36.3652 48.6171C37.7903 49.5513 38.1875 51.4639 37.2533 52.8887ZM68.9359 39.3454C68.141 40.5567 66.5143 40.8942 65.303 40.0993C64.0926 39.3045 63.7542 37.6767 64.549 36.4664C65.3439 35.2551 66.9707 34.9176 68.182 35.7125C69.3933 36.5073 69.7308 38.1341 68.9359 39.3454ZM73.0317 30.3514C72.5185 31.1356 71.467 31.3548 70.6832 30.8419L70.6802 30.84C69.8974 30.3251 69.6801 29.2733 70.1946 28.4905C70.7085 27.7086 71.7584 27.4906 72.5412 28.0029C73.3254 28.5161 73.545 29.5673 73.0317 30.3514ZM46.8356 56.2942C44.8518 56.3027 43.0347 55.1862 42.1456 53.4129V53.4071C40.8404 50.8178 41.8815 47.6611 44.4708 46.3563C47.06 45.0511 50.2167 46.0922 51.5216 48.6814C51.8913 49.4139 52.0839 50.2234 52.0839 51.0439C52.0845 53.9431 49.7347 56.2936 46.8356 56.2942ZM84.2368 43.7826C84.778 44.8458 84.3551 46.1464 83.2919 46.6876L83.2841 46.6915C82.2173 47.2278 80.9177 46.798 80.3811 45.7313C79.8483 44.6694 80.2732 43.3766 81.3319 42.8377C82.395 42.2965 83.6957 42.7194 84.2368 43.7826ZM68.6215 52.5031C67.8542 50.9819 68.4655 49.1264 69.9867 48.3592C71.5096 47.5936 73.364 48.2059 74.1319 49.7271C74.8972 51.2483 74.2856 53.1014 72.7654 53.8684C71.2442 54.6356 69.3887 54.0243 68.6215 52.5031ZM55.1233 28.0142C55.0568 29.2051 54.0371 30.1166 52.8459 30.05C52.8414 30.05 52.8372 30.0493 52.8326 30.0493C51.6431 29.9762 50.7378 28.9527 50.8109 27.7632C50.8823 26.5762 51.9004 25.6703 53.0876 25.7368C54.2785 25.8034 55.1899 26.8234 55.1233 28.0142ZM56.0712 40.7292C55.9773 42.4303 54.5221 43.7336 52.8209 43.64L52.8154 43.6394C51.1143 43.5429 49.8136 42.0854 49.9104 40.3842C50.0072 38.6853 51.4612 37.3854 53.1604 37.4789C54.8619 37.5728 56.1648 39.028 56.0712 40.7292ZM56.3265 55.4009C53.9036 53.8154 53.225 50.5658 54.8105 48.1428C55.7824 46.6623 57.4342 45.7706 59.2052 45.7709C60.2226 45.7725 61.2175 46.0698 62.0686 46.6269C64.4915 48.2124 65.1701 51.462 63.5846 53.8849C61.9991 56.3079 58.7495 56.9864 56.3265 55.4009Z" fill="#FF9600"/>
<path d="M105.944 61.7573H1.05571C0.472655 61.7573 0 62.23 0 62.813C0 63.3961 0.472655 63.8687 1.05571 63.8687H105.944C106.527 63.8687 107 63.3961 107 62.813C107 62.23 106.527 61.7573 105.944 61.7573Z" fill="#0096FF"/>
<path d="M33.0518 67.4419H5.99321C5.41016 67.4419 4.9375 67.9145 4.9375 68.4976C4.9375 69.0807 5.41016 69.5533 5.99321 69.5533H33.0518C33.6349 69.5533 34.1075 69.0807 34.1075 68.4976C34.1075 67.9145 33.6349 67.4419 33.0518 67.4419Z" fill="#0096FF"/>
<path d="M95.3062 67.4419H70.0017C69.3738 67.4419 68.8647 67.9509 68.8647 68.5788C68.8647 69.2067 69.3738 69.7157 70.0017 69.7157H95.3062C95.9341 69.7157 96.4431 69.2067 96.4431 68.5788C96.4431 67.9509 95.9341 67.4419 95.3062 67.4419Z" fill="#0096FF"/>
<path d="M60.3532 67.4419H42.781C41.9196 67.4419 41.2212 67.8781 41.2212 68.4164C41.2212 68.9546 41.9196 69.3909 42.781 69.3909H60.3532C61.2147 69.3909 61.9131 68.9546 61.9131 68.4164C61.9131 67.8781 61.2147 67.4419 60.3532 67.4419Z" fill="#0096FF"/>
<path d="M87.3641 73.1265H65.9576C65.3745 73.1265 64.9019 73.5991 64.9019 74.1822C64.9019 74.7652 65.3745 75.2379 65.9576 75.2379H87.3641C87.9471 75.2379 88.4198 74.7652 88.4198 74.1822C88.4198 73.5991 87.9471 73.1265 87.3641 73.1265Z" fill="#0096FF"/>
<path d="M55.9198 73.1265H19.0837C18.5904 73.1265 18.1904 73.5263 18.1904 74.0198C18.1904 74.5132 18.5904 74.913 19.0837 74.913H55.9198C56.4132 74.913 56.8131 74.5132 56.8131 74.0198C56.8131 73.5263 56.4132 73.1265 55.9198 73.1265Z" fill="#0096FF"/>
<path d="M63.6835 78.811H47.182C46.5093 78.811 45.9639 79.3564 45.9639 80.0292C45.9639 80.7019 46.5093 81.2473 47.182 81.2473H63.6835C64.3562 81.2473 64.9016 80.7019 64.9016 80.0292C64.9016 79.3564 64.3562 78.811 63.6835 78.811Z" fill="#0096FF"/>
</svg>
