<?xml version="1.0" standalone="no"?>
<!DOCTYPE svg PUBLIC "-//W3C//DTD SVG 20010904//EN"
 "http://www.w3.org/TR/2001/REC-SVG-20010904/DTD/svg10.dtd">
<svg version="1.0" xmlns="http://www.w3.org/2000/svg"
 width="90.000000pt" height="90.000000pt" viewBox="0 0 90.000000 90.000000"
 preserveAspectRatio="xMidYMid meet">
<metadata>
Created by potrace 1.14, written by Peter Selinger 2001-2017
</metadata>
<g transform="translate(0.000000,90.000000) scale(0.100000,-0.100000)"
fill="#000000" stroke="none">
<path d="M385 671 c-46 -20 -102 -79 -111 -116 -3 -14 -13 -25 -22 -25 -9 0
-34 -9 -57 -20 -111 -54 -112 -221 -1 -274 26 -12 65 -16 171 -16 l137 0 -29
24 c-22 19 -43 25 -93 27 -57 3 -65 2 -62 -14 4 -23 2 -22 -69 14 -47 23 -64
38 -75 65 -18 43 -5 95 29 119 31 22 96 19 122 -5 21 -20 23 -20 45 -2 l23 18
-38 31 -38 31 23 36 c12 20 36 44 52 52 30 16 37 16 183 -1 l50 -6 -35 31
c-59 51 -135 63 -205 31z"/>
<path d="M540 579 c-33 -14 -33 -14 -20 -39 8 -15 17 -19 32 -14 92 29 178
-29 178 -121 0 -55 -24 -92 -81 -120 -84 -43 -101 -48 -98 -27 2 9 -16 36 -38
59 -30 31 -46 40 -62 36 -28 -7 -26 -22 9 -64 79 -97 229 -90 297 12 23 35 28
53 28 104 0 70 -24 115 -81 154 -37 26 -126 37 -164 20z"/>
<path d="M546 411 c-4 -7 -5 -15 -2 -18 9 -9 19 4 14 18 -4 11 -6 11 -12 0z"/>
<path d="M595 409 c-10 -15 3 -25 16 -12 7 7 7 13 1 17 -6 3 -14 1 -17 -5z"/>
<path d="M646 412 c-3 -6 -1 -14 5 -17 15 -10 25 3 12 16 -7 7 -13 7 -17 1z"/>
<path d="M255 370 c3 -5 8 -10 11 -10 2 0 4 5 4 10 0 6 -5 10 -11 10 -5 0 -7
-4 -4 -10z"/>
<path d="M300 369 c0 -5 5 -7 10 -4 6 3 10 8 10 11 0 2 -4 4 -10 4 -5 0 -10
-5 -10 -11z"/>
</g>
</svg>
