<!DOCTYPE svg PUBLIC "-//W3C//DTD SVG 1.1//EN" "http://www.w3.org/Graphics/SVG/1.1/DTD/svg11.dtd">
<!-- Uploaded to: SVG Repo, www.svgrepo.com, Transformed by: SVG Repo Mixer Tools -->
<svg height="60px" width="60px" version="1.1" id="Layer_1" xmlns="http://www.w3.org/2000/svg" xmlns:xlink="http://www.w3.org/1999/xlink" viewBox="0 0 512.00 512.00" xml:space="preserve" fill="#000000">

<g id="SVGRepo_bgCarrier" stroke-width="0"/>

<g id="SVGRepo_tracerCarrier" stroke-linecap="round" stroke-linejoin="round" stroke="#CCCCCC" stroke-width="7.168000000000001"/>

<g id="SVGRepo_iconCarrier"> <path style="fill:#e30613;" d="M264.551,90.682H247.45c-9.445,0-17.101-7.656-17.101-17.101l0,0c0-9.445,7.656-17.101,17.101-17.101 h17.101c9.445,0,17.101,7.656,17.101,17.101l0,0C281.652,83.025,273.995,90.682,264.551,90.682z"/> <path style="fill:#D7EBFF;" d="M273.102,82.132h-34.202c-118.059,0-213.765,95.706-213.765,213.765v59.854h461.733v-59.854 C486.867,177.838,391.161,82.132,273.102,82.132z"/> <path style="fill:#e30613;" d="M9.744,405.767c-8.298,26.969,14.342,53.547,42.239,49.312 c57.273-8.693,127.76-13.823,204.018-13.823s146.745,5.131,204.018,13.823c27.897,4.234,50.537-22.344,42.239-49.312l-15.39-50.017 c-55.491-15.685-138.298-25.652-230.867-25.652S80.625,340.065,25.134,355.75L9.744,405.767z"/> <path style="fill:#e30613;" d="M267.401,82.132h-22.801c-78.706,0-142.51,95.706-142.51,213.765v51.304h307.822v-51.304 C409.912,177.838,346.108,82.132,267.401,82.132z"/> <path style="fill:#e30613;" d="M281.652,287.347h-51.304c-9.445,0-17.101-7.656-17.101-17.101l0,0 c0-9.445,7.656-17.101,17.101-17.101h51.304c9.445,0,17.101,7.656,17.101,17.101l0,0 C298.754,279.689,291.097,287.347,281.652,287.347z"/> <path style="fill:#e30613;" d="M256.001,407.055c75.575,0,147.898,4.914,209.15,14.21c0.261,0.04,0.509,0.06,0.739,0.06 c1.555,0,2.574-1.065,3.042-1.698c1.274-1.725,0.811-3.232,0.636-3.8l-22.916-69.482C394.618,336.204,328.324,330.1,256.001,330.1 s-138.617,6.103-190.651,16.245l-22.916,69.482c-0.175,0.568-0.639,2.076,0.635,3.801c0.468,0.634,1.487,1.697,3.043,1.697 c0.23,0,0.478-0.02,0.739-0.06C108.103,411.969,180.426,407.055,256.001,407.055z"/> <path d="M509.919,403.41l-15.035-48.865v-58.649c0-116.731-90.651-212.683-205.252-221.166c0.017-0.383,0.037-0.765,0.037-1.15 c0-13.85-11.268-25.117-25.117-25.117H247.45c-13.85,0-25.117,11.268-25.117,25.117c0,0.385,0.02,0.767,0.037,1.15 C107.769,83.215,17.118,179.166,17.118,295.897v58.649L2.082,403.41c-4.736,15.39-1.28,31.866,9.242,44.072 c10.442,12.114,26.091,17.916,41.862,15.524c59.195-8.985,129.327-13.733,202.814-13.733s143.62,4.749,202.814,13.733 c2.343,0.356,4.681,0.53,7.002,0.53c13.3,0,25.968-5.74,34.86-16.055C511.199,435.276,514.654,418.8,509.919,403.41z M478.851,295.896V345.3c-18.251-4.671-38.751-8.705-60.923-12.039v-37.365c0-58.664-15.301-113.924-43.087-155.602 c-10.431-15.647-22.17-28.703-34.863-38.981C420.698,129.134,478.851,205.847,478.851,295.896z M256.001,338.115 c68.198,0,133.411,5.511,185.833,15.435l18.28,58.863c-60.287-8.755-130.694-13.375-204.113-13.375s-143.822,4.619-204.113,13.375 l18.28-58.863C122.59,343.627,187.803,338.115,256.001,338.115z M244.599,90.147h22.801c74.161,0,134.494,92.299,134.494,205.749 v35.113c-44.286-5.794-94.29-8.927-145.895-8.927s-101.609,3.133-145.895,8.927v-35.113 C110.106,182.446,170.44,90.147,244.599,90.147z M238.365,73.58c0-5.01,4.075-9.085,9.085-9.085h17.101 c5.01,0,9.085,4.075,9.085,9.085c0,0.182-0.025,0.36-0.035,0.541c-0.167,0-0.332-0.006-0.499-0.006h-5.7H244.6h-5.7 c-0.167,0-0.332,0.006-0.499,0.006C238.39,73.94,238.365,73.762,238.365,73.58z M172.023,101.314 c-12.693,10.279-24.432,23.336-34.863,38.981c-27.785,41.677-43.087,96.937-43.087,155.602v37.365 c-22.172,3.336-42.672,7.368-60.923,12.039v-49.404C33.15,205.847,91.303,129.134,172.023,101.314z M488.533,437.014 c-6.819,7.91-17.032,11.7-27.313,10.141c-59.977-9.103-130.941-13.915-205.22-13.915s-145.244,4.812-205.22,13.915 c-10.282,1.562-20.493-2.231-27.313-10.141c-6.899-8.002-9.165-18.803-6.061-28.889l14.098-45.82 c6.587-1.784,13.516-3.475,20.733-5.077l-17.465,56.238c-1.591,5.17,0.475,9.063,1.848,10.921c2.72,3.685,6.956,5.485,11.433,4.802 c60.862-9.238,132.77-14.119,207.947-14.119s147.084,4.882,207.942,14.119c0.657,0.1,1.313,0.151,1.945,0.151 c3.707,0,7.166-1.805,9.49-4.952c1.373-1.859,3.439-5.748,1.844-10.939l-17.459-56.221c7.217,1.603,14.147,3.294,20.733,5.077 l14.098,45.82C497.699,418.212,495.433,429.011,488.533,437.014z"/> <path d="M230.349,295.362h51.304c13.85,0,25.117-11.268,25.117-25.117s-11.268-25.117-25.117-25.117h-51.304 c-13.85,0-25.117,11.268-25.117,25.117C205.231,284.094,216.499,295.362,230.349,295.362z M230.349,261.159h51.304 c5.01,0,9.085,4.075,9.085,9.085s-4.075,9.085-9.085,9.085h-51.304c-5.01,0-9.085-4.075-9.085-9.085 C221.264,265.235,225.339,261.159,230.349,261.159z"/> </g>

</svg>
