<?xml version="1.0" encoding="UTF-8"?>
<svg version="1.1" xmlns="http://www.w3.org/2000/svg" width="376" height="376">
<path d="M0 0 C0.98613281 -0.020625 1.97226563 -0.04125 2.98828125 -0.0625 C13.10388833 -0.11581018 21.13157254 2.50370879 29.875 7.4375 C30.88046875 7.98954102 30.88046875 7.98954102 31.90625 8.55273438 C33.52552913 9.4433379 35.13849371 10.34540781 36.75 11.25 C36.75 11.91 36.75 12.57 36.75 13.25 C37.306875 13.4975 37.86375 13.745 38.4375 14 C43.33360432 16.64654288 46.24766386 19.81799643 49.25 24.4375 C52.20405232 28.25722896 52.20405232 28.25722896 56.59375 29.875 C58.76137045 29.91792318 60.92961677 29.9347471 63.09765625 29.9296875 C67.61136103 30.32554182 71.09086247 31.70792832 75.1875 33.5625 C75.84943359 33.85922607 76.51136719 34.15595215 77.19335938 34.46166992 C84.03278055 37.66050255 89.02467679 41.28117068 93.75 47.25 C94.39453125 47.84941406 95.0390625 48.44882813 95.703125 49.06640625 C98.0741604 51.59581234 99.37254629 54.06853195 100.875 57.1875 C101.37257813 58.20714844 101.87015625 59.22679687 102.3828125 60.27734375 C106.06337232 68.27993238 106.81125 74.68588234 106.5 83.4375 C106.37754482 88.76672539 106.37754482 88.76672539 108.9375 93.3125 C110.3296875 94.2715625 110.3296875 94.2715625 111.75 95.25 C122.41632032 105.05148353 130.9696524 119.23285779 131.73046875 134.0546875 C131.73691406 134.77914062 131.74335938 135.50359375 131.75 136.25 C131.78738281 137.18070313 131.82476562 138.11140625 131.86328125 139.0703125 C132.28315786 156.35154979 126.93070615 171.15122324 115.25 184 C114.425 184.7425 113.6 185.485 112.75 186.25 C112.25113281 186.71792969 111.75226563 187.18585938 111.23828125 187.66796875 C100.20289585 197.67441379 87.5641765 202.50935496 72.6875 202.75 C71.97327881 202.76853027 71.25905762 202.78706055 70.52319336 202.80615234 C65.66479207 202.74737439 63.15093033 201.69593319 59.75 198.25 C59.42 197.59 59.09 196.93 58.75 196.25 C56.46163778 195.83013054 56.46163778 195.83013054 53.75 196.25 C51.10412766 198.64585286 51.10412766 198.64585286 48.75 201.25 C45.8095934 202.23013553 43.91302095 202.37787288 40.84944153 202.38371277 C39.83876617 202.38797775 38.82809082 202.39224274 37.78678894 202.39663696 C36.67870377 202.39618378 35.57061859 202.39573059 34.42895508 202.39526367 C33.2611853 202.39862228 32.09341553 202.4019809 30.89025879 202.40544128 C27.01667221 202.41496607 23.14312882 202.41689536 19.26953125 202.41796875 C17.93397185 202.41939202 16.59841262 202.42098787 15.26285362 202.42275429 C8.26401718 202.43200955 1.26519978 202.43608924 -5.73364258 202.43530273 C-12.24612756 202.43470296 -18.75852944 202.44523447 -25.27099341 202.4610464 C-30.86943804 202.47415214 -36.46785563 202.47948531 -42.06631547 202.47884732 C-45.40663895 202.47859308 -48.74683008 202.48233027 -52.08714867 202.49202538 C-55.81882959 202.50183964 -59.55029796 202.49894103 -63.28198242 202.49291992 C-64.92892845 202.50134918 -64.92892845 202.50134918 -66.60914612 202.50994873 C-80.7457626 202.45208636 -94.50447086 197.68799794 -105.25 188.25 C-105.25 187.59 -105.25 186.93 -105.25 186.25 C-106.1471875 185.87875 -106.1471875 185.87875 -107.0625 185.5 C-109.56626919 184.06927475 -110.73072388 182.6808418 -112.25 180.25 C-112.25 179.59 -112.25 178.93 -112.25 178.25 C-112.91 178.25 -113.57 178.25 -114.25 178.25 C-122.63832134 162.36855367 -126.65479714 144.99984514 -121.25 127.25 C-118.31499719 119.09407873 -114.24723822 110.49087403 -107.375 105.0625 C-104.70088547 102.59857788 -104.27782022 101.53273104 -103.9140625 97.8359375 C-103.97183333 95.2152424 -104.06222249 92.59508294 -104.18359375 89.9765625 C-104.31994296 82.32496552 -101.83990969 76.34536871 -97.23828125 70.33203125 C-94.58128874 64.73449366 -96.70447284 58.67958402 -98.5 53.125 C-98.70496094 52.43535156 -98.90992187 51.74570313 -99.12109375 51.03515625 C-100.49568603 46.67811527 -102.23914026 43.76266969 -105.25 40.25 C-105.25 39.59 -105.25 38.93 -105.25 38.25 C-109.05628773 36.18271552 -112.92992148 35.19877561 -117.10546875 34.12890625 C-117.81316406 33.83886719 -118.52085938 33.54882812 -119.25 33.25 C-119.745 31.765 -119.745 31.765 -120.25 30.25 C-119.39277344 29.981875 -118.53554687 29.71375 -117.65234375 29.4375 C-109.01930342 26.47871279 -103.4607114 23.39323842 -99.16796875 15.1796875 C-98.45337238 13.56776693 -97.83864512 11.9120568 -97.25 10.25 C-96.26 10.58 -95.27 10.91 -94.25 11.25 C-93.57566692 12.90211606 -92.90276641 14.55483604 -92.23828125 16.2109375 C-89.43664829 21.99138178 -85.40130565 26.10885151 -79.4375 28.5 C-77.71211211 29.09441717 -75.9828022 29.67755641 -74.25 30.25 C-72.47457725 30.94675021 -70.70358169 31.65490121 -68.9375 32.375 C-68.15761719 32.68695313 -67.37773438 32.99890625 -66.57421875 33.3203125 C-64.90434731 33.98826108 -63.24096695 34.67252336 -61.58203125 35.3671875 C-59.35384613 36.36801341 -59.35384613 36.36801341 -57.25 36.25 C-57.00378906 35.54488281 -56.75757812 34.83976562 -56.50390625 34.11328125 C-51.05704769 21.67543912 -40.1936157 12.16536354 -28.25 6.25 C-27.1775 5.693125 -26.105 5.13625 -25 4.5625 C-16.64399188 0.57440522 -9.16070151 0.04715934 0 0 Z " fill="#F1A782" transform="translate(182.25,86.75)"/>
<path d="M0 0 C0.99 0.33 1.98 0.66 3 1 C3.67433308 2.65211606 4.34723359 4.30483604 5.01171875 5.9609375 C7.81335171 11.74138178 11.84869435 15.85885151 17.8125 18.25 C19.53788789 18.84441717 21.2671978 19.42755641 23 20 C24.77542275 20.69675021 26.54641831 21.40490121 28.3125 22.125 C29.09238281 22.43695313 29.87226562 22.74890625 30.67578125 23.0703125 C32.34565269 23.73826108 34.00903305 24.42252336 35.66796875 25.1171875 C37.89615387 26.11801341 37.89615387 26.11801341 40 26 C40.495 24.515 40.495 24.515 41 23 C41.495 23.99 41.495 23.99 42 25 C41.505 26.485 41.505 26.485 41 28 C40.34 28 39.68 28 39 28 C38.86722656 28.74765625 38.73445313 29.4953125 38.59765625 30.265625 C38.42105469 31.25046875 38.24445313 32.2353125 38.0625 33.25 C37.88847656 34.22453125 37.71445313 35.1990625 37.53515625 36.203125 C37 39 37 39 36.47938538 40.83660889 C35.91097378 43.4017614 35.83765375 45.78345659 35.79467773 48.41113281 C35.77473251 49.49195129 35.75478729 50.57276978 35.73423767 51.68634033 C35.70916893 53.42714874 35.70916893 53.42714874 35.68359375 55.203125 C35.66281265 56.39605164 35.64203156 57.58897827 35.62062073 58.8180542 C35.55523761 62.62864423 35.49629224 66.43930314 35.4375 70.25 C35.39430411 72.83334046 35.35068948 75.41667395 35.30664062 78 C35.19956766 84.33326052 35.09778028 90.66658956 35 97 C36.654552 96.97595093 36.654552 96.97595093 38.3425293 96.95141602 C47.03811906 97.06692382 53.72674269 102.92376233 59.80078125 108.6640625 C68.52801907 117.93384619 69.72901793 127.71329528 69.44140625 139.9921875 C69.04476906 146.63430622 66.83973034 151.60568856 63 157 C62.45859375 157.76699219 61.9171875 158.53398437 61.359375 159.32421875 C57.46174571 164.25089503 52.83910767 167.64625117 47 170 C46.01 170 45.02 170 44 170 C44 170.66 44 171.32 44 172 C35.03837219 174.87801624 22.91649604 173.98696569 14.36328125 170.33984375 C11.08552898 168.48154784 8.40942206 166.25886045 5.70703125 163.64453125 C3.93844866 161.84605701 3.93844866 161.84605701 1.3125 160.1875 C-5.22073842 154.0074096 -7.06148408 145.41812902 -7.39428711 136.76904297 C-7.61895039 124.64737988 -4.42772909 115.74791103 4.0078125 106.75 C10.65616808 100.90987588 18.11224101 96.83645912 27 97 C26.90627768 91.53705568 26.80014176 86.07454474 26.68261719 80.61206055 C26.64439134 78.75470544 26.60952737 76.89727792 26.578125 75.03979492 C26.53233539 72.36611088 26.47436421 69.69292258 26.4140625 67.01953125 C26.40251129 66.19226028 26.39096008 65.36498932 26.37905884 64.51264954 C26.27041409 60.24535589 25.95873577 56.89341689 24 53 C16.1003943 52.34653997 11.21424332 52.9906971 5 58 C4.39800781 58.47695312 3.79601562 58.95390625 3.17578125 59.4453125 C1.75940125 60.60086728 0.37568038 61.79627967 -1 63 C-0.67 62.319375 -0.34 61.63875 0 60.9375 C2.15344483 54.6117558 0.72906729 48.99737776 -1.25 42.875 C-1.45496094 42.18535156 -1.65992187 41.49570313 -1.87109375 40.78515625 C-3.24568603 36.42811527 -4.98914026 33.51266969 -8 30 C-8 29.34 -8 28.68 -8 28 C-11.80628773 25.93271552 -15.67992148 24.94877561 -19.85546875 23.87890625 C-20.56316406 23.58886719 -21.27085938 23.29882812 -22 23 C-22.33 22.01 -22.66 21.02 -23 20 C-22.14277344 19.731875 -21.28554688 19.46375 -20.40234375 19.1875 C-11.76930342 16.22871279 -6.2107114 13.14323842 -1.91796875 4.9296875 C-1.20337238 3.31776693 -0.58864512 1.6620568 0 0 Z " fill="#0D0D2F" transform="translate(85,97)"/>
<path d="M0 0 C0 0.66 0 1.32 0 2 C0.88558594 1.93425781 1.77117187 1.86851562 2.68359375 1.80078125 C9.16394492 2.1900603 13.99561096 7.26893674 18.75 11.375 C26.75699222 20.71649092 30.69127641 29.30249342 30.34375 41.7265625 C29.14854267 53.10819596 22.88074795 62.51205722 14.08984375 69.6484375 C8.22985363 73.43826288 2.00660592 76.16657826 -5 76 C-4.9619236 85.9361531 -4.90253351 95.87192997 -4.81609726 105.80778694 C-4.77662527 110.4216769 -4.74443547 115.0353761 -4.72900391 119.64941406 C-4.71383541 124.10410277 -4.67938668 128.55826699 -4.63169098 133.01272202 C-4.61687913 134.71027945 -4.60895909 136.40791176 -4.60811615 138.1055336 C-4.60574406 140.48775075 -4.57864743 142.8685213 -4.54589844 145.25048828 C-4.5509288 145.94892349 -4.55595917 146.6473587 -4.56114197 147.36695862 C-4.45195597 152.51624615 -3.0724258 155.06834617 0 159 C-3.16115776 157.63016497 -3.9927092 157.0109362 -6 154 C-9.72301503 153.52269038 -10.79191085 153.8612739 -14 156 C-13.67 129.6 -13.34 103.2 -13 76 C-16.96 75.34 -20.92 74.68 -25 74 C-35.81452893 68.10116604 -42.32864046 59.88051064 -46.25 48.3125 C-48.38705596 38.51284701 -47.95001462 27.5833577 -42.7109375 18.8515625 C-36.30336434 9.90837215 -28.84997635 2.50460401 -17.75390625 0.3046875 C-11.86222857 -0.34715769 -5.91693766 -0.14032263 0 0 Z " fill="#0F0E32" transform="translate(247,129)"/>
<path d="M0 0 C2.46684939 1.17727192 4.50727175 2.46672803 6.67578125 4.125 C7.37445313 4.58648437 8.073125 5.04796875 8.79296875 5.5234375 C15.20430738 10.28960244 19.60096768 17.44292561 21.67578125 25.125 C22.40597828 30.79334994 22.109113 36.4435393 21.67578125 42.125 C22.33578125 42.125 22.99578125 42.125 23.67578125 42.125 C24.00578125 37.175 24.33578125 32.225 24.67578125 27.125 C25.00578125 27.125 25.33578125 27.125 25.67578125 27.125 C25.99384179 34.8526932 25.99848961 41.06424474 22.67578125 48.125 C22.18078125 46.145 22.18078125 46.145 21.67578125 44.125 C21.19109375 44.91003906 20.70640625 45.69507813 20.20703125 46.50390625 C14.16751325 55.96968926 7.1549994 65.00251852 -4.3828125 67.5859375 C-6.02165372 67.82995008 -7.67303454 67.98740132 -9.32421875 68.125 C-9.32421875 63.505 -9.32421875 58.885 -9.32421875 54.125 C-7.79796875 53.465 -6.27171875 52.805 -4.69921875 52.125 C0.60449656 49.39780548 4.46259682 46.82222085 6.67578125 41.125 C7.55048034 34.81759952 8.06960487 27.8201896 5.05078125 22 C1.75146321 18.00608869 -1.29598415 14.8010782 -6.32421875 13.125 C-13.76879122 12.46283981 -20.59505067 11.95873377 -26.7734375 16.62890625 C-31.86604142 21.54192212 -33.43229858 26.40205348 -33.76171875 33.25 C-33.66678202 39.70569744 -31.70174016 44.37128535 -27.32421875 49.125 C-24.04864151 51.28922067 -20.99332579 52.63752417 -17.32421875 54.125 C-17.32421875 58.745 -17.32421875 63.365 -17.32421875 68.125 C-26.17375748 67.54785617 -33.79292463 63.58760683 -39.79296875 57.078125 C-46.64074999 48.34371015 -49.26837828 39.15034671 -48.32421875 28.125 C-46.86013432 19.34049345 -42.65499411 11.72953764 -35.78515625 6.01171875 C-24.90332483 -1.74038239 -13.14222505 -3.45929308 0 0 Z " fill="#8C28C1" transform="translate(251.32421875,133.875)"/>
<path d="M0 0 C0 4.29 0 8.58 0 13 C-1.52625 13.639375 -3.0525 14.27875 -4.625 14.9375 C-10.27723735 17.8198199 -13.75867746 20.98196075 -16 27 C-16.89613501 33.72915927 -16.71513164 40.71232673 -14 47 C-12.515 47.495 -12.515 47.495 -11 48 C-10.1028125 48.9590625 -10.1028125 48.9590625 -9.1875 49.9375 C-4.37711358 54.47300719 1.61924813 54.55950159 7.95703125 54.44140625 C14.46114297 53.49793433 18.46181817 49.83831487 22.5625 44.9375 C25.49381301 38.9000709 25.1364316 30.33215875 23 24.0625 C19.49510941 18.69563629 14.65518131 15.82759066 9 13 C9 8.71 9 4.42 9 0 C18.73190945 0 23.80795595 4.14297399 30.796875 10.703125 C38.06100652 18.2763685 39.57148601 27.44035823 39.37109375 37.625 C38.28513225 47.5015341 33.298181 55.44140522 26 62 C23.69661667 63.68684604 21.61882913 64.76200805 19 66 C17.94554687 66.52207031 16.89109375 67.04414063 15.8046875 67.58203125 C11.7407244 69.31151455 8.0546552 69.41368525 3.6875 69.3125 C2.97271484 69.31572266 2.25792969 69.31894531 1.52148438 69.32226562 C-3.73220238 69.26779762 -3.73220238 69.26779762 -6 67 C-7.051875 66.731875 -8.10375 66.46375 -9.1875 66.1875 C-18.36666477 63.32841589 -23.07214784 56.93995851 -28 49 C-31.85579388 40.32446377 -31.08348142 27.92273127 -28 19 C-22.80865048 8.31813845 -12.22133158 -0.73327989 0 0 Z " fill="#C54C7F" transform="translate(112,198)"/>
<path d="M0 0 C-1.69270833 0.65104167 -3.38541667 1.30208333 -5.078125 1.953125 C-7.50075191 3.2727673 -9.07560379 5.0313648 -11 7 C-12.44687048 8.05753079 -13.90560254 9.09899967 -15.375 10.125 C-21.43498582 14.79498907 -25.15943938 20.33755732 -26.875 27.8125 C-26.94839605 29.20702495 -26.98550471 30.60362015 -27 32 C-27.04898438 33.01320312 -27.09796875 34.02640625 -27.1484375 35.0703125 C-27.5012275 46.76665788 -25.07949177 54.40302013 -17 63 C-12.68524279 66.92337437 -8.62371403 68.65030863 -3 70 C-2.505 70.495 -2.505 70.495 -2 71 C6.94637833 71.64967747 15.21468501 72.0081886 23 67 C23.69480469 66.57589844 24.38960937 66.15179688 25.10546875 65.71484375 C32.45663098 60.76349808 38.20421365 52.76942333 40 44 C40.99790644 33.21706648 39.77763975 23.45464812 32.80859375 14.88671875 C26.28854303 8.08502437 20.30630737 4.55105123 11 3 C11 7.29 11 11.58 11 16 C10.67 16 10.34 16 10 16 C10 11.38 10 6.76 10 2 C11.65 1.67 13.3 1.34 15 1 C14.01 0.34 13.02 -0.32 12 -1 C21.30659854 -0.8244038 28.32388567 4.227001 34.9375 10.5 C43.55459834 19.7149353 44.7246873 29.898181 44.44140625 41.9921875 C44.04476906 48.63430622 41.83973034 53.60568856 38 59 C37.45859375 59.76699219 36.9171875 60.53398437 36.359375 61.32421875 C32.46174571 66.25089503 27.83910767 69.64625117 22 72 C21.01 72 20.02 72 19 72 C19 72.66 19 73.32 19 74 C10.03837219 76.87801624 -2.08350396 75.98696569 -10.63671875 72.33984375 C-13.91447102 70.48154784 -16.59057794 68.25886045 -19.29296875 65.64453125 C-21.06155134 63.84605701 -21.06155134 63.84605701 -23.6875 62.1875 C-30.22073842 56.0074096 -32.06148408 47.41812902 -32.39428711 38.76904297 C-32.61895039 26.64737988 -29.42772909 17.74791103 -20.9921875 8.75 C-15.86698699 4.24786308 -7.04650703 -2.60981742 0 0 Z " fill="#271938" transform="translate(110,195)"/>
<path d="M0 0 C0.99 0.33 1.98 0.66 3 1 C3.67460447 2.65278095 4.34717201 4.3064318 5.0078125 5.96484375 C8.61734995 13.36865876 14.74439462 17.57785506 22 21 C20.02535931 22.97464069 18.81510434 23.60090754 16.3125 24.6875 C10.10305692 27.74706196 5.5420088 31.8911333 3.0625 38.4375 C2.711875 39.613125 2.36125 40.78875 2 42 C1.34 42 0.68 42 0 42 C0 41.34 0 40.68 0 40 C-0.66 40 -1.32 40 -2 40 C-6 32 -6 32 -6.8828125 29.859375 C-9.4954704 25.51103528 -15.26357441 25.05545312 -19.85546875 23.87890625 C-20.56316406 23.58886719 -21.27085938 23.29882812 -22 23 C-22.33 22.01 -22.66 21.02 -23 20 C-22.14277344 19.731875 -21.28554688 19.46375 -20.40234375 19.1875 C-11.76930342 16.22871279 -6.2107114 13.14323842 -1.91796875 4.9296875 C-1.20337238 3.31776693 -0.58864512 1.6620568 0 0 Z " fill="#E95A82" transform="translate(85,97)"/>
<path d="M0 0 C4.38410756 2.19205378 7.13092657 4.43115383 9 9 C9.53204782 13.78843042 9.49783872 15.98517492 7.375 20.3125 C4.66496599 23.37911743 2.89316622 24.72723412 -1 26 C-5.91264178 26.14477333 -10.16234793 25.17976886 -14 22 C-16.88402967 17.62423085 -17.64987517 14.19900136 -17 9 C-12.84189223 1.27779985 -8.66294936 -1.35358584 0 0 Z " fill="#EB9680" transform="translate(120,219)"/>
<path d="M0 0 C4.30482538 1.71134452 7.56186662 4.02727679 10 8 C10.79828193 12.03132375 10.90440654 16.17629956 9.05078125 19.9140625 C6.52538991 23.14847538 3.9635907 25.05628793 0 26 C-3.68228072 26.32877506 -6.24041692 26.30030029 -9.6875 24.9375 C-12.7469119 22.37420895 -14.75851008 19.77529098 -16 16 C-16.43178697 11.05561587 -15.76277625 7.94343379 -12.625 4.0625 C-8.05612631 0.47267067 -5.85850798 -0.5858508 0 0 Z " fill="#EDB482" transform="translate(241,154)"/>
<path d="M0 0 C1.99375759 1.99375759 2.64570975 3.27941316 3.75 5.8125 C6.85359943 12.15763662 11.60099225 15.10521078 18 18 C18 18.66 18 19.32 18 20 C16.71086513 20.67154933 15.41859796 21.33708859 14.125 22 C13.40570313 22.37125 12.68640625 22.7425 11.9453125 23.125 C10 24 10 24 8 24 C7.67 24.99 7.34 25.98 7 27 C6.34 27 5.68 27 5 27 C4.71125 27.721875 4.4225 28.44375 4.125 29.1875 C3.08333333 31.79166667 2.04166667 34.39583333 1 37 C0.01 37 -0.98 37 -2 37 C-2.26554687 36.39671875 -2.53109375 35.7934375 -2.8046875 35.171875 C-3.15789062 34.37265625 -3.51109375 33.5734375 -3.875 32.75 C-4.22304688 31.96109375 -4.57109375 31.1721875 -4.9296875 30.359375 C-5.28289062 29.58078125 -5.63609375 28.8021875 -6 28 C-6.27070313 27.27683594 -6.54140625 26.55367187 -6.8203125 25.80859375 C-8.48543896 23.25576742 -10.09023207 23.0441713 -13 22.3125 C-17.95151515 21.02424242 -17.95151515 21.02424242 -20 20 C-19.505 18.515 -19.505 18.515 -19 17 C-17.14453125 16.296875 -17.14453125 16.296875 -14.8125 15.75 C-8.0172933 13.67907986 -5.07270187 8.98485897 -1.625 3.0625 C-1.08875 2.051875 -0.5525 1.04125 0 0 Z " fill="#D9547C" transform="translate(318,155)"/>
<path d="M0 0 C3.0413374 1.63764322 5.28615407 3.09993339 7.4375 5.8125 C8.31325348 9.218208 7.89136765 11.61280292 7 15 C3.77092334 18.80865453 1.68727313 20.74041952 -3.25 21.5 C-7.17870541 20.97617261 -7.84216165 20.71246763 -10.4375 18 C-12.88912332 14.72012556 -13.98098188 12.0455782 -13.65234375 7.93359375 C-11.67389694 2.06933524 -5.96233705 -1.26858235 0 0 Z " fill="#0F1130" transform="translate(155,166)"/>
<path d="M0 0 C2.87029869 1.79393668 4.49131638 2.98263276 6 6 C6.53711185 9.10670379 6.64564461 11.90517459 6 15 C3.14457055 18.69426481 -0.1064775 19.86134996 -4.625 20.5625 C-8.54227085 19.90962152 -10.21656499 18.78343501 -13 16 C-14.86171654 12.27656693 -14.55597471 8.05534494 -14 4 C-10.47118653 -0.78097309 -5.53646616 -1.02304266 0 0 Z " fill="#0F1130" transform="translate(266,211)"/>
<path d="M0 0 C0.66 0 1.32 0 2 0 C2.95208482 1.37949132 3.83715178 2.80557288 4.6875 4.25 C7.59564066 8.80967733 10.12585039 10.75789118 15 13 C13 16 13 16 10.0625 17.4375 C5.6504438 19.68854908 4.03745023 22.61164565 2 27 C-1 26 -1 26 -2.625 23.125 C-4 20 -4 20 -5 17 C-5.763125 16.855625 -6.52625 16.71125 -7.3125 16.5625 C-10 16 -10 16 -13 15 C-13 14.01 -13 13.02 -13 12 C-11.783125 11.505 -10.56625 11.01 -9.3125 10.5 C-4.980856 8.38401107 -3.20324506 5.81600801 -1.0078125 1.609375 C-0.67523438 1.07828125 -0.34265625 0.5471875 0 0 Z " fill="#D4527A" transform="translate(51,158)"/>
<path d="M0 0 C0 0.66 0 1.32 0 2 C0.88558594 1.93425781 1.77117187 1.86851562 2.68359375 1.80078125 C9.16394492 2.1900603 13.99561096 7.26893674 18.75 11.375 C25.21148024 18.91339362 29.29798157 25.4484147 29.1875 35.5625 C29.18105469 36.86316406 29.17460937 38.16382813 29.16796875 39.50390625 C29.03722463 42.22520835 28.81823822 44.42745903 28 47 C27.34 47 26.68 47 26 47 C26.00902344 45.93523437 26.01804687 44.87046875 26.02734375 43.7734375 C25.88841615 32.23977487 24.11910636 22.39276943 15.81640625 13.71875 C13.59947315 11.90524493 11.48750971 10.42032535 9 9 C8.44046631 8.65420898 7.88093262 8.30841797 7.30444336 7.95214844 C1.68946987 4.74927605 -3.18007126 4.39066503 -9.5625 4.5 C-10.9227832 4.47679687 -10.9227832 4.47679687 -12.31054688 4.453125 C-18.47062978 4.48886152 -21.86344301 5.6534553 -27 9 C-29.365164 9.58250075 -31.5616184 9.80094844 -34 10 C-24.04021917 -0.52891116 -13.76604984 -0.32646759 0 0 Z " fill="#211848" transform="translate(247,129)"/>
<path d="M0 0 C-1.69270833 0.65104167 -3.38541667 1.30208333 -5.078125 1.953125 C-7.50075191 3.2727673 -9.07560379 5.0313648 -11 7 C-12.44687048 8.05753079 -13.90560254 9.09899967 -15.375 10.125 C-21.43498582 14.79498907 -25.15943938 20.33755732 -26.875 27.8125 C-26.94766262 29.20706335 -26.98537824 30.60362147 -27 32 C-27.04898438 32.95519531 -27.09796875 33.91039062 -27.1484375 34.89453125 C-27.38261844 42.34328643 -26.36609123 48.97726216 -24.55859375 56.19921875 C-24 59 -24 59 -25 61 C-25.98753064 59.27559635 -26.96468806 57.54524974 -27.9375 55.8125 C-28.48277344 54.84957031 -29.02804688 53.88664062 -29.58984375 52.89453125 C-33.66134095 44.53724753 -33.60010449 32.21748357 -30.90625 23.43359375 C-25.43380088 12.03750955 -17.82953878 4.94152686 -6.33984375 -0.1875 C-3.72735983 -1.09467305 -2.55445248 -0.94609351 0 0 Z " fill="#211A38" transform="translate(110,195)"/>
<path d="M0 0 C3.80625387 3.22067635 7.54081536 6.40244797 11 10 C7.25 13 7.25 13 5 13 C5 13.66 5 14.32 5 15 C4.01 15.495 4.01 15.495 3 16 C1.86649466 18.01669827 1.86649466 18.01669827 1 20 C0.34 20 -0.32 20 -1 20 C-1.33 18.35 -1.66 16.7 -2 15 C-2.66 15 -3.32 15 -4 15 C-5.4375 13.6875 -5.4375 13.6875 -7 12 C-7.99 11.01 -8.98 10.02 -10 9 C-6.7 6.03 -3.4 3.06 0 0 Z " fill="#DD557D" transform="translate(256,92)"/>
<path d="M0 0 C2.83241797 0.19264607 3.74853624 0.3581857 6 2.1875 C7.3181446 5.31809341 7.55014903 7.1928372 7 10.5625 C4.9375 13.5 4.9375 13.5 2 15.5625 C-2.02034924 15.49435849 -4.1176825 15.4448175 -7 12.5625 C-7.34841176 8.86933535 -7.19773293 6.14334047 -6 2.625 C-3.72757007 0.28155664 -3.13751436 0.17302469 0 0 Z " fill="#241C37" transform="translate(274,243.4375)"/>
<path d="M0 0 C2.375 1.625 2.375 1.625 4 4 C4.48746608 7.34262452 4.31565201 9.29442492 2.9375 12.375 C1 14 1 14 -2.4375 14.5625 C-6 14 -6 14 -8.4375 11.8125 C-10.13487153 8.75723125 -10.70005835 7.41278446 -10 4 C-7.16979976 -0.02759265 -4.82432618 -0.80405436 0 0 Z " fill="#171832" transform="translate(143,139)"/>
<path d="M0 0 C1.35057214 4.05171642 0.4522619 6.02114212 -1 10 C-7.03285555 18.85700107 -15.31286025 25.25435677 -25.85546875 27.6484375 C-26.91701172 27.82246094 -26.91701172 27.82246094 -28 28 C-28 26.68 -28 25.36 -28 24 C-27.34773437 23.75765625 -26.69546875 23.5153125 -26.0234375 23.265625 C-13.27277899 18.37599194 -7.20195358 11.26262953 0 0 Z " fill="#21183C" transform="translate(273,177)"/>
<path d="M0 0 C1.72154184 5.4764008 1.0566655 11.33345016 1 17 C1.66 12.71 2.32 8.42 3 4 C3.92258399 7.69033597 4.01492746 10.13427248 3.875 13.875 C3.7952142 20.27962339 4.89077954 26.00360357 6.44140625 32.19921875 C7 35 7 35 6 37 C5.01246936 35.27559635 4.03531194 33.54524974 3.0625 31.8125 C2.51722656 30.84957031 1.97195312 29.88664062 1.41015625 28.89453125 C-1.31096579 23.30907023 -1.1543328 17.96644543 -1.125 11.875 C-1.12886719 11.06417969 -1.13273437 10.25335938 -1.13671875 9.41796875 C-1.13542969 8.63808594 -1.13414063 7.85820312 -1.1328125 7.0546875 C-1.13168457 6.34812012 -1.13055664 5.64155273 -1.12939453 4.91357422 C-1 3 -1 3 0 0 Z " fill="#4E2E49" transform="translate(79,219)"/>
<path d="M0 0 C0 0.66 0 1.32 0 2 C-2.81976148 3.40988074 -5.35408739 3.19281854 -8.5 3.3125 C-15.08499744 3.73080926 -20.0765838 5.23428729 -26 8 C-29.5 9.3125 -29.5 9.3125 -32 10 C-32.66 9.67 -33.32 9.34 -34 9 C-23.13947439 0.00127878 -13.70717191 -0.32507127 0 0 Z " fill="#29263A" transform="translate(247,129)"/>
<path d="M0 0 C0 0.99 0 1.98 0 3 C0.33 3.99 0.66 4.98 1 6 C0.2578125 8.34765625 0.2578125 8.34765625 -0.875 11.0625 C-2.72693173 15.82551619 -3.51780726 20.01114621 -3.7265625 25.1015625 C-3.81679687 25.72804687 -3.90703125 26.35453125 -4 27 C-4.66 27.33 -5.32 27.66 -6 28 C-6.48913043 8.65217391 -6.48913043 8.65217391 0 0 Z " fill="#30233D" transform="translate(85,209)"/>
<path d="M0 0 C-0.33 0.99 -0.66 1.98 -1 3 C-2.65 3.33 -4.3 3.66 -6 4 C-6 4.66 -6 5.32 -6 6 C-10.22843979 7.18292476 -14.19854592 7.18381734 -18.5625 7.1875 C-19.71395508 7.20586914 -19.71395508 7.20586914 -20.88867188 7.22460938 C-24.78417874 7.23479815 -26.6866199 7.20892006 -30 5 C-28.89140625 5.03480469 -27.7828125 5.06960938 -26.640625 5.10546875 C-25.17709852 5.13361349 -23.71355561 5.16091292 -22.25 5.1875 C-21.52039063 5.21263672 -20.79078125 5.23777344 -20.0390625 5.26367188 C-15.63509539 5.32372597 -13.23597173 5.02427265 -10 2 C-6.3359342 0.54964062 -3.98443191 0 0 0 Z " fill="#39223B" transform="translate(135,263)"/>
<path d="M0 0 C3.9395049 1.92623804 6.00941963 3.30123882 8.46484375 6.984375 C5.59929023 5.85552058 2.77819327 4.67783461 -0.03515625 3.421875 C-10.67581626 -0.94839607 -20.7107425 1.13405915 -31.53515625 3.984375 C-24.32880748 -3.94260865 -9.57004997 -2.74940662 0 0 Z " fill="#5C15C0" transform="translate(251.53515625,134.015625)"/>
<path d="M0 0 C2.21447392 2.21447392 2.92637276 3.76702078 3.11352539 6.90112305 C3.10567017 7.94586792 3.10567017 7.94586792 3.09765625 9.01171875 C3.09282227 10.14770508 3.09282227 10.14770508 3.08789062 11.30664062 C3.07951172 12.09232422 3.07113281 12.87800781 3.0625 13.6875 C3.05798828 14.48478516 3.05347656 15.28207031 3.04882812 16.10351562 C3.0370585 18.06904257 3.01912348 20.03453085 3 22 C3.66 22 4.32 22 5 22 C5.33 17.05 5.66 12.1 6 7 C6.33 7 6.66 7 7 7 C7.31806054 14.7276932 7.32270836 20.93924474 4 28 C3.67 26.68 3.34 25.36 3 24 C2.01 24.99 1.02 25.98 0 27 C0.165 26.13375 0.33 25.2675 0.5 24.375 C1.64845135 16.352247 1.52440507 7.94868358 0 0 Z " fill="#633772" transform="translate(270,154)"/>
<path d="M0 0 C0.66 0 1.32 0 2 0 C5.39319974 7.4933161 6.32191481 14.98564887 4 23 C3.34 23 2.68 23 2 23 C1.93941406 21.84242188 1.87882812 20.68484375 1.81640625 19.4921875 C1.73194498 17.95311543 1.64729982 16.41405345 1.5625 14.875 C1.52318359 14.11445313 1.48386719 13.35390625 1.44335938 12.5703125 C1.20490998 8.31490797 0.79769763 4.19629174 0 0 Z " fill="#101034" transform="translate(271,153)"/>
<path d="M0 0 C-1 3 -1 3 -3.25 4.6875 C-6.349584 7.29396836 -7.87523045 9.87122916 -9.7890625 13.390625 C-10.18867188 13.92171875 -10.58828125 14.4528125 -11 15 C-11.99 15 -12.98 15 -14 15 C-14 10.21452901 -11.09312238 7.22976267 -8 3.75 C-5.48993124 1.55368984 -3.39779455 0 0 0 Z " fill="#1F1B3B" transform="translate(218,137)"/>
<path d="M0 0 C5.402626 4.44922141 8.61030548 10.46876722 11 17 C10.6640625 19.37109375 10.6640625 19.37109375 10 21 C8.74335022 18.09399739 8 16.20395416 8 13 C7.01 13.33 6.02 13.66 5 14 C1.93757784 9.15939723 0.46588495 5.70709064 0 0 Z " fill="#352D41" transform="translate(265,140)"/>
<path d="M0 0 C3.29305731 0.27716937 6.5840249 0.57418781 9.875 0.875 C10.81214844 0.95363281 11.74929687 1.03226562 12.71484375 1.11328125 C14.05869141 1.23896484 14.05869141 1.23896484 15.4296875 1.3671875 C16.25710449 1.44050293 17.08452148 1.51381836 17.93701172 1.58935547 C20 2 20 2 22 4 C14.58165418 4.09377123 7.33763707 4.17402193 0 3 C0 2.01 0 1.02 0 0 Z " fill="#18112F" transform="translate(101,265)"/>
<path d="M0 0 C-0.33 0.66 -0.66 1.32 -1 2 C-2.010625 2.103125 -3.02125 2.20625 -4.0625 2.3125 C-11.76306323 3.65704279 -17.34477131 8.85727641 -23 14 C-23 11 -23 11 -21.53125 9.31640625 C-14.79753455 3.50210195 -9.15353746 -0.76279479 0 0 Z " fill="#8C3287" transform="translate(112,198)"/>
<path d="M0 0 C-1.0725 0.4125 -2.145 0.825 -3.25 1.25 C-6.5570205 2.65398657 -8.53473935 4.36472138 -11 7 C-13.25 8.25 -13.25 8.25 -15 9 C-15 8.34 -15 7.68 -15 7 C-15.66 6.67 -16.32 6.34 -17 6 C-4.95064841 -1.83357349 -4.95064841 -1.83357349 0 0 Z " fill="#231B3A" transform="translate(110,195)"/>
<path d="M0 0 C0.33 0 0.66 0 1 0 C1.66 6.6 2.32 13.2 3 20 C2.34 20 1.68 20 1 20 C-0.94321014 13.32021515 -2.2512311 6.7536933 0 0 Z " fill="#060B2D" transform="translate(201,161)"/>
<path d="M0 0 C7.75 0.75 7.75 0.75 10 3 C7.24921116 3.91692961 5.64051087 4.10886083 2.8125 4.0625 C0.9253125 4.0315625 0.9253125 4.0315625 -1 4 C-1 8.29 -1 12.58 -1 17 C-1.33 17 -1.66 17 -2 17 C-2 12.38 -2 7.76 -2 3 C-0.35 2.67 1.3 2.34 3 2 C2.01 1.34 1.02 0.68 0 0 Z " fill="#4F2B56" transform="translate(122,194)"/>
<path d="M0 0 C0.66 0 1.32 0 2 0 C3.6875 2.375 3.6875 2.375 5 5 C4.67 5.66 4.34 6.32 4 7 C3.01 6.67 2.02 6.34 1 6 C-1.69433317 7.87197454 -1.69433317 7.87197454 -4 10 C-4.66 9.67 -5.32 9.34 -6 9 C-5.071875 7.88625 -5.071875 7.88625 -4.125 6.75 C-2.39562719 4.51198812 -1.13893339 2.56260013 0 0 Z " fill="#9A386B" transform="translate(51,158)"/>
<path d="M0 0 C0.66 0.33 1.32 0.66 2 1 C2 5.62 2 10.24 2 15 C1.01 15.33 0.02 15.66 -1 16 C-0.67 10.72 -0.34 5.44 0 0 Z " fill="#0A0C2E" transform="translate(152,225)"/>
<path d="M0 0 C0.33 0 0.66 0 1 0 C0.88658509 2.48020497 0.75985314 4.95844969 0.625 7.4375 C0.5940625 8.14455078 0.563125 8.85160156 0.53125 9.58007812 C0.42719371 11.39239188 0.22080108 13.19817988 0 15 C-0.99 15.495 -0.99 15.495 -2 16 C-2.05384521 13.70858714 -2.09272087 11.41681812 -2.125 9.125 C-2.14820312 7.84882813 -2.17140625 6.57265625 -2.1953125 5.2578125 C-2 2 -2 2 0 0 Z " fill="#0A0C2F" transform="translate(81,221)"/>
<path d="M0 0 C0.66 0.33 1.32 0.66 2 1 C0.71520959 2.50589388 -0.57804082 4.00457375 -1.875 5.5 C-2.95394531 6.75296875 -2.95394531 6.75296875 -4.0546875 8.03125 C-4.69664063 8.6809375 -5.33859375 9.330625 -6 10 C-6.66 10 -7.32 10 -8 10 C-8 10.99 -8 11.98 -8 13 C-8.66 13 -9.32 13 -10 13 C-8.65515286 8.95838045 -6.9494838 6.61321846 -3.875 3.6875 C-3.15054688 2.99011719 -2.42609375 2.29273437 -1.6796875 1.57421875 C-1.12539062 1.05472656 -0.57109375 0.53523438 0 0 Z " fill="#3A1D3F" transform="translate(98,122)"/>
<path d="M0 0 C0.99 0 1.98 0 3 0 C3.66 0.66 4.32 1.32 5 2 C4.66015625 3.796875 4.66015625 3.796875 4 6 C3.7856066 7.74690919 3.59892347 9.4974023 3.4375 11.25 C3.35371094 12.14203125 3.26992187 13.0340625 3.18359375 13.953125 C3.12300781 14.62859375 3.06242188 15.3040625 3 16 C2.67 16 2.34 16 2 16 C1.34 10.72 0.68 5.44 0 0 Z " fill="#2F1B40" transform="translate(149,220)"/>
<path d="M0 0 C2.46278801 2.46278801 2.99771255 4.70676982 4 8 C2.68 7.34 1.36 6.68 0 6 C-0.99 7.485 -0.99 7.485 -2 9 C-2.66 9 -3.32 9 -4 9 C-2.94124926 5.59687262 -1.99097846 2.98646769 0 0 Z " fill="#943569" transform="translate(318,155)"/>
<path d="M0 0 C0 0.99 0 1.98 0 3 C-2.64 3.66 -5.28 4.32 -8 5 C-8 3.68 -8 2.36 -8 1 C-5.10765685 0.17361624 -3.11257569 0 0 0 Z " fill="#1A1437" transform="translate(253,200)"/>
<path d="M0 0 C3 0.125 3 0.125 6 1 C7.375 3.0625 7.375 3.0625 8 5 C4.44219804 4.39009109 1.3171411 3.4216319 -2 2 C-1.34 1.34 -0.68 0.68 0 0 Z " fill="#171236" transform="translate(129,197)"/>
<path d="M0 0 C0.66 0.33 1.32 0.66 2 1 C-1.3 4.3 -4.6 7.6 -8 11 C-8 6.67750434 -5.85084926 5.11604454 -3 2 C-2.01 1.34 -1.02 0.68 0 0 Z " fill="#5F18B5" transform="translate(218,138)"/>
<path d="M0 0 C-0.66 0 -1.32 0 -2 0 C-2 0.66 -2 1.32 -2 2 C-0.02 2.66 1.96 3.32 4 4 C2 5 2 5 0.0546875 4.44140625 C-0.66460937 4.15136719 -1.38390625 3.86132812 -2.125 3.5625 C-2.84945312 3.27503906 -3.57390625 2.98757812 -4.3203125 2.69140625 C-5.15175781 2.34916016 -5.15175781 2.34916016 -6 2 C-6 1.34 -6 0.68 -6 0 C-3.50907189 -1.24546405 -2.58919267 -0.7767578 0 0 Z " fill="#60284C" transform="translate(68,117)"/>
<path d="M0 0 C0 0.66 0 1.32 0 2 C-0.99 2 -1.98 2 -3 2 C-3 2.66 -3 3.32 -3 4 C-5 6 -5 6 -7 7 C-7.66 6.67 -8.32 6.34 -9 6 C-9 5.34 -9 4.68 -9 4 C-8.34 4 -7.68 4 -7 4 C-7 3.34 -7 2.68 -7 2 C-2.25 0 -2.25 0 0 0 Z " fill="#B84870" transform="translate(75,113)"/>
<path d="M0 0 C-1.33332095 3.99996286 -3.4957827 4.83782337 -7 7 C-6.75 4.625 -6.75 4.625 -6 2 C-3.84898936 0.54286376 -2.59713506 0 0 0 Z " fill="#0E0E35" transform="translate(218,137)"/>
<path d="M0 0 C1.98 0.66 3.96 1.32 6 2 C6 2.66 6 3.32 6 4 C4.35 4.66 2.7 5.32 1 6 C0.67 4.02 0.34 2.04 0 0 Z " fill="#993D61" transform="translate(330,171)"/>
<path d="M0 0 C0.93423645 3.01031744 1.04449911 3.86650268 0 7 C-0.99 7 -1.98 7 -3 7 C-2.25 2.25 -2.25 2.25 0 0 Z " fill="#0C0D33" transform="translate(205,150)"/>
<path d="M0 0 C2.475 0.495 2.475 0.495 5 1 C5.33 2.65 5.66 4.3 6 6 C3.96166576 4.7260411 1.96147874 3.38938077 0 2 C0 1.34 0 0.68 0 0 Z " fill="#120F3C" transform="translate(260,139)"/>
<path d="M0 0 C-1.45381897 0.69699552 -2.91322953 1.38233866 -4.375 2.0625 C-5.18710938 2.44535156 -5.99921875 2.82820312 -6.8359375 3.22265625 C-7.55007812 3.47917969 -8.26421875 3.73570312 -9 4 C-9.66 3.67 -10.32 3.34 -11 3 C-4.03571429 -1.41964286 -4.03571429 -1.41964286 0 0 Z " fill="#4A12A1" transform="translate(231,134)"/>
<path d="M0 0 C-1.11375 0.45375 -2.2275 0.9075 -3.375 1.375 C-6.96199008 2.72465986 -6.96199008 2.72465986 -9 5 C-9 4.34 -9 3.68 -9 3 C-9.66 2.67 -10.32 2.34 -11 2 C-3.57142857 -1.57142857 -3.57142857 -1.57142857 0 0 Z " fill="#463644" transform="translate(110,195)"/>
<path d="M0 0 C0.99 0.495 0.99 0.495 2 1 C2 1.66 2 2.32 2 3 C2.66 3 3.32 3 4 3 C4.33 2.01 4.66 1.02 5 0 C5.33 0.66 5.66 1.32 6 2 C5.0625 4.125 5.0625 4.125 4 6 C3.01 5.67 2.02 5.34 1 5 C0.67 3.35 0.34 1.7 0 0 Z " fill="#69304F" transform="translate(49,179)"/>
<path d="M0 0 C0.33 0.99 0.66 1.98 1 3 C-0.97746603 3.73080266 -2.98072489 4.39421747 -5 5 C-5.66 4.67 -6.32 4.34 -7 4 C-2.25 0 -2.25 0 0 0 Z " fill="#322B41" transform="translate(220,134)"/>
<path d="M0 0 C0.33 0 0.66 0 1 0 C1.33 2.97 1.66 5.94 2 9 C-1.67857143 5.32142857 -1.67857143 5.32142857 -2 2 C-1.34 1.34 -0.68 0.68 0 0 Z " fill="#523548" transform="translate(84,247)"/>
</svg>
