<?xml version="1.0" standalone="no"?>
<!DOCTYPE svg PUBLIC "-//W3C//DTD SVG 20010904//EN"
 "http://www.w3.org/TR/2001/REC-SVG-20010904/DTD/svg10.dtd">
<svg version="1.0" xmlns="http://www.w3.org/2000/svg"
 width="650.000000pt" height="650.000000pt" viewBox="0 0 650.000000 650.000000"
 preserveAspectRatio="xMidYMid meet">
<metadata>
Created by potrace 1.14, written by Peter Selinger 2001-2017
</metadata>
<g transform="translate(0.000000,650.000000) scale(0.100000,-0.100000)"
fill="#000000" stroke="none">
<path d="M420 6484 c0 -3 -16 -78 -35 -167 -46 -212 -101 -420 -170 -646 -31
-101 -55 -184 -53 -186 2 -2 50 28 108 66 178 118 296 186 534 304 126 63 231
116 233 118 6 6 50 239 68 357 8 58 17 117 20 133 l5 27 -355 0 c-195 0 -355
-3 -355 -6z"/>
<path d="M5350 6471 c0 -23 54 -343 70 -419 11 -48 16 -55 49 -69 202 -84 484
-231 690 -359 74 -47 136 -83 138 -80 2 2 -19 79 -47 172 -58 190 -135 492
-170 662 l-23 112 -354 0 c-342 0 -353 -1 -353 -19z"/>
<path d="M1095 4696 c-201 -38 -412 -180 -526 -354 -83 -126 -118 -277 -99
-427 18 -147 87 -300 175 -390 71 -73 105 -89 190 -89 59 0 80 5 133 32 79 41
194 150 262 247 71 103 146 264 177 382 23 84 27 118 27 243 0 114 -4 155 -18
190 -55 145 -155 197 -321 166z"/>
<path d="M5295 4699 c-82 -20 -140 -83 -173 -189 -27 -87 -22 -278 11 -400 94
-355 347 -660 563 -678 110 -9 226 83 305 243 183 375 30 770 -374 961 -117
55 -256 81 -332 63z"/>
<path d="M950 2191 c0 -20 163 -149 267 -211 955 -569 3108 -581 4075 -23 130
75 314 221 297 237 -2 2 -72 -15 -155 -39 -1071 -308 -2669 -349 -3899 -100
-188 38 -511 118 -567 140 -11 4 -18 3 -18 -4z"/>
</g>
</svg>
