<?xml version="1.0" standalone="no"?>
<!DOCTYPE svg PUBLIC "-//W3C//DTD SVG 20010904//EN"
 "http://www.w3.org/TR/2001/REC-SVG-20010904/DTD/svg10.dtd">
<svg version="1.0" xmlns="http://www.w3.org/2000/svg"
 width="700.000000pt" height="700.000000pt" viewBox="0 0 700.000000 700.000000"
 preserveAspectRatio="xMidYMid meet">
<metadata>
Created by potrace 1.14, written by Peter Selinger 2001-2017
</metadata>
<g transform="translate(0.000000,700.000000) scale(0.100000,-0.100000)"
fill="#000000" stroke="none">
<path d="M6915 6227 c-118 -105 -225 -199 -249 -220 -12 -10 -34 -30 -51 -45
-16 -15 -106 -94 -200 -177 -169 -149 -228 -201 -249 -220 -6 -6 -67 -60 -136
-120 -69 -60 -130 -114 -136 -120 -34 -30 -99 -88 -169 -150 -44 -38 -85 -74
-91 -80 -6 -5 -42 -37 -79 -70 -38 -33 -73 -64 -79 -70 -6 -5 -49 -44 -96 -85
-47 -41 -92 -81 -101 -90 -9 -8 -29 -26 -45 -39 -29 -24 -184 -161 -194 -171
-3 -3 -41 -37 -85 -75 -44 -39 -85 -74 -91 -80 -6 -5 -44 -39 -84 -75 -41 -36
-120 -105 -175 -155 -56 -49 -151 -133 -211 -186 -154 -136 -386 -341 -468
-413 -38 -34 -74 -66 -80 -71 -6 -6 -47 -42 -91 -80 -68 -60 -119 -105 -169
-150 -6 -6 -47 -42 -91 -80 -44 -39 -85 -74 -91 -80 -6 -5 -44 -39 -84 -75
-40 -36 -78 -69 -84 -75 -6 -5 -45 -39 -86 -75 -41 -36 -82 -72 -91 -80 -9 -8
-47 -42 -84 -75 -38 -33 -88 -78 -112 -100 l-44 -40 3 -968 3 -969 25 22 c14
12 65 58 114 103 48 45 98 91 110 102 13 11 60 54 106 95 46 41 95 86 109 98
15 13 62 56 105 95 44 40 84 77 90 83 6 5 63 57 126 114 63 57 117 106 120
109 3 3 25 24 50 46 25 22 89 80 143 129 54 49 106 97 117 106 19 16 161 145
219 198 14 13 62 56 105 95 43 40 91 83 106 97 15 14 64 59 110 100 46 41 88
80 94 85 6 6 58 53 116 105 58 52 125 113 149 135 24 22 49 45 55 50 27 24
221 200 226 205 3 3 50 46 104 95 55 50 107 97 116 105 9 8 59 53 110 100 112
101 186 168 255 231 27 26 68 62 89 80 22 19 51 45 65 59 14 14 65 60 112 103
48 42 97 87 111 100 27 25 195 176 212 192 67 60 233 211 241 219 6 6 73 67
150 136 76 69 156 141 177 160 l38 35 -2 922 -3 921 -80 -71z"/>
<path d="M4184 6277 c-6 -7 -44 -41 -84 -77 -69 -61 -260 -229 -430 -380 -40
-36 -82 -73 -94 -83 -12 -10 -34 -31 -51 -45 -16 -15 -70 -63 -120 -106 -49
-44 -121 -107 -159 -140 -38 -34 -77 -68 -86 -76 -9 -8 -46 -41 -81 -72 -35
-31 -73 -65 -85 -75 -12 -10 -54 -47 -95 -83 -40 -36 -118 -105 -174 -154 -55
-49 -118 -105 -140 -125 -22 -20 -76 -68 -120 -106 -44 -39 -95 -84 -115 -101
-19 -17 -100 -89 -180 -159 -80 -70 -179 -158 -220 -194 -41 -37 -95 -85 -120
-107 -25 -21 -47 -41 -50 -44 -5 -5 -221 -196 -285 -251 -26 -23 -162 -144
-285 -253 -19 -17 -89 -78 -155 -136 -66 -58 -122 -107 -125 -110 -3 -3 -41
-37 -85 -75 -44 -39 -89 -79 -101 -90 -11 -11 -52 -47 -89 -80 -38 -33 -92
-80 -120 -105 -28 -25 -82 -72 -119 -105 -38 -33 -81 -71 -96 -85 -15 -14 -43
-38 -61 -54 -19 -16 -72 -63 -119 -105 -47 -41 -89 -79 -95 -83 -10 -9 -16
-1948 -5 -1948 3 0 26 20 51 43 88 81 224 206 249 227 13 12 63 56 110 99 47
43 141 129 210 192 69 62 143 129 164 149 21 19 44 40 50 45 6 6 56 51 111
100 55 50 105 95 111 100 6 6 53 48 104 95 189 172 297 270 320 290 10 9 55
49 100 90 45 41 92 84 104 95 52 46 201 182 231 210 18 17 70 64 116 105 45
41 87 80 93 85 6 6 61 55 121 109 61 55 148 134 194 175 46 42 95 87 110 100
14 13 44 40 66 60 135 123 190 174 375 341 58 52 110 100 116 105 6 6 51 46
100 90 49 44 116 105 148 135 33 30 65 60 71 65 7 6 46 41 88 79 90 80 111 99
193 175 33 31 98 90 144 131 46 41 88 80 94 86 8 7 186 166 226 201 10 9 5
1843 -5 1843 -5 -1 -15 -6 -21 -13z"/>
</g>
</svg>
