<svg xmlns="http://www.w3.org/2000/svg" xmlns:xlink="http://www.w3.org/1999/xlink" width="80" zoomAndPan="magnify" viewBox="0 0 3000 2999.999989" height="80" preserveAspectRatio="xMidYMid meet" version="1.0"><defs><clipPath id="e5b49ccbc4"><path d="M 1471.484375 1760.984375 L 2888 1760.984375 L 2888 3000 L 1471.484375 3000 Z M 1471.484375 1760.984375 " clip-rule="nonzero"/></clipPath><clipPath id="e244b9f000"><path d="M 2179.492188 1760.984375 L 2887.5 3000 L 1471.484375 3000 Z M 2179.492188 1760.984375 " clip-rule="nonzero"/></clipPath><clipPath id="41847bc702"><path d="M 1548 1118 L 2845 1118 L 2845 2539 L 1548 2539 Z M 1548 1118 " clip-rule="nonzero"/></clipPath><clipPath id="f7778579dc"><path d="M 2124.261719 2949.964844 L 970.136719 2125.960938 L 1690.085938 1117.578125 L 2844.207031 1941.582031 Z M 2124.261719 2949.964844 " clip-rule="nonzero"/></clipPath><clipPath id="1624a51429"><path d="M 1548.042969 2538.5625 L 1691.773438 1118.785156 L 2844.207031 1941.582031 Z M 1548.042969 2538.5625 " clip-rule="nonzero"/></clipPath><clipPath id="49938b7050"><path d="M 1097 540 L 2409 540 L 2409 1956 L 1097 1956 Z M 1097 540 " clip-rule="nonzero"/></clipPath><clipPath id="e7e575ad24"><path d="M 1940.246094 2223.195312 L 627.398438 1687.085938 L 1095.808594 540.023438 L 2408.65625 1076.136719 Z M 1940.246094 2223.195312 " clip-rule="nonzero"/></clipPath><clipPath id="a24c49a376"><path d="M 1284.78125 1955.53125 L 1097.730469 540.808594 L 2408.65625 1076.136719 Z M 1284.78125 1955.53125 " clip-rule="nonzero"/></clipPath><clipPath id="55d73371e2"><path d="M 187 1 L 2128 1 L 2128 1837 L 187 1837 Z M 187 1 " clip-rule="nonzero"/></clipPath><clipPath id="637b18c5e2"><path d="M -428.792969 758.335938 L 805.386719 -757.257812 L 2129.585938 321.070312 L 895.410156 1836.660156 Z M -428.792969 758.335938 " clip-rule="nonzero"/></clipPath><clipPath id="6874091927"><path d="M 187.394531 1.648438 L 2127.78125 323.285156 L 895.410156 1836.660156 Z M 187.394531 1.648438 " clip-rule="nonzero"/></clipPath></defs><g clip-path="url(#e5b49ccbc4)"><g clip-path="url(#e244b9f000)"><path fill="#ff570b" d="M 1471.484375 1760.984375 L 2889.574219 1760.984375 L 2889.574219 3000 L 1471.484375 3000 Z M 1471.484375 1760.984375 " fill-opacity="1" fill-rule="nonzero"/></g></g><g clip-path="url(#41847bc702)"><g clip-path="url(#f7778579dc)"><g clip-path="url(#1624a51429)"><path fill="#420039" d="M 2124.261719 2949.964844 L 970.136719 2125.960938 L 1690.085938 1117.578125 L 2844.207031 1941.582031 Z M 2124.261719 2949.964844 " fill-opacity="1" fill-rule="nonzero"/></g></g></g><g clip-path="url(#49938b7050)"><g clip-path="url(#e7e575ad24)"><g clip-path="url(#a24c49a376)"><path fill="#d62738" d="M 1940.246094 2223.195312 L 627.398438 1687.085938 L 1095.8125 540.023438 L 2408.65625 1076.136719 Z M 1940.246094 2223.195312 " fill-opacity="1" fill-rule="nonzero"/></g></g></g><g clip-path="url(#55d73371e2)"><g clip-path="url(#637b18c5e2)"><g clip-path="url(#6874091927)"><path fill="#12355b" d="M -428.792969 758.335938 L 805.386719 -757.257812 L 2129.585938 321.070312 L 895.410156 1836.660156 Z M -428.792969 758.335938 " fill-opacity="1" fill-rule="nonzero"/></g></g></g></svg>
