<?xml version="1.0" standalone="no"?>
<!DOCTYPE svg PUBLIC "-//W3C//DTD SVG 20010904//EN"
 "http://www.w3.org/TR/2001/REC-SVG-20010904/DTD/svg10.dtd">
<svg version="1.0" xmlns="http://www.w3.org/2000/svg"
 width="260.000000pt" height="260.000000pt" viewBox="0 0 260.000000 260.000000"
 preserveAspectRatio="xMidYMid meet">
<metadata>
Created by potrace 1.14, written by Peter Selinger 2001-2017
</metadata>
<g transform="translate(0.000000,260.000000) scale(0.100000,-0.100000)"
fill="#000000" stroke="none">
<path d="M630 2585 c-242 -50 -437 -201 -546 -420 -81 -165 -78 -134 -82 -820
-4 -661 -1 -701 49 -838 34 -95 119 -226 188 -290 107 -100 254 -175 398 -203
108 -20 1217 -21 1325 0 157 30 302 107 409 216 71 73 110 130 154 223 72 151
70 129 70 847 0 722 2 696 -74 855 -78 163 -195 281 -356 361 -166 82 -131 78
-840 80 -496 2 -644 0 -695 -11z m888 -651 c143 -29 245 -105 300 -222 25 -52
27 -68 27 -177 0 -109 -2 -125 -27 -177 -36 -77 -96 -140 -172 -179 l-64 -33
43 -27 c24 -15 56 -47 73 -71 23 -33 204 -409 239 -496 4 -10 -25 -12 -138
-10 l-143 3 -111 244 c-61 135 -123 257 -137 271 -38 39 -97 50 -257 50 l-141
0 0 -285 0 -285 -130 0 -130 0 0 705 0 705 345 0 c277 0 361 -3 423 -16z"/>
<path d="M1010 1525 l0 -227 208 4 c189 3 211 6 257 26 27 13 58 30 69 40 73
65 73 249 0 314 -11 10 -42 27 -69 40 -46 20 -68 23 -257 26 l-208 4 0 -227z"/>
</g>
</svg>
