<?xml version="1.0" standalone="no"?>
<!DOCTYPE svg PUBLIC "-//W3C//DTD SVG 20010904//EN"
 "http://www.w3.org/TR/2001/REC-SVG-20010904/DTD/svg10.dtd">
<svg version="1.0" xmlns="http://www.w3.org/2000/svg"
 width="128.000000pt" height="128.000000pt" viewBox="0 0 128.000000 128.000000"
 preserveAspectRatio="xMidYMid meet">
<metadata>
Created by potrace 1.14, written by Peter Selinger 2001-2017
</metadata>
<g transform="translate(0.000000,128.000000) scale(0.100000,-0.100000)"
fill="#000000" stroke="none">
<path d="M482 1259 c-217 -55 -387 -221 -458 -444 -26 -81 -26 -264 0 -350 64
-214 237 -384 451 -443 136 -37 296 -23 430 37 77 35 100 68 70 101 -23 26
-35 25 -98 -5 -181 -85 -390 -67 -551 49 -65 47 -77 60 -132 135 -138 193
-116 490 50 664 107 113 228 168 381 172 54 2 112 -3 144 -11 178 -47 322
-180 382 -354 18 -51 23 -87 23 -170 1 -117 -6 -146 -67 -268 l-41 -82 21 -21
c45 -46 99 7 153 148 28 74 32 96 36 205 7 183 -54 336 -186 468 -90 90 -191
147 -311 176 -63 16 -226 12 -297 -7z"/>
<path d="M259 713 c-66 -61 -65 -85 1 -147 40 -38 55 -46 73 -40 26 8 37 22
37 47 0 16 20 17 271 17 218 0 270 -3 266 -13 -7 -17 13 -43 40 -51 32 -10
123 75 123 114 0 34 -87 121 -116 115 -11 -2 -22 -4 -26 -4 -8 -1 -23 -42 -20
-53 1 -5 -119 -8 -268 -8 -148 0 -269 3 -268 8 3 11 -12 52 -20 53 -4 0 -15 2
-26 4 -11 2 -37 -14 -67 -42z"/>
</g>
</svg>
