<svg xmlns:xlink="http://www.w3.org/1999/xlink" xmlns="http://www.w3.org/2000/svg" viewBox="0 0 760 538" width="760" height="538" preserveAspectRatio="xMidYMid meet" style="width: 100%; height: 100%; transform: translate3d(0px, 0px, 0px);"><defs><clipPath id="__lottie_element_2"><rect width="760" height="538" x="0" y="0"></rect></clipPath><clipPath id="__lottie_element_4"><path d="M0,0 L760,0 L760,538 L0,538z"></path></clipPath><clipPath id="__lottie_element_9"><path d="M0,0 L720,0 L720,510 L0,510z"></path></clipPath><mask id="__lottie_element_18" mask-type="alpha"><g transform="matrix(1,0,0,1,292,164.5)" opacity="1" style="display: block;"><g opacity="1" transform="matrix(1,0,0,1,0,0)"><path fill="rgb(246,249,251)" fill-opacity="1" d=" M217,-149.5 C217,-149.5 217,149.5 217,149.5 C217,155.0189971923828 212.5189971923828,159.5 207,159.5 C207,159.5 -207,159.5 -207,159.5 C-212.5189971923828,159.5 -217,155.0189971923828 -217,149.5 C-217,149.5 -217,-149.5 -217,-149.5 C-217,-155.0189971923828 -212.5189971923828,-159.5 -207,-159.5 C-207,-159.5 207,-159.5 207,-159.5 C212.5189971923828,-159.5 217,-155.0189971923828 217,-149.5z"></path></g></g></mask><clipPath id="__lottie_element_23"><path d="M0,0 L159,0 L159,28 L0,28z"></path></clipPath><clipPath id="__lottie_element_30"><path d="M0,0 L29,0 L29,15 L0,15z"></path></clipPath><linearGradient id="__lottie_element_39" spreadMethod="pad" gradientUnits="userSpaceOnUse" x1="366.2650146484375" y1="400.010986328125" x2="347.364013671875" y2="429.51800537109375"><stop offset="18%" stop-color="rgb(0,82,204)"></stop><stop offset="59%" stop-color="rgb(19,107,229)"></stop><stop offset="100%" stop-color="rgb(38,132,255)"></stop></linearGradient><linearGradient id="__lottie_element_43" spreadMethod="pad" gradientUnits="userSpaceOnUse" x1="369.7040100097656" y1="486.5799865722656" x2="388.4909973144531" y2="457.0199890136719"><stop offset="18%" stop-color="rgb(0,82,204)"></stop><stop offset="59%" stop-color="rgb(19,107,229)"></stop><stop offset="100%" stop-color="rgb(38,132,255)"></stop></linearGradient><clipPath id="__lottie_element_88"><path d="M0,0 L720,0 L720,510 L0,510z"></path></clipPath><filter id="__lottie_element_99" x="0%" y="0%" width="100%" height="100%"><feGaussianBlur in="SourceAlpha" result="drop_shadow_1" stdDeviation="5"></feGaussianBlur><feOffset dx="2.4492935982947064e-16" dy="4" in="drop_shadow_1" result="drop_shadow_2"></feOffset><feFlood flood-color="#000000" flood-opacity="0.15" result="drop_shadow_3"></feFlood><feComposite in="drop_shadow_3" in2="drop_shadow_2" operator="in" result="drop_shadow_4"></feComposite><feMerge><feMergeNode></feMergeNode><feMergeNode in="SourceGraphic"></feMergeNode></feMerge></filter><mask id="__lottie_element_103" mask-type="alpha"><g filter="url(#__lottie_element_105)" transform="matrix(1,0,0,1,435,264.5)" opacity="1" style="display: block;"><g opacity="1" transform="matrix(1,0,0,1,0,0)"><path fill="rgb(246,249,251)" fill-opacity="1" d=" M202,-146.5 C202,-146.5 202,146.5 202,146.5 C202,152.0189971923828 197.5189971923828,156.5 192,156.5 C192,156.5 -192,156.5 -192,156.5 C-197.5189971923828,156.5 -202,152.0189971923828 -202,146.5 C-202,146.5 -202,-146.5 -202,-146.5 C-202,-152.0189971923828 -197.5189971923828,-156.5 -192,-156.5 C-192,-156.5 192,-156.5 192,-156.5 C197.5189971923828,-156.5 202,-152.0189971923828 202,-146.5z"></path></g></g></mask><filter id="__lottie_element_105" x="0%" y="0%" width="100%" height="100%"><feGaussianBlur in="SourceAlpha" result="drop_shadow_1" stdDeviation="5"></feGaussianBlur><feOffset dx="2.4492935982947064e-16" dy="4" in="drop_shadow_1" result="drop_shadow_2"></feOffset><feFlood flood-color="#000000" flood-opacity="0.15" result="drop_shadow_3"></feFlood><feComposite in="drop_shadow_3" in2="drop_shadow_2" operator="in" result="drop_shadow_4"></feComposite><feMerge><feMergeNode></feMergeNode><feMergeNode in="SourceGraphic"></feMergeNode></feMerge></filter><clipPath id="__lottie_element_134"><path d="M0,0 L70,0 L70,17 L0,17z"></path></clipPath><clipPath id="__lottie_element_178"><path d="M0,0 L720,0 L720,510 L0,510z"></path></clipPath><mask id="__lottie_element_187" mask-type="alpha"><g transform="matrix(1,0,0,1,360,255)" opacity="1" style="display: block;"><g opacity="1" transform="matrix(1,0,0,1,204.5,-12.25)"><path fill="rgb(255,0,0)" fill-opacity="1" d=" M63,-10.25 C63,-10.25 63,10.25 63,10.25 C63,10.25 -63,10.25 -63,10.25 C-63,10.25 -63,-10.25 -63,-10.25 C-63,-10.25 63,-10.25 63,-10.25z"></path></g></g></mask><clipPath id="__lottie_element_191"><path d="M0,0 L24,0 L24,24 L0,24z"></path></clipPath><clipPath id="__lottie_element_237"><path d="M0,0 L720,0 L720,510 L0,510z"></path></clipPath><mask id="__lottie_element_246" mask-type="alpha"><g transform="matrix(1,0,0,1,360,255)" opacity="1" style="display: block;"><g opacity="1" transform="matrix(1,0,0,1,-239.625,14.75)"><path fill="rgb(255,0,0)" fill-opacity="1" d=" M49.875,-8.75 C49.875,-8.75 49.875,8.75 49.875,8.75 C49.875,8.75 -49.875,8.75 -49.875,8.75 C-49.875,8.75 -49.875,-8.75 -49.875,-8.75 C-49.875,-8.75 49.875,-8.75 49.875,-8.75z"></path></g></g></mask><clipPath id="__lottie_element_256"><path d="M0,0 L24,0 L24,24 L0,24z"></path></clipPath><linearGradient id="__lottie_element_39" spreadMethod="pad" gradientUnits="userSpaceOnUse" x1="366.2650146484375" y1="400.010986328125" x2="347.364013671875" y2="429.51800537109375"><stop offset="18%" stop-color="rgb(0,82,204)"></stop><stop offset="59%" stop-color="rgb(19,107,229)"></stop><stop offset="100%" stop-color="rgb(38,132,255)"></stop></linearGradient><linearGradient id="__lottie_element_43" spreadMethod="pad" gradientUnits="userSpaceOnUse" x1="369.7040100097656" y1="486.5799865722656" x2="388.4909973144531" y2="457.0199890136719"><stop offset="18%" stop-color="rgb(0,82,204)"></stop><stop offset="59%" stop-color="rgb(19,107,229)"></stop><stop offset="100%" stop-color="rgb(38,132,255)"></stop></linearGradient></defs><g clip-path="url(#__lottie_element_2)"><g clip-path="url(#__lottie_element_4)" transform="matrix(1,0,0,1,0,0)" opacity="1" style="display: block;"><g clip-path="url(#__lottie_element_9)" transform="matrix(1,0,0,1,20,14)" opacity="1" style="display: block;"><g transform="matrix(1,0,0,1,292,164.5)" opacity="1" style="display: block;"><g opacity="1" transform="matrix(1,0,0,1,0,0)"><path fill="#F6F9FB" fill-opacity="1" d=" M217,-149.5 C217,-149.5 217,149.5 217,149.5 C217,155.0189971923828 212.5189971923828,159.5 207,159.5 C207,159.5 -207,159.5 -207,159.5 C-212.5189971923828,159.5 -217,155.0189971923828 -217,149.5 C-217,149.5 -217,-149.5 -217,-149.5 C-217,-155.0189971923828 -212.5189971923828,-159.5 -207,-159.5 C-207,-159.5 207,-159.5 207,-159.5 C212.5189971923828,-159.5 217,-155.0189971923828 217,-149.5z"></path></g></g><g mask="url(#__lottie_element_18)" style="display: block;"><g transform="matrix(1,0,0,1,177,164.5)" opacity="1"><g opacity="1" transform="matrix(1,0,0,1,0,0)"><path fill="#E6EBEF" fill-opacity="1" d=" M102,-159.5 C102,-159.5 -102,-159.5 -102,-159.5 C-102,-159.5 -102,159.5 -102,159.5 C-102,159.5 102,159.5 102,159.5 C102,159.5 102,-159.5 102,-159.5z"></path></g></g></g><g transform="matrix(1,0,0,1,335.5,39.5)" opacity="1" style="display: block;"><g opacity="1" transform="matrix(1,0,0,1,0,0)"><path fill="#E6EBEF" fill-opacity="1" d=" M23.5,0 C23.5,0 23.5,0 23.5,0 C23.5,2.4835500717163086 21.483549118041992,4.5 19,4.5 C19,4.5 -19,4.5 -19,4.5 C-21.483549118041992,4.5 -23.5,2.4835500717163086 -23.5,0 C-23.5,0 -23.5,0 -23.5,0 C-23.5,-2.4835500717163086 -21.483549118041992,-4.5 -19,-4.5 C-19,-4.5 19,-4.5 19,-4.5 C21.483549118041992,-4.5 23.5,-2.4835500717163086 23.5,0z"></path></g></g><g transform="matrix(1,0,0,1,375,90.5)" opacity="1" style="display: block;"><g opacity="1" transform="matrix(1,0,0,1,0,0)"><path fill="#E6EBEF" fill-opacity="1" d=" M63,-28.5 C63,-28.5 63,28.5 63,28.5 C63,31.25950050354004 60.759498596191406,33.5 58,33.5 C58,33.5 -58,33.5 -58,33.5 C-60.759498596191406,33.5 -63,31.25950050354004 -63,28.5 C-63,28.5 -63,-28.5 -63,-28.5 C-63,-31.25950050354004 -60.759498596191406,-33.5 -58,-33.5 C-58,-33.5 58,-33.5 58,-33.5 C60.759498596191406,-33.5 63,-31.25950050354004 63,-28.5z"></path></g></g><g transform="matrix(1,0,0,1,479,90.5)" opacity="1" style="display: block;"><g opacity="1" transform="matrix(1,0,0,1,0,0)"><path fill="#E6EBEF" fill-opacity="1" d=" M30,-33.5 C30,-33.5 -30,-33.5 -30,-33.5 C-30,-33.5 -30,33.5 -30,33.5 C-30,33.5 30,33.5 30,33.5 C30,33.5 30,-33.5 30,-33.5z"></path></g></g><g transform="matrix(1,0,0,1,153.5,68.5)" opacity="1" style="display: block;"><g opacity="1" transform="matrix(1,0,0,1,0,0)"><path fill="#F6F9FB" fill-opacity="1" d=" M35.5,0 C35.5,0 35.5,0 35.5,0 C35.5,2.4835500717163086 33.483551025390625,4.5 31,4.5 C31,4.5 -31,4.5 -31,4.5 C-33.483551025390625,4.5 -35.5,2.4835500717163086 -35.5,0 C-35.5,0 -35.5,0 -35.5,0 C-35.5,-2.4835500717163086 -33.483551025390625,-4.5 -31,-4.5 C-31,-4.5 31,-4.5 31,-4.5 C33.483551025390625,-4.5 35.5,-2.4835500717163086 35.5,0z"></path></g></g><g transform="matrix(1,0,0,1,142,97.5)" opacity="1" style="display: block;"><g opacity="1" transform="matrix(1,0,0,1,0,0)"><path fill="#F6F9FB" fill-opacity="1" d=" M24,0 C24,0 24,0 24,0 C24,2.4835500717163086 21.983549118041992,4.5 19.5,4.5 C19.5,4.5 -19.5,4.5 -19.5,4.5 C-21.983549118041992,4.5 -24,2.4835500717163086 -24,0 C-24,0 -24,0 -24,0 C-24,-2.4835500717163086 -21.983549118041992,-4.5 -19.5,-4.5 C-19.5,-4.5 19.5,-4.5 19.5,-4.5 C21.983549118041992,-4.5 24,-2.4835500717163086 24,0z"></path></g></g><g transform="matrix(1,0,0,1,147.5,126.5)" opacity="1" style="display: block;"><g opacity="1" transform="matrix(1,0,0,1,0,0)"><path fill="#F6F9FB" fill-opacity="1" d=" M29.5,0 C29.5,0 29.5,0 29.5,0 C29.5,2.4835500717163086 27.483549118041992,4.5 25,4.5 C25,4.5 -25,4.5 -25,4.5 C-27.483549118041992,4.5 -29.5,2.4835500717163086 -29.5,0 C-29.5,0 -29.5,0 -29.5,0 C-29.5,-2.4835500717163086 -27.483549118041992,-4.5 -25,-4.5 C-25,-4.5 25,-4.5 25,-4.5 C27.483549118041992,-4.5 29.5,-2.4835500717163086 29.5,0z"></path></g></g><g transform="matrix(0.9999918341636658,0,0,1,158.49966430664062,155.5)" opacity="1" style="display: block;"><g opacity="1" transform="matrix(1,0,0,1,0,0)"><path fill="#F6F9FB" fill-opacity="1" d=" M40.5,0 C40.5,0 40.5,0 40.5,0 C40.5,2.4835500717163086 38.483551025390625,4.5 36,4.5 C36,4.5 -36,4.5 -36,4.5 C-38.483551025390625,4.5 -40.5,2.4835500717163086 -40.5,0 C-40.5,0 -40.5,0 -40.5,0 C-40.5,-2.4835500717163086 -38.483551025390625,-4.5 -36,-4.5 C-36,-4.5 36,-4.5 36,-4.5 C38.483551025390625,-4.5 40.5,-2.4835500717163086 40.5,0z"></path></g></g><g transform="matrix(1,0,0,1,147.5,184.5)" opacity="1" style="display: block;"><g opacity="1" transform="matrix(1,0,0,1,0,0)"><path fill="#F6F9FB" fill-opacity="1" d=" M29.5,0 C29.5,0 29.5,0 29.5,0 C29.5,2.4835500717163086 27.483549118041992,4.5 25,4.5 C25,4.5 -25,4.5 -25,4.5 C-27.483549118041992,4.5 -29.5,2.4835500717163086 -29.5,0 C-29.5,0 -29.5,0 -29.5,0 C-29.5,-2.4835500717163086 -27.483549118041992,-4.5 -25,-4.5 C-25,-4.5 25,-4.5 25,-4.5 C27.483549118041992,-4.5 29.5,-2.4835500717163086 29.5,0z"></path></g></g><g transform="matrix(1,0,0,1,177,213.5)" opacity="1" style="display: block;"><g opacity="1" transform="matrix(1,0,0,1,0,0)"><path fill="#F6F9FB" fill-opacity="1" d=" M59,0 C59,0 59,0 59,0 C59,2.4835500717163086 56.983551025390625,4.5 54.5,4.5 C54.5,4.5 -54.5,4.5 -54.5,4.5 C-56.983551025390625,4.5 -59,2.4835500717163086 -59,0 C-59,0 -59,0 -59,0 C-59,-2.4835500717163086 -56.983551025390625,-4.5 -54.5,-4.5 C-54.5,-4.5 54.5,-4.5 54.5,-4.5 C56.983551025390625,-4.5 59,-2.4835500717163086 59,0z"></path></g></g><g transform="matrix(1,0,0,1,96.5,68.5)" opacity="1" style="display: block;"><g opacity="1" transform="matrix(1,0,0,1,0,0)"><path fill="#F6F9FB" fill-opacity="1" d=" M10.5,-5.5 C10.5,-5.5 10.5,5.5 10.5,5.5 C10.5,8.259499549865723 8.259499549865723,10.5 5.5,10.5 C5.5,10.5 -5.5,10.5 -5.5,10.5 C-8.259499549865723,10.5 -10.5,8.259499549865723 -10.5,5.5 C-10.5,5.5 -10.5,-5.5 -10.5,-5.5 C-10.5,-8.259499549865723 -8.259499549865723,-10.5 -5.5,-10.5 C-5.5,-10.5 5.5,-10.5 5.5,-10.5 C8.259499549865723,-10.5 10.5,-8.259499549865723 10.5,-5.5z"></path></g></g><g transform="matrix(1,0,0,1,96.5,97.5)" opacity="1" style="display: block;"><g opacity="1" transform="matrix(1,0,0,1,0,0)"><path fill="#F6F9FB" fill-opacity="1" d=" M10.5,-5.5 C10.5,-5.5 10.5,5.5 10.5,5.5 C10.5,8.259499549865723 8.259499549865723,10.5 5.5,10.5 C5.5,10.5 -5.5,10.5 -5.5,10.5 C-8.259499549865723,10.5 -10.5,8.259499549865723 -10.5,5.5 C-10.5,5.5 -10.5,-5.5 -10.5,-5.5 C-10.5,-8.259499549865723 -8.259499549865723,-10.5 -5.5,-10.5 C-5.5,-10.5 5.5,-10.5 5.5,-10.5 C8.259499549865723,-10.5 10.5,-8.259499549865723 10.5,-5.5z"></path></g></g><g transform="matrix(1,0,0,1,96.5,126.5)" opacity="1" style="display: block;"><g opacity="1" transform="matrix(1,0,0,1,0,0)"><path fill="#F6F9FB" fill-opacity="1" d=" M10.5,-5.5 C10.5,-5.5 10.5,5.5 10.5,5.5 C10.5,8.259499549865723 8.259499549865723,10.5 5.5,10.5 C5.5,10.5 -5.5,10.5 -5.5,10.5 C-8.259499549865723,10.5 -10.5,8.259499549865723 -10.5,5.5 C-10.5,5.5 -10.5,-5.5 -10.5,-5.5 C-10.5,-8.259499549865723 -8.259499549865723,-10.5 -5.5,-10.5 C-5.5,-10.5 5.5,-10.5 5.5,-10.5 C8.259499549865723,-10.5 10.5,-8.259499549865723 10.5,-5.5z"></path></g></g><g transform="matrix(1,0,0,1,96.5,155.5)" opacity="1" style="display: block;"><g opacity="1" transform="matrix(1,0,0,1,0,0)"><path fill="#F6F9FB" fill-opacity="1" d=" M10.5,-5.5 C10.5,-5.5 10.5,5.5 10.5,5.5 C10.5,8.259499549865723 8.259499549865723,10.5 5.5,10.5 C5.5,10.5 -5.5,10.5 -5.5,10.5 C-8.259499549865723,10.5 -10.5,8.259499549865723 -10.5,5.5 C-10.5,5.5 -10.5,-5.5 -10.5,-5.5 C-10.5,-8.259499549865723 -8.259499549865723,-10.5 -5.5,-10.5 C-5.5,-10.5 5.5,-10.5 5.5,-10.5 C8.259499549865723,-10.5 10.5,-8.259499549865723 10.5,-5.5z"></path></g></g><g transform="matrix(1,0,0,1,96.5,184.5)" opacity="1" style="display: block;"><g opacity="1" transform="matrix(1,0,0,1,0,0)"><path fill="#F6F9FB" fill-opacity="1" d=" M10.5,-5.5 C10.5,-5.5 10.5,5.5 10.5,5.5 C10.5,8.259499549865723 8.259499549865723,10.5 5.5,10.5 C5.5,10.5 -5.5,10.5 -5.5,10.5 C-8.259499549865723,10.5 -10.5,8.259499549865723 -10.5,5.5 C-10.5,5.5 -10.5,-5.5 -10.5,-5.5 C-10.5,-8.259499549865723 -8.259499549865723,-10.5 -5.5,-10.5 C-5.5,-10.5 5.5,-10.5 5.5,-10.5 C8.259499549865723,-10.5 10.5,-8.259499549865723 10.5,-5.5z"></path></g></g><g transform="matrix(1,0,0,1,96.5,213.5)" opacity="1" style="display: block;"><g opacity="1" transform="matrix(1,0,0,1,0,0)"><path fill="#F6F9FB" fill-opacity="1" d=" M10.5,-5.5 C10.5,-5.5 10.5,5.5 10.5,5.5 C10.5,8.259499549865723 8.259499549865723,10.5 5.5,10.5 C5.5,10.5 -5.5,10.5 -5.5,10.5 C-8.259499549865723,10.5 -10.5,8.259499549865723 -10.5,5.5 C-10.5,5.5 -10.5,-5.5 -10.5,-5.5 C-10.5,-8.259499549865723 -8.259499549865723,-10.5 -5.5,-10.5 C-5.5,-10.5 5.5,-10.5 5.5,-10.5 C8.259499549865723,-10.5 10.5,-8.259499549865723 10.5,-5.5z"></path></g></g><g clip-path="url(#__lottie_element_23)" transform="matrix(1,0,0,1,54.5,16)" opacity="1" style="display: block;"><g transform="matrix(1,0,0,1,79.5,14)" opacity="1" style="display: block;"><g opacity="1" transform="matrix(1,0,0,1,0,0)"></g></g><g clip-path="url(#__lottie_element_30)" transform="matrix(1,0,0,1,82.5,7)" opacity="1" style="display: block;"><g transform="matrix(1,0,0,1,14.5,7.5)" opacity="1" style="display: block;"><g opacity="1" transform="matrix(1,0,0,1,0,0)"></g></g><g transform="matrix(1,0,0,1,5.39300012588501,7.440999984741211)" opacity="1" style="display: block;"><g opacity="1" transform="matrix(1,0,0,1,0,0)"><path fill="#253858" fill-opacity="1" d=" M4.993000030517578,-3.3239998817443848 C4.993000030517578,-3.3239998817443848 3.171999931335449,-3.3239998817443848 3.171999931335449,-3.3239998817443848 C3.171999931335449,-3.3239998817443848 3.171999931335449,7.3470001220703125 3.171999931335449,7.3470001220703125 C3.171999931335449,7.3470001220703125 4.993000030517578,7.3470001220703125 4.993000030517578,7.3470001220703125 C4.993000030517578,7.3470001220703125 4.993000030517578,-3.3239998817443848 4.993000030517578,-3.3239998817443848z M4.611000061035156,-7.3480000495910645 C4.448999881744385,-7.4079999923706055 4.275000095367432,-7.433000087738037 4.103000164031982,-7.421999931335449 C4.103000164031982,-7.421999931335449 4.122000217437744,-7.438000202178955 4.122000217437744,-7.438000202178955 C3.9519999027252197,-7.449999809265137 3.7820000648498535,-7.425000190734863 3.621999979019165,-7.364999771118164 C3.4619998931884766,-7.304999828338623 3.316999912261963,-7.210999965667725 3.196000099182129,-7.090000152587891 C3.0759999752044678,-6.965000152587891 2.9830000400543213,-6.815000057220459 2.9240000247955322,-6.651000022888184 C2.865000009536743,-6.486999988555908 2.8399999141693115,-6.313000202178955 2.8510000705718994,-6.138999938964844 C2.8510000705718994,-5.798999786376953 2.984999895095825,-5.473999977111816 3.2230000495910645,-5.234000205993652 C3.4609999656677246,-4.99399995803833 3.7839999198913574,-4.857999801635742 4.120999813079834,-4.857999801635742 C4.458000183105469,-4.857999801635742 4.78000020980835,-4.99399995803833 5.01800012588501,-5.234000205993652 C5.25600004196167,-5.473999977111816 5.389999866485596,-5.798999786376953 5.389999866485596,-6.138999938964844 C5.4019999504089355,-6.310999870300293 5.377999782562256,-6.482999801635742 5.317999839782715,-6.644000053405762 C5.257999897003174,-6.804999828338623 5.164999961853027,-6.952000141143799 5.045000076293945,-7.073999881744385 C4.921000003814697,-7.195000171661377 4.7729997634887695,-7.288000106811523 4.611000061035156,-7.3480000495910645z M0.6359999775886536,-6.672999858856201 C0.6359999775886536,-6.672999858856201 -1.2680000066757202,-6.672999858856201 -1.2680000066757202,-6.672999858856201 C-1.2680000066757202,-6.672999858856201 -1.2640000581741333,3.2019999027252197 -1.2640000581741333,3.2019999027252197 C-1.2640000581741333,4.599999904632568 -1.8200000524520874,5.571000099182129 -3.427000045776367,5.571000099182129 C-4.099999904632568,5.576000213623047 -4.765999794006348,5.452000141143799 -5.39300012588501,5.206999778747559 C-5.39300012588501,5.206999778747559 -5.39300012588501,7.076000213623047 -5.39300012588501,7.076000213623047 C-4.6579999923706055,7.328999996185303 -3.884999990463257,7.452000141143799 -3.1089999675750732,7.440000057220459 C-0.48399999737739563,7.440000057220459 0.6359999775886536,5.6570000648498535 0.6359999775886536,3.0759999752044678 C0.6359999775886536,3.0759999752044678 0.6359999775886536,-6.672999858856201 0.6359999775886536,-6.672999858856201z"></path></g></g><g transform="matrix(1,0,0,1,15.895000457763672,9.371999740600586)" opacity="1" style="display: block;"><g opacity="1" transform="matrix(1,0,0,1,0,0)"><path fill="#253858" fill-opacity="1" d=" M-0.984000027179718,-5.25600004196167 C-0.984000027179718,-5.25600004196167 -2.760999917984009,-5.25600004196167 -2.760999917984009,-5.25600004196167 C-2.760999917984009,-5.25600004196167 -2.760999917984009,5.419000148773193 -2.760999917984009,5.419000148773193 C-2.760999917984009,5.419000148773193 -0.984000027179718,5.419000148773193 -0.984000027179718,5.419000148773193 C-0.984000027179718,5.419000148773193 -0.984000027179718,-0.8840000033378601 -0.984000027179718,-0.8840000033378601 C-0.984000027179718,-3.1440000534057617 0.4350000023841858,-3.8559999465942383 2.760999917984009,-3.614000082015991 C2.760999917984009,-3.614000082015991 2.760999917984009,-5.4070000648498535 2.760999917984009,-5.4070000648498535 C0.6980000138282776,-5.533999919891357 -0.35600000619888306,-4.638999938964844 -0.984000027179718,-3.380000114440918 C-0.984000027179718,-3.380000114440918 -0.984000027179718,-5.25600004196167 -0.984000027179718,-5.25600004196167z"></path></g></g><g transform="matrix(1,0,0,1,24.18600082397461,9.451000213623047)" opacity="1" style="display: block;"><g opacity="1" transform="matrix(1,0,0,1,0,0)"><path fill="#253858" fill-opacity="1" d=" M2.990000009536743,0.42800000309944153 C2.990000009536743,2.796999931335449 1.5299999713897705,3.8420000076293945 -0.0989999994635582,3.8420000076293945 C-0.0989999994635582,3.8420000076293945 -0.09399999678134918,3.8429999351501465 -0.09399999678134918,3.8429999351501465 C-1.9789999723434448,3.8429999351501465 -2.99399995803833,2.562000036239624 -3.003000020980835,-0.00800000037997961 C-3.003000020980835,-2.484999895095825 -1.9479999542236328,-3.8499999046325684 0.10499999672174454,-3.8499999046325684 C1.659000039100647,-3.8499999046325684 2.990000009536743,-2.803999900817871 2.990000009536743,-0.4350000023841858 C2.990000009536743,-0.4350000023841858 2.990000009536743,0.42800000309944153 2.990000009536743,0.42800000309944153z M-0.5839999914169312,5.548999786376953 C1.0440000295639038,5.548999786376953 2.312000036239624,4.839000225067139 2.990000009536743,3.4140000343322754 C2.990000009536743,3.4140000343322754 2.993000030517578,5.335000038146973 2.993000030517578,5.335000038146973 C2.993000030517578,5.335000038146973 4.814000129699707,5.335000038146973 4.814000129699707,5.335000038146973 C4.814000129699707,5.335000038146973 4.814000129699707,-5.335000038146973 4.814000129699707,-5.335000038146973 C4.814000129699707,-5.335000038146973 2.993000030517578,-5.335000038146973 2.993000030517578,-5.335000038146973 C2.993000030517578,-5.335000038146973 2.993000030517578,-3.4590001106262207 2.993000030517578,-3.4590001106262207 C2.3559999465942383,-4.8460001945495605 1.1710000038146973,-5.548999786376953 -0.3720000088214874,-5.548999786376953 C-3.3340001106262207,-5.548999786376953 -4.814000129699707,-3.009000062942505 -4.814000129699707,0 C-4.814000129699707,3.1389999389648438 -3.3970000743865967,5.548999786376953 -0.5839999914169312,5.548999786376953z"></path></g></g></g><g transform="matrix(1,0,0,1,65.78099822998047,14)" opacity="1" style="display: block;"><g opacity="1" transform="matrix(1,0,0,1,0,0)"><path fill="#2684FF" fill-opacity="1" d=" M-4.059999942779541,-0.0010000000474974513 C-4.059999942779541,-0.0010000000474974513 0,4.138000011444092 0,4.138000011444092 C0,4.138000011444092 4.059999942779541,-0.0010000000474974513 4.059999942779541,-0.0010000000474974513 C4.059999942779541,-0.0010000000474974513 0,-4.140999794006348 0,-4.140999794006348 C0,-4.140999794006348 -4.059999942779541,-0.0010000000474974513 -4.059999942779541,-0.0010000000474974513z M0,-14 C0,-14 12.96399974822998,-0.7829999923706055 12.96399974822998,-0.7829999923706055 C12.96399974822998,-0.7829999923706055 12.96399974822998,-0.7829999923706055 12.96399974822998,-0.7829999923706055 C13.166999816894531,-0.574999988079071 13.281000137329102,-0.2939999997615814 13.281000137329102,0 C13.281000137329102,0.2939999997615814 13.166999816894531,0.574999988079071 12.96399974822998,0.7829999923706055 C12.96399974822998,0.7829999923706055 0,14 0,14 C0,14 -12.96399974822998,0.7829999923706055 -12.96399974822998,0.7829999923706055 C-13.166999816894531,0.574999988079071 -13.281000137329102,0.2939999997615814 -13.281000137329102,0 C-13.281000137329102,-0.2939999997615814 -13.166999816894531,-0.574999988079071 -12.96399974822998,-0.7829999923706055 C-12.96399974822998,-0.7829999923706055 0,-14 0,-14z"></path></g></g><g transform="matrix(1,0,0,1,61.31100082397461,7.039000034332275)" opacity="1" style="display: block;"><g opacity="1" transform="matrix(1,0,0,1,0,0)"><path fill="url(&quot;#__lottie_element_39&quot;)" fill-opacity="1" d=" M2.4679999351501465,-2.059000015258789 C2.4739999771118164,-0.21799999475479126 3.194000005722046,1.5460000038146973 4.4710001945495605,2.8480000495910645 C4.4710001945495605,2.8480000495910645 0.36500000953674316,6.979000091552734 0.36500000953674316,6.979000091552734 C0.36500000953674316,6.979000091552734 -4.4710001945495605,2.0490000247955322 -4.4710001945495605,2.0490000247955322 C-4.4710001945495605,2.0490000247955322 4.440999984741211,-6.979000091552734 4.440999984741211,-6.979000091552734 C3.171999931335449,-5.669000148773193 2.4619998931884766,-3.9000000953674316 2.4679999351501465,-2.059000015258789z"></path></g></g><g transform="matrix(1,0,0,1,70.23300170898438,20.992000579833984)" opacity="1" style="display: block;"><g opacity="1" transform="matrix(1,0,0,1,0,0)"><path fill="url(&quot;#__lottie_element_43&quot;)" fill-opacity="1" d=" M-4.452000141143799,-2.8540000915527344 C-4.452000141143799,-2.8540000915527344 -0.38100001215934753,-7.005000114440918 -0.38100001215934753,-7.005000114440918 C-0.38100001215934753,-7.005000114440918 4.452000141143799,-2.072000026702881 4.452000141143799,-2.072000026702881 C4.452000141143799,-2.072000026702881 -4.452000141143799,7.005000114440918 -4.452000141143799,7.005000114440918 C-3.816999912261963,6.357999801635742 -3.312999963760376,5.589000225067139 -2.9690001010894775,4.743000030517578 C-2.625,3.8970000743865967 -2.447999954223633,2.990999937057495 -2.447999954223633,2.075000047683716 C-2.447999954223633,1.159000039100647 -2.625,0.2529999911785126 -2.9690001010894775,-0.5929999947547913 C-3.312999963760376,-1.4390000104904175 -3.816999912261963,-2.2070000171661377 -4.452000141143799,-2.8540000915527344z"></path></g></g></g></g><g style="display: block;" transform="matrix(0.9999913573265076,0,0,0.9999913573265076,20.0048828125,14.000656127929688)" opacity="1"><g opacity="1" transform="matrix(-1,0,0,-1,592.18798828125,88.70099639892578)"><g opacity="1" transform="matrix(0.7693103551864624,0.6388752460479736,-0.6388752460479736,0.7693103551864624,0,0)"><path fill="#83CBB8" fill-opacity="1" d=" M28.44099998474121,-5.446000099182129 C28.44099998474121,-5.446000099182129 -28.44099998474121,-5.211999893188477 -28.44099998474121,-5.211999893188477 C-28.44099998474121,-5.211999893188477 -28.44099998474121,5.447000026702881 -28.44099998474121,5.447000026702881 C-28.44099998474121,5.447000026702881 18.933000564575195,4.214000225067139 18.933000564575195,4.214000225067139 C18.933000564575195,4.214000225067139 28.44099998474121,-5.446000099182129 28.44099998474121,-5.446000099182129z"></path></g></g><g opacity="1" transform="matrix(-1,0,0,-1,589.302001953125,61.2400016784668)"><g opacity="1" transform="matrix(0.815602719783783,-0.5786123275756836,0.5786123275756836,0.815602719783783,0,0)"><path fill="#83CBB8" fill-opacity="1" d=" M13.215999603271484,-7.535999774932861 C13.215999603271484,-7.535999774932861 -25.715999603271484,-4.8429999351501465 -25.715999603271484,-4.8429999351501465 C-25.715999603271484,-4.8429999351501465 -25.715999603271484,6.150000095367432 -25.715999603271484,6.150000095367432 C-25.715999603271484,6.150000095367432 26.20599937438965,2.0390000343322754 26.20599937438965,2.0390000343322754 C26.20599937438965,2.0390000343322754 13.215999603271484,-7.535999774932861 13.215999603271484,-7.535999774932861z"></path></g></g></g><g style="display: block;" transform="matrix(-1,0,0,-1,653.0709838867188,164.51199340820312)" opacity="1"><g opacity="1" transform="matrix(0.995920717716217,0.09023279696702957,-0.09023279696702957,0.995920717716217,0,0)"><path stroke-linecap="butt" stroke-linejoin="miter" fill-opacity="0" stroke-miterlimit="4" stroke="#83CBB8" stroke-opacity="1" stroke-width="10px" d=" M56.72800064086914,68.61499786376953 C-55.15800094604492,82.41400146484375 -88.29199981689453,-11.336000442504883 -24.708999633789062,-69.98300170898438"></path></g></g><g clip-path="url(#__lottie_element_88)" transform="matrix(1,0,0,1,20,14)" opacity="1" style="display: block;"><g filter="url(#__lottie_element_99)" transform="matrix(1,0,0,1,435,264.5)" opacity="1" style="display: block;"><g opacity="1" transform="matrix(1,0,0,1,0,0)"><path fill="#F6F9FB" fill-opacity="1" d=" M202,-146.5 C202,-146.5 202,146.5 202,146.5 C202,152.0189971923828 197.5189971923828,156.5 192,156.5 C192,156.5 -192,156.5 -192,156.5 C-197.5189971923828,156.5 -202,152.0189971923828 -202,146.5 C-202,146.5 -202,-146.5 -202,-146.5 C-202,-152.0189971923828 -197.5189971923828,-156.5 -192,-156.5 C-192,-156.5 192,-156.5 192,-156.5 C197.5189971923828,-156.5 202,-152.0189971923828 202,-146.5z"></path></g></g><g mask="url(#__lottie_element_103)" style="display: block;"><g transform="matrix(1,0,0,1,435,126)" opacity="1"><g opacity="1" transform="matrix(1,0,0,1,0,0)"><path fill="#C7D0D7" fill-opacity="1" d=" M202,-18 C202,-18 -202,-18 -202,-18 C-202,-18 -202,18 -202,18 C-202,18 202,18 202,18 C202,18 202,-18 202,-18z"></path></g></g></g><g transform="matrix(1,0,0,1,349,282.5)" opacity="1" style="display: block;"><g opacity="1" transform="matrix(1,0,0,1,0,0)"><path fill="#E6EBEF" fill-opacity="1" d=" M67,-138.5 C67,-138.5 67,138.5 67,138.5 C67,138.5 -67,138.5 -67,138.5 C-67,138.5 -67,-138.5 -67,-138.5 C-67,-138.5 67,-138.5 67,-138.5z"></path></g></g><g transform="matrix(1,0,0,1,495,167.5)" opacity="1" style="display: block;"><g opacity="1" transform="matrix(1,0,0,1,0,0)"><path fill="#E6EBEF" fill-opacity="1" d=" M64,0 C64,0 64,0 64,0 C64,2.4835500717163086 61.983551025390625,4.5 59.5,4.5 C59.5,4.5 -59.5,4.5 -59.5,4.5 C-61.983551025390625,4.5 -64,2.4835500717163086 -64,0 C-64,0 -64,0 -64,0 C-64,-2.4835500717163086 -61.983551025390625,-4.5 -59.5,-4.5 C-59.5,-4.5 59.5,-4.5 59.5,-4.5 C61.983551025390625,-4.5 64,-2.4835500717163086 64,0z"></path></g></g><g transform="matrix(1,0,0,1,466.5,197.5)" opacity="1" style="display: block;"><g opacity="1" transform="matrix(1,0,0,1,0,0)"><path fill="#E6EBEF" fill-opacity="1" d=" M35.5,0 C35.5,0 35.5,0 35.5,0 C35.5,2.4835500717163086 33.483551025390625,4.5 31,4.5 C31,4.5 -31,4.5 -31,4.5 C-33.483551025390625,4.5 -35.5,2.4835500717163086 -35.5,0 C-35.5,0 -35.5,0 -35.5,0 C-35.5,-2.4835500717163086 -33.483551025390625,-4.5 -31,-4.5 C-31,-4.5 31,-4.5 31,-4.5 C33.483551025390625,-4.5 35.5,-2.4835500717163086 35.5,0z"></path></g></g><g transform="matrix(1,0,0,1,551.5,197.5)" opacity="1" style="display: block;"><g opacity="1" transform="matrix(1,0,0,1,0,0)"><path fill="#E6EBEF" fill-opacity="1" d=" M29.5,0 C29.5,0 29.5,0 29.5,0 C29.5,2.4835500717163086 27.483549118041992,4.5 25,4.5 C25,4.5 -25,4.5 -25,4.5 C-27.483549118041992,4.5 -29.5,2.4835500717163086 -29.5,0 C-29.5,0 -29.5,0 -29.5,0 C-29.5,-2.4835500717163086 -27.483549118041992,-4.5 -25,-4.5 C-25,-4.5 25,-4.5 25,-4.5 C27.483549118041992,-4.5 29.5,-2.4835500717163086 29.5,0z"></path></g></g><g transform="matrix(1,0,0,1,332.5,168.5)" opacity="1" style="display: block;"><g opacity="1" transform="matrix(1,0,0,1,0,0)"><path fill="#F6F9FB" fill-opacity="1" d=" M35.5,0 C35.5,0 35.5,0 35.5,0 C35.5,2.4835500717163086 33.483551025390625,4.5 31,4.5 C31,4.5 -31,4.5 -31,4.5 C-33.483551025390625,4.5 -35.5,2.4835500717163086 -35.5,0 C-35.5,0 -35.5,0 -35.5,0 C-35.5,-2.4835500717163086 -33.483551025390625,-4.5 -31,-4.5 C-31,-4.5 31,-4.5 31,-4.5 C33.483551025390625,-4.5 35.5,-2.4835500717163086 35.5,0z"></path></g></g><g transform="matrix(1,0,0,1,332.5,197.5)" opacity="1" style="display: block;"><g opacity="1" transform="matrix(1,0,0,1,0,0)"><path fill="#F6F9FB" fill-opacity="1" d=" M35.5,0 C35.5,0 35.5,0 35.5,0 C35.5,2.4835500717163086 33.483551025390625,4.5 31,4.5 C31,4.5 -31,4.5 -31,4.5 C-33.483551025390625,4.5 -35.5,2.4835500717163086 -35.5,0 C-35.5,0 -35.5,0 -35.5,0 C-35.5,-2.4835500717163086 -33.483551025390625,-4.5 -31,-4.5 C-31,-4.5 31,-4.5 31,-4.5 C33.483551025390625,-4.5 35.5,-2.4835500717163086 35.5,0z"></path></g></g><g transform="matrix(1,0,0,1,321,226.5)" opacity="1" style="display: block;"><g opacity="1" transform="matrix(1,0,0,1,0,0)"><path fill="#F6F9FB" fill-opacity="1" d=" M24,0 C24,0 24,0 24,0 C24,2.4835500717163086 21.983549118041992,4.5 19.5,4.5 C19.5,4.5 -19.5,4.5 -19.5,4.5 C-21.983549118041992,4.5 -24,2.4835500717163086 -24,0 C-24,0 -24,0 -24,0 C-24,-2.4835500717163086 -21.983549118041992,-4.5 -19.5,-4.5 C-19.5,-4.5 19.5,-4.5 19.5,-4.5 C21.983549118041992,-4.5 24,-2.4835500717163086 24,0z"></path></g></g><g transform="matrix(1,0,0,1,326.5,255.5)" opacity="1" style="display: block;"><g opacity="1" transform="matrix(1,0,0,1,0,0)"><path fill="#F6F9FB" fill-opacity="1" d=" M29.5,0 C29.5,0 29.5,0 29.5,0 C29.5,2.4835500717163086 27.483549118041992,4.5 25,4.5 C25,4.5 -25,4.5 -25,4.5 C-27.483549118041992,4.5 -29.5,2.4835500717163086 -29.5,0 C-29.5,0 -29.5,0 -29.5,0 C-29.5,-2.4835500717163086 -27.483549118041992,-4.5 -25,-4.5 C-25,-4.5 25,-4.5 25,-4.5 C27.483549118041992,-4.5 29.5,-2.4835500717163086 29.5,0z"></path></g></g><g transform="matrix(1,0,0,1,337.5,284.5)" opacity="1" style="display: block;"><g opacity="1" transform="matrix(1,0,0,1,0,0)"><path fill="#F6F9FB" fill-opacity="1" d=" M40.5,0 C40.5,0 40.5,0 40.5,0 C40.5,2.4835500717163086 38.483551025390625,4.5 36,4.5 C36,4.5 -36,4.5 -36,4.5 C-38.483551025390625,4.5 -40.5,2.4835500717163086 -40.5,0 C-40.5,0 -40.5,0 -40.5,0 C-40.5,-2.4835500717163086 -38.483551025390625,-4.5 -36,-4.5 C-36,-4.5 36,-4.5 36,-4.5 C38.483551025390625,-4.5 40.5,-2.4835500717163086 40.5,0z"></path></g></g><g transform="matrix(1,0,0,1,257.7539978027344,169.5)" opacity="1" style="display: block;"><g opacity="1" transform="matrix(1,0,0,1,0,0)"><path fill="#E6EBEF" fill-opacity="1" d=" M10.5,-7.5 C10.5,-7.5 10.5,7.5 10.5,7.5 C10.5,9.155699729919434 9.155699729919434,10.5 7.5,10.5 C7.5,10.5 -7.5,10.5 -7.5,10.5 C-9.155699729919434,10.5 -10.5,9.155699729919434 -10.5,7.5 C-10.5,7.5 -10.5,-7.5 -10.5,-7.5 C-10.5,-9.155699729919434 -9.155699729919434,-10.5 -7.5,-10.5 C-7.5,-10.5 7.5,-10.5 7.5,-10.5 C9.155699729919434,-10.5 10.5,-9.155699729919434 10.5,-7.5z"></path></g></g><g transform="matrix(1,0,0,1,257.7539978027344,205.5)" opacity="1" style="display: block;"><g opacity="1" transform="matrix(1,0,0,1,0,0)"><path fill="#E6EBEF" fill-opacity="1" d=" M10.5,-7.5 C10.5,-7.5 10.5,7.5 10.5,7.5 C10.5,9.155699729919434 9.155699729919434,10.5 7.5,10.5 C7.5,10.5 -7.5,10.5 -7.5,10.5 C-9.155699729919434,10.5 -10.5,9.155699729919434 -10.5,7.5 C-10.5,7.5 -10.5,-7.5 -10.5,-7.5 C-10.5,-9.155699729919434 -9.155699729919434,-10.5 -7.5,-10.5 C-7.5,-10.5 7.5,-10.5 7.5,-10.5 C9.155699729919434,-10.5 10.5,-9.155699729919434 10.5,-7.5z"></path></g></g><g transform="matrix(1,0,0,1,257.7539978027344,241.5)" opacity="1" style="display: block;"><g opacity="1" transform="matrix(1,0,0,1,0,0)"><path fill="#E6EBEF" fill-opacity="1" d=" M10.5,-7.5 C10.5,-7.5 10.5,7.5 10.5,7.5 C10.5,9.155699729919434 9.155699729919434,10.5 7.5,10.5 C7.5,10.5 -7.5,10.5 -7.5,10.5 C-9.155699729919434,10.5 -10.5,9.155699729919434 -10.5,7.5 C-10.5,7.5 -10.5,-7.5 -10.5,-7.5 C-10.5,-9.155699729919434 -9.155699729919434,-10.5 -7.5,-10.5 C-7.5,-10.5 7.5,-10.5 7.5,-10.5 C9.155699729919434,-10.5 10.5,-9.155699729919434 10.5,-7.5z"></path></g></g><g transform="matrix(1,0,0,1,257.5,277.5)" opacity="1" style="display: block;"><g opacity="1" transform="matrix(1,0,0,1,0,0)"><path fill="#E6EBEF" fill-opacity="1" d=" M10.5,-7.5 C10.5,-7.5 10.5,7.5 10.5,7.5 C10.5,9.155699729919434 9.155699729919434,10.5 7.5,10.5 C7.5,10.5 -7.5,10.5 -7.5,10.5 C-9.155699729919434,10.5 -10.5,9.155699729919434 -10.5,7.5 C-10.5,7.5 -10.5,-7.5 -10.5,-7.5 C-10.5,-9.155699729919434 -9.155699729919434,-10.5 -7.5,-10.5 C-7.5,-10.5 7.5,-10.5 7.5,-10.5 C9.155699729919434,-10.5 10.5,-9.155699729919434 10.5,-7.5z"></path></g></g><g clip-path="url(#__lottie_element_134)" transform="matrix(1,0,0,1,247,119)" opacity="1" style="display: block;"><g transform="matrix(1,0,0,1,35,8.5)" opacity="1" style="display: block;"><g opacity="1" transform="matrix(1,0,0,1,0,0)"></g></g><g transform="matrix(1,0,0,1,45.99599838256836,7.497000217437744)" opacity="1" style="display: block;"><g opacity="1" transform="matrix(1,0,0,1,0,0)"><path fill="rgb(0,0,0)" fill-opacity="1" d=" M-4.310999870300293,4.5229997634887695 C-3.319000005722046,4.5229997634887695 -2.4210000038146973,4.011000156402588 -2.000999927520752,3.315999984741211 C-2.000999927520752,3.315999984741211 -2.000999927520752,0.9459999799728394 -2.000999927520752,0.9459999799728394 C-2.4210000038146973,0.2280000001192093 -3.319000005722046,-0.30799999833106995 -4.310999870300293,-0.30799999833106995 C-5.676000118255615,-0.30799999833106995 -6.783999919891357,0.7749999761581421 -6.783999919891357,2.1080000400543213 C-6.783999919891357,3.440999984741211 -5.676000118255615,4.5229997634887695 -4.310999870300293,4.5229997634887695z M-2.000999927520752,-1.6069999933242798 C-2.000999927520752,-1.6069999933242798 -2.000999927520752,-2.756999969482422 -2.000999927520752,-2.756999969482422 C-2.000999927520752,-2.756999969482422 -2.000999927520752,-2.746000051498413 -2.000999927520752,-2.746000051498413 C-2.000999927520752,-2.746000051498413 0.9629999995231628,-2.746000051498413 0.9629999995231628,-2.746000051498413 C0.9629999995231628,-2.746000051498413 0.9629999995231628,6.995999813079834 0.9629999995231628,6.995999813079834 C0.9629999995231628,6.995999813079834 -2.000999927520752,6.995999813079834 -2.000999927520752,6.995999813079834 C-2.000999927520752,6.995999813079834 -2.000999927520752,5.84499979019165 -2.000999927520752,5.84499979019165 C-2.490999937057495,6.63100004196167 -3.680999994277954,7.189000129699707 -4.940999984741211,7.189000129699707 C-7.543000221252441,7.189000129699707 -9.583999633789062,4.921999931335449 -9.583999633789062,2.1080000400543213 C-9.583999633789062,-0.7059999704360962 -7.531000137329102,-2.9509999752044678 -4.940999984741211,-2.9509999752044678 C-3.680999994277954,-2.9509999752044678 -2.490999937057495,-2.4049999713897705 -2.000999927520752,-1.6069999933242798z M13.74899959564209,6.9730000495910645 C13.74899959564209,6.9730000495910645 13.74899959564209,-7.177999973297119 13.74899959564209,-7.177999973297119 C13.74899959564209,-7.177999973297119 13.74899959564209,-7.189000129699707 13.74899959564209,-7.189000129699707 C13.74899959564209,-7.189000129699707 16.71299934387207,-7.189000129699707 16.71299934387207,-7.189000129699707 C16.71299934387207,-7.189000129699707 16.71299934387207,1.1390000581741333 16.71299934387207,1.1390000581741333 C16.71299934387207,1.1390000581741333 20.06100082397461,-2.7690000534057617 20.06100082397461,-2.7690000534057617 C20.06100082397461,-2.7690000534057617 23.67799949645996,-2.7690000534057617 23.67799949645996,-2.7690000534057617 C23.67799949645996,-2.7690000534057617 19.54800033569336,1.937000036239624 19.54800033569336,1.937000036239624 C19.54800033569336,1.937000036239624 24.003999710083008,6.9730000495910645 24.003999710083008,6.9730000495910645 C24.003999710083008,6.9730000495910645 20.224000930786133,6.9730000495910645 20.224000930786133,6.9730000495910645 C20.224000930786133,6.9730000495910645 16.71299934387207,2.7339999675750732 16.71299934387207,2.7339999675750732 C16.71299934387207,2.7339999675750732 16.71299934387207,6.9730000495910645 16.71299934387207,6.9730000495910645 C16.71299934387207,6.9730000495910645 13.74899959564209,6.9730000495910645 13.74899959564209,6.9730000495910645z M-11.11299991607666,6.9730000495910645 C-11.11299991607666,6.9730000495910645 -14.076000213623047,6.9730000495910645 -14.076000213623047,6.9730000495910645 C-14.076000213623047,6.9730000495910645 -14.076000213623047,-7.177999973297119 -14.076000213623047,-7.177999973297119 C-14.076000213623047,-7.177999973297119 -11.11299991607666,-7.177999973297119 -11.11299991607666,-7.177999973297119 C-11.11299991607666,-7.177999973297119 -11.11299991607666,6.9730000495910645 -11.11299991607666,6.9730000495910645z M7.741000175476074,4.534999847412109 C8.628000259399414,4.534999847412109 9.444000244140625,4.066999912261963 9.88700008392334,3.303999900817871 C9.88700008392334,3.303999900817871 12.255999565124512,4.5920000076293945 12.255999565124512,4.5920000076293945 C11.369000434875488,6.142000198364258 9.678000450134277,7.189000129699707 7.741000175476074,7.189000129699707 C4.882999897003174,7.189000129699707 2.561000108718872,4.921999931335449 2.561000108718872,2.11899995803833 C2.561000108718872,-0.6840000152587891 4.882999897003174,-2.9509999752044678 7.741000175476074,-2.9509999752044678 C9.678000450134277,-2.9509999752044678 11.369000434875488,-1.902999997138977 12.255999565124512,-0.3529999852180481 C12.255999565124512,-0.3529999852180481 9.88700008392334,0.9340000152587891 9.88700008392334,0.9340000152587891 C9.454999923706055,0.17100000381469727 8.628000259399414,-0.29600000381469727 7.741000175476074,-0.29600000381469727 C6.375999927520752,-0.29600000381469727 5.26800012588501,0.7860000133514404 5.26800012588501,2.11899995803833 C5.26800012588501,3.4519999027252197 6.375999927520752,4.534999847412109 7.741000175476074,4.534999847412109z M-23.152999877929688,3.999000072479248 C-23.152999877929688,3.999000072479248 -24.003999710083008,5.947999954223633 -24.003999710083008,5.947999954223633 C-22.81399917602539,6.78000020980835 -21.250999450683594,7.177999973297119 -19.54800033569336,7.15500020980835 C-17.238000869750977,7.15500020980835 -15.616000175476074,5.85699987411499 -15.616000175476074,3.98799991607666 C-15.673999786376953,0.5580000281333923 -21.065000534057617,1.3329999446868896 -21.08799934387207,-0.07999999821186066 C-21.08799934387207,-0.5130000114440918 -20.608999252319336,-0.8550000190734863 -19.874000549316406,-0.8550000190734863 C-18.801000595092773,-0.8550000190734863 -17.66900062561035,-0.4560000002384186 -16.759000778198242,0.11400000005960464 C-16.759000778198242,0.11400000005960464 -15.965999603271484,-1.86899995803833 -15.965999603271484,-1.86899995803833 C-16.95800018310547,-2.631999969482422 -18.357999801635742,-2.9739999771118164 -19.757999420166016,-2.9739999771118164 C-22.10300064086914,-2.9739999771118164 -23.770000457763672,-1.5609999895095825 -23.746999740600586,0.2619999945163727 C-23.700000762939453,3.8510000705718994 -18.35700035095215,2.746000051498413 -18.333999633789062,4.170000076293945 C-18.333999633789062,4.683000087738037 -18.905000686645508,5.025000095367432 -19.79199981689453,5.025000095367432 C-21.0049991607666,5.025000095367432 -22.219999313354492,4.671000003814697 -23.152999877929688,3.999000072479248z"></path></g></g><g transform="matrix(1,0,0,1,4.053999900817871,3.9700000286102295)" opacity="1" style="display: block;"><g opacity="1" transform="matrix(1,0,0,1,0,0)"><path fill="#36C5F0" fill-opacity="1" d=" M-2.315999984741211,0.5640000104904175 C-2.315999984741211,0.5640000104904175 2.303999900817871,0.5640000104904175 2.303999900817871,0.5640000104904175 C3.2720000743865967,0.5640000104904175 4.041999816894531,1.3279999494552612 4.053999900817871,2.26200008392334 C4.053999900817871,3.196000099182129 3.2730000019073486,3.9590001106262207 2.315999984741211,3.9590001106262207 C2.315999984741211,3.9590001106262207 -2.315999984741211,3.9590001106262207 -2.315999984741211,3.9590001106262207 C-3.2730000019073486,3.9590001106262207 -4.053999900817871,3.196000099182129 -4.053999900817871,2.26200008392334 C-4.053999900817871,1.3279999494552612 -3.2730000019073486,0.5640000104904175 -2.315999984741211,0.5640000104904175z M0.5659999847412109,-2.26200008392334 C0.5659999847412109,-3.196000099182129 1.347000002861023,-3.9590001106262207 2.303999900817871,-3.9590001106262207 C3.2720000743865967,-3.9590001106262207 4.043000221252441,-3.196000099182129 4.043000221252441,-2.26200008392334 C4.043000221252441,-2.26200008392334 4.043000221252441,-0.5640000104904175 4.043000221252441,-0.5640000104904175 C4.043000221252441,-0.5640000104904175 2.303999900817871,-0.5640000104904175 2.303999900817871,-0.5640000104904175 C1.347000002861023,-0.5640000104904175 0.5659999847412109,-1.3279999494552612 0.5659999847412109,-2.26200008392334z"></path></g></g><g transform="matrix(1,0,0,1,13.305999755859375,3.9649999141693115)" opacity="1" style="display: block;"><g opacity="1" transform="matrix(1,0,0,1,0,0)"><path fill="#2EB67D" fill-opacity="1" d=" M-0.5770000219345093,-2.2669999599456787 C-0.5770000219345093,-2.2669999599456787 -0.5770000219345093,2.2669999599456787 -0.5770000219345093,2.2669999599456787 C-0.5770000219345093,3.2130000591278076 -1.3480000495910645,3.9760000705718994 -2.315999984741211,3.9649999141693115 C-3.2730000019073486,3.9649999141693115 -4.053999900817871,3.2009999752044678 -4.053999900817871,2.2669999599456787 C-4.053999900817871,2.2669999599456787 -4.053999900817871,-2.2669999599456787 -4.053999900817871,-2.2669999599456787 C-4.053999900817871,-3.2009999752044678 -3.2730000019073486,-3.9649999141693115 -2.315999984741211,-3.9649999141693115 C-1.3589999675750732,-3.9649999141693115 -0.5770000219345093,-3.2009999752044678 -0.5770000219345093,-2.2669999599456787z M2.315999984741211,0.5699999928474426 C3.2730000019073486,0.5699999928474426 4.053999900817871,1.3329999446868896 4.053999900817871,2.2669999599456787 C4.053999900817871,3.2130000591278076 3.2730000019073486,3.9760000705718994 2.315999984741211,3.9649999141693115 C2.315999984741211,3.9649999141693115 0.5770000219345093,3.9649999141693115 0.5770000219345093,3.9649999141693115 C0.5770000219345093,3.9649999141693115 0.5770000219345093,2.2669999599456787 0.5770000219345093,2.2669999599456787 C0.5770000219345093,1.3329999446868896 1.3589999675750732,0.5699999928474426 2.315999984741211,0.5699999928474426z"></path></g></g><g transform="matrix(1,0,0,1,13.305999755859375,13.03499984741211)" opacity="1" style="display: block;"><g opacity="1" transform="matrix(1,0,0,1,0,0)"><path fill="#ECB22E" fill-opacity="1" d=" M2.315999984741211,-0.5699999928474426 C2.315999984741211,-0.5699999928474426 -2.315999984741211,-0.5699999928474426 -2.315999984741211,-0.5699999928474426 C-3.2730000019073486,-0.5699999928474426 -4.053999900817871,-1.3329999446868896 -4.053999900817871,-2.2669999599456787 C-4.053999900817871,-3.2009999752044678 -3.2730000019073486,-3.9649999141693115 -2.315999984741211,-3.9649999141693115 C-2.315999984741211,-3.9649999141693115 2.315999984741211,-3.9649999141693115 2.315999984741211,-3.9649999141693115 C3.2730000019073486,-3.9649999141693115 4.053999900817871,-3.2009999752044678 4.053999900817871,-2.2669999599456787 C4.053999900817871,-1.3329999446868896 3.2730000019073486,-0.5699999928474426 2.315999984741211,-0.5699999928474426z M-0.5770000219345093,2.2669999599456787 C-0.5770000219345093,3.2009999752044678 -1.3589999675750732,3.9649999141693115 -2.315999984741211,3.9649999141693115 C-3.2730000019073486,3.9649999141693115 -4.053999900817871,3.2009999752044678 -4.053999900817871,2.2669999599456787 C-4.053999900817871,2.2669999599456787 -4.053999900817871,0.5699999928474426 -4.053999900817871,0.5699999928474426 C-4.053999900817871,0.5699999928474426 -2.315999984741211,0.5699999928474426 -2.315999984741211,0.5699999928474426 C-1.3589999675750732,0.5699999928474426 -0.5770000219345093,1.3329999446868896 -0.5770000219345093,2.2669999599456787z"></path></g></g><g transform="matrix(1,0,0,1,4.053999900817871,13.03499984741211)" opacity="1" style="display: block;"><g opacity="1" transform="matrix(1,0,0,1,0,0)"><path fill="#E01E5A" fill-opacity="1" d=" M0.5770000219345093,2.2669999599456787 C0.5770000219345093,2.2669999599456787 0.5770000219345093,-2.2669999599456787 0.5770000219345093,-2.2669999599456787 C0.5770000219345093,-3.2009999752044678 1.3480000495910645,-3.9649999141693115 2.315999984741211,-3.9649999141693115 C3.2730000019073486,-3.9649999141693115 4.053999900817871,-3.2009999752044678 4.053999900817871,-2.2669999599456787 C4.053999900817871,-2.2669999599456787 4.053999900817871,2.2669999599456787 4.053999900817871,2.2669999599456787 C4.053999900817871,3.2009999752044678 3.2730000019073486,3.9649999141693115 2.315999984741211,3.9649999141693115 C1.3589999675750732,3.9649999141693115 0.5770000219345093,3.2009999752044678 0.5770000219345093,2.2669999599456787z M-2.315999984741211,-0.5699999928474426 C-3.2730000019073486,-0.5699999928474426 -4.053999900817871,-1.3329999446868896 -4.053999900817871,-2.2669999599456787 C-4.053999900817871,-3.2009999752044678 -3.2839999198913574,-3.9649999141693115 -2.315999984741211,-3.9649999141693115 C-2.315999984741211,-3.9649999141693115 -0.5770000219345093,-3.9649999141693115 -0.5770000219345093,-3.9649999141693115 C-0.5770000219345093,-3.9649999141693115 -0.5770000219345093,-2.2669999599456787 -0.5770000219345093,-2.2669999599456787 C-0.5770000219345093,-1.3329999446868896 -1.3589999675750732,-0.5699999928474426 -2.315999984741211,-0.5699999928474426z"></path></g></g></g></g><g clip-path="url(#__lottie_element_178)" transform="matrix(1,0,0,1,20,14)" opacity="1" style="display: block;"><g transform="matrix(1,0,0,1,571.5,357)" opacity="1" style="display: block;"><g opacity="1" transform="matrix(1,0,0,1,0,0)"><path fill="#E6EBEF" fill-opacity="1" d=" M129.5,-136 C129.5,-136 129.5,136 129.5,136 C129.5,141.5189971923828 125.01899719238281,146 119.5,146 C119.5,146 -119.5,146 -119.5,146 C-125.01899719238281,146 -129.5,141.5189971923828 -129.5,136 C-129.5,136 -129.5,-136 -129.5,-136 C-129.5,-141.5189971923828 -125.01899719238281,-146 -119.5,-146 C-119.5,-146 119.5,-146 119.5,-146 C125.01899719238281,-146 129.5,-141.5189971923828 129.5,-136z"></path></g></g><g transform="matrix(1,0,0,1,477,246)" opacity="1" style="display: block;"><g opacity="1" transform="matrix(1,0,0,1,0,0)"><path fill="#FFFFFF" fill-opacity="1" d=" M20,-10 C20,-10 20,10 20,10 C20,15.519000053405762 15.519000053405762,20 10,20 C10,20 -10,20 -10,20 C-15.519000053405762,20 -20,15.519000053405762 -20,10 C-20,10 -20,-10 -20,-10 C-20,-15.519000053405762 -15.519000053405762,-20 -10,-20 C-10,-20 10,-20 10,-20 C15.519000053405762,-20 20,-15.519000053405762 20,-10z"></path></g></g><g mask="url(#__lottie_element_187)" style="display: block;"><g fill="#2F445D" font-size="15" font-family="Ubuntu" font-style="normal" font-weight="500" aria-label="Create Jira issue" transform="matrix(1,0,0,1,588.5,244)" opacity="1"><path stroke-linecap="butt" stroke-linejoin="round" stroke-miterlimit="4" d=" M-77.51,3.8 C-77.16,3.75 -76.85,3.69 -76.56,3.62 C-76.29,3.54 -76.04,3.46 -75.84,3.38 C-75.63,3.3 -75.47,3.22 -75.35,3.14 C-75.35,3.14 -75.86,1.6 -75.86,1.6 C-76.09,1.72 -76.41,1.85 -76.83,1.98 C-77.25,2.12 -77.8,2.18 -78.47,2.18 C-79.03,2.18 -79.51,2.09 -79.91,1.91 C-80.31,1.72 -80.64,1.46 -80.9,1.13 C-81.16,0.79 -81.35,0.39 -81.48,-0.07 C-81.6,-0.53 -81.66,-1.03 -81.66,-1.58 C-81.66,-2.2 -81.59,-2.75 -81.42,-3.22 C-81.27,-3.69 -81.04,-4.08 -80.76,-4.39 C-80.47,-4.7 -80.13,-4.93 -79.74,-5.08 C-79.35,-5.24 -78.93,-5.32 -78.48,-5.32 C-77.97,-5.32 -77.48,-5.25 -77.04,-5.11 C-76.59,-4.98 -76.25,-4.84 -76.01,-4.69 C-76.01,-4.69 -75.45,-6.23 -75.45,-6.23 C-75.53,-6.27 -75.65,-6.34 -75.81,-6.43 C-75.99,-6.52 -76.2,-6.6 -76.46,-6.68 C-76.72,-6.76 -77.03,-6.83 -77.37,-6.9 C-77.73,-6.96 -78.12,-7 -78.54,-7 C-79.26,-7 -79.92,-6.88 -80.54,-6.64 C-81.16,-6.4 -81.7,-6.04 -82.16,-5.58 C-82.62,-5.11 -82.98,-4.55 -83.25,-3.88 C-83.51,-3.21 -83.64,-2.44 -83.64,-1.57 C-83.64,-0.7 -83.53,0.07 -83.3,0.74 C-83.07,1.41 -82.74,1.98 -82.31,2.45 C-81.88,2.91 -81.36,3.26 -80.73,3.5 C-80.12,3.74 -79.41,3.86 -78.63,3.86 C-78.24,3.86 -77.86,3.84 -77.51,3.8z M-69.26,-4.1 C-69.35,-4.13 -69.47,-4.16 -69.62,-4.2 C-69.77,-4.23 -69.93,-4.26 -70.08,-4.29 C-70.25,-4.31 -70.41,-4.33 -70.56,-4.35 C-70.73,-4.36 -70.86,-4.37 -70.98,-4.37 C-71.63,-4.37 -72.21,-4.31 -72.73,-4.2 C-73.26,-4.08 -73.7,-3.96 -74.04,-3.83 C-74.04,-3.83 -74.04,3.64 -74.04,3.64 C-74.04,3.64 -72.23,3.64 -72.23,3.64 C-72.23,3.64 -72.23,-2.65 -72.23,-2.65 C-72.14,-2.68 -71.98,-2.71 -71.76,-2.75 C-71.53,-2.79 -71.32,-2.81 -71.12,-2.81 C-70.77,-2.81 -70.46,-2.78 -70.2,-2.73 C-69.93,-2.67 -69.72,-2.62 -69.57,-2.57 C-69.57,-2.57 -69.26,-4.1 -69.26,-4.1z M-68.19,1.38 C-68.04,1.88 -67.79,2.31 -67.46,2.67 C-67.13,3.04 -66.71,3.32 -66.2,3.53 C-65.69,3.73 -65.09,3.83 -64.4,3.83 C-64.13,3.83 -63.87,3.82 -63.6,3.79 C-63.35,3.76 -63.1,3.72 -62.88,3.68 C-62.65,3.63 -62.45,3.58 -62.28,3.53 C-62.1,3.47 -61.97,3.42 -61.86,3.37 C-61.86,3.37 -62.1,1.88 -62.1,1.88 C-62.31,1.97 -62.6,2.06 -62.97,2.14 C-63.33,2.22 -63.74,2.26 -64.17,2.26 C-64.92,2.26 -65.5,2.09 -65.89,1.74 C-66.29,1.4 -66.51,0.91 -66.56,0.28 C-66.56,0.28 -61.38,0.28 -61.38,0.28 C-61.38,0.18 -61.37,0.07 -61.36,-0.06 C-61.36,-0.18 -61.35,-0.3 -61.35,-0.4 C-61.35,-1.73 -61.66,-2.73 -62.26,-3.4 C-62.87,-4.07 -63.71,-4.4 -64.79,-4.4 C-65.25,-4.4 -65.7,-4.31 -66.14,-4.14 C-66.58,-3.96 -66.97,-3.7 -67.31,-3.36 C-67.65,-3.01 -67.92,-2.58 -68.13,-2.06 C-68.33,-1.54 -68.43,-0.94 -68.43,-0.25 C-68.43,0.34 -68.36,0.89 -68.19,1.38z M-66.54,-1.06 C-66.51,-1.29 -66.46,-1.51 -66.38,-1.73 C-66.3,-1.95 -66.19,-2.15 -66.04,-2.32 C-65.9,-2.49 -65.72,-2.62 -65.51,-2.73 C-65.3,-2.83 -65.06,-2.89 -64.77,-2.89 C-64.5,-2.89 -64.27,-2.84 -64.08,-2.74 C-63.88,-2.65 -63.72,-2.52 -63.58,-2.35 C-63.45,-2.19 -63.35,-1.99 -63.27,-1.77 C-63.21,-1.54 -63.17,-1.31 -63.17,-1.06 C-63.17,-1.06 -66.54,-1.06 -66.54,-1.06z M-57.77,2.12 C-58.04,1.95 -58.18,1.65 -58.18,1.22 C-58.18,1 -58.13,0.82 -58.03,0.68 C-57.93,0.53 -57.79,0.42 -57.63,0.34 C-57.46,0.26 -57.28,0.2 -57.07,0.17 C-56.87,0.14 -56.67,0.13 -56.46,0.13 C-56.24,0.13 -56.03,0.14 -55.83,0.17 C-55.65,0.2 -55.5,0.23 -55.4,0.26 C-55.4,0.26 -55.4,2.27 -55.4,2.27 C-55.69,2.33 -56.12,2.36 -56.67,2.36 C-57.14,2.36 -57.5,2.28 -57.77,2.12z M-58.24,-4.28 C-58.68,-4.2 -59.01,-4.12 -59.24,-4.04 C-59.24,-4.04 -59.02,-2.57 -59.02,-2.57 C-58.8,-2.65 -58.51,-2.72 -58.16,-2.78 C-57.81,-2.84 -57.43,-2.87 -57.01,-2.87 C-56.7,-2.87 -56.44,-2.83 -56.23,-2.75 C-56.03,-2.67 -55.86,-2.56 -55.74,-2.41 C-55.61,-2.27 -55.53,-2.1 -55.47,-1.91 C-55.43,-1.72 -55.4,-1.52 -55.4,-1.31 C-55.4,-1.31 -55.4,-1.01 -55.4,-1.01 C-55.65,-1.07 -55.89,-1.11 -56.1,-1.14 C-56.33,-1.16 -56.54,-1.18 -56.73,-1.18 C-57.17,-1.18 -57.58,-1.13 -57.97,-1.05 C-58.37,-0.96 -58.72,-0.82 -59.02,-0.63 C-59.32,-0.43 -59.55,-0.18 -59.73,0.13 C-59.9,0.44 -59.99,0.82 -59.99,1.27 C-59.99,1.74 -59.91,2.13 -59.76,2.45 C-59.6,2.77 -59.39,3.03 -59.11,3.23 C-58.84,3.43 -58.51,3.58 -58.12,3.67 C-57.73,3.76 -57.3,3.8 -56.83,3.8 C-56.12,3.8 -55.48,3.76 -54.91,3.68 C-54.35,3.59 -53.93,3.52 -53.64,3.46 C-53.64,3.46 -53.64,-1.3 -53.64,-1.3 C-53.64,-1.76 -53.7,-2.18 -53.8,-2.56 C-53.91,-2.95 -54.08,-3.28 -54.33,-3.55 C-54.57,-3.82 -54.9,-4.03 -55.31,-4.18 C-55.72,-4.33 -56.22,-4.4 -56.83,-4.4 C-57.33,-4.4 -57.8,-4.36 -58.24,-4.28z M-51.52,0.52 C-51.52,1.04 -51.47,1.5 -51.38,1.91 C-51.29,2.31 -51.14,2.66 -50.92,2.94 C-50.7,3.23 -50.4,3.44 -50.02,3.59 C-49.65,3.74 -49.18,3.82 -48.62,3.82 C-48.16,3.82 -47.76,3.77 -47.42,3.68 C-47.08,3.58 -46.81,3.49 -46.6,3.4 C-46.6,3.4 -46.9,1.96 -46.9,1.96 C-47.05,2.02 -47.25,2.08 -47.5,2.15 C-47.76,2.22 -48.05,2.26 -48.38,2.26 C-48.86,2.26 -49.2,2.12 -49.4,1.85 C-49.6,1.58 -49.7,1.13 -49.7,0.5 C-49.7,0.5 -49.7,-2.69 -49.7,-2.69 C-49.7,-2.69 -46.91,-2.69 -46.91,-2.69 C-46.91,-2.69 -46.91,-4.21 -46.91,-4.21 C-46.91,-4.21 -49.7,-4.21 -49.7,-4.21 C-49.7,-4.21 -49.7,-6.58 -49.7,-6.58 C-49.7,-6.58 -51.52,-6.28 -51.52,-6.28 C-51.52,-6.28 -51.52,0.52 -51.52,0.52z M-45.35,1.38 C-45.19,1.88 -44.95,2.31 -44.62,2.67 C-44.29,3.04 -43.87,3.32 -43.36,3.53 C-42.85,3.73 -42.25,3.83 -41.56,3.83 C-41.29,3.83 -41.02,3.82 -40.76,3.79 C-40.5,3.76 -40.26,3.72 -40.03,3.68 C-39.81,3.63 -39.61,3.58 -39.43,3.53 C-39.26,3.47 -39.12,3.42 -39.02,3.37 C-39.02,3.37 -39.26,1.88 -39.26,1.88 C-39.47,1.97 -39.76,2.06 -40.12,2.14 C-40.49,2.22 -40.89,2.26 -41.33,2.26 C-42.08,2.26 -42.65,2.09 -43.05,1.74 C-43.44,1.4 -43.67,0.91 -43.72,0.28 C-43.72,0.28 -38.54,0.28 -38.54,0.28 C-38.53,0.18 -38.52,0.07 -38.52,-0.06 C-38.51,-0.18 -38.51,-0.3 -38.51,-0.4 C-38.51,-1.73 -38.81,-2.73 -39.42,-3.4 C-40.02,-4.07 -40.87,-4.4 -41.95,-4.4 C-42.41,-4.4 -42.86,-4.31 -43.3,-4.14 C-43.74,-3.96 -44.13,-3.7 -44.47,-3.36 C-44.81,-3.01 -45.08,-2.58 -45.28,-2.06 C-45.49,-1.54 -45.59,-0.94 -45.59,-0.25 C-45.59,0.34 -45.51,0.89 -45.35,1.38z M-43.7,-1.06 C-43.67,-1.29 -43.62,-1.51 -43.54,-1.73 C-43.46,-1.95 -43.34,-2.15 -43.2,-2.32 C-43.05,-2.49 -42.88,-2.62 -42.67,-2.73 C-42.46,-2.83 -42.21,-2.89 -41.93,-2.89 C-41.66,-2.89 -41.43,-2.84 -41.23,-2.74 C-41.04,-2.65 -40.87,-2.52 -40.74,-2.35 C-40.6,-2.19 -40.5,-1.99 -40.43,-1.77 C-40.36,-1.54 -40.33,-1.31 -40.33,-1.06 C-40.33,-1.06 -43.7,-1.06 -43.7,-1.06z M-27.72,-6.76 C-27.72,-6.76 -29.63,-6.76 -29.63,-6.76 C-29.63,-6.76 -29.63,0.1 -29.63,0.1 C-29.63,0.88 -29.78,1.43 -30.06,1.75 C-30.36,2.07 -30.82,2.23 -31.46,2.23 C-31.84,2.23 -32.21,2.15 -32.58,2 C-32.94,1.84 -33.25,1.68 -33.5,1.51 C-33.5,1.51 -34.17,2.99 -34.17,2.99 C-33.92,3.2 -33.54,3.4 -33.06,3.59 C-32.57,3.77 -32,3.86 -31.34,3.86 C-30.63,3.86 -30.04,3.77 -29.58,3.58 C-29.11,3.39 -28.74,3.13 -28.47,2.8 C-28.19,2.47 -28,2.08 -27.89,1.64 C-27.78,1.2 -27.72,0.73 -27.72,0.22 C-27.72,0.22 -27.72,-6.76 -27.72,-6.76z M-23.76,-4.21 C-23.76,-4.21 -25.58,-4.21 -25.58,-4.21 C-25.58,-4.21 -25.58,3.64 -25.58,3.64 C-25.58,3.64 -23.76,3.64 -23.76,3.64 C-23.76,3.64 -23.76,-4.21 -23.76,-4.21z M-23.9,-7.33 C-24.12,-7.53 -24.38,-7.63 -24.68,-7.63 C-24.99,-7.63 -25.26,-7.53 -25.47,-7.33 C-25.7,-7.13 -25.8,-6.85 -25.8,-6.5 C-25.8,-6.16 -25.7,-5.89 -25.47,-5.69 C-25.26,-5.49 -24.99,-5.39 -24.68,-5.39 C-24.38,-5.39 -24.12,-5.49 -23.9,-5.69 C-23.68,-5.89 -23.57,-6.16 -23.57,-6.5 C-23.57,-6.85 -23.68,-7.13 -23.9,-7.33z M-16.67,-4.1 C-16.76,-4.13 -16.88,-4.16 -17.03,-4.2 C-17.18,-4.23 -17.34,-4.26 -17.5,-4.29 C-17.66,-4.31 -17.82,-4.33 -17.98,-4.35 C-18.14,-4.36 -18.28,-4.37 -18.4,-4.37 C-19.04,-4.37 -19.62,-4.31 -20.14,-4.2 C-20.67,-4.08 -21.11,-3.96 -21.46,-3.83 C-21.46,-3.83 -21.46,3.64 -21.46,3.64 C-21.46,3.64 -19.64,3.64 -19.64,3.64 C-19.64,3.64 -19.64,-2.65 -19.64,-2.65 C-19.55,-2.68 -19.39,-2.71 -19.17,-2.75 C-18.94,-2.79 -18.73,-2.81 -18.53,-2.81 C-18.18,-2.81 -17.87,-2.78 -17.61,-2.73 C-17.34,-2.67 -17.14,-2.62 -16.99,-2.57 C-16.99,-2.57 -16.67,-4.1 -16.67,-4.1z M-13.75,2.12 C-14.02,1.95 -14.15,1.65 -14.15,1.22 C-14.15,1 -14.1,0.82 -14,0.68 C-13.9,0.53 -13.77,0.42 -13.6,0.34 C-13.44,0.26 -13.25,0.2 -13.05,0.17 C-12.84,0.14 -12.64,0.13 -12.44,0.13 C-12.21,0.13 -12,0.14 -11.81,0.17 C-11.62,0.2 -11.48,0.23 -11.38,0.26 C-11.38,0.26 -11.38,2.27 -11.38,2.27 C-11.67,2.33 -12.09,2.36 -12.65,2.36 C-13.11,2.36 -13.48,2.28 -13.75,2.12z M-14.21,-4.28 C-14.65,-4.2 -14.99,-4.12 -15.22,-4.04 C-15.22,-4.04 -14.99,-2.57 -14.99,-2.57 C-14.77,-2.65 -14.49,-2.72 -14.14,-2.78 C-13.79,-2.84 -13.4,-2.87 -12.98,-2.87 C-12.67,-2.87 -12.41,-2.83 -12.21,-2.75 C-12,-2.67 -11.84,-2.56 -11.71,-2.41 C-11.59,-2.27 -11.5,-2.1 -11.45,-1.91 C-11.4,-1.72 -11.38,-1.52 -11.38,-1.31 C-11.38,-1.31 -11.38,-1.01 -11.38,-1.01 C-11.63,-1.07 -11.86,-1.11 -12.08,-1.14 C-12.3,-1.16 -12.51,-1.18 -12.71,-1.18 C-13.14,-1.18 -13.55,-1.13 -13.95,-1.05 C-14.34,-0.96 -14.69,-0.82 -14.99,-0.63 C-15.29,-0.43 -15.53,-0.18 -15.7,0.13 C-15.88,0.44 -15.97,0.82 -15.97,1.27 C-15.97,1.74 -15.89,2.13 -15.73,2.45 C-15.58,2.77 -15.36,3.03 -15.09,3.23 C-14.81,3.43 -14.48,3.58 -14.09,3.67 C-13.7,3.76 -13.27,3.8 -12.8,3.8 C-12.09,3.8 -11.45,3.76 -10.89,3.68 C-10.32,3.59 -9.9,3.52 -9.62,3.46 C-9.62,3.46 -9.62,-1.3 -9.62,-1.3 C-9.62,-1.76 -9.67,-2.18 -9.78,-2.56 C-9.88,-2.95 -10.06,-3.28 -10.3,-3.55 C-10.55,-3.82 -10.88,-4.03 -11.29,-4.18 C-11.7,-4.33 -12.2,-4.4 -12.8,-4.4 C-13.3,-4.4 -13.77,-4.36 -14.21,-4.28z M-2.07,-4.21 C-2.07,-4.21 -3.89,-4.21 -3.89,-4.21 C-3.89,-4.21 -3.89,3.64 -3.89,3.64 C-3.89,3.64 -2.07,3.64 -2.07,3.64 C-2.07,3.64 -2.07,-4.21 -2.07,-4.21z M-2.21,-7.33 C-2.43,-7.53 -2.69,-7.63 -2.99,-7.63 C-3.3,-7.63 -3.57,-7.53 -3.78,-7.33 C-4.01,-7.13 -4.11,-6.85 -4.11,-6.5 C-4.11,-6.16 -4.01,-5.89 -3.78,-5.69 C-3.57,-5.49 -3.3,-5.39 -2.99,-5.39 C-2.69,-5.39 -2.43,-5.49 -2.21,-5.69 C-1.99,-5.89 -1.88,-6.16 -1.88,-6.5 C-1.88,-6.85 -1.99,-7.13 -2.21,-7.33z M0.92,2.18 C0.54,2.08 0.22,1.98 -0.05,1.87 C-0.05,1.87 -0.36,3.38 -0.36,3.38 C-0.2,3.45 0.1,3.55 0.52,3.66 C0.94,3.78 1.5,3.83 2.19,3.83 C3.21,3.83 4.01,3.64 4.56,3.26 C5.12,2.87 5.4,2.3 5.4,1.55 C5.4,1.2 5.35,0.9 5.26,0.65 C5.17,0.4 5.03,0.18 4.83,-0.01 C4.64,-0.21 4.39,-0.38 4.09,-0.54 C3.79,-0.69 3.42,-0.85 3,-1.01 C2.73,-1.1 2.52,-1.19 2.34,-1.27 C2.16,-1.36 2.01,-1.44 1.9,-1.53 C1.79,-1.61 1.71,-1.71 1.67,-1.81 C1.62,-1.91 1.6,-2.02 1.6,-2.15 C1.6,-2.41 1.71,-2.6 1.95,-2.73 C2.17,-2.85 2.47,-2.92 2.85,-2.92 C3.25,-2.92 3.61,-2.88 3.93,-2.8 C4.23,-2.73 4.49,-2.65 4.69,-2.56 C4.69,-2.56 5.02,-4.03 5.02,-4.03 C4.81,-4.11 4.5,-4.19 4.08,-4.27 C3.66,-4.36 3.21,-4.4 2.76,-4.4 C1.84,-4.4 1.12,-4.19 0.6,-3.78 C0.06,-3.36 -0.2,-2.8 -0.2,-2.08 C-0.2,-1.71 -0.14,-1.39 -0.03,-1.14 C0.09,-0.88 0.24,-0.67 0.45,-0.49 C0.64,-0.31 0.88,-0.15 1.16,-0.01 C1.43,0.12 1.74,0.25 2.07,0.37 C2.61,0.57 2.99,0.75 3.23,0.92 C3.46,1.09 3.58,1.31 3.58,1.57 C3.58,1.85 3.47,2.05 3.25,2.16 C3.03,2.28 2.68,2.33 2.2,2.33 C1.72,2.33 1.29,2.28 0.92,2.18z M7.77,2.18 C7.4,2.08 7.07,1.98 6.8,1.87 C6.8,1.87 6.49,3.38 6.49,3.38 C6.66,3.45 6.95,3.55 7.38,3.66 C7.8,3.78 8.35,3.83 9.04,3.83 C10.07,3.83 10.86,3.64 11.42,3.26 C11.97,2.87 12.25,2.3 12.25,1.55 C12.25,1.2 12.21,0.9 12.12,0.65 C12.03,0.4 11.88,0.18 11.69,-0.01 C11.49,-0.21 11.25,-0.38 10.95,-0.54 C10.65,-0.69 10.28,-0.85 9.85,-1.01 C9.59,-1.1 9.37,-1.19 9.19,-1.27 C9.01,-1.36 8.86,-1.44 8.76,-1.53 C8.64,-1.61 8.57,-1.71 8.52,-1.81 C8.48,-1.91 8.46,-2.02 8.46,-2.15 C8.46,-2.41 8.57,-2.6 8.8,-2.73 C9.03,-2.85 9.33,-2.92 9.7,-2.92 C10.11,-2.92 10.47,-2.88 10.78,-2.8 C11.09,-2.73 11.34,-2.65 11.55,-2.56 C11.55,-2.56 11.88,-4.03 11.88,-4.03 C11.67,-4.11 11.35,-4.19 10.93,-4.27 C10.51,-4.36 10.07,-4.4 9.61,-4.4 C8.7,-4.4 7.98,-4.19 7.45,-3.78 C6.92,-3.36 6.65,-2.8 6.65,-2.08 C6.65,-1.71 6.71,-1.39 6.83,-1.14 C6.94,-0.88 7.1,-0.67 7.3,-0.49 C7.5,-0.31 7.74,-0.15 8.01,-0.01 C8.29,0.12 8.59,0.25 8.92,0.37 C9.46,0.57 9.85,0.75 10.08,0.92 C10.32,1.09 10.44,1.31 10.44,1.57 C10.44,1.85 10.32,2.05 10.11,2.16 C9.88,2.28 9.54,2.33 9.06,2.33 C8.58,2.33 8.15,2.28 7.77,2.18z M20.38,-4.21 C20.38,-4.21 18.57,-4.21 18.57,-4.21 C18.57,-4.21 18.57,2.14 18.57,2.14 C18.45,2.17 18.26,2.19 18.02,2.21 C17.77,2.23 17.54,2.24 17.32,2.24 C16.71,2.24 16.28,2.06 16.04,1.7 C15.79,1.34 15.67,0.74 15.67,-0.1 C15.67,-0.1 15.67,-4.21 15.67,-4.21 C15.67,-4.21 13.86,-4.21 13.86,-4.21 C13.86,-4.21 13.86,0.19 13.86,0.19 C13.86,0.72 13.91,1.21 14.02,1.65 C14.13,2.1 14.31,2.48 14.57,2.8 C14.82,3.12 15.16,3.37 15.59,3.55 C16.01,3.73 16.54,3.82 17.17,3.82 C17.84,3.82 18.45,3.77 19.02,3.68 C19.57,3.58 20.03,3.49 20.38,3.4 C20.38,3.4 20.38,-4.21 20.38,-4.21z M22.49,1.38 C22.65,1.88 22.9,2.31 23.23,2.67 C23.56,3.04 23.98,3.32 24.49,3.53 C25,3.73 25.6,3.83 26.29,3.83 C26.56,3.83 26.82,3.82 27.09,3.79 C27.34,3.76 27.59,3.72 27.81,3.68 C28.04,3.63 28.24,3.58 28.41,3.53 C28.59,3.47 28.72,3.42 28.83,3.37 C28.83,3.37 28.59,1.88 28.59,1.88 C28.38,1.97 28.09,2.06 27.72,2.14 C27.36,2.22 26.95,2.26 26.52,2.26 C25.77,2.26 25.19,2.09 24.8,1.74 C24.4,1.4 24.18,0.91 24.13,0.28 C24.13,0.28 29.31,0.28 29.31,0.28 C29.31,0.18 29.32,0.07 29.33,-0.06 C29.33,-0.18 29.34,-0.3 29.34,-0.4 C29.34,-1.73 29.03,-2.73 28.43,-3.4 C27.82,-4.07 26.98,-4.4 25.9,-4.4 C25.44,-4.4 24.99,-4.31 24.55,-4.14 C24.11,-3.96 23.72,-3.7 23.38,-3.36 C23.04,-3.01 22.77,-2.58 22.56,-2.06 C22.36,-1.54 22.25,-0.94 22.25,-0.25 C22.25,0.34 22.33,0.89 22.49,1.38z M24.14,-1.06 C24.17,-1.29 24.23,-1.51 24.31,-1.73 C24.39,-1.95 24.5,-2.15 24.65,-2.32 C24.79,-2.49 24.97,-2.62 25.18,-2.73 C25.39,-2.83 25.63,-2.89 25.92,-2.89 C26.19,-2.89 26.42,-2.84 26.61,-2.74 C26.81,-2.65 26.97,-2.52 27.11,-2.35 C27.24,-2.19 27.34,-1.99 27.42,-1.77 C27.48,-1.54 27.52,-1.31 27.52,-1.06 C27.52,-1.06 24.14,-1.06 24.14,-1.06z" style="display: inherit;" fill="#2F445D"></path></g></g><g transform="matrix(1,0,0,1,490,283.5)" opacity="1" style="display: block;"><g opacity="1" transform="matrix(1,0,0,1,0,0)"><path fill="#F6F9FB" fill-opacity="1" d=" M32,0 C32,0 32,0 32,0 C32,2.4835500717163086 29.983549118041992,4.5 27.5,4.5 C27.5,4.5 -27.5,4.5 -27.5,4.5 C-29.983549118041992,4.5 -32,2.4835500717163086 -32,0 C-32,0 -32,0 -32,0 C-32,-2.4835500717163086 -29.983549118041992,-4.5 -27.5,-4.5 C-27.5,-4.5 27.5,-4.5 27.5,-4.5 C29.983549118041992,-4.5 32,-2.4835500717163086 32,0z"></path></g></g><g transform="matrix(1,0,0,1,559.5,310.5)" opacity="1" style="display: block;"><g opacity="1" transform="matrix(1,0,0,1,0,0)"><path fill="#F6F9FB" fill-opacity="1" d=" M101.5,-8.5 C101.5,-8.5 101.5,8.5 101.5,8.5 C101.5,11.259499549865723 99.2594985961914,13.5 96.5,13.5 C96.5,13.5 -96.5,13.5 -96.5,13.5 C-99.2594985961914,13.5 -101.5,11.259499549865723 -101.5,8.5 C-101.5,8.5 -101.5,-8.5 -101.5,-8.5 C-101.5,-11.259499549865723 -99.2594985961914,-13.5 -96.5,-13.5 C-96.5,-13.5 96.5,-13.5 96.5,-13.5 C99.2594985961914,-13.5 101.5,-11.259499549865723 101.5,-8.5z"></path></g></g><g transform="matrix(1,0,0,1,559.5,310.5)" opacity="1" style="display: block;"><g opacity="1" transform="matrix(1,0,0,1,0,0)"><path fill="#E6EBEF" fill-opacity="1" d=" M88.5,0 C88.5,0 88.5,0 88.5,0 C88.5,2.4835500717163086 86.48355102539062,4.5 84,4.5 C84,4.5 -84,4.5 -84,4.5 C-86.48355102539062,4.5 -88.5,2.4835500717163086 -88.5,0 C-88.5,0 -88.5,0 -88.5,0 C-88.5,-2.4835500717163086 -86.48355102539062,-4.5 -84,-4.5 C-84,-4.5 84,-4.5 84,-4.5 C86.48355102539062,-4.5 88.5,-2.4835500717163086 88.5,0z"></path></g></g><g transform="matrix(1,0,0,1,490,343.5)" opacity="1" style="display: block;"><g opacity="1" transform="matrix(1,0,0,1,0,0)"><path fill="#F6F9FB" fill-opacity="1" d=" M32,0 C32,0 32,0 32,0 C32,2.4835500717163086 29.983549118041992,4.5 27.5,4.5 C27.5,4.5 -27.5,4.5 -27.5,4.5 C-29.983549118041992,4.5 -32,2.4835500717163086 -32,0 C-32,0 -32,0 -32,0 C-32,-2.4835500717163086 -29.983549118041992,-4.5 -27.5,-4.5 C-27.5,-4.5 27.5,-4.5 27.5,-4.5 C29.983549118041992,-4.5 32,-2.4835500717163086 32,0z"></path></g></g><g transform="matrix(1,0,0,1,559.5,370.5)" opacity="1" style="display: block;"><g opacity="1" transform="matrix(1,0,0,1,0,0)"><path fill="#F6F9FB" fill-opacity="1" d=" M101.5,-8.5 C101.5,-8.5 101.5,8.5 101.5,8.5 C101.5,11.259499549865723 99.2594985961914,13.5 96.5,13.5 C96.5,13.5 -96.5,13.5 -96.5,13.5 C-99.2594985961914,13.5 -101.5,11.259499549865723 -101.5,8.5 C-101.5,8.5 -101.5,-8.5 -101.5,-8.5 C-101.5,-11.259499549865723 -99.2594985961914,-13.5 -96.5,-13.5 C-96.5,-13.5 96.5,-13.5 96.5,-13.5 C99.2594985961914,-13.5 101.5,-11.259499549865723 101.5,-8.5z"></path></g></g><g transform="matrix(1,0,0,1,559.5,370.5)" opacity="1" style="display: block;"><g opacity="1" transform="matrix(1,0,0,1,0,0)"><path fill="#E6EBEF" fill-opacity="1" d=" M88.5,0 C88.5,0 88.5,0 88.5,0 C88.5,2.4835500717163086 86.48355102539062,4.5 84,4.5 C84,4.5 -84,4.5 -84,4.5 C-86.48355102539062,4.5 -88.5,2.4835500717163086 -88.5,0 C-88.5,0 -88.5,0 -88.5,0 C-88.5,-2.4835500717163086 -86.48355102539062,-4.5 -84,-4.5 C-84,-4.5 84,-4.5 84,-4.5 C86.48355102539062,-4.5 88.5,-2.4835500717163086 88.5,0z"></path></g></g><g transform="matrix(1,0,0,1,559,425)" opacity="1" style="display: block;"><g opacity="1" transform="matrix(1,0,0,1,0,0)"><path fill="#F6F9FB" fill-opacity="1" d=" M102,-16 C102,-16 102,16 102,16 C102,18.75950050354004 99.7594985961914,21 97,21 C97,21 -97,21 -97,21 C-99.7594985961914,21 -102,18.75950050354004 -102,16 C-102,16 -102,-16 -102,-16 C-102,-18.75950050354004 -99.7594985961914,-21 -97,-21 C-97,-21 97,-21 97,-21 C99.7594985961914,-21 102,-18.75950050354004 102,-16z"></path></g></g><g transform="matrix(1,0,0,1,571.5,471.5)" opacity="1" style="display: block;"><g opacity="1" transform="matrix(1,0,0,1,0,0)"><path fill="#F8E6E5" fill-opacity="1" d=" M31.5,-6.5 C31.5,-6.5 31.5,6.5 31.5,6.5 C31.5,9.259499549865723 29.25950050354004,11.5 26.5,11.5 C26.5,11.5 -26.5,11.5 -26.5,11.5 C-29.25950050354004,11.5 -31.5,9.259499549865723 -31.5,6.5 C-31.5,6.5 -31.5,-6.5 -31.5,-6.5 C-31.5,-9.259499549865723 -29.25950050354004,-11.5 -26.5,-11.5 C-26.5,-11.5 26.5,-11.5 26.5,-11.5 C29.25950050354004,-11.5 31.5,-9.259499549865723 31.5,-6.5z"></path></g></g><g fill="#2F445D" font-size="11" font-family="Ubuntu" font-style="normal" font-weight="500" aria-label="Close" transform="matrix(1,0,0,1,571.5,471.5)" opacity="1" style="display: block;"><path stroke-linecap="butt" stroke-linejoin="round" stroke-miterlimit="4" d=" M-9.37,3.15 C-9.12,3.12 -8.89,3.07 -8.68,3.02 C-8.48,2.96 -8.3,2.91 -8.15,2.85 C-8,2.79 -7.88,2.73 -7.79,2.67 C-7.79,2.67 -8.16,1.54 -8.16,1.54 C-8.33,1.63 -8.57,1.72 -8.88,1.82 C-9.19,1.92 -9.59,1.97 -10.08,1.97 C-10.49,1.97 -10.84,1.9 -11.13,1.77 C-11.43,1.63 -11.67,1.44 -11.86,1.19 C-12.05,0.95 -12.19,0.66 -12.28,0.32 C-12.38,-0.02 -12.42,-0.39 -12.42,-0.79 C-12.42,-1.25 -12.36,-1.65 -12.25,-1.99 C-12.13,-2.34 -11.96,-2.62 -11.76,-2.85 C-11.55,-3.08 -11.3,-3.25 -11.01,-3.36 C-10.73,-3.47 -10.42,-3.53 -10.09,-3.53 C-9.71,-3.53 -9.35,-3.48 -9.03,-3.38 C-8.7,-3.28 -8.45,-3.18 -8.27,-3.07 C-8.27,-3.07 -7.87,-4.2 -7.87,-4.2 C-7.92,-4.23 -8.01,-4.28 -8.13,-4.35 C-8.26,-4.41 -8.41,-4.47 -8.6,-4.53 C-8.79,-4.59 -9.02,-4.64 -9.28,-4.69 C-9.53,-4.74 -9.82,-4.76 -10.13,-4.76 C-10.65,-4.76 -11.14,-4.68 -11.6,-4.5 C-12.05,-4.32 -12.45,-4.06 -12.78,-3.72 C-13.12,-3.38 -13.39,-2.97 -13.58,-2.48 C-13.78,-1.98 -13.87,-1.42 -13.87,-0.78 C-13.87,-0.14 -13.79,0.42 -13.62,0.91 C-13.45,1.4 -13.21,1.82 -12.89,2.16 C-12.58,2.5 -12.19,2.76 -11.74,2.94 C-11.28,3.11 -10.77,3.2 -10.2,3.2 C-9.91,3.2 -9.63,3.18 -9.37,3.15z M-4.64,2.05 C-4.82,2.02 -4.96,1.99 -5.08,1.95 C-5.19,1.91 -5.28,1.85 -5.35,1.78 C-5.41,1.7 -5.46,1.61 -5.49,1.5 C-5.51,1.39 -5.52,1.25 -5.52,1.09 C-5.52,1.09 -5.52,-5.5 -5.52,-5.5 C-5.52,-5.5 -6.85,-5.28 -6.85,-5.28 C-6.85,-5.28 -6.85,1.34 -6.85,1.34 C-6.85,1.63 -6.82,1.88 -6.76,2.11 C-6.7,2.33 -6.59,2.52 -6.44,2.67 C-6.28,2.82 -6.08,2.93 -5.82,3.01 C-5.56,3.09 -5.23,3.14 -4.83,3.15 C-4.83,3.15 -4.64,2.05 -4.64,2.05z M1.43,-1.08 C1.3,-1.45 1.11,-1.77 0.87,-2.04 C0.62,-2.3 0.33,-2.5 -0.01,-2.65 C-0.35,-2.79 -0.72,-2.86 -1.12,-2.86 C-1.53,-2.86 -1.9,-2.79 -2.24,-2.65 C-2.57,-2.5 -2.86,-2.3 -3.11,-2.04 C-3.36,-1.77 -3.55,-1.45 -3.68,-1.08 C-3.82,-0.71 -3.89,-0.3 -3.89,0.15 C-3.89,0.61 -3.82,1.02 -3.68,1.4 C-3.55,1.77 -3.36,2.09 -3.12,2.35 C-2.87,2.62 -2.58,2.82 -2.25,2.97 C-1.91,3.12 -1.53,3.19 -1.12,3.19 C-0.71,3.19 -0.34,3.12 0,2.97 C0.34,2.82 0.64,2.62 0.88,2.35 C1.12,2.09 1.31,1.77 1.44,1.4 C1.57,1.02 1.64,0.61 1.64,0.15 C1.64,-0.3 1.57,-0.71 1.43,-1.08z M-0.1,1.53 C-0.34,1.87 -0.68,2.03 -1.12,2.03 C-1.56,2.03 -1.91,1.87 -2.15,1.53 C-2.4,1.19 -2.52,0.73 -2.52,0.15 C-2.52,-0.42 -2.4,-0.87 -2.15,-1.2 C-1.91,-1.54 -1.56,-1.71 -1.12,-1.71 C-0.68,-1.71 -0.34,-1.54 -0.1,-1.2 C0.15,-0.87 0.27,-0.42 0.27,0.15 C0.27,0.73 0.15,1.19 -0.1,1.53z M3.51,1.97 C3.24,1.9 3,1.82 2.8,1.74 C2.8,1.74 2.57,2.85 2.57,2.85 C2.7,2.9 2.91,2.97 3.22,3.05 C3.53,3.14 3.94,3.18 4.44,3.18 C5.2,3.18 5.78,3.04 6.19,2.76 C6.59,2.47 6.8,2.06 6.8,1.51 C6.8,1.25 6.76,1.03 6.7,0.85 C6.63,0.66 6.53,0.5 6.38,0.36 C6.24,0.21 6.06,0.09 5.84,-0.03 C5.62,-0.14 5.35,-0.26 5.04,-0.37 C4.85,-0.44 4.68,-0.5 4.55,-0.57 C4.42,-0.63 4.31,-0.69 4.23,-0.75 C4.15,-0.82 4.1,-0.88 4.06,-0.96 C4.03,-1.03 4.01,-1.11 4.01,-1.21 C4.01,-1.4 4.1,-1.54 4.27,-1.63 C4.43,-1.73 4.65,-1.77 4.93,-1.77 C5.23,-1.77 5.49,-1.74 5.72,-1.69 C5.95,-1.63 6.13,-1.57 6.28,-1.51 C6.28,-1.51 6.52,-2.59 6.52,-2.59 C6.37,-2.64 6.14,-2.7 5.83,-2.77 C5.52,-2.83 5.2,-2.86 4.86,-2.86 C4.19,-2.86 3.66,-2.71 3.28,-2.4 C2.89,-2.1 2.69,-1.68 2.69,-1.16 C2.69,-0.88 2.74,-0.65 2.82,-0.47 C2.9,-0.28 3.02,-0.12 3.17,0.01 C3.31,0.14 3.49,0.26 3.69,0.36 C3.89,0.46 4.11,0.55 4.35,0.64 C4.75,0.78 5.03,0.92 5.21,1.04 C5.38,1.17 5.46,1.33 5.46,1.52 C5.46,1.72 5.38,1.87 5.22,1.95 C5.06,2.04 4.8,2.08 4.45,2.08 C4.1,2.08 3.79,2.04 3.51,1.97z M7.9,1.38 C8.01,1.74 8.19,2.06 8.43,2.33 C8.68,2.59 8.98,2.8 9.36,2.95 C9.73,3.1 10.17,3.18 10.68,3.18 C10.88,3.18 11.07,3.17 11.26,3.15 C11.45,3.12 11.63,3.1 11.8,3.06 C11.96,3.03 12.11,2.99 12.24,2.95 C12.36,2.91 12.46,2.87 12.54,2.84 C12.54,2.84 12.36,1.75 12.36,1.75 C12.21,1.81 12,1.88 11.73,1.94 C11.46,1.99 11.17,2.02 10.84,2.02 C10.29,2.02 9.87,1.9 9.58,1.64 C9.29,1.39 9.13,1.03 9.09,0.57 C9.09,0.57 12.89,0.57 12.89,0.57 C12.9,0.5 12.9,0.42 12.91,0.32 C12.91,0.23 12.91,0.15 12.91,0.08 C12.91,-0.9 12.69,-1.63 12.25,-2.12 C11.8,-2.61 11.18,-2.86 10.39,-2.86 C10.06,-2.86 9.73,-2.8 9.4,-2.67 C9.08,-2.54 8.79,-2.35 8.54,-2.1 C8.3,-1.84 8.1,-1.53 7.95,-1.14 C7.8,-0.76 7.72,-0.32 7.72,0.19 C7.72,0.62 7.78,1.02 7.9,1.38z M9.11,-0.41 C9.13,-0.58 9.17,-0.74 9.23,-0.9 C9.29,-1.06 9.37,-1.21 9.47,-1.33 C9.58,-1.46 9.71,-1.56 9.86,-1.63 C10.02,-1.71 10.2,-1.75 10.4,-1.75 C10.6,-1.75 10.77,-1.71 10.92,-1.64 C11.06,-1.57 11.18,-1.48 11.28,-1.36 C11.38,-1.24 11.45,-1.09 11.5,-0.93 C11.56,-0.76 11.58,-0.59 11.58,-0.41 C11.58,-0.41 9.11,-0.41 9.11,-0.41z" style="display: inherit;" fill="#2F445D"></path></g><g transform="matrix(1,0,0,1,649.5,471.5)" opacity="1" style="display: block;"><g opacity="1" transform="matrix(1,0,0,1,0,0)"><path fill="#CFEAE9" fill-opacity="1" d=" M31.5,-6.5 C31.5,-6.5 31.5,6.5 31.5,6.5 C31.5,9.259499549865723 29.25950050354004,11.5 26.5,11.5 C26.5,11.5 -26.5,11.5 -26.5,11.5 C-29.25950050354004,11.5 -31.5,9.259499549865723 -31.5,6.5 C-31.5,6.5 -31.5,-6.5 -31.5,-6.5 C-31.5,-9.259499549865723 -29.25950050354004,-11.5 -26.5,-11.5 C-26.5,-11.5 26.5,-11.5 26.5,-11.5 C29.25950050354004,-11.5 31.5,-9.259499549865723 31.5,-6.5z"></path></g></g><g fill="#2F445D" font-size="11" font-family="Ubuntu" font-style="normal" font-weight="500" aria-label="Create" transform="matrix(1,0,0,1,651,471.5)" opacity="1" style="display: block;"><path stroke-linecap="butt" stroke-linejoin="round" stroke-miterlimit="4" d=" M-12.87,3.15 C-12.62,3.12 -12.39,3.07 -12.18,3.02 C-11.98,2.96 -11.8,2.91 -11.65,2.85 C-11.5,2.79 -11.38,2.73 -11.29,2.67 C-11.29,2.67 -11.66,1.54 -11.66,1.54 C-11.83,1.63 -12.07,1.72 -12.38,1.82 C-12.69,1.92 -13.09,1.97 -13.58,1.97 C-13.99,1.97 -14.34,1.9 -14.63,1.77 C-14.93,1.63 -15.17,1.44 -15.36,1.19 C-15.55,0.95 -15.69,0.66 -15.78,0.32 C-15.88,-0.02 -15.92,-0.39 -15.92,-0.79 C-15.92,-1.25 -15.86,-1.65 -15.75,-1.99 C-15.63,-2.34 -15.46,-2.62 -15.26,-2.85 C-15.05,-3.08 -14.8,-3.25 -14.51,-3.36 C-14.23,-3.47 -13.92,-3.53 -13.59,-3.53 C-13.21,-3.53 -12.85,-3.48 -12.53,-3.38 C-12.2,-3.28 -11.95,-3.18 -11.77,-3.07 C-11.77,-3.07 -11.37,-4.2 -11.37,-4.2 C-11.42,-4.23 -11.51,-4.28 -11.63,-4.35 C-11.76,-4.41 -11.91,-4.47 -12.1,-4.53 C-12.29,-4.59 -12.52,-4.64 -12.78,-4.69 C-13.03,-4.74 -13.32,-4.76 -13.63,-4.76 C-14.15,-4.76 -14.64,-4.68 -15.1,-4.5 C-15.55,-4.32 -15.95,-4.06 -16.28,-3.72 C-16.62,-3.38 -16.89,-2.97 -17.08,-2.48 C-17.28,-1.98 -17.37,-1.42 -17.37,-0.78 C-17.37,-0.14 -17.29,0.42 -17.12,0.91 C-16.95,1.4 -16.71,1.82 -16.39,2.16 C-16.08,2.5 -15.69,2.76 -15.24,2.94 C-14.78,3.11 -14.27,3.2 -13.7,3.2 C-13.41,3.2 -13.13,3.18 -12.87,3.15z M-6.82,-2.64 C-6.89,-2.66 -6.98,-2.69 -7.09,-2.71 C-7.2,-2.74 -7.31,-2.76 -7.43,-2.78 C-7.55,-2.8 -7.66,-2.81 -7.78,-2.82 C-7.9,-2.83 -8,-2.84 -8.09,-2.84 C-8.56,-2.84 -8.99,-2.8 -9.37,-2.71 C-9.76,-2.63 -10.08,-2.54 -10.33,-2.44 C-10.33,-2.44 -10.33,3.04 -10.33,3.04 C-10.33,3.04 -9,3.04 -9,3.04 C-9,3.04 -9,-1.57 -9,-1.57 C-8.94,-1.6 -8.82,-1.62 -8.66,-1.65 C-8.49,-1.68 -8.33,-1.69 -8.19,-1.69 C-7.93,-1.69 -7.71,-1.67 -7.51,-1.63 C-7.32,-1.59 -7.17,-1.55 -7.06,-1.52 C-7.06,-1.52 -6.82,-2.64 -6.82,-2.64z M-6.04,1.38 C-5.93,1.74 -5.75,2.06 -5.5,2.33 C-5.26,2.59 -4.95,2.8 -4.58,2.95 C-4.21,3.1 -3.77,3.18 -3.26,3.18 C-3.06,3.18 -2.87,3.17 -2.68,3.15 C-2.49,3.12 -2.31,3.1 -2.14,3.06 C-1.98,3.03 -1.83,2.99 -1.7,2.95 C-1.58,2.91 -1.47,2.87 -1.4,2.84 C-1.4,2.84 -1.58,1.75 -1.58,1.75 C-1.73,1.81 -1.94,1.88 -2.21,1.94 C-2.48,1.99 -2.77,2.02 -3.1,2.02 C-3.65,2.02 -4.06,1.9 -4.35,1.64 C-4.64,1.39 -4.81,1.03 -4.84,0.57 C-4.84,0.57 -1.05,0.57 -1.05,0.57 C-1.04,0.5 -1.04,0.42 -1.03,0.32 C-1.03,0.23 -1.03,0.15 -1.03,0.08 C-1.03,-0.9 -1.25,-1.63 -1.69,-2.12 C-2.14,-2.61 -2.75,-2.86 -3.55,-2.86 C-3.88,-2.86 -4.21,-2.8 -4.54,-2.67 C-4.86,-2.54 -5.14,-2.35 -5.39,-2.1 C-5.64,-1.84 -5.84,-1.53 -5.99,-1.14 C-6.14,-0.76 -6.22,-0.32 -6.22,0.19 C-6.22,0.62 -6.16,1.02 -6.04,1.38z M-4.83,-0.41 C-4.81,-0.58 -4.77,-0.74 -4.71,-0.9 C-4.65,-1.06 -4.57,-1.21 -4.46,-1.33 C-4.36,-1.46 -4.23,-1.56 -4.07,-1.63 C-3.92,-1.71 -3.74,-1.75 -3.54,-1.75 C-3.34,-1.75 -3.17,-1.71 -3.02,-1.64 C-2.88,-1.57 -2.76,-1.48 -2.66,-1.36 C-2.56,-1.24 -2.49,-1.09 -2.44,-0.93 C-2.38,-0.76 -2.36,-0.59 -2.36,-0.41 C-2.36,-0.41 -4.83,-0.41 -4.83,-0.41z M1.6,1.92 C1.4,1.8 1.3,1.58 1.3,1.26 C1.3,1.1 1.34,0.97 1.41,0.86 C1.49,0.76 1.59,0.67 1.71,0.62 C1.83,0.56 1.96,0.52 2.11,0.49 C2.26,0.47 2.41,0.46 2.56,0.46 C2.73,0.46 2.88,0.47 3.02,0.49 C3.16,0.52 3.27,0.54 3.34,0.56 C3.34,0.56 3.34,2.03 3.34,2.03 C3.13,2.08 2.82,2.1 2.4,2.1 C2.07,2.1 1.8,2.04 1.6,1.92z M1.26,-2.77 C0.94,-2.71 0.69,-2.65 0.52,-2.6 C0.52,-2.6 0.69,-1.52 0.69,-1.52 C0.85,-1.58 1.06,-1.63 1.32,-1.67 C1.57,-1.72 1.85,-1.74 2.16,-1.74 C2.39,-1.74 2.58,-1.71 2.73,-1.65 C2.88,-1.59 3,-1.51 3.09,-1.4 C3.18,-1.3 3.25,-1.17 3.28,-1.03 C3.32,-0.89 3.34,-0.75 3.34,-0.59 C3.34,-0.59 3.34,-0.37 3.34,-0.37 C3.16,-0.42 2.98,-0.45 2.82,-0.47 C2.66,-0.49 2.51,-0.5 2.36,-0.5 C2.05,-0.5 1.74,-0.46 1.45,-0.4 C1.16,-0.34 0.91,-0.24 0.69,-0.09 C0.47,0.05 0.29,0.23 0.17,0.46 C0.04,0.69 -0.03,0.97 -0.03,1.3 C-0.03,1.64 0.03,1.93 0.14,2.17 C0.26,2.4 0.42,2.59 0.62,2.74 C0.82,2.89 1.06,2.99 1.35,3.06 C1.63,3.12 1.95,3.16 2.29,3.16 C2.82,3.16 3.28,3.13 3.7,3.06 C4.11,3 4.42,2.95 4.63,2.9 C4.63,2.9 4.63,-0.58 4.63,-0.58 C4.63,-0.92 4.59,-1.23 4.51,-1.51 C4.43,-1.79 4.31,-2.04 4.13,-2.23 C3.95,-2.43 3.71,-2.59 3.41,-2.7 C3.11,-2.81 2.73,-2.86 2.29,-2.86 C1.93,-2.86 1.58,-2.83 1.26,-2.77z M6.19,0.75 C6.19,1.13 6.22,1.47 6.29,1.77 C6.35,2.06 6.47,2.32 6.63,2.52 C6.79,2.73 7.01,2.89 7.28,3 C7.56,3.11 7.9,3.17 8.31,3.17 C8.65,3.17 8.94,3.13 9.19,3.06 C9.44,2.99 9.64,2.93 9.8,2.86 C9.8,2.86 9.58,1.8 9.58,1.8 C9.47,1.85 9.32,1.9 9.13,1.95 C8.94,2 8.73,2.02 8.49,2.02 C8.14,2.02 7.89,1.92 7.74,1.73 C7.59,1.53 7.52,1.2 7.52,0.74 C7.52,0.74 7.52,-1.61 7.52,-1.61 C7.52,-1.61 9.57,-1.61 9.57,-1.61 C9.57,-1.61 9.57,-2.72 9.57,-2.72 C9.57,-2.72 7.52,-2.72 7.52,-2.72 C7.52,-2.72 7.52,-4.46 7.52,-4.46 C7.52,-4.46 6.19,-4.24 6.19,-4.24 C6.19,-4.24 6.19,0.75 6.19,0.75z M10.71,1.38 C10.83,1.74 11.01,2.06 11.25,2.33 C11.49,2.59 11.8,2.8 12.17,2.95 C12.55,3.1 12.99,3.18 13.49,3.18 C13.69,3.18 13.89,3.17 14.08,3.15 C14.27,3.12 14.44,3.1 14.61,3.06 C14.77,3.03 14.92,2.99 15.05,2.95 C15.18,2.91 15.28,2.87 15.35,2.84 C15.35,2.84 15.18,1.75 15.18,1.75 C15.02,1.81 14.81,1.88 14.54,1.94 C14.28,1.99 13.98,2.02 13.66,2.02 C13.11,2.02 12.69,1.9 12.4,1.64 C12.11,1.39 11.95,1.03 11.91,0.57 C11.91,0.57 15.7,0.57 15.7,0.57 C15.71,0.5 15.72,0.42 15.72,0.32 C15.72,0.23 15.73,0.15 15.73,0.08 C15.73,-0.9 15.5,-1.63 15.06,-2.12 C14.62,-2.61 14,-2.86 13.21,-2.86 C12.87,-2.86 12.54,-2.8 12.22,-2.67 C11.89,-2.54 11.61,-2.35 11.36,-2.1 C11.11,-1.84 10.91,-1.53 10.76,-1.14 C10.61,-0.76 10.53,-0.32 10.53,0.19 C10.53,0.62 10.59,1.02 10.71,1.38z M11.92,-0.41 C11.94,-0.58 11.98,-0.74 12.04,-0.9 C12.1,-1.06 12.18,-1.21 12.29,-1.33 C12.39,-1.46 12.52,-1.56 12.68,-1.63 C12.83,-1.71 13.01,-1.75 13.22,-1.75 C13.42,-1.75 13.59,-1.71 13.73,-1.64 C13.87,-1.57 13.99,-1.48 14.09,-1.36 C14.19,-1.24 14.27,-1.09 14.32,-0.93 C14.37,-0.76 14.39,-0.59 14.39,-0.41 C14.39,-0.41 11.92,-0.41 11.92,-0.41z" style="display: inherit;" fill="#2F445D"></path></g><g clip-path="url(#__lottie_element_191)" transform="matrix(1,0,0,1,465,234)" opacity="1" style="display: block;"><g transform="matrix(1,0,0,1,12,12)" opacity="1" style="display: block;"><g opacity="1" transform="matrix(1,0,0,1,0,0)"></g></g><g transform="matrix(1,0,0,1,11.722999572753906,2.3519999980926514)" opacity="1" style="display: block;"><g opacity="1" transform="matrix(1,0,0,1,0,0)"><path fill="#6FCEB9" fill-opacity="1" d=" M-2.3580000400543213,0 C-2.3580000400543213,-1.2970000505447388 -1.2999999523162842,-2.3519999980926514 0,-2.3519999980926514 C1.3009999990463257,-2.3519999980926514 2.3580000400543213,-1.2970000505447388 2.3580000400543213,0 C2.3580000400543213,1.2970000505447388 1.3009999990463257,2.3519999980926514 0,2.3519999980926514 C-1.2999999523162842,2.3519999980926514 -2.3580000400543213,1.2970000505447388 -2.3580000400543213,0z"></path></g></g><g transform="matrix(1,0,0,1,21.642000198364258,11.967000007629395)" opacity="1" style="display: block;"><g opacity="1" transform="matrix(1,0,0,1,0,0)"><path fill="#6FCEB9" fill-opacity="1" d=" M-2.3580000400543213,0 C-2.3580000400543213,-1.2970000505447388 -1.2999999523162842,-2.3519999980926514 0,-2.3519999980926514 C1.3009999990463257,-2.3519999980926514 2.3580000400543213,-1.2970000505447388 2.3580000400543213,0 C2.3580000400543213,1.2970000505447388 1.3009999990463257,2.3519999980926514 0,2.3519999980926514 C-1.2999999523162842,2.3519999980926514 -2.3580000400543213,1.2970000505447388 -2.3580000400543213,0z"></path></g></g><g transform="matrix(1,0,0,1,7.630000114440918,16.392000198364258)" opacity="1" style="display: block;"><g opacity="1" transform="matrix(1,0,0,1,0,0)"><path fill="#29455D" fill-opacity="1" d=" M-7.409999847412109,-7.388999938964844 C-7.630000114440918,-7.170000076293945 -7.630000114440918,-6.816999912261963 -7.630000114440918,-6.111999988555908 C-7.630000114440918,-6.111999988555908 -7.630000114440918,-3.803999900817871 -7.630000114440918,-3.803999900817871 C-7.630000114440918,-3.803999900817871 -7.630000114440918,-2.568000078201294 -7.630000114440918,-2.568000078201294 C-7.630000114440918,-1.8630000352859497 -7.630000114440918,-1.5099999904632568 -7.409999847412109,-1.2910000085830688 C-7.190000057220459,-1.0720000267028809 -6.836999893188477,-1.0720000267028809 -6.130000114440918,-1.0720000267028809 C-6.130000114440918,-1.0720000267028809 -0.07699999958276749,-1.0720000267028809 -0.07699999958276749,-1.0720000267028809 C0.18799999356269836,-1.0720000267028809 0.32100000977516174,-1.0720000267028809 0.40299999713897705,-0.9900000095367432 C0.48500001430511475,-0.9079999923706055 0.4860000014305115,-0.7749999761581421 0.4860000014305115,-0.5109999775886536 C0.4860000014305115,-0.5109999775886536 0.4860000014305115,6.111999988555908 0.4860000014305115,6.111999988555908 C0.4860000014305115,6.816999912261963 0.48500001430511475,7.170000076293945 0.7049999833106995,7.388999938964844 C0.925000011920929,7.607999801635742 1.2790000438690186,7.607999801635742 1.9859999418258667,7.607999801635742 C1.9859999418258667,7.607999801635742 3.815000057220459,7.607999801635742 3.815000057220459,7.607999801635742 C3.815000057220459,7.607999801635742 6.130000114440918,7.607999801635742 6.130000114440918,7.607999801635742 C6.836999893188477,7.607999801635742 7.190000057220459,7.607999801635742 7.409999847412109,7.388999938964844 C7.630000114440918,7.170000076293945 7.630000114440918,6.816999912261963 7.630000114440918,6.111999988555908 C7.630000114440918,6.111999988555908 7.630000114440918,-6.39300012588501 7.630000114440918,-6.39300012588501 C7.630000114440918,-6.966000080108643 7.630000114440918,-7.251999855041504 7.452000141143799,-7.429999828338623 C7.27400016784668,-7.607999801635742 6.986000061035156,-7.607999801635742 6.410999774932861,-7.607999801635742 C6.410999774932861,-7.607999801635742 -6.130000114440918,-7.607999801635742 -6.130000114440918,-7.607999801635742 C-6.836999893188477,-7.607999801635742 -7.190000057220459,-7.607999801635742 -7.409999847412109,-7.388999938964844z"></path></g></g></g></g><g clip-path="url(#__lottie_element_237)" transform="matrix(1.000001072883606,0,0,1.000001072883606,19.999868392944336,13.999709129333496)" opacity="1" style="display: block;"><g transform="matrix(1,0,0,1,107.5,272.5)" opacity="1" style="display: block;"><g opacity="1" transform="matrix(1,0,0,1,0,0)"><path fill="#F6F9FB" fill-opacity="1" d=" M96.5,-24.5 C96.5,-24.5 96.5,24.5 96.5,24.5 C96.5,30.018999099731445 92.01899719238281,34.5 86.5,34.5 C86.5,34.5 -86.5,34.5 -86.5,34.5 C-92.01899719238281,34.5 -96.5,30.018999099731445 -96.5,24.5 C-96.5,24.5 -96.5,-24.5 -96.5,-24.5 C-96.5,-30.018999099731445 -92.01899719238281,-34.5 -86.5,-34.5 C-86.5,-34.5 86.5,-34.5 86.5,-34.5 C92.01899719238281,-34.5 96.5,-30.018999099731445 96.5,-24.5z"></path></g></g><g transform="matrix(0.9999912977218628,0,0,0.9999912977218628,46,273)" opacity="1" style="display: block;"><g opacity="1" transform="matrix(1,0,0,1,0,0)"><path fill="#FFFFFF" fill-opacity="1" d=" M20,-10 C20,-10 20,10 20,10 C20,15.519000053405762 15.519000053405762,20 10,20 C10,20 -10,20 -10,20 C-15.519000053405762,20 -20,15.519000053405762 -20,10 C-20,10 -20,-10 -20,-10 C-20,-15.519000053405762 -15.519000053405762,-20 -10,-20 C-10,-20 10,-20 10,-20 C15.519000053405762,-20 20,-15.519000053405762 20,-10z"></path></g></g><g mask="url(#__lottie_element_246)" style="display: block;"><g fill="#2F445D" font-size="15" font-family="Ubuntu" font-style="normal" font-weight="500" aria-label="New incident" transform="matrix(1,0,0,1,131,271)" opacity="1"><path stroke-linecap="butt" stroke-linejoin="round" stroke-miterlimit="4" d=" M-48.14,3.64 C-48.14,3.64 -48.14,-6.76 -48.14,-6.76 C-48.14,-6.76 -50.02,-6.76 -50.02,-6.76 C-50.02,-6.76 -50.02,0.14 -50.02,0.14 C-50.36,-0.4 -50.75,-0.98 -51.18,-1.6 C-51.62,-2.23 -52.07,-2.85 -52.53,-3.47 C-53,-4.09 -53.46,-4.69 -53.92,-5.26 C-54.38,-5.84 -54.81,-6.34 -55.21,-6.76 C-55.21,-6.76 -56.75,-6.76 -56.75,-6.76 C-56.75,-6.76 -56.75,3.64 -56.75,3.64 C-56.75,3.64 -54.89,3.64 -54.89,3.64 C-54.89,3.64 -54.89,-3.8 -54.89,-3.8 C-54.47,-3.3 -54.03,-2.74 -53.57,-2.11 C-53.1,-1.49 -52.64,-0.84 -52.19,-0.18 C-51.74,0.49 -51.31,1.15 -50.89,1.8 C-50.47,2.46 -50.09,3.07 -49.75,3.64 C-49.75,3.64 -48.14,3.64 -48.14,3.64z M-45.94,1.38 C-45.78,1.88 -45.54,2.31 -45.21,2.67 C-44.88,3.04 -44.46,3.32 -43.95,3.53 C-43.44,3.73 -42.84,3.83 -42.15,3.83 C-41.88,3.83 -41.61,3.82 -41.35,3.79 C-41.09,3.76 -40.85,3.72 -40.62,3.68 C-40.4,3.63 -40.2,3.58 -40.02,3.53 C-39.85,3.47 -39.71,3.42 -39.61,3.37 C-39.61,3.37 -39.85,1.88 -39.85,1.88 C-40.06,1.97 -40.35,2.06 -40.71,2.14 C-41.08,2.22 -41.48,2.26 -41.92,2.26 C-42.67,2.26 -43.24,2.09 -43.64,1.74 C-44.03,1.4 -44.26,0.91 -44.31,0.28 C-44.31,0.28 -39.13,0.28 -39.13,0.28 C-39.12,0.18 -39.11,0.07 -39.11,-0.06 C-39.1,-0.18 -39.1,-0.3 -39.1,-0.4 C-39.1,-1.73 -39.4,-2.73 -40.01,-3.4 C-40.61,-4.07 -41.46,-4.4 -42.54,-4.4 C-43,-4.4 -43.45,-4.31 -43.89,-4.14 C-44.33,-3.96 -44.72,-3.7 -45.06,-3.36 C-45.4,-3.01 -45.67,-2.58 -45.87,-2.06 C-46.08,-1.54 -46.18,-0.94 -46.18,-0.25 C-46.18,0.34 -46.1,0.89 -45.94,1.38z M-44.29,-1.06 C-44.26,-1.29 -44.21,-1.51 -44.13,-1.73 C-44.05,-1.95 -43.93,-2.15 -43.79,-2.32 C-43.64,-2.49 -43.47,-2.62 -43.26,-2.73 C-43.05,-2.83 -42.8,-2.89 -42.52,-2.89 C-42.25,-2.89 -42.02,-2.84 -41.82,-2.74 C-41.63,-2.65 -41.46,-2.52 -41.33,-2.35 C-41.19,-2.19 -41.09,-1.99 -41.02,-1.77 C-40.95,-1.54 -40.92,-1.31 -40.92,-1.06 C-40.92,-1.06 -44.29,-1.06 -44.29,-1.06z M-31.74,1.28 C-31.46,2.11 -31.19,2.9 -30.93,3.64 C-30.93,3.64 -29.46,3.64 -29.46,3.64 C-29.25,3.18 -29.03,2.65 -28.81,2.06 C-28.59,1.47 -28.37,0.84 -28.15,0.17 C-27.93,-0.5 -27.71,-1.2 -27.49,-1.94 C-27.27,-2.68 -27.05,-3.44 -26.84,-4.21 C-26.84,-4.21 -28.72,-4.21 -28.72,-4.21 C-28.81,-3.79 -28.92,-3.33 -29.04,-2.85 C-29.16,-2.36 -29.29,-1.87 -29.42,-1.36 C-29.56,-0.86 -29.69,-0.37 -29.84,0.11 C-29.98,0.59 -30.11,1.03 -30.24,1.43 C-30.39,0.97 -30.54,0.5 -30.68,0.01 C-30.83,-0.48 -30.96,-0.97 -31.09,-1.46 C-31.21,-1.95 -31.33,-2.43 -31.44,-2.89 C-31.55,-3.36 -31.65,-3.8 -31.74,-4.21 C-31.74,-4.21 -33.13,-4.21 -33.13,-4.21 C-33.22,-3.8 -33.33,-3.36 -33.44,-2.89 C-33.56,-2.43 -33.68,-1.95 -33.81,-1.46 C-33.94,-0.97 -34.08,-0.48 -34.22,0.01 C-34.37,0.5 -34.52,0.97 -34.67,1.43 C-34.81,1.03 -34.95,0.59 -35.09,0.11 C-35.23,-0.37 -35.37,-0.86 -35.5,-1.36 C-35.63,-1.87 -35.75,-2.36 -35.87,-2.85 C-35.99,-3.33 -36.1,-3.79 -36.19,-4.21 C-36.19,-4.21 -38.11,-4.21 -38.11,-4.21 C-37.9,-3.44 -37.69,-2.68 -37.46,-1.94 C-37.24,-1.2 -37.02,-0.5 -36.8,0.17 C-36.58,0.84 -36.36,1.47 -36.14,2.06 C-35.92,2.65 -35.71,3.18 -35.51,3.64 C-35.51,3.64 -34.02,3.64 -34.02,3.64 C-33.76,2.9 -33.5,2.11 -33.23,1.28 C-32.97,0.44 -32.72,-0.42 -32.49,-1.3 C-32.26,-0.42 -32.01,0.44 -31.74,1.28z M-19.93,-4.21 C-19.93,-4.21 -21.75,-4.21 -21.75,-4.21 C-21.75,-4.21 -21.75,3.64 -21.75,3.64 C-21.75,3.64 -19.93,3.64 -19.93,3.64 C-19.93,3.64 -19.93,-4.21 -19.93,-4.21z M-20.07,-7.33 C-20.29,-7.53 -20.55,-7.63 -20.85,-7.63 C-21.16,-7.63 -21.42,-7.53 -21.64,-7.33 C-21.86,-7.13 -21.97,-6.85 -21.97,-6.5 C-21.97,-6.16 -21.86,-5.89 -21.64,-5.69 C-21.42,-5.49 -21.16,-5.39 -20.85,-5.39 C-20.55,-5.39 -20.29,-5.49 -20.07,-5.69 C-19.85,-5.89 -19.74,-6.16 -19.74,-6.5 C-19.74,-6.85 -19.85,-7.13 -20.07,-7.33z M-17.62,3.64 C-17.62,3.64 -15.8,3.64 -15.8,3.64 C-15.8,3.64 -15.8,-2.69 -15.8,-2.69 C-15.68,-2.71 -15.5,-2.74 -15.25,-2.77 C-15,-2.8 -14.76,-2.81 -14.53,-2.81 C-14.22,-2.81 -13.96,-2.77 -13.74,-2.68 C-13.53,-2.6 -13.36,-2.46 -13.23,-2.28 C-13.11,-2.09 -13.02,-1.85 -12.96,-1.56 C-12.91,-1.26 -12.88,-0.91 -12.88,-0.49 C-12.88,-0.49 -12.88,3.64 -12.88,3.64 C-12.88,3.64 -11.06,3.64 -11.06,3.64 C-11.06,3.64 -11.06,-0.77 -11.06,-0.77 C-11.06,-1.3 -11.12,-1.79 -11.22,-2.23 C-11.33,-2.68 -11.51,-3.06 -11.76,-3.37 C-12.02,-3.69 -12.36,-3.93 -12.79,-4.11 C-13.22,-4.28 -13.76,-4.37 -14.39,-4.37 C-15.08,-4.37 -15.7,-4.33 -16.25,-4.24 C-16.82,-4.15 -17.27,-4.05 -17.62,-3.95 C-17.62,-3.95 -17.62,3.64 -17.62,3.64z M-9.04,1.37 C-8.88,1.87 -8.64,2.31 -8.31,2.67 C-7.99,3.04 -7.58,3.32 -7.08,3.53 C-6.59,3.73 -6.01,3.83 -5.33,3.83 C-4.91,3.83 -4.49,3.79 -4.08,3.71 C-3.68,3.63 -3.38,3.54 -3.17,3.44 C-3.17,3.44 -3.43,1.94 -3.43,1.94 C-3.65,2.03 -3.91,2.11 -4.21,2.17 C-4.51,2.23 -4.82,2.26 -5.12,2.26 C-5.96,2.26 -6.55,2.03 -6.89,1.58 C-7.25,1.12 -7.42,0.5 -7.42,-0.28 C-7.42,-1.09 -7.24,-1.71 -6.86,-2.16 C-6.5,-2.6 -5.96,-2.83 -5.24,-2.83 C-4.94,-2.83 -4.66,-2.8 -4.4,-2.74 C-4.13,-2.68 -3.89,-2.6 -3.68,-2.51 C-3.68,-2.51 -3.29,-4 -3.29,-4 C-3.95,-4.27 -4.66,-4.4 -5.39,-4.4 C-5.99,-4.4 -6.53,-4.3 -7.01,-4.09 C-7.49,-3.88 -7.9,-3.59 -8.24,-3.22 C-8.57,-2.85 -8.83,-2.41 -9.01,-1.9 C-9.19,-1.4 -9.28,-0.86 -9.28,-0.28 C-9.28,0.31 -9.2,0.86 -9.04,1.37z M0.07,-4.21 C0.07,-4.21 -1.75,-4.21 -1.75,-4.21 C-1.75,-4.21 -1.75,3.64 -1.75,3.64 C-1.75,3.64 0.07,3.64 0.07,3.64 C0.07,3.64 0.07,-4.21 0.07,-4.21z M-0.07,-7.33 C-0.29,-7.53 -0.55,-7.63 -0.85,-7.63 C-1.16,-7.63 -1.43,-7.53 -1.65,-7.33 C-1.87,-7.13 -1.98,-6.85 -1.98,-6.5 C-1.98,-6.16 -1.87,-5.89 -1.65,-5.69 C-1.43,-5.49 -1.16,-5.39 -0.85,-5.39 C-0.55,-5.39 -0.29,-5.49 -0.07,-5.69 C0.15,-5.89 0.26,-6.16 0.26,-6.5 C0.26,-6.85 0.15,-7.13 -0.07,-7.33z M4.26,-2.14 C4.56,-2.59 5.05,-2.81 5.71,-2.81 C6.01,-2.81 6.29,-2.76 6.55,-2.67 C6.82,-2.57 7.03,-2.47 7.19,-2.36 C7.19,-2.36 7.19,2.14 7.19,2.14 C7.06,2.17 6.89,2.2 6.69,2.22 C6.48,2.25 6.23,2.26 5.95,2.26 C5.27,2.26 4.75,2.03 4.37,1.58 C3.99,1.12 3.8,0.49 3.8,-0.31 C3.8,-1.08 3.95,-1.69 4.26,-2.14z M9.01,-8 C9.01,-8 7.19,-7.7 7.19,-7.7 C7.19,-7.7 7.19,-3.94 7.19,-3.94 C6.98,-4.05 6.73,-4.15 6.44,-4.24 C6.15,-4.33 5.81,-4.37 5.44,-4.37 C4.87,-4.37 4.38,-4.27 3.95,-4.08 C3.52,-3.88 3.16,-3.61 2.86,-3.25 C2.56,-2.89 2.33,-2.45 2.17,-1.95 C2.02,-1.44 1.94,-0.88 1.94,-0.26 C1.94,0.37 2.03,0.94 2.22,1.44 C2.4,1.95 2.67,2.38 3.01,2.73 C3.36,3.09 3.77,3.36 4.27,3.55 C4.75,3.74 5.31,3.83 5.93,3.83 C6.53,3.83 7.1,3.79 7.65,3.7 C8.19,3.61 8.65,3.51 9.01,3.4 C9.01,3.4 9.01,-8 9.01,-8z M11.12,1.38 C11.28,1.88 11.52,2.31 11.85,2.67 C12.18,3.04 12.6,3.32 13.11,3.53 C13.62,3.73 14.23,3.83 14.92,3.83 C15.19,3.83 15.45,3.82 15.71,3.79 C15.97,3.76 16.21,3.72 16.44,3.68 C16.66,3.63 16.86,3.58 17.04,3.53 C17.21,3.47 17.35,3.42 17.45,3.37 C17.45,3.37 17.21,1.88 17.21,1.88 C17,1.97 16.71,2.06 16.35,2.14 C15.98,2.22 15.58,2.26 15.14,2.26 C14.39,2.26 13.82,2.09 13.42,1.74 C13.03,1.4 12.8,0.91 12.75,0.28 C12.75,0.28 17.93,0.28 17.93,0.28 C17.94,0.18 17.95,0.07 17.95,-0.06 C17.96,-0.18 17.96,-0.3 17.96,-0.4 C17.96,-1.73 17.66,-2.73 17.05,-3.4 C16.45,-4.07 15.61,-4.4 14.53,-4.4 C14.06,-4.4 13.61,-4.31 13.17,-4.14 C12.73,-3.96 12.34,-3.7 12,-3.36 C11.66,-3.01 11.39,-2.58 11.19,-2.06 C10.98,-1.54 10.88,-0.94 10.88,-0.25 C10.88,0.34 10.96,0.89 11.12,1.38z M12.77,-1.06 C12.8,-1.29 12.85,-1.51 12.93,-1.73 C13.01,-1.95 13.13,-2.15 13.27,-2.32 C13.42,-2.49 13.59,-2.62 13.8,-2.73 C14.02,-2.83 14.26,-2.89 14.54,-2.89 C14.81,-2.89 15.04,-2.84 15.24,-2.74 C15.43,-2.65 15.6,-2.52 15.73,-2.35 C15.87,-2.19 15.97,-1.99 16.04,-1.77 C16.11,-1.54 16.15,-1.31 16.15,-1.06 C16.15,-1.06 12.77,-1.06 12.77,-1.06z M19.88,3.64 C19.88,3.64 21.7,3.64 21.7,3.64 C21.7,3.64 21.7,-2.69 21.7,-2.69 C21.82,-2.71 22,-2.74 22.25,-2.77 C22.5,-2.8 22.74,-2.81 22.97,-2.81 C23.28,-2.81 23.54,-2.77 23.76,-2.68 C23.97,-2.6 24.14,-2.46 24.27,-2.28 C24.39,-2.09 24.48,-1.85 24.54,-1.56 C24.59,-1.26 24.62,-0.91 24.62,-0.49 C24.62,-0.49 24.62,3.64 24.62,3.64 C24.62,3.64 26.44,3.64 26.44,3.64 C26.44,3.64 26.44,-0.77 26.44,-0.77 C26.44,-1.3 26.38,-1.79 26.28,-2.23 C26.17,-2.68 25.99,-3.06 25.74,-3.37 C25.48,-3.69 25.14,-3.93 24.71,-4.11 C24.28,-4.28 23.74,-4.37 23.11,-4.37 C22.42,-4.37 21.8,-4.33 21.25,-4.24 C20.68,-4.15 20.23,-4.05 19.88,-3.95 C19.88,-3.95 19.88,3.64 19.88,3.64z M28.57,0.52 C28.57,1.04 28.61,1.5 28.7,1.91 C28.79,2.31 28.94,2.66 29.17,2.94 C29.38,3.23 29.68,3.44 30.06,3.59 C30.43,3.74 30.9,3.82 31.46,3.82 C31.92,3.82 32.32,3.77 32.66,3.68 C33,3.58 33.28,3.49 33.49,3.4 C33.49,3.4 33.19,1.96 33.19,1.96 C33.04,2.02 32.83,2.08 32.58,2.15 C32.32,2.22 32.03,2.26 31.7,2.26 C31.22,2.26 30.88,2.12 30.68,1.85 C30.48,1.58 30.38,1.13 30.38,0.5 C30.38,0.5 30.38,-2.69 30.38,-2.69 C30.38,-2.69 33.17,-2.69 33.17,-2.69 C33.17,-2.69 33.17,-4.21 33.17,-4.21 C33.17,-4.21 30.38,-4.21 30.38,-4.21 C30.38,-4.21 30.38,-6.58 30.38,-6.58 C30.38,-6.58 28.57,-6.28 28.57,-6.28 C28.57,-6.28 28.57,0.52 28.57,0.52z" style="display: inherit;" fill="#2F445D"></path></g></g><g clip-path="url(#__lottie_element_256)" transform="matrix(1,0,0,1,34,261)" opacity="1" style="display: block;"><g transform="matrix(1,0,0,1,12,12)" opacity="1" style="display: block;"><g opacity="1" transform="matrix(1,0,0,1,0,0)"></g></g><g transform="matrix(1,0,0,1,11.722999572753906,2.3519999980926514)" opacity="1" style="display: block;"><g opacity="1" transform="matrix(1,0,0,1,0,0)"><path fill="#6FCEB9" fill-opacity="1" d=" M-2.3580000400543213,0 C-2.3580000400543213,-1.2970000505447388 -1.2999999523162842,-2.3519999980926514 0,-2.3519999980926514 C1.3009999990463257,-2.3519999980926514 2.3580000400543213,-1.2970000505447388 2.3580000400543213,0 C2.3580000400543213,1.2970000505447388 1.3009999990463257,2.3519999980926514 0,2.3519999980926514 C-1.2999999523162842,2.3519999980926514 -2.3580000400543213,1.2970000505447388 -2.3580000400543213,0z"></path></g></g><g transform="matrix(1,0,0,1,21.642000198364258,11.967000007629395)" opacity="1" style="display: block;"><g opacity="1" transform="matrix(1,0,0,1,0,0)"><path fill="#6FCEB9" fill-opacity="1" d=" M-2.3580000400543213,0 C-2.3580000400543213,-1.2970000505447388 -1.2999999523162842,-2.3519999980926514 0,-2.3519999980926514 C1.3009999990463257,-2.3519999980926514 2.3580000400543213,-1.2970000505447388 2.3580000400543213,0 C2.3580000400543213,1.2970000505447388 1.3009999990463257,2.3519999980926514 0,2.3519999980926514 C-1.2999999523162842,2.3519999980926514 -2.3580000400543213,1.2970000505447388 -2.3580000400543213,0z"></path></g></g><g transform="matrix(1,0,0,1,7.630000114440918,16.392000198364258)" opacity="1" style="display: block;"><g opacity="1" transform="matrix(1,0,0,1,0,0)"><path fill="#29455D" fill-opacity="1" d=" M-7.409999847412109,-7.388999938964844 C-7.630000114440918,-7.170000076293945 -7.630000114440918,-6.816999912261963 -7.630000114440918,-6.111999988555908 C-7.630000114440918,-6.111999988555908 -7.630000114440918,-3.803999900817871 -7.630000114440918,-3.803999900817871 C-7.630000114440918,-3.803999900817871 -7.630000114440918,-2.568000078201294 -7.630000114440918,-2.568000078201294 C-7.630000114440918,-1.8630000352859497 -7.630000114440918,-1.5099999904632568 -7.409999847412109,-1.2910000085830688 C-7.190000057220459,-1.0720000267028809 -6.836999893188477,-1.0720000267028809 -6.130000114440918,-1.0720000267028809 C-6.130000114440918,-1.0720000267028809 -0.07699999958276749,-1.0720000267028809 -0.07699999958276749,-1.0720000267028809 C0.18799999356269836,-1.0720000267028809 0.32100000977516174,-1.0720000267028809 0.40299999713897705,-0.9900000095367432 C0.48500001430511475,-0.9079999923706055 0.4860000014305115,-0.7749999761581421 0.4860000014305115,-0.5109999775886536 C0.4860000014305115,-0.5109999775886536 0.4860000014305115,6.111999988555908 0.4860000014305115,6.111999988555908 C0.4860000014305115,6.816999912261963 0.48500001430511475,7.170000076293945 0.7049999833106995,7.388999938964844 C0.925000011920929,7.607999801635742 1.2790000438690186,7.607999801635742 1.9859999418258667,7.607999801635742 C1.9859999418258667,7.607999801635742 3.815000057220459,7.607999801635742 3.815000057220459,7.607999801635742 C3.815000057220459,7.607999801635742 6.130000114440918,7.607999801635742 6.130000114440918,7.607999801635742 C6.836999893188477,7.607999801635742 7.190000057220459,7.607999801635742 7.409999847412109,7.388999938964844 C7.630000114440918,7.170000076293945 7.630000114440918,6.816999912261963 7.630000114440918,6.111999988555908 C7.630000114440918,6.111999988555908 7.630000114440918,-6.39300012588501 7.630000114440918,-6.39300012588501 C7.630000114440918,-6.966000080108643 7.630000114440918,-7.251999855041504 7.452000141143799,-7.429999828338623 C7.27400016784668,-7.607999801635742 6.986000061035156,-7.607999801635742 6.410999774932861,-7.607999801635742 C6.410999774932861,-7.607999801635742 -6.130000114440918,-7.607999801635742 -6.130000114440918,-7.607999801635742 C-6.836999893188477,-7.607999801635742 -7.190000057220459,-7.607999801635742 -7.409999847412109,-7.388999938964844z"></path></g></g></g></g><g style="display: block;" transform="matrix(1,0,0,1,20,14)" opacity="1"><g opacity="1" transform="matrix(1,0,0,1,226.1479949951172,374.2850036621094)"><g opacity="1" transform="matrix(0.9994905591011047,-0.031916651874780655,0.031916651874780655,0.9994905591011047,0,0)"><path fill="#C85D5C" fill-opacity="1" d=" M28.44099998474121,-5.446000099182129 C28.44099998474121,-5.446000099182129 -28.44099998474121,-5.211999893188477 -28.44099998474121,-5.211999893188477 C-28.44099998474121,-5.211999893188477 -28.44099998474121,5.447000026702881 -28.44099998474121,5.447000026702881 C-28.44099998474121,5.447000026702881 18.933000564575195,4.214000225067139 18.933000564575195,4.214000225067139 C18.933000564575195,4.214000225067139 28.44099998474121,-5.446000099182129 28.44099998474121,-5.446000099182129z"></path></g></g><g opacity="1" transform="matrix(1,0,0,1,246.51699829101562,392.92498779296875)"><g opacity="1" transform="matrix(0.22682128846645355,-0.9739363789558411,0.9739363789558411,0.22682128846645355,0,0)"><path fill="#C85D5C" fill-opacity="1" d=" M13.229999542236328,-8.03499984741211 C13.229999542236328,-8.03499984741211 -25.715999603271484,-4.8429999351501465 -25.715999603271484,-4.8429999351501465 C-25.715999603271484,-4.8429999351501465 -25.715999603271484,6.150000095367432 -25.715999603271484,6.150000095367432 C-25.715999603271484,6.150000095367432 26.2189998626709,2.007999897003174 26.2189998626709,2.007999897003174 C26.2189998626709,2.007999897003174 13.229999542236328,-8.03499984741211 13.229999542236328,-8.03499984741211z"></path></g></g></g><g style="display: block;" transform="matrix(1,0,0,1,172.55999755859375,364.8340148925781)" opacity="1"><g opacity="1" transform="matrix(0.8053182363510132,-0.5928427577018738,0.5928427577018738,0.8053182363510132,0,0)"><path stroke-linecap="butt" stroke-linejoin="miter" fill-opacity="0" stroke-miterlimit="4" stroke="#C85D5C" stroke-opacity="1" stroke-width="10px" d=" M55.64099884033203,73.28900146484375 C-56.244998931884766,87.08799743652344 -80.81300354003906,-5.800000190734863 -31.284000396728516,-74.66500091552734"></path></g></g></g></g></svg>