<?xml version="1.0" encoding="utf-8"?>
<!-- Generator: Adobe Illustrator 25.4.1, SVG Export Plug-In . SVG Version: 6.00 Build 0)  -->
<svg version="1.1" xmlns="http://www.w3.org/2000/svg" xmlns:xlink="http://www.w3.org/1999/xlink" x="0px" y="0px" width="640px"
	 height="193.9px" viewBox="0 0 640 193.9" style="enable-background:new 0 0 640 193.9;" xml:space="preserve">
<style type="text/css">
	.st0{fill-rule:evenodd;clip-rule:evenodd;fill:#D8E7F1;}
	.st1{fill-rule:evenodd;clip-rule:evenodd;fill:#FFFFFF;}
	.st2{fill:#FFFFFF;}
	.st3{fill:#6F6F6F;}
	.st4{fill-rule:evenodd;clip-rule:evenodd;fill:#5B3F2E;}
	.st5{fill-rule:evenodd;clip-rule:evenodd;fill:#A9744D;}
	.st6{fill-rule:evenodd;clip-rule:evenodd;fill:#419783;}
	.st7{fill-rule:evenodd;clip-rule:evenodd;fill:#DEEBF3;}
	.st8{fill-rule:evenodd;clip-rule:evenodd;fill:#72BDA1;}
	.st9{fill-rule:evenodd;clip-rule:evenodd;fill:#C28F77;}
	.st10{fill:#5B3F2E;}
	.st11{fill:#D7A17A;}
	.st12{fill:#A9744D;}
	.st13{fill:none;stroke:#0076A8;stroke-width:3;stroke-linecap:round;stroke-linejoin:round;stroke-dasharray:0,6;}
	.st14{fill:#0076A8;}
	.st15{fill:none;}
	.st16{fill:#474747;}
	.st17{fill:none;stroke:#2F7EB2;stroke-width:5.9976;stroke-miterlimit:10;}
	.st18{fill:#2F7EB2;}
</style>
<g id="Layer_3">
	<rect x="42.2" y="100" class="st0" width="568.7" height="10.8"/>
	<rect x="123.5" y="83.5" class="st1" width="47.5" height="25.7"/>
	<rect x="238.5" y="87" class="st1" width="34" height="41"/>
	<g>
		<polygon class="st2" points="363.9,105.4 363.9,87.7 330.8,87.7 330.8,107.9 336,107.9 337.5,115.6 344.9,107.9 357.2,107.9 
			357.2,105.4 		"/>
		<polygon class="st2" points="363.9,105.4 357.2,105.4 357.2,107.9 357.2,112.8 385.4,112.8 385.4,105.4 		"/>
	</g>
	<circle class="st2" cx="470" cy="102.5" r="19.3"/>
	<polygon class="st2" points="611.2,120.1 599,124.1 585.7,124.1 573.3,120.1 573.3,90.2 584.8,86.2 600.6,86.2 611.2,90.2 	"/>
</g>
<g id="Layer_2">
	<g id="svg-icon_00000026851499455835462810000016441958815990138784_">
		<path class="st3" d="M592.3,85.1c-11.1,0-20,2.7-20,6.1v0.2l0,0l0,0v9l0,0l0,0v9l0,0l0,0v9l0,0l0,0v0.7c0,1.5,1.7,2.8,4.6,3.9
			c3.8,1.5,9.6,2.3,15.4,2.3c5.7,0,11.5-0.8,15.4-2.3c2.9-1.1,4.6-2.4,4.6-3.9v-28C612.3,87.8,603.3,85.1,592.3,85.1z M610.2,118.4
			c0,0.8-1.2,1.7-3.4,2.5c-0.5,0.2-1,0.3-1.6,0.5c-3.5,1-8.1,1.5-12.9,1.5s-9.4-0.5-12.9-1.5c-0.6-0.2-1.1-0.3-1.6-0.5
			c-2.2-0.8-3.4-1.8-3.4-2.5v-5.7c3.5,2.4,10.7,3.6,17.9,3.6c7.2,0,14.4-1.2,17.9-3.6V118.4L610.2,118.4z M610.2,109.4
			c0,1.9-7,4.7-17.9,4.7c-10.9,0-17.9-2.8-17.9-4.7v-5.7c3.5,2.4,10.7,3.6,17.9,3.6c7.2,0,14.4-1.2,17.9-3.6V109.4L610.2,109.4z
			 M610.2,100.4c0,1.9-7,4.7-17.9,4.7c-10.9,0-17.9-2.8-17.9-4.7v-5.7c3.5,2.4,10.7,3.6,17.9,3.6c7.2,0,14.4-1.2,17.9-3.6V100.4
			L610.2,100.4z M574.4,91.2c0.2-0.3,1.3-1.5,5-2.5c3.5-1,8.1-1.5,12.9-1.5s9.4,0.5,12.9,1.5c3.7,1,4.8,2.1,5,2.5v0.1l0,0
			c0,1.9-7,4.7-17.9,4.7c-10.9,0-17.9-2.8-17.9-4.7V91.2z"/>
	</g>
	<g id="svg-icon_00000165919236972922242120000008728159345016088734_">
		<path class="st3" d="M270.8,84.7H264v-1.1c0-0.9-0.7-1.6-1.6-1.6h-2.5c-0.3-2.1-2.1-3.8-4.3-3.8c-2.2,0-4,1.7-4.3,3.8h-2.5
			c-0.9,0-1.6,0.7-1.6,1.6v1.1h-6.8c-1.8,0-3.3,1.5-3.3,3.3v37.4c0,1.8,1.5,3.3,3.3,3.3h30.3c1.8,0,3.3-1.5,3.3-3.3V88
			C274.1,86.2,272.6,84.7,270.8,84.7z M255.6,80.9c0.7,0,1.3,0.5,1.5,1.1c0.1,0.2,0.1,0.4,0.1,0.5c0,0.9-0.7,1.6-1.6,1.6
			s-1.6-0.7-1.6-1.6c0-0.2,0-0.4,0.1-0.5C254.3,81.4,254.9,80.9,255.6,80.9z M271.9,125.4c0,0.6-0.5,1.1-1.1,1.1h-30.3
			c-0.6,0-1.1-0.5-1.1-1.1V88c0-0.6,0.5-1.1,1.1-1.1h6.8v0.5c0,0.9,0.7,1.6,1.6,1.6h13.5c0.9,0,1.6-0.7,1.6-1.6v-0.5h6.8
			c0.6,0,1.1,0.5,1.1,1.1V125.4z"/>
		<path class="st3" d="M245.9,100.4h5.4c0.9,0,1.6-0.7,1.6-1.6V97h-1.1v1.8c0,0.3-0.2,0.5-0.5,0.5h-5.4c-0.3,0-0.5-0.2-0.5-0.5v-5.4
			c0-0.3,0.2-0.5,0.5-0.5h3.9v-1.1h-3.9c-0.9,0-1.6,0.7-1.6,1.6v5.4C244.3,99.7,245,100.4,245.9,100.4z"/>
		<polygon class="st3" points="252.5,92.6 251.8,93.3 249.8,95.3 248.7,96.5 247.1,94.8 246.1,95.8 248.7,98.5 250.1,97 251.8,95.2 
			252.9,94 253.4,93.5 252.8,92.9 		"/>
		<rect x="256.2" y="95" class="st3" width="10.8" height="1.6"/>
		<path class="st3" d="M245.9,111.6h5.4c0.9,0,1.6-0.7,1.6-1.6v-2.2h-1.1v2.2c0,0.3-0.2,0.5-0.5,0.5h-5.4c-0.3,0-0.5-0.2-0.5-0.5
			v-5.4c0-0.3,0.2-0.5,0.5-0.5h2.8V103h-2.8c-0.9,0-1.6,0.7-1.6,1.6v5.4C244.3,110.9,245,111.6,245.9,111.6z"/>
		<rect x="256.2" y="106.4" class="st3" width="10.8" height="1.6"/>
		<path class="st3" d="M251.8,122.1c0,0.3-0.2,0.5-0.5,0.5h-5.4c-0.3,0-0.5-0.2-0.5-0.5v-5.4c0-0.3,0.2-0.5,0.5-0.5h3.9V115h-3.9
			c-0.9,0-1.6,0.7-1.6,1.6v5.4c0,0.9,0.7,1.6,1.6,1.6h5.4c0.9,0,1.6-0.7,1.6-1.6v-1.8h-1.1V122.1z"/>
		<polygon class="st3" points="252.5,115.8 251.8,116.5 249.8,118.6 248.7,119.7 247.1,118.1 246.1,119 248.7,121.7 250.1,120.3 
			251.8,118.4 252.9,117.2 253.4,116.7 252.8,116.2 		"/>
		<rect x="256.2" y="118.3" class="st3" width="10.8" height="1.6"/>
		<polygon class="st3" points="247.1,110 248.7,108.3 250.5,110 251.4,109.1 250.2,107.9 249.6,107.3 251.3,105.5 250.4,104.6 
			248.7,106.3 248.6,106.4 246.9,104.8 246,105.8 247.7,107.4 246.1,109.1 		"/>
	</g>
	<g id="svg-icon_00000118360682653651411390000003137966298731795372_">
		<path class="st3" d="M386.2,97.8h-20.6v-7.7c0-1.8-1.5-3.3-3.3-3.3h-29.3c-1.8,0-3.3,1.5-3.3,3.3v16.1c0,1.8,1.5,3.3,3.3,3.3h2.7
			v4.7c0,0.9,0.5,1.6,1.3,2c0.3,0.1,0.5,0.2,0.8,0.2c0.5,0,1.1-0.2,1.5-0.6l6.1-6.1h7.2v8c0,1.2,1,2.2,2.2,2.2h10.8
			c0.3,0,0.5,0.1,0.8,0.3l6.6,6.6c0.7,0.7,1.8,0.2,1.8-0.8v-5.7c0-0.3,0.2-0.5,0.5-0.5h10.9c1.2,0,2.2-1,2.2-2.2V100
			C388.3,98.8,387.4,97.8,386.2,97.8z M352.6,100v7.3h-7.4v0.1c-0.4,0-0.8,0.2-1.1,0.5l-6.2,6.1v-5c0-0.9-0.7-1.6-1.6-1.6h-3.3
			c-0.6,0-1.1-0.5-1.1-1.1V90.1c0-0.6,0.5-1.1,1.1-1.1h29.3c0.6,0,1.1,0.5,1.1,1.1v7.7h-8.7C353.6,97.8,352.6,98.8,352.6,100z
			 M364,109.1c0,0.1,0,0.1,0,0.1c-0.3,0.9-1.1,1.6-2.2,1.6c-0.9,0-1.7-0.5-2-1.4c-0.1-0.1-0.1-0.3-0.1-0.4c-0.1-0.1-0.1-0.3-0.1-0.4
			c0-0.2,0-0.3,0.1-0.4c0-0.1,0.1-0.1,0.1-0.2c0-0.1,0.1-0.1,0.1-0.2c0.1-0.1,0.1-0.2,0.1-0.3c0,0,0-0.1,0.1-0.1
			c0.1-0.1,0.1-0.2,0.2-0.3c0.4-0.5,1-0.8,1.7-0.8c0.5,0,1,0.2,1.4,0.5c0.1,0.1,0.2,0.2,0.3,0.3c0.1,0.1,0.2,0.2,0.2,0.4
			c0,0,0,0.1,0.1,0.1c0.1,0.1,0.1,0.2,0.1,0.4c0,0.1,0,0.1,0.1,0.1c0.1,0.2,0.1,0.3,0.1,0.5C364,108.8,364,108.9,364,109.1z
			 M370.5,110.8c-1.2,0-2.2-1-2.2-2.2s1-2.2,2.2-2.2c1.2,0,2.2,1,2.2,2.2S371.7,110.8,370.5,110.8z M379.1,110.8
			c-1.2,0-2.2-1-2.2-2.2s1-2.2,2.2-2.2c1.2,0,2.2,1,2.2,2.2S380.3,110.8,379.1,110.8z"/>
	</g>
	<g id="svg-icon_00000150795118188500884800000013192730600314344358_">
		<path class="st3" d="M170.1,82.1h-44.4c-1.2,0-2.2,1-2.2,2.3v28.9c0,1.3,1,2.3,2.2,2.3h15.7v3.7l-3.4,3.4
			c-0.3,0.3-0.1,0.9,0.4,0.9h19.1c0.5,0,0.7-0.6,0.4-0.9l-3.4-3.4v-3.7h15.7c1.2,0,2.2-1,2.2-2.3v-29
			C172.3,83.1,171.3,82.1,170.1,82.1z M125.7,84.4c0-0.1,0-0.1,0.1-0.2h44.3c0,0,0.1,0.1,0.1,0.2v23.8h-44.4V84.4z M147.9,114.7
			c-0.8,0-1.5-0.4-1.8-1.1c0-0.1-0.1-0.1-0.1-0.1c-0.2-0.3-0.3-0.6-0.3-1c0-1.2,1-2.2,2.2-2.2s2.2,1,2.2,2.2c0,0.4-0.1,0.7-0.3,1
			c0,0.1-0.1,0.1-0.1,0.1C149.4,114.2,148.7,114.7,147.9,114.7z"/>
		<path class="st3" d="M137.8,127c0,0.6,0.5,1.1,1.1,1.1h18c0.6,0,1.1-0.5,1.1-1.1v-1.1h-20.2V127z"/>
	</g>
	<g>
		<path class="st4" d="M65.5,65.3c1.4,1.5,4.2,5.6,6.5,7.4c-3.5,5.5-1.6,7.6-16.7,6.1c-7.9-0.8-12.2-7.5-9.3-12.5
			C48.9,61.6,58.7,58.1,65.5,65.3L65.5,65.3z"/>
		<path class="st5" d="M49.8,90.2l3.4,0.2c2.8,0,5.6,0,8.4-0.2l0.6,4.5c0.3,2.3,1,3.9,3.4,4.2c6.1,0.8,10,1.8,12.7,5.8
			c2.1,3.1,3.8,7.7,3.3,11.4c-0.7,5.1-3.9,7.1-8.4,8.7c-0.3,0.1-0.7,0.2-1,0.3c-4.6,4.7-28.4,4.7-33,0c-0.4-0.1-0.7-0.2-1-0.3
			c-4.5-1.6-7.7-3.6-8.4-8.7c-0.5-3.7,1.2-8.4,3.3-11.4c2.7-4,6.5-5,12.7-5.8c2.4-0.3,3.1-1.9,3.4-4.2L49.8,90.2L49.8,90.2z"/>
		<path class="st6" d="M71.2,100c3.1,0.8,5.3,2.2,7.1,4.8c4.9,7.3,3.4,15.6,3.4,24h-52c0-8.3-1.5-16.7,3.4-24c1.8-2.6,4-4,7.1-4.8
			c4.1,3.4,9.5,5.4,15.5,5.4C61.7,105.4,67.1,103.3,71.2,100L71.2,100z"/>
		<path class="st7" d="M71.2,100c1.2,0.3,2.2,0.7,3.2,1.2c-4.9,4.5-11.4,7.2-18.7,7.2c-7.2,0-13.8-2.8-18.7-7.2c1-0.5,2-0.9,3.2-1.2
			c4.1,3.4,9.5,5.4,15.5,5.4C61.7,105.4,67.1,103.3,71.2,100L71.2,100z"/>
		<path class="st8" d="M81.1,111c1.4,5.6,0.6,11.7,0.6,17.7h-52c0-6-0.8-12.1,0.6-17.7c6.8,5.3,15.6,8.5,25.4,8.5
			C65.4,119.5,74.3,116.3,81.1,111L81.1,111z"/>
		<path class="st6" d="M39.9,128.7h-1.5l0.4-4.3c0.7-7.2,0.6-7.4,0.9,0L39.9,128.7L39.9,128.7z"/>
		<path class="st6" d="M73,128.7h-1.4l0.2-4.3c0.3-7.4,0.1-7.2,0.9,0L73,128.7L73,128.7z"/>
		<path class="st9" d="M67.4,80.4c-0.3-0.4-0.8-0.5-1.2-0.4c0.1-1.4,0.2-2.8,0.4-3.6c2.2-8.3-3.9-12.4-10.9-13.5
			c-6.3,0.8-12.8,5.8-10.8,13.7c0.2,0.9,0.3,2.2,0.4,3.4c-0.4,0-0.8,0.1-1.1,0.4c-0.8,0.9-0.4,2.9,0.3,4.3c0.3,0.5,0.6,1,1.1,1.3
			c0.3,0.2,0.6,0.3,0.9,0.3c1.1,3,2.7,5.2,4.8,7c3.8,3.2,5,3.2,8.8,0c2.1-1.8,3.8-4.1,4.8-7.2c0.2,0.4,0.7,0.2,1.1-0.1
			c0.4-0.3,0.8-0.8,1-1.3C67.8,83.3,68.2,81.3,67.4,80.4L67.4,80.4z"/>
		<path class="st4" d="M48.6,65.4c-1.1-1-3.9,0.6-5.1,3.1c-2.3,5.2,0.2,10.2,1.6,11.7c1.3-2.7-0.6-7.8,2.5-8.8
			c0.1-1.1,3.3-6.4,1.8-5.8L48.6,65.4L48.6,65.4z"/>
		<path class="st4" d="M47.9,68.9c0,0,1.1,6,6.9,6.6c-7.6,0.9-9.1-4.4-8.5-3.6L47.9,68.9L47.9,68.9z"/>
		<path class="st4" d="M51.1,80c0.8,0,1.4,0.6,1.4,1.4c0,0.8-0.6,1.4-1.4,1.4c-0.8,0-1.4-0.6-1.4-1.4C49.7,80.6,50.3,80,51.1,80
			L51.1,80z"/>
		<path class="st4" d="M60.6,80c0.8,0,1.4,0.6,1.4,1.4c0,0.8-0.6,1.4-1.4,1.4c-0.8,0-1.4-0.6-1.4-1.4C59.2,80.6,59.8,80,60.6,80
			L60.6,80z"/>
		<path class="st10" d="M49.1,79c-0.3,0-0.5-0.2-0.6-0.5c0-0.3,0.2-0.5,0.4-0.6l3.3-0.3c0.3,0,0.5,0.2,0.6,0.5
			c0,0.3-0.2,0.5-0.5,0.6L49.1,79L49.1,79z"/>
		<path class="st11" d="M62.7,78c0.3,0,0.5,0.3,0.5,0.6c0,0.3-0.3,0.5-0.6,0.5l-3.3-0.3c-0.3,0-0.5-0.3-0.5-0.6
			c0-0.3,0.3-0.5,0.6-0.5L62.7,78L62.7,78z"/>
		<path class="st12" d="M57.3,90.8c0.2-0.2,0.5-0.1,0.7,0.1c0.2,0.2,0.1,0.5-0.1,0.7c-0.1,0.1-0.2,0.2-0.3,0.2
			c-0.2,0.1-0.4,0.2-0.6,0.3c-0.2,0.1-0.4,0.1-0.6,0.2c-1,0.2-2,0-2.8-0.7c-0.2-0.2-0.3-0.5-0.1-0.7c0.2-0.2,0.5-0.3,0.7-0.1
			c0.6,0.4,1.3,0.6,2,0.5c0.1,0,0.3-0.1,0.4-0.1c0.1-0.1,0.3-0.1,0.4-0.2C57.2,90.9,57.3,90.9,57.3,90.8L57.3,90.8z"/>
		<path class="st12" d="M54,78.7c-0.1-0.1-0.1-0.3,0-0.4c0.1-0.1,0.3-0.1,0.4,0c0.9,0.7,1.2,1.9,1.1,3.4c-0.1,1.4-0.5,3.2-1,5.4
			c0,0,0.1,0,0.1,0.1c0.1,0.1,0.2,0.1,0.3,0.1c0.6,0.2,1.3,0.3,1.8-0.1c0.1-0.1,0.3-0.1,0.4,0.1c0.1,0.1,0.1,0.3-0.1,0.4
			c-0.6,0.5-1.6,0.4-2.3,0.1c-0.1-0.1-0.3-0.1-0.4-0.2c-0.1-0.1-0.2-0.2-0.3-0.2l0,0l-0.1-0.1l0-0.2c0.6-2.2,1-4.1,1.1-5.5
			C55,80.3,54.8,79.3,54,78.7L54,78.7z"/>
		<path class="st4" d="M52.1,61.9c5.9-1.1,10.5-0.4,14,4.3c1,1.3,1.8,7.4,4.9,7.1c-0.8,1.1-2.7,2.1-2.5,3.4c0.2,1,1.8,2.7,5,2.2
			c-1.5,1.9-3.7,2.2-5.9,1.7c-0.3-0.1-0.7-1.4-1.2-0.3C56,83.8,55.3,66.5,45.7,72.1c0-0.4,0.4-3.7,0.4-3.7
			C46.1,66.1,47.4,63.1,52.1,61.9L52.1,61.9z"/>
	</g>
	<g id="svg-icon_00000035497476186100038490000016059483426834621327_">
		<path class="st3" d="M493.9,105.8l-2.9-4.8l0,0l1.8-5.4l-4.6-3.3l-0.5-5.6l-5.5-1l-2.7-5L474,82l0,0l-4.5-3.5l-4.5,3.4l-5.5-1.3
			l-2.7,5l-5.5,1l-0.5,5.6l-4.6,3.3l1.8,5.4l0,0l-2.9,4.9l3.8,4.1l-0.7,5.6l5.2,2.2l1.6,5.4l5.6-0.1l3.7,4.3l5.1-2.4l5.1,2.4
			l3.7-4.3l5.6,0.1l1.6-5.4l5.2-2.2l-0.7-5.6L493.9,105.8z M469.5,121c-10,0-18.2-8.1-18.2-18.2s8.1-18.2,18.2-18.2
			c10,0,18.2,8.1,18.2,18.2S479.6,121,469.5,121z"/>
		<path class="st3" d="M469.5,87.1c-8.7,0-15.8,7.1-15.8,15.8s7.1,15.8,15.8,15.8c8.7,0,15.8-7.1,15.8-15.8S478.3,87.1,469.5,87.1z
			 M478.8,99.1l-10.1,10.1l-1.4,1.4c-0.2,0.2-0.4,0.3-0.7,0.3c-0.3,0-0.5-0.1-0.7-0.3l-1.4-1.4l-5-5c-0.4-0.4-0.4-1,0-1.4l1.4-1.4
			c0.4-0.4,1-0.4,1.4,0l4.4,4.4l9.3-9.4c0.4-0.4,1-0.4,1.4,0l1.4,1.4C479.1,98.1,479.1,98.7,478.8,99.1z"/>
	</g>
	<g id="Artwork_9_00000087373838577719104390000018428132233331092902_">
		<g>
			<g>
				<path class="st13" d="M142.1,72.8V50.6c0-4.4,3.6-8,8-8h199c4.4,0,8,3.6,8,8v32.7"/>
				<g>
					<polygon class="st14" points="138.1,72.3 146.1,72.3 142.1,76.3 					"/>
				</g>
			</g>
		</g>
	</g>
	<g>
		<rect x="4.6" y="139.5" class="st15" width="105.1" height="17"/>
		<path class="st16" d="M23.8,141.2h2.3c3.5,0,6.3,1.8,6.3,5.6c0,3.9-2.8,5.7-6.4,5.7h-2.3V141.2z M25.2,151.2h0.5
			c2.9,0,5.4-1.1,5.4-4.4c0-3.3-2.5-4.4-5.4-4.4h-0.5V151.2z"/>
		<path class="st16" d="M35.2,149.2c0,1.2,0.8,2.3,2.1,2.3c1,0,1.6-0.5,2.1-1.4l1.1,0.6c-0.7,1.2-1.9,1.9-3.3,1.9
			c-2.1,0-3.4-1.6-3.4-3.7c0-2.2,1.2-3.8,3.4-3.8c2.2,0,3.3,1.6,3.3,3.7v0.2H35.2z M39.3,148.2c-0.2-1.1-0.9-1.8-1.9-1.8
			c-1.1,0-1.8,0.8-2,1.8H39.3z"/>
		<path class="st16" d="M44.7,149.8l2-4.4h1.5l-3.5,7.3l-3.5-7.3h1.5L44.7,149.8z"/>
		<path class="st16" d="M50.2,149.2c0,1.2,0.8,2.3,2.1,2.3c1,0,1.6-0.5,2.1-1.4l1.1,0.6c-0.7,1.2-1.9,1.9-3.3,1.9
			c-2.1,0-3.4-1.6-3.4-3.7c0-2.2,1.2-3.8,3.4-3.8c2.2,0,3.3,1.6,3.3,3.7v0.2H50.2z M54.2,148.2c-0.2-1.1-0.9-1.8-1.9-1.8
			c-1.1,0-1.8,0.8-2,1.8H54.2z"/>
		<path class="st16" d="M58.8,152.5h-1.4v-13h1.4V152.5z"/>
		<path class="st16" d="M68.2,149c0,2.1-1.6,3.7-3.8,3.7s-3.8-1.6-3.8-3.7s1.6-3.7,3.8-3.7S68.2,146.9,68.2,149z M62,149
			c0,1.3,1.1,2.4,2.4,2.4s2.4-1.1,2.4-2.4c0-1.3-1.1-2.4-2.4-2.4S62,147.6,62,149z"/>
		<path class="st16" d="M71.3,146.6L71.3,146.6c0.6-0.8,1.4-1.4,2.5-1.4c2,0,3.3,1.8,3.3,3.7c0,2-1.2,3.8-3.4,3.8
			c-1,0-1.8-0.5-2.4-1.3h0v5.1H70v-11h1.3V146.6z M75.7,149c0-1.4-0.8-2.5-2.3-2.5c-1.4,0-2.2,1.2-2.2,2.5c0,1.3,0.8,2.5,2.2,2.5
			C74.9,151.5,75.7,150.3,75.7,149z"/>
		<path class="st16" d="M79.9,149.2c0,1.2,0.8,2.3,2.1,2.3c1,0,1.6-0.5,2.1-1.4l1.1,0.6c-0.7,1.2-1.9,1.9-3.3,1.9
			c-2.1,0-3.4-1.6-3.4-3.7c0-2.2,1.2-3.8,3.4-3.8c2.2,0,3.3,1.6,3.3,3.7v0.2H79.9z M83.9,148.2c-0.2-1.1-0.9-1.8-1.9-1.8
			c-1.1,0-1.8,0.8-2,1.8H83.9z"/>
		<path class="st16" d="M88.5,146.6L88.5,146.6c0.4-0.8,1.1-1.3,2-1.3c0.4,0,0.8,0.1,1.1,0.3l-0.6,1.2c-0.2-0.2-0.5-0.3-0.8-0.3
			c-1.5,0-1.6,1.4-1.6,2.5v3.5h-1.4v-7h1.4V146.6z"/>
	</g>
	<g>
		<rect x="95.4" y="139.5" class="st15" width="105.1" height="17"/>
		<path class="st16" d="M139.4,143.3c-0.8-0.7-1.9-1.1-3-1.1c-2.5,0-4.5,2.1-4.5,4.6c0,2.5,1.9,4.6,4.4,4.6c1.1,0,2.2-0.4,3-1.2v1.7
			c-0.9,0.5-2,0.8-3,0.8c-3.2,0-5.9-2.6-5.9-5.8c0-3.3,2.7-6,6-6c1,0,2,0.2,2.8,0.8V143.3z"/>
		<path class="st16" d="M148.3,149c0,2.1-1.6,3.7-3.8,3.7s-3.8-1.6-3.8-3.7s1.6-3.7,3.8-3.7S148.3,146.9,148.3,149z M142.2,149
			c0,1.3,1.1,2.4,2.4,2.4s2.4-1.1,2.4-2.4c0-1.3-1.1-2.4-2.4-2.4S142.2,147.6,142.2,149z"/>
		<path class="st16" d="M155.5,151.4L155.5,151.4c-0.6,0.8-1.4,1.3-2.4,1.3c-2.2,0-3.4-1.8-3.4-3.8c0-1.9,1.3-3.7,3.3-3.7
			c1,0,1.9,0.5,2.4,1.4h0v-7.2h1.4v13h-1.4V151.4z M155.6,149c0-1.4-0.8-2.5-2.3-2.5c-1.4,0-2.2,1.2-2.2,2.5c0,1.3,0.8,2.5,2.2,2.5
			C154.8,151.5,155.6,150.3,155.6,149z"/>
		<path class="st16" d="M160.1,149.2c0,1.2,0.8,2.3,2.1,2.3c1,0,1.6-0.5,2.1-1.4l1.1,0.6c-0.7,1.2-1.9,1.9-3.3,1.9
			c-2.1,0-3.4-1.6-3.4-3.7c0-2.2,1.2-3.8,3.4-3.8c2.2,0,3.3,1.6,3.3,3.7v0.2H160.1z M164.1,148.2c-0.2-1.1-0.9-1.8-1.9-1.8
			c-1.1,0-1.8,0.8-2,1.8H164.1z"/>
	</g>
	<g>
		<rect x="203.1" y="139.5" class="st15" width="105.1" height="17"/>
		<path class="st16" d="M247.6,152.5h-1.4v-10h-2.7v-1.3h6.8v1.3h-2.7V152.5z"/>
		<path class="st16" d="M251.8,149.2c0,1.2,0.8,2.3,2.1,2.3c1,0,1.6-0.5,2.1-1.4l1.1,0.6c-0.7,1.2-1.9,1.9-3.3,1.9
			c-2.1,0-3.4-1.6-3.4-3.7c0-2.2,1.2-3.8,3.4-3.8c2.2,0,3.3,1.6,3.3,3.7v0.2H251.8z M255.8,148.2c-0.2-1.1-0.9-1.8-1.9-1.8
			c-1.1,0-1.8,0.8-2,1.8H255.8z"/>
		<path class="st16" d="M261.7,147.1c-0.2-0.3-0.5-0.6-0.9-0.6c-0.4,0-0.7,0.3-0.7,0.7c0,0.6,0.8,0.9,1.6,1.3c0.8,0.4,1.6,0.9,1.6,2
			c0,1.3-1.1,2.3-2.4,2.3c-1,0-2.1-0.6-2.4-1.6l1.2-0.5c0.3,0.5,0.6,0.9,1.3,0.9c0.6,0,1.1-0.4,1.1-1c0-0.4-0.2-0.6-0.5-0.8
			l-1.3-0.7c-0.8-0.4-1.4-0.8-1.4-1.8c0-1.1,0.9-2,2.1-2c0.9,0,1.5,0.5,1.9,1.2L261.7,147.1z"/>
		<path class="st16" d="M266.7,152.5h-1.4v-5.8h-0.7v-1.3h0.7v-2.7h1.4v2.7h1.3v1.3h-1.3V152.5z"/>
	</g>
	<g>
		<rect x="205.3" y="14.7" class="st15" width="105.1" height="17"/>
		<path class="st16" d="M232.3,18.5c-0.8-0.7-1.9-1.1-3-1.1c-2.5,0-4.5,2.1-4.5,4.6c0,2.5,1.9,4.6,4.4,4.6c1.1,0,2.2-0.4,3-1.2v1.7
			c-0.9,0.5-2,0.8-3,0.8c-3.2,0-5.9-2.6-5.9-5.8c0-3.3,2.7-6,6-6c1,0,2,0.2,2.8,0.8V18.5z"/>
		<path class="st16" d="M241.3,24.2c0,2.1-1.6,3.7-3.8,3.7s-3.8-1.6-3.8-3.7c0-2.1,1.6-3.7,3.8-3.7S241.3,22.1,241.3,24.2z
			 M235.1,24.2c0,1.3,1.1,2.4,2.4,2.4s2.4-1.1,2.4-2.4c0-1.3-1.1-2.4-2.4-2.4S235.1,22.8,235.1,24.2z"/>
		<path class="st16" d="M244.4,21.5L244.4,21.5c0.4-0.6,1.1-1.1,1.9-1.1c0.9,0,1.6,0.5,2,1.2c0.4-0.8,1.3-1.2,2.2-1.2
			c1.8,0,2.3,1.4,2.3,3v4.2h-1.4v-4c0-0.9-0.1-2.1-1.3-2.1c-1.4,0-1.5,1.5-1.5,2.6v3.4h-1.3V24c0-0.9,0-2.3-1.3-2.3
			c-1.4,0-1.6,1.5-1.6,2.6v3.4h-1.4v-7h1.4V21.5z"/>
		<path class="st16" d="M256.5,21.5L256.5,21.5c0.4-0.6,1.1-1.1,1.9-1.1c0.9,0,1.6,0.5,2,1.2c0.4-0.8,1.3-1.2,2.2-1.2
			c1.8,0,2.3,1.4,2.3,3v4.2h-1.4v-4c0-0.9-0.1-2.1-1.3-2.1c-1.4,0-1.5,1.5-1.5,2.6v3.4h-1.3V24c0-0.9,0-2.3-1.3-2.3
			c-1.4,0-1.6,1.5-1.6,2.6v3.4h-1.4v-7h1.4V21.5z"/>
		<path class="st16" d="M268.1,24.4c0,1.2,0.8,2.3,2.1,2.3c1,0,1.6-0.5,2.1-1.4l1.1,0.6c-0.7,1.2-1.9,1.9-3.3,1.9
			c-2.1,0-3.4-1.6-3.4-3.7c0-2.2,1.2-3.8,3.4-3.8c2.2,0,3.3,1.6,3.3,3.7v0.2H268.1z M272.2,23.4c-0.2-1.1-0.9-1.8-1.9-1.8
			c-1.1,0-1.8,0.8-2,1.8H272.2z"/>
		<path class="st16" d="M276.7,21.6L276.7,21.6c0.5-0.8,1.3-1.2,2.1-1.2c2,0,2.5,1.3,2.5,3v4.2H280v-4c0-1.2-0.2-2-1.5-2
			c-1.7,0-1.7,1.5-1.7,2.8v3.2h-1.3v-7h1.3V21.6z"/>
		<path class="st16" d="M285.2,27.7h-1.4v-5.8h-0.7v-1.3h0.7V18h1.4v2.7h1.3v1.3h-1.3V27.7z"/>
		<path class="st16" d="M290.7,22.3c-0.2-0.3-0.5-0.6-0.9-0.6c-0.4,0-0.7,0.3-0.7,0.7c0,0.6,0.8,0.9,1.6,1.3c0.8,0.4,1.6,0.9,1.6,2
			c0,1.3-1.1,2.3-2.4,2.3c-1,0-2.1-0.6-2.4-1.6l1.2-0.5c0.3,0.5,0.6,0.9,1.3,0.9c0.6,0,1.1-0.4,1.1-1c0-0.4-0.2-0.6-0.5-0.8
			l-1.3-0.7c-0.8-0.4-1.4-0.8-1.4-1.8c0-1.1,0.9-2,2.1-2c0.9,0,1.5,0.5,1.9,1.2L290.7,22.3z"/>
	</g>
	<g>
		<rect x="312.4" y="139.2" class="st15" width="105.1" height="35"/>
		<path class="st16" d="M356.5,143.1c-0.8-0.7-1.9-1.1-3-1.1c-2.5,0-4.5,2.1-4.5,4.6c0,2.5,1.9,4.6,4.4,4.6c1.1,0,2.2-0.4,3-1.2v1.7
			c-0.9,0.5-2,0.8-3,0.8c-3.2,0-5.9-2.6-5.9-5.8c0-3.3,2.7-6,6-6c1,0,2,0.2,2.8,0.8V143.1z"/>
		<path class="st16" d="M365.4,148.7c0,2.1-1.6,3.7-3.8,3.7c-2.1,0-3.8-1.6-3.8-3.7s1.7-3.7,3.8-3.7
			C363.7,145,365.4,146.6,365.4,148.7z M359.2,148.7c0,1.3,1.1,2.4,2.4,2.4s2.4-1.1,2.4-2.4c0-1.3-1.1-2.4-2.4-2.4
			S359.2,147.4,359.2,148.7z"/>
		<path class="st16" d="M372.6,151.1L372.6,151.1c-0.6,0.8-1.4,1.3-2.4,1.3c-2.2,0-3.4-1.8-3.4-3.8c0-1.9,1.3-3.7,3.3-3.7
			c1,0,1.9,0.5,2.4,1.4h0v-7.2h1.4v13h-1.4V151.1z M372.6,148.7c0-1.4-0.8-2.5-2.3-2.5c-1.4,0-2.2,1.2-2.2,2.5
			c0,1.3,0.8,2.5,2.2,2.5C371.8,151.3,372.6,150.1,372.6,148.7z"/>
		<path class="st16" d="M377.1,148.9c0,1.2,0.8,2.3,2.1,2.3c1,0,1.6-0.5,2.1-1.4l1.1,0.6c-0.7,1.2-1.9,1.9-3.3,1.9
			c-2.1,0-3.5-1.6-3.5-3.7c0-2.2,1.2-3.8,3.4-3.8c2.2,0,3.3,1.6,3.3,3.7v0.2H377.1z M381.1,147.9c-0.2-1.1-0.9-1.8-1.9-1.8
			c-1,0-1.8,0.8-2,1.8H381.1z"/>
		<path class="st16" d="M349.9,170.2h-1.7l-3.3-4.8h-0.6v4.8h-1.4v-11.3h1.7c1,0,2.1,0,3,0.5c0.9,0.6,1.5,1.6,1.5,2.7
			c0,1.6-1.1,3-2.7,3.2L349.9,170.2z M344.3,164.3h0.5c1.4,0,3-0.3,3-2.1c0-1.8-1.7-2-3.1-2h-0.4V164.3z"/>
		<path class="st16" d="M351.9,166.9c0,1.2,0.8,2.3,2.1,2.3c1,0,1.6-0.5,2.1-1.4l1.1,0.6c-0.7,1.2-1.9,1.9-3.3,1.9
			c-2.1,0-3.4-1.6-3.4-3.7c0-2.2,1.2-3.8,3.4-3.8c2.2,0,3.3,1.6,3.3,3.7v0.2H351.9z M355.9,165.9c-0.2-1.1-0.9-1.8-1.9-1.8
			c-1.1,0-1.8,0.8-2,1.8H355.9z"/>
		<path class="st16" d="M361.4,167.6l2-4.4h1.5l-3.5,7.3l-3.5-7.3h1.5L361.4,167.6z"/>
		<path class="st16" d="M368.1,160c0,0.5-0.4,0.9-0.9,0.9c-0.5,0-0.9-0.4-0.9-0.9c0-0.5,0.4-0.9,0.9-0.9
			C367.6,159.1,368.1,159.5,368.1,160z M367.8,170.2h-1.4v-7h1.4V170.2z"/>
		<path class="st16" d="M371.2,166.9c0,1.2,0.8,2.3,2.1,2.3c1,0,1.6-0.5,2.1-1.4l1.1,0.6c-0.7,1.2-1.9,1.9-3.3,1.9
			c-2.1,0-3.4-1.6-3.4-3.7c0-2.2,1.2-3.8,3.4-3.8c2.2,0,3.3,1.6,3.3,3.7v0.2H371.2z M375.2,165.9c-0.2-1.1-0.9-1.8-1.9-1.8
			c-1.1,0-1.8,0.8-2,1.8H375.2z"/>
		<path class="st16" d="M380.6,167.7l2.1-4.9l2.1,4.9l2-4.5h1.5l-3.6,7.3l-2.1-4.7l-2.1,4.7l-3.6-7.3h1.5L380.6,167.7z"/>
	</g>
	<g>
		<rect x="417.5" y="139.2" class="st15" width="105.1" height="17"/>
		<path class="st16" d="M450.5,143.1c-0.8-0.7-1.9-1.1-3-1.1c-2.5,0-4.5,2.1-4.5,4.6c0,2.5,1.9,4.6,4.4,4.6c1.1,0,2.2-0.4,3-1.2v1.7
			c-0.9,0.5-2,0.8-3,0.8c-3.2,0-5.9-2.6-5.9-5.8c0-3.3,2.7-6,6-6c1,0,2,0.2,2.8,0.8V143.1z"/>
		<path class="st16" d="M453.6,139.2v6.9h0c0.4-0.8,1.3-1.2,2.1-1.2c2,0,2.5,1.3,2.5,3v4.2h-1.3v-4c0-1.2-0.2-2-1.5-2
			c-1.7,0-1.7,1.5-1.7,2.8v3.2h-1.3v-13H453.6z"/>
		<path class="st16" d="M461.5,148.9c0,1.2,0.8,2.3,2.1,2.3c1,0,1.6-0.5,2.1-1.4l1.1,0.6c-0.7,1.2-1.9,1.9-3.3,1.9
			c-2.1,0-3.5-1.6-3.5-3.7c0-2.2,1.2-3.8,3.4-3.8c2.2,0,3.3,1.6,3.3,3.7v0.2H461.5z M465.5,147.9c-0.2-1.1-0.9-1.8-1.9-1.8
			c-1,0-1.8,0.8-2,1.8H465.5z"/>
		<path class="st16" d="M473.9,147.2c-0.5-0.6-1.2-0.9-2-0.9c-1.3,0-2.3,1.2-2.3,2.5c0,1.4,1,2.5,2.4,2.5c0.8,0,1.4-0.4,1.9-0.9v1.7
			c-0.6,0.3-1.2,0.5-1.9,0.5c-2.1,0-3.8-1.6-3.8-3.7c0-2.2,1.7-3.8,3.8-3.8c0.6,0,1.3,0.1,1.9,0.5V147.2z"/>
		<path class="st16" d="M477.4,147.9l2.6-2.6h1.8l-3,2.9l3.3,4.1h-1.8l-2.5-3.2l-0.5,0.5v2.7h-1.3v-13h1.3V147.9z"/>
		<path class="st16" d="M485.9,146.9v1.1h-3.3v-1.1H485.9z"/>
		<path class="st16" d="M489.7,142c0,0.5-0.4,0.9-0.9,0.9c-0.5,0-0.9-0.4-0.9-0.9c0-0.5,0.4-0.9,0.9-0.9
			C489.3,141.1,489.7,141.5,489.7,142z M489.5,152.2h-1.4v-7h1.4V152.2z"/>
		<path class="st16" d="M493.3,146.2L493.3,146.2c0.5-0.8,1.3-1.2,2.1-1.2c2,0,2.5,1.3,2.5,3v4.2h-1.3v-4c0-1.2-0.2-2-1.5-2
			c-1.7,0-1.7,1.5-1.7,2.8v3.2H492v-7h1.3V146.2z"/>
	</g>
	<g>
		<rect x="539.8" y="139.2" class="st15" width="105.1" height="35"/>
		<path class="st16" d="M583.8,143.1c-0.8-0.7-1.9-1.1-3-1.1c-2.5,0-4.5,2.1-4.5,4.6c0,2.5,1.9,4.6,4.4,4.6c1.1,0,2.2-0.4,3-1.2v1.7
			c-0.9,0.5-2,0.8-3,0.8c-3.2,0-5.9-2.6-5.9-5.8c0-3.3,2.7-6,6-6c1,0,2,0.2,2.8,0.8V143.1z"/>
		<path class="st16" d="M592.7,148.7c0,2.1-1.6,3.7-3.8,3.7c-2.1,0-3.8-1.6-3.8-3.7s1.7-3.7,3.8-3.7
			C591.1,145,592.7,146.6,592.7,148.7z M586.6,148.7c0,1.3,1.1,2.4,2.4,2.4s2.4-1.1,2.4-2.4c0-1.3-1.1-2.4-2.4-2.4
			S586.6,147.4,586.6,148.7z"/>
		<path class="st16" d="M599.9,151.1L599.9,151.1c-0.6,0.8-1.4,1.3-2.4,1.3c-2.2,0-3.4-1.8-3.4-3.8c0-1.9,1.3-3.7,3.3-3.7
			c1,0,1.9,0.5,2.4,1.4h0v-7.2h1.4v13h-1.4V151.1z M600,148.7c0-1.4-0.8-2.5-2.3-2.5c-1.4,0-2.2,1.2-2.2,2.5c0,1.3,0.8,2.5,2.2,2.5
			C599.2,151.3,600,150.1,600,148.7z"/>
		<path class="st16" d="M604.5,148.9c0,1.2,0.8,2.3,2.1,2.3c1,0,1.6-0.5,2.1-1.4l1.1,0.6c-0.7,1.2-1.9,1.9-3.3,1.9
			c-2.1,0-3.5-1.6-3.5-3.7c0-2.2,1.2-3.8,3.4-3.8c2.2,0,3.3,1.6,3.3,3.7v0.2H604.5z M608.5,147.9c-0.2-1.1-0.9-1.8-1.9-1.8
			c-1,0-1.8,0.8-2,1.8H608.5z"/>
		<path class="st16" d="M564.9,170.2h-1.7l-3.3-4.8h-0.6v4.8h-1.4v-11.3h1.7c1,0,2.1,0,3,0.5c0.9,0.6,1.5,1.6,1.5,2.7
			c0,1.6-1.1,3-2.7,3.2L564.9,170.2z M559.3,164.3h0.5c1.4,0,3-0.3,3-2.1c0-1.8-1.7-2-3.1-2h-0.4V164.3z"/>
		<path class="st16" d="M566.9,166.9c0,1.2,0.8,2.3,2.1,2.3c1,0,1.6-0.5,2.1-1.4l1.1,0.6c-0.7,1.2-1.9,1.9-3.3,1.9
			c-2.1,0-3.4-1.6-3.4-3.7c0-2.2,1.2-3.8,3.4-3.8c2.2,0,3.3,1.6,3.3,3.7v0.2H566.9z M571,165.9c-0.2-1.1-0.9-1.8-1.9-1.8
			c-1.1,0-1.8,0.8-2,1.8H571z"/>
		<path class="st16" d="M575.4,164.4L575.4,164.4c0.6-0.8,1.4-1.4,2.5-1.4c2,0,3.3,1.8,3.3,3.7c0,2-1.2,3.8-3.4,3.8
			c-1,0-1.8-0.5-2.4-1.3h0v5.1h-1.3v-11h1.3V164.4z M579.9,166.7c0-1.4-0.8-2.5-2.3-2.5c-1.4,0-2.2,1.2-2.2,2.5
			c0,1.3,0.8,2.5,2.2,2.5C579.1,169.3,579.9,168.1,579.9,166.7z"/>
		<path class="st16" d="M590.1,166.7c0,2.1-1.6,3.7-3.8,3.7c-2.1,0-3.8-1.6-3.8-3.7s1.7-3.7,3.8-3.7
			C588.5,163,590.1,164.6,590.1,166.7z M584,166.7c0,1.3,1.1,2.4,2.4,2.4s2.4-1.1,2.4-2.4c0-1.3-1.1-2.4-2.4-2.4
			S584,165.4,584,166.7z"/>
		<path class="st16" d="M594.6,164.8c-0.2-0.3-0.5-0.6-0.9-0.6c-0.4,0-0.7,0.3-0.7,0.7c0,0.6,0.8,0.9,1.6,1.3s1.6,0.9,1.6,2
			c0,1.3-1.1,2.3-2.4,2.3c-1,0-2.1-0.6-2.4-1.6l1.2-0.5c0.3,0.5,0.6,0.9,1.3,0.9c0.6,0,1.1-0.4,1.1-1c0-0.4-0.2-0.6-0.5-0.8
			l-1.3-0.7c-0.8-0.4-1.3-0.8-1.3-1.8c0-1.1,0.9-2,2.1-2c0.9,0,1.5,0.5,1.9,1.2L594.6,164.8z"/>
		<path class="st16" d="M599.8,160c0,0.5-0.4,0.9-0.9,0.9c-0.5,0-0.9-0.4-0.9-0.9c0-0.5,0.4-0.9,0.9-0.9
			C599.4,159.1,599.8,159.5,599.8,160z M599.5,170.2h-1.4v-7h1.4V170.2z"/>
		<path class="st16" d="M603.6,170.2h-1.3v-5.8h-0.7v-1.3h0.7v-2.7h1.3v2.7h1.3v1.3h-1.3V170.2z"/>
		<path class="st16" d="M613.2,166.7c0,2.1-1.6,3.7-3.8,3.7c-2.1,0-3.8-1.6-3.8-3.7s1.7-3.7,3.8-3.7
			C611.5,163,613.2,164.6,613.2,166.7z M607,166.7c0,1.3,1.1,2.4,2.4,2.4s2.4-1.1,2.4-2.4c0-1.3-1.1-2.4-2.4-2.4
			S607,165.4,607,166.7z"/>
		<path class="st16" d="M616.4,164.4L616.4,164.4c0.4-0.8,1.1-1.3,2-1.3c0.4,0,0.8,0.1,1.1,0.3l-0.6,1.2c-0.2-0.2-0.5-0.3-0.8-0.3
			c-1.5,0-1.6,1.4-1.6,2.5v3.5h-1.4v-7h1.4V164.4z"/>
		<path class="st16" d="M620.3,163.2h1.6l2.4,4.5l2.2-4.5h1.5l-5.7,11h-1.5l2.8-5.2L620.3,163.2z"/>
	</g>
	<g id="Artwork_7_00000089549227093454539480000005330934094238560403_">
		<g>
			<g>
				<line class="st17" x1="510.5" y1="105.4" x2="549.5" y2="105.4"/>
				<g>
					<polygon class="st18" points="548.5,97.4 548.5,113.4 556.5,105.4 					"/>
				</g>
			</g>
		</g>
	</g>
	<g>
		<path d="M140.3,101.2h-1.3V90.6h1.3V101.2z"/>
		<path d="M142.1,90.6h2.2c3.2,0,5.9,1.7,5.9,5.2c0,3.6-2.6,5.3-6,5.3h-2.1V90.6z M143.4,100h0.5c2.7,0,5-1,5-4.1
			c0-3.1-2.3-4.1-5-4.1h-0.5V100z"/>
		<path d="M151.5,90.6h5.7v1.2h-4.4v3h4.2V96h-4.2v4h4.4v1.2h-5.7V90.6z"/>
	</g>
	<g>
	</g>
	<g>
	</g>
	<g>
	</g>
	<g>
	</g>
	<g>
	</g>
	<g>
	</g>
	<g>
	</g>
	<g>
	</g>
	<g>
	</g>
	<g>
	</g>
	<g>
	</g>
	<g>
	</g>
	<g>
	</g>
	<g>
	</g>
	<g>
	</g>
	<g>
	</g>
</g>
</svg>
