<svg version="1.1" xmlns="http://www.w3.org/2000/svg" viewBox="0 0 711.2578125 431.6875" width="1422.515625" height="863.375">
  <!-- svg-source:excalidraw -->
  
  <defs>
    <style class="style-fonts">
      @font-face {
        font-family: "Virgil";
        src: url("https://excalidraw.com/Virgil.woff2");
      }
      @font-face {
        font-family: "Cascadia";
        src: url("https://excalidraw.com/Cascadia.woff2");
      }
    </style>
    
  </defs>
  <rect x="0" y="0" width="711.2578125" height="431.6875" fill="#ffffff"></rect><g stroke-linecap="round" transform="translate(239.310546875 10) rotate(0 105.419921875 36.00390625)"><path d="M18 0 M18 0 C57.12 -1.19, 96.6 1.35, 192.84 0 M18 0 C74.84 2.28, 131.88 1.27, 192.84 0 M192.84 0 C205.44 -0.41, 209 5.53, 210.84 18 M192.84 0 C206.16 1.59, 210.92 5.01, 210.84 18 M210.84 18 C209.49 29.07, 210.4 39.08, 210.84 54.01 M210.84 18 C210.16 26.93, 210.78 36.26, 210.84 54.01 M210.84 54.01 C212.63 66.86, 206.34 73.76, 192.84 72.01 M210.84 54.01 C210.45 64.1, 205.12 71.76, 192.84 72.01 M192.84 72.01 C154.75 72.42, 113.76 72.36, 18 72.01 M192.84 72.01 C126.43 73.51, 60.05 73.43, 18 72.01 M18 72.01 C6.06 71.14, 1.54 65.18, 0 54.01 M18 72.01 C8.2 73.72, 1.89 66.44, 0 54.01 M0 54.01 C1.96 42.76, 0.25 34.27, 0 18 M0 54.01 C0.17 44.68, 0.79 34.85, 0 18 M0 18 C-0.19 4.9, 4.59 1.8, 18 0 M0 18 C-0.28 7.91, 7.61 2.18, 18 0" stroke="#1e1e1e" stroke-width="1" fill="none"></path></g><g transform="translate(276.0605163574219 33.50390625) rotate(0 68.66995239257812 12.5)"><text x="68.66995239257812" y="0" font-family="Virgil, Segoe UI Emoji" font-size="20px" fill="#1e1e1e" text-anchor="middle" style="white-space: pre;" direction="ltr" dominant-baseline="text-before-edge">Java Program</text></g><g stroke-linecap="round" transform="translate(239.83984375 158.61328125) rotate(0 105.419921875 36.00390625)"><path d="M18 0 M18 0 C55.55 -1.25, 91.47 -2.51, 192.84 0 M18 0 C80.15 -0.3, 143.5 0.81, 192.84 0 M192.84 0 C204.59 0.99, 212.51 6.92, 210.84 18 M192.84 0 C206.16 -1.37, 212.65 6.47, 210.84 18 M210.84 18 C211.26 30.54, 211.25 43.84, 210.84 54.01 M210.84 18 C210.84 28.09, 211.41 38.95, 210.84 54.01 M210.84 54.01 C212.04 66.69, 205.35 71.26, 192.84 72.01 M210.84 54.01 C210.38 67.5, 202.63 69.96, 192.84 72.01 M192.84 72.01 C138.04 68.47, 84.57 68.83, 18 72.01 M192.84 72.01 C128.29 72.62, 65.01 72.36, 18 72.01 M18 72.01 C5.1 72.95, -1.88 65.53, 0 54.01 M18 72.01 C4.84 70.36, -0.65 66.21, 0 54.01 M0 54.01 C0.18 41.14, -1.31 26.04, 0 18 M0 54.01 C0.04 42.7, 0.57 29.27, 0 18 M0 18 C0.64 4.85, 6.25 1.39, 18 0 M0 18 C-1.29 4.31, 6.38 -2.13, 18 0" stroke="#1e1e1e" stroke-width="1" fill="none"></path></g><g transform="translate(295.4598083496094 182.1171875) rotate(0 49.799957275390625 12.5)"><text x="49.799957275390625" y="0" font-family="Virgil, Segoe UI Emoji" font-size="20px" fill="#1e1e1e" text-anchor="middle" style="white-space: pre;" direction="ltr" dominant-baseline="text-before-edge">Byte code</text></g><g stroke-linecap="round"><g transform="translate(340.681640625 85.53515625) rotate(0 0.653760494599112 36.13402701145037)"><path d="M-0.35 0.21 C-0.31 12.02, 0.58 59.49, 0.99 71.47 M1.66 -0.72 C1.45 11.23, -0.15 61.19, -0.12 72.99" stroke="#e03131" stroke-width="1" fill="none"></path></g><g transform="translate(340.681640625 85.53515625) rotate(0 0.653760494599112 36.13402701145037)"><path d="M-9.53 44.09 C-6.24 56.35, -1.65 65.34, -0.42 73.86 M-9.09 43.8 C-6.17 54.14, -2.83 63.16, -0.76 73.73" stroke="#e03131" stroke-width="1" fill="none"></path></g><g transform="translate(340.681640625 85.53515625) rotate(0 0.653760494599112 36.13402701145037)"><path d="M10.98 44.45 C6.83 56.52, 3.97 65.38, -0.42 73.86 M11.42 44.17 C7.37 54.48, 3.73 63.37, -0.76 73.73" stroke="#e03131" stroke-width="1" fill="none"></path></g></g><mask></mask><g transform="translate(371.166015625 109.3828125) rotate(0 32.109962463378906 12.5)"><text x="0" y="0" font-family="Virgil, Segoe UI Emoji" font-size="20px" fill="#e03131" text-anchor="start" style="white-space: pre;" direction="ltr" dominant-baseline="text-before-edge">compile</text></g><g stroke-linecap="round" transform="translate(10 311.140625) rotate(0 105.419921875 36.00390625)"><path d="M18 0 M18 0 C79.59 -1.05, 138.31 -0.57, 192.84 0 M18 0 C83.55 0.32, 148.59 0.82, 192.84 0 M192.84 0 C203.81 -0.53, 210.43 7.45, 210.84 18 M192.84 0 C203.07 -1.08, 211.82 8.07, 210.84 18 M210.84 18 C210.37 33.71, 209.82 46.98, 210.84 54.01 M210.84 18 C210.85 30.62, 211.47 44.05, 210.84 54.01 M210.84 54.01 C209.11 64.4, 204.51 70.56, 192.84 72.01 M210.84 54.01 C210 68.25, 202.87 70.58, 192.84 72.01 M192.84 72.01 C132.79 69.43, 71.98 70.49, 18 72.01 M192.84 72.01 C133.26 71.67, 74.32 69.97, 18 72.01 M18 72.01 C6.76 71.85, 0.2 64.98, 0 54.01 M18 72.01 C6.8 70.01, -1.75 64.29, 0 54.01 M0 54.01 C0.57 43.33, 1.24 32.13, 0 18 M0 54.01 C0.79 40.34, -1.09 25.82, 0 18 M0 18 C1.39 6.5, 4.53 -1.58, 18 0 M0 18 C-2.13 3.74, 6.69 -1.47, 18 0" stroke="#1e1e1e" stroke-width="1" fill="none"></path></g><g transform="translate(72.9299545288086 334.64453125) rotate(0 42.489967346191406 12.5)"><text x="42.489967346191406" y="0" font-family="Virgil, Segoe UI Emoji" font-size="20px" fill="#1e1e1e" text-anchor="middle" style="white-space: pre;" direction="ltr" dominant-baseline="text-before-edge">Linux OS</text></g><g stroke-linecap="round" transform="translate(246.64453125 306.04296875) rotate(0 105.419921875 36.00390625)"><path d="M18 0 M18 0 C75.68 2.17, 132.64 1.89, 192.84 0 M18 0 C78.97 1.29, 138.86 1.37, 192.84 0 M192.84 0 C203.69 1.97, 210.2 6.12, 210.84 18 M192.84 0 C206.51 -2.12, 210.1 6.16, 210.84 18 M210.84 18 C211.86 25.64, 212.1 33.92, 210.84 54.01 M210.84 18 C210.69 31.18, 209.81 43.27, 210.84 54.01 M210.84 54.01 C211.07 66.95, 204.74 71.47, 192.84 72.01 M210.84 54.01 C211.61 68.01, 203.16 71.68, 192.84 72.01 M192.84 72.01 C142.82 72.52, 91.25 73.53, 18 72.01 M192.84 72.01 C147.56 71.52, 103.07 70.71, 18 72.01 M18 72.01 C4.34 71.54, -0.62 65.56, 0 54.01 M18 72.01 C8.16 73.83, 0.76 67.6, 0 54.01 M0 54.01 C-1.37 45.06, 0.61 38.64, 0 18 M0 54.01 C-0.77 45.62, 0.8 38.29, 0 18 M0 18 C-0.95 4.63, 7.36 1.99, 18 0 M0 18 C0.01 7.5, 5.68 -2.21, 18 0" stroke="#1e1e1e" stroke-width="1" fill="none"></path></g><g transform="translate(302.08448791503906 329.546875) rotate(0 49.97996520996094 12.5)"><text x="49.97996520996094" y="0" font-family="Virgil, Segoe UI Emoji" font-size="20px" fill="#1e1e1e" text-anchor="middle" style="white-space: pre;" direction="ltr" dominant-baseline="text-before-edge">Window OS</text></g><g stroke-linecap="round" transform="translate(490.41796875 306.56640625) rotate(0 105.419921875 36.00390625)"><path d="M18 0 M18 0 C85.98 -1.33, 152.09 -1.83, 192.84 0 M18 0 C57.12 0.43, 97.8 -0.6, 192.84 0 M192.84 0 C205.3 -0.68, 210.9 5.3, 210.84 18 M192.84 0 C206.46 -1.37, 212.53 7.55, 210.84 18 M210.84 18 C209.69 26.05, 211.4 32.04, 210.84 54.01 M210.84 18 C211.42 28.06, 211.42 40.02, 210.84 54.01 M210.84 54.01 C210.26 66.46, 204.7 71.28, 192.84 72.01 M210.84 54.01 C210.83 68.19, 203.77 73.55, 192.84 72.01 M192.84 72.01 C147.64 72.1, 99.52 71.59, 18 72.01 M192.84 72.01 C125.49 72.53, 59.1 71.52, 18 72.01 M18 72.01 C4.22 71.22, -0.75 67.68, 0 54.01 M18 72.01 C7.24 70.04, -0.89 66.79, 0 54.01 M0 54.01 C0.46 43.04, -1.32 32.99, 0 18 M0 54.01 C0.85 40.24, -0.18 26.41, 0 18 M0 18 C1.03 4.67, 4.03 1, 18 0 M0 18 C-0.65 5.58, 7.12 -0.2, 18 0" stroke="#1e1e1e" stroke-width="1" fill="none"></path></g><g transform="translate(558.1479110717773 330.0703125) rotate(0 37.689979553222656 12.5)"><text x="37.689979553222656" y="0" font-family="Virgil, Segoe UI Emoji" font-size="20px" fill="#1e1e1e" text-anchor="middle" style="white-space: pre;" direction="ltr" dominant-baseline="text-before-edge">Mac OS</text></g><g stroke-linecap="round"><g transform="translate(350.509765625 227.49609375) rotate(0 -119.38490882321264 42.51951423697173)"><path d="M0.06 -0.94 C-26.05 4.35, -117.97 18.01, -157.72 32.5 C-197.48 46.98, -224.79 77.23, -238.48 85.98 M-1.37 1.18 C-27.45 6.1, -118.54 17.09, -158.12 30.94 C-197.7 44.78, -225.19 75.02, -238.83 84.24" stroke="#f08c00" stroke-width="1" fill="none"></path></g><g transform="translate(350.509765625 227.49609375) rotate(0 -119.38490882321264 42.51951423697173)"><path d="M-224.98 60.26 C-224.73 65.26, -227.87 68.38, -238.5 82.88 M-223.01 57.72 C-229.21 68.2, -233.82 76.58, -238.48 84.38" stroke="#f08c00" stroke-width="1" fill="none"></path></g><g transform="translate(350.509765625 227.49609375) rotate(0 -119.38490882321264 42.51951423697173)"><path d="M-212.05 76.19 C-214.63 77.84, -220.5 77.59, -238.5 82.88 M-210.07 73.65 C-220.7 78.56, -229.8 81.43, -238.48 84.38" stroke="#f08c00" stroke-width="1" fill="none"></path></g></g><mask></mask><g stroke-linecap="round"><g transform="translate(347.935546875 226.6875) rotate(0 0.43952313699196566 41.81709843605756)"><path d="M-0.53 0.21 C-0.24 14.13, 0.71 70.42, 1.06 84.36 M1.39 -0.73 C1.6 12.78, 0.23 68.28, 0.2 82.62" stroke="#f08c00" stroke-width="1" fill="none"></path></g><g transform="translate(347.935546875 226.6875) rotate(0 0.43952313699196566 41.81709843605756)"><path d="M-9.31 54.54 C-5.9 62.31, -4.36 67.05, 1.73 81.64 M-10.42 54.6 C-6.07 64.04, -2.64 74.03, 0.86 83.35" stroke="#f08c00" stroke-width="1" fill="none"></path></g><g transform="translate(347.935546875 226.6875) rotate(0 0.43952313699196566 41.81709843605756)"><path d="M11.21 54.83 C9.68 62.44, 6.28 67.11, 1.73 81.64 M10.09 54.89 C7.11 64.23, 3.21 74.11, 0.86 83.35" stroke="#f08c00" stroke-width="1" fill="none"></path></g></g><mask></mask><g stroke-linecap="round"><g transform="translate(352.853515625 227.41796875) rotate(0 126.28648864359593 40.165971270045276)"><path d="M-0.2 0.99 C23.98 5.49, 103.34 13.17, 145.76 26.32 C188.19 39.46, 236.22 71.06, 254.34 79.87 M-1.77 0.46 C22.24 4.63, 102.42 11.39, 145.04 24.32 C187.66 37.25, 235.6 68.68, 253.96 78.03" stroke="#f08c00" stroke-width="1" fill="none"></path></g><g transform="translate(352.853515625 227.41796875) rotate(0 126.28648864359593 40.165971270045276)"><path d="M226.01 73.84 C235.27 76.16, 247.01 78.14, 254.4 78.51 M224.65 73.73 C231.63 74.24, 236.83 75.2, 253.45 78.23" stroke="#f08c00" stroke-width="1" fill="none"></path></g><g transform="translate(352.853515625 227.41796875) rotate(0 126.28648864359593 40.165971270045276)"><path d="M236.09 55.96 C241.66 64.63, 249.81 72.97, 254.4 78.51 M234.72 55.86 C239.73 60.22, 242.81 64.96, 253.45 78.23" stroke="#f08c00" stroke-width="1" fill="none"></path></g></g><mask></mask><g transform="translate(528.923828125 396.6875) rotate(0 49.0899658203125 12.5)"><text x="0" y="0" font-family="Virgil, Segoe UI Emoji" font-size="20px" fill="#2f9e44" text-anchor="start" style="white-space: pre;" direction="ltr" dominant-baseline="text-before-edge">200Lab.io</text></g></svg>