<?xml version="1.0" standalone="no"?><!DOCTYPE svg PUBLIC "-//W3C//DTD SVG 1.1//EN" "http://www.w3.org/Graphics/SVG/1.1/DTD/svg11.dtd"><svg class="icon" width="200px" height="200.00px" viewBox="0 0 1024 1024" version="1.1" xmlns="http://www.w3.org/2000/svg"><path d="M682.215454 981.446137c-25.532318 0-42.553863-17.021545-42.553864-42.553864v-165.960067c4.255386-34.043091-8.510773-59.575409-29.787704-80.852341-12.766159-12.766159-17.021545-29.787704-8.510773-42.553864 4.255386-17.021545 21.276932-25.532318 34.043091-29.787704 123.406204-12.766159 238.301635-55.320023 238.301635-255.323181 0-46.80925-17.021545-93.6185-51.064636-131.916976-12.766159-12.766159-12.766159-29.787704-8.510772-42.553864 12.766159-34.043091 12.766159-68.086182 4.255386-102.129272-21.276932 4.255386-55.320023 17.021545-110.640045 55.320022-8.510773 8.510773-21.276932 8.510773-34.043091 4.255387-89.363113-25.532318-187.236999-25.532318-276.600112 0-12.766159 4.255386-25.532318 4.255386-38.298477-4.255387C307.741455 104.836549 269.442978 92.07039 248.166047 87.815004c-8.510773 34.043091-8.510773 68.086182 4.255386 102.129272 4.255386 17.021545 4.255386 34.043091-8.510773 42.553864-34.043091 38.298477-51.064636 85.107727-51.064636 131.916976 0 200.003158 114.895431 242.557022 238.301635 255.323181 17.021545 0 29.787704 12.766159 34.043091 29.787704 4.255386 17.021545 0 34.043091-8.510773 42.553864-21.276932 21.276932-29.787704 46.80925-29.787704 76.596954v165.960068c0 25.532318-17.021545 42.553863-42.553863 42.553863s-42.553863-17.021545-42.553864-42.553863v-72.341568c-127.66159 21.276932-182.981613-51.064636-221.28009-97.873886-17.021545-21.276932-29.787704-38.298477-46.80925-42.553864-21.276932-4.255386-38.298477-29.787704-29.787704-51.064636 4.255386-21.276932 29.787704-38.298477 51.064636-29.787704 42.553863 12.766159 68.086182 42.553863 93.6185 72.341568 34.043091 46.80925 63.830795 80.852341 153.193908 63.830795v-4.255386c0-25.532318 4.255386-55.320023 12.766159-76.596955-119.150818-25.532318-246.812408-102.129272-246.812408-327.664748 0-63.830795 21.276932-123.406204 59.575409-170.215454-17.021545-59.575409-12.766159-114.895431 12.766159-170.215454 4.255386-12.766159 12.766159-21.276932 25.532318-25.532318 17.021545-4.255386 72.341568-12.766159 187.236999 59.575409 93.6185-21.276932 191.492386-21.276932 280.855499 0 110.640045-72.341568 170.215454-63.830795 187.236999-59.575409 12.766159 4.255386 21.276932 12.766159 25.532319 25.532318 21.276932 55.320023 25.532318 110.640045 12.766159 165.960067 38.298477 46.80925 59.575409 106.384659 59.575408 170.215454 0 242.557022-144.683136 306.387817-246.812408 331.920135 8.510773 25.532318 12.766159 55.320023 12.766159 80.852341V938.892273c0 25.532318-17.021545 42.553863-42.553863 42.553864z" /></svg>