<svg xmlns="http://www.w3.org/2000/svg" enable-background="new 0 0 24 24" viewBox="0 0 24 24"><path d="M1.004,7.879c0,6.197-0.347,13.894,5.559,15.486c2.132,0.574,3.964,0.696,5.438,0.61c2.674-0.15,4.175-0.969,4.175-0.969l-0.09-1.977c0,0-1.911,0.61-4.059,0.54c-2.127-0.075-4.37-0.235-4.717-2.892c-0.032-0.235-0.047-0.482-0.047-0.745c4.507,1.12,8.349,0.488,9.408,0.359c2.954-0.359,5.528-2.212,5.855-3.905c0.515-2.667,0.474-6.508,0.474-6.508c0-5.206-3.353-6.733-3.353-6.733c-3.291-1.537-12.029-1.521-15.288,0C4.357,1.147,1.004,2.673,1.004,7.879z M5.927,5.212c1.363-1.548,4.201-1.65,5.465,0.327l0.611,1.044l0.611-1.044c1.269-1.987,4.112-1.864,5.465-0.327c1.248,1.463,0.969,2.838,0.969,9.373h-0.002h-2.453V8.469c0-2.662-3.369-2.764-3.369,0.369v3.348h-2.437V8.838c0-3.133-3.369-3.031-3.369-0.369v6.117H4.959C4.959,8.046,4.685,6.664,5.927,5.212z"/></svg>