<svg role="img"  viewBox="0 0 25 25"  xmlns="http://www.w3.org/2000/svg">
<title>Slack icon</title>
<path d="M5.20498 15.8197C5.20498 17.2746 4.01645 18.4632 2.56153 18.4632C1.10662 18.4632 -0.0819092 17.2746 -0.0819092 15.8197C-0.0819092 14.3648 1.10662 13.1763 2.56153 13.1763H5.20498V15.8197Z" />
<path d="M6.53699 15.8197C6.53699 14.3648 7.72551 13.1763 9.18043 13.1763C10.6353 13.1763 11.8239 14.3648 11.8239 15.8197V22.4386C11.8239 23.8935 10.6353 25.082 9.18043 25.082C7.72551 25.082 6.53699 23.8935 6.53699 22.4386V15.8197Z" />
<path d="M9.18043 5.20485C7.72551 5.20485 6.53699 4.01633 6.53699 2.56141C6.53699 1.10649 7.72551 -0.0820312 9.18043 -0.0820312C10.6353 -0.0820312 11.8239 1.10649 11.8239 2.56141V5.20485H9.18043Z" />
<path d="M9.18039 6.53711C10.6353 6.53711 11.8238 7.72563 11.8238 9.18055C11.8238 10.6355 10.6353 11.824 9.18039 11.824H2.56153C1.10662 11.824 -0.0819092 10.6355 -0.0819092 9.18055C-0.0819092 7.72563 1.10662 6.53711 2.56153 6.53711H9.18039Z" />
<path d="M19.7952 9.18055C19.7952 7.72563 20.9837 6.53711 22.4386 6.53711C23.8935 6.53711 25.082 7.72563 25.082 9.18055C25.082 10.6355 23.8935 11.824 22.4386 11.824H19.7952V9.18055Z" />
<path d="M18.4632 9.18027C18.4632 10.6352 17.2746 11.8237 15.8197 11.8237C14.3648 11.8237 13.1763 10.6352 13.1763 9.18027V2.56141C13.1763 1.10649 14.3648 -0.0820312 15.8197 -0.0820312C17.2746 -0.0820312 18.4632 1.10649 18.4632 2.56141V9.18027Z" />
<path d="M15.8197 19.7954C17.2746 19.7954 18.4632 20.9839 18.4632 22.4388C18.4632 23.8938 17.2746 25.0823 15.8197 25.0823C14.3648 25.0823 13.1763 23.8938 13.1763 22.4388V19.7954H15.8197Z" />
<path d="M15.8197 18.4632C14.3648 18.4632 13.1763 17.2746 13.1763 15.8197C13.1763 14.3648 14.3648 13.1763 15.8197 13.1763H22.4386C23.8935 13.1763 25.082 14.3648 25.082 15.8197C25.082 17.2746 23.8935 18.4632 22.4386 18.4632H15.8197Z" />

</svg>
