<svg id="visual" viewBox="0 0 900 900" width="100" height="100" xmlns="http://www.w3.org/2000/svg" xmlns:xlink="http://www.w3.org/1999/xlink" version="1.1"><path d="M0 244L21.5 257.5C43 271 86 298 128.8 300.7C171.7 303.3 214.3 281.7 257.2 285.8C300 290 343 320 385.8 317C428.7 314 471.3 278 514.2 277.5C557 277 600 312 642.8 326.3C685.7 340.7 728.3 334.3 771.2 335.3C814 336.3 857 344.7 878.5 348.8L900 353L900 601L878.5 601C857 601 814 601 771.2 601C728.3 601 685.7 601 642.8 601C600 601 557 601 514.2 601C471.3 601 428.7 601 385.8 601C343 601 300 601 257.2 601C214.3 601 171.7 601 128.8 601C86 601 43 601 21.5 601L0 601Z" fill="#98f1e4"></path><path d="M0 371L21.5 373.7C43 376.3 86 381.7 128.8 379.8C171.7 378 214.3 369 257.2 349.8C300 330.7 343 301.3 385.8 288.7C428.7 276 471.3 280 514.2 294.3C557 308.7 600 333.3 642.8 350C685.7 366.7 728.3 375.3 771.2 367C814 358.7 857 333.3 878.5 320.7L900 308L900 601L878.5 601C857 601 814 601 771.2 601C728.3 601 685.7 601 642.8 601C600 601 557 601 514.2 601C471.3 601 428.7 601 385.8 601C343 601 300 601 257.2 601C214.3 601 171.7 601 128.8 601C86 601 43 601 21.5 601L0 601Z" fill="#7deedc"></path><path d="M0 441L21.5 431C43 421 86 401 128.8 387.7C171.7 374.3 214.3 367.7 257.2 375C300 382.3 343 403.7 385.8 410.3C428.7 417 471.3 409 514.2 398.2C557 387.3 600 373.7 642.8 382.8C685.7 392 728.3 424 771.2 433.2C814 442.3 857 428.7 878.5 421.8L900 415L900 601L878.5 601C857 601 814 601 771.2 601C728.3 601 685.7 601 642.8 601C600 601 557 601 514.2 601C471.3 601 428.7 601 385.8 601C343 601 300 601 257.2 601C214.3 601 171.7 601 128.8 601C86 601 43 601 21.5 601L0 601Z" fill="#5eead4"></path><path d="M0 449L21.5 442.7C43 436.3 86 423.7 128.8 433.2C171.7 442.7 214.3 474.3 257.2 489C300 503.7 343 501.3 385.8 485.8C428.7 470.3 471.3 441.7 514.2 437.2C557 432.7 600 452.3 642.8 467.5C685.7 482.7 728.3 493.3 771.2 489.3C814 485.3 857 466.7 878.5 457.3L900 448L900 601L878.5 601C857 601 814 601 771.2 601C728.3 601 685.7 601 642.8 601C600 601 557 601 514.2 601C471.3 601 428.7 601 385.8 601C343 601 300 601 257.2 601C214.3 601 171.7 601 128.8 601C86 601 43 601 21.5 601L0 601Z" fill="#4fcdb9"></path><path d="M0 538L21.5 540.3C43 542.7 86 547.3 128.8 548.8C171.7 550.3 214.3 548.7 257.2 538.7C300 528.7 343 510.3 385.8 507.3C428.7 504.3 471.3 516.7 514.2 520.2C557 523.7 600 518.3 642.8 515.7C685.7 513 728.3 513 771.2 514.7C814 516.3 857 519.7 878.5 521.3L900 523L900 601L878.5 601C857 601 814 601 771.2 601C728.3 601 685.7 601 642.8 601C600 601 557 601 514.2 601C471.3 601 428.7 601 385.8 601C343 601 300 601 257.2 601C214.3 601 171.7 601 128.8 601C86 601 43 601 21.5 601L0 601Z" fill="#41b19f"></path></svg>