<svg id="visual" viewBox="0 0 900 900" width="100" height="100" xmlns="http://www.w3.org/2000/svg" xmlns:xlink="http://www.w3.org/1999/xlink" version="1.1"><path d="M0 379L30 375.8C60 372.7 120 366.3 180 349.5C240 332.7 300 305.3 360 306.7C420 308 480 338 540 340.3C600 342.7 660 317.3 720 309.5C780 301.7 840 311.3 870 316.2L900 321L900 601L870 601C840 601 780 601 720 601C660 601 600 601 540 601C480 601 420 601 360 601C300 601 240 601 180 601C120 601 60 601 30 601L0 601Z" fill="#98f1e4"></path><path d="M0 388L30 401C60 414 120 440 180 440.5C240 441 300 416 360 397.3C420 378.7 480 366.3 540 376.2C600 386 660 418 720 439.3C780 460.7 840 471.3 870 476.7L900 482L900 601L870 601C840 601 780 601 720 601C660 601 600 601 540 601C480 601 420 601 360 601C300 601 240 601 180 601C120 601 60 601 30 601L0 601Z" fill="#5eead4"></path><path d="M0 449L30 462.7C60 476.3 120 503.7 180 504C240 504.3 300 477.7 360 459C420 440.3 480 429.7 540 440C600 450.3 660 481.7 720 483.8C780 486 840 459 870 445.5L900 432L900 601L870 601C840 601 780 601 720 601C660 601 600 601 540 601C480 601 420 601 360 601C300 601 240 601 180 601C120 601 60 601 30 601L0 601Z" fill="#41b19f"></path></svg>