<svg id="visual" viewBox="0 0 900 900" width="100" height="100" xmlns="http://www.w3.org/2000/svg" xmlns:xlink="http://www.w3.org/1999/xlink" version="1.1"><path d="M0 324L30 332.7C60 341.3 120 358.7 180 364C240 369.3 300 362.7 360 362.2C420 361.7 480 367.3 540 355.5C600 343.7 660 314.3 720 314.3C780 314.3 840 343.7 870 358.3L900 373L900 601L870 601C840 601 780 601 720 601C660 601 600 601 540 601C480 601 420 601 360 601C300 601 240 601 180 601C120 601 60 601 30 601L0 601Z" fill="#98f1e4"></path><path d="M0 365L30 380.3C60 395.7 120 426.3 180 426.2C240 426 300 395 360 391.8C420 388.7 480 413.3 540 410.8C600 408.3 660 378.7 720 360.7C780 342.7 840 336.3 870 333.2L900 330L900 601L870 601C840 601 780 601 720 601C660 601 600 601 540 601C480 601 420 601 360 601C300 601 240 601 180 601C120 601 60 601 30 601L0 601Z" fill="#5eead4"></path><path d="M0 486L30 489C60 492 120 498 180 487.8C240 477.7 300 451.3 360 456.3C420 461.3 480 497.7 540 509.7C600 521.7 660 509.3 720 506.3C780 503.3 840 509.7 870 512.8L900 516L900 601L870 601C840 601 780 601 720 601C660 601 600 601 540 601C480 601 420 601 360 601C300 601 240 601 180 601C120 601 60 601 30 601L0 601Z" fill="#41b19f"></path></svg>