<svg id="visual" viewBox="0 0 900 900" width="100" height="100" xmlns="http://www.w3.org/2000/svg" xmlns:xlink="http://www.w3.org/1999/xlink" version="1.1"><path d="M0 392L30 375.5C60 359 120 326 180 316.8C240 307.7 300 322.3 360 344.2C420 366 480 395 540 410.3C600 425.7 660 427.3 720 428.5C780 429.7 840 430.3 870 430.7L900 431L900 601L870 601C840 601 780 601 720 601C660 601 600 601 540 601C480 601 420 601 360 601C300 601 240 601 180 601C120 601 60 601 30 601L0 601Z" fill="#98f1e4"></path><path d="M0 478L30 461.8C60 445.7 120 413.3 180 399.5C240 385.7 300 390.3 360 405.5C420 420.7 480 446.3 540 441.2C600 436 660 400 720 383.8C780 367.7 840 371.3 870 373.2L900 375L900 601L870 601C840 601 780 601 720 601C660 601 600 601 540 601C480 601 420 601 360 601C300 601 240 601 180 601C120 601 60 601 30 601L0 601Z" fill="#41b19f"></path></svg>