<?xml version="1.0" standalone="no"?>
<!DOCTYPE svg PUBLIC "-//W3C//DTD SVG 20010904//EN"
 "http://www.w3.org/TR/2001/REC-SVG-20010904/DTD/svg10.dtd">
<svg version="1.0" xmlns="http://www.w3.org/2000/svg"
 width="129.0pt" height="129.0pt" viewBox="0 0 259.000000 266.000000"
 preserveAspectRatio="xMidYMid meet">

<g transform="translate(0.000000,266.000000) scale(0.100000,-0.100000)"
fill="#000000" stroke="none">
<path d="M1057 2340 c-49 -55 -97 -143 -97 -180 0 -6 -4 -10 -10 -10 -16 0
-80 -61 -96 -91 -26 -52 -19 -60 30 -33 66 37 164 54 311 54 155 0 242 -17
327 -62 100 -54 128 -118 56 -132 -57 -11 -196 -7 -201 7 -2 7 -10 1 -17 -15
-11 -23 -9 -37 14 -104 14 -43 24 -79 22 -82 -2 -2 -17 5 -32 15 -39 25 -204
25 -251 0 -18 -10 -33 -14 -33 -11 0 4 11 40 25 80 19 55 23 79 16 97 -11 29
-31 45 -31 25 0 -22 -195 -17 -239 5 -43 22 -44 21 -36 -5 22 -71 103 -127
183 -128 23 0 42 -3 42 -7 0 -5 -9 -23 -20 -40 -20 -34 -44 -46 -33 -16 6 16
5 16 -17 0 -33 -23 -98 -21 -137 3 -28 17 -33 17 -33 4 0 -24 19 -57 47 -80
20 -17 26 -33 29 -74 4 -52 33 -132 51 -143 6 -4 9 20 9 56 -1 50 4 71 26 107
14 25 37 55 50 66 l23 22 70 -47 c88 -58 104 -87 77 -139 -22 -42 -104 -102
-189 -137 -56 -22 -57 -24 -32 -33 22 -9 27 -20 39 -84 l13 -73 16 65 c31 124
89 169 218 170 62 0 75 -3 101 -25 43 -36 56 -75 49 -151 -5 -63 -15 -92 -24
-66 -7 20 -20 14 -27 -13 -7 -28 -68 -100 -98 -116 -26 -14 -91 41 -122 102
-23 47 -24 48 -30 23 -9 -35 2 -108 26 -169 26 -65 20 -156 -14 -225 -15 -29
-20 -50 -14 -50 21 0 160 71 209 106 55 39 53 34 -12 -46 -105 -130 -145 -277
-101 -378 25 -59 50 -86 50 -56 1 37 39 101 134 227 118 155 150 220 172 351
14 81 15 116 6 195 -5 53 -8 98 -7 99 2 2 10 -9 18 -25 l15 -28 36 75 c20 41
46 114 58 162 l23 87 -23 47 c-24 48 -25 66 -2 39 7 -8 16 -15 21 -15 12 0 11
156 0 198 -12 39 -2 41 26 4 60 -81 98 -206 109 -355 l6 -92 -36 71 c-20 40
-43 77 -51 84 -13 11 -15 4 -15 -53 0 -37 -7 -111 -16 -167 -16 -103 -16 -277
1 -315 16 -36 -21 2 -64 66 l-39 58 5 -102 c6 -117 -6 -197 -42 -275 -14 -30
-23 -57 -21 -59 2 -3 24 7 48 21 149 87 262 261 289 441 11 69 16 82 50 117
78 81 118 216 99 336 -19 116 -80 224 -184 325 -32 31 -57 59 -55 62 10 9 97
-18 147 -46 53 -30 54 -30 47 -7 -13 41 -67 118 -109 154 -79 68 -211 118
-343 131 -37 3 -60 10 -56 16 8 14 202 3 233 -12 40 -21 -58 76 -105 103 -85
50 -129 59 -291 57 -171 -1 -190 5 -203 68 l-6 34 -58 -63z m577 -552 c21 -29
20 -62 -1 -83 -17 -18 -88 -18 -127 0 -14 6 -17 5 -12 -3 14 -23 -13 -11 -33
14 -31 40 -27 54 17 54 20 0 55 9 77 19 53 25 61 25 79 -1z m-151 -157 c58
-64 81 -126 70 -183 -5 -27 -8 -28 -62 -28 -36 0 -70 7 -94 19 -37 19 -48 16
-25 -7 9 -9 8 -12 -6 -12 -24 0 -73 51 -82 85 -8 32 16 69 67 102 19 12 45 31
59 42 14 11 28 20 31 21 4 0 23 -18 42 -39z"/>
<path d="M663 1730 c-61 -13 -118 -45 -150 -86 -53 -71 -39 -199 27 -234 23
-12 20 -18 45 75 26 92 64 164 111 212 46 46 44 48 -33 33z"/>
<path d="M713 1412 c-68 -91 -87 -150 -88 -267 0 -142 19 -178 191 -356 74
-76 134 -143 134 -149 0 -5 4 -10 9 -10 16 0 33 108 26 162 -8 54 -51 145
-132 276 -73 118 -97 195 -97 310 0 50 0 92 0 92 -1 0 -20 -26 -43 -58z"/>
</g>
</svg>
