
        <svg xmlns="http://www.w3.org/2000/svg" xmlns:xlink="http://www.w3.org/1999/xlink" version="1.1" width="75" 
        height="75" viewBox="0 0 3171.4285714285716 1945.7142857142856">
			
			<g transform="scale(8.571428571428571) translate(10, 10)">
				<defs id="SvgjsDefs7352"><linearGradient id="SvgjsLinearGradient7361"><stop id="SvgjsStop7362" stop-color="#fbb040" offset="0"></stop><stop id="SvgjsStop7363" stop-color="#f9ed32" offset="1"></stop></linearGradient></defs><g id="SvgjsG7353" featureKey="rootContainer" transform="matrix(1,0,0,1,0,0)" fill="#ffffff"><rect y="0" height="1" width="1" opacity="0"></rect><rect y="202" width="350" height="5"></rect></g><g id="SvgjsG7354" featureKey="mugSzh-0" transform="matrix(2.1167576634901657,0,0,2.1167576634901657,105.0293457236136,0.5155832337812676)" fill="url(#SvgjsLinearGradient7361)"><title xmlns="http://www.w3.org/2000/svg">BUSINESS</title><g xmlns="http://www.w3.org/2000/svg" data-name="Layer 44"><path d="M34.13,43.22l.18-2.09s0-.09.17-.13a.11.11,0,0,1,.13,0l1.32,1.63A1.63,1.63,0,0,0,38,43l.93-.58a1.62,1.62,0,0,0,.62-2.06l-.88-1.91s0-.1.08-.2a.12.12,0,0,1,.13,0l2,.77a1.62,1.62,0,0,0,2-.73l.52-1a1.62,1.62,0,0,0-.48-2.09L41.22,34a.16.16,0,0,1,0-.18.15.15,0,0,1,.11-.12l2.08-.3a1.62,1.62,0,0,0,1.39-1.64l0-1.09a1.63,1.63,0,0,0-1.45-1.58l-2.1-.22s-.09,0-.13-.17a.12.12,0,0,1,0-.13l1.66-1.29a1.63,1.63,0,0,0,.4-2.11l-.56-.93a1.62,1.62,0,0,0-2-.66l-1.93.84c-.05,0-.12,0-.17-.06a.16.16,0,0,1-.05-.16l.8-1.94a1.62,1.62,0,0,0-.7-2l-.95-.54a1.62,1.62,0,0,0-2.1.44l-1.26,1.68s-.08.06-.21,0a.12.12,0,0,1-.09-.1l-.26-2.09a1.63,1.63,0,0,0-1.61-1.42H31a1.62,1.62,0,0,0-1.61,1.42l-.26,2.09a.11.11,0,0,1-.07.1c-.29.07-.58.16-.85.26a.11.11,0,0,1-.12,0L26.66,20.5a1.62,1.62,0,0,0-2.13-.27l-.9.61a1.62,1.62,0,0,0-.54,2.08l1,1.88c0,.05,0,.12-.05.18a.15.15,0,0,1-.15.06l-2-.69a1.63,1.63,0,0,0-2,.82l-.48,1A1.63,1.63,0,0,0,20,28.2l1.75,1.16s.06.07,0,.21a.12.12,0,0,1-.09.09L19.58,30a1.62,1.62,0,0,0-1.32,1.69l.06,1.09a1.62,1.62,0,0,0,1.51,1.52l2.1.14c.06,0,.1.06.12.13a.15.15,0,0,1,0,.16l-1.61,1.36a1.63,1.63,0,0,0-.32,2.12l.59.92a1.62,1.62,0,0,0,2.07.58l1.9-.92s.1,0,.19.08a.12.12,0,0,1,0,.13l-.73,2a1.62,1.62,0,0,0,.78,2l1,.5A1.62,1.62,0,0,0,28,43l1.19-1.73s.07-.06.21,0a.12.12,0,0,1,.09.1l.35,2.08a1.63,1.63,0,0,0,1.6,1.35h.06l1.09,0A1.63,1.63,0,0,0,34.13,43.22Zm-2.7,0a.11.11,0,0,1-.13-.1L31,41.07a1.73,1.73,0,0,0-1.68-1.37,1.61,1.61,0,0,0-1.33.7l-1.19,1.73a.12.12,0,0,1-.16,0l-1-.5a.12.12,0,0,1-.06-.15l.73-2a1.64,1.64,0,0,0-.49-1.81,1.61,1.61,0,0,0-1.8-.27l-1.9.92a.12.12,0,0,1-.16,0l-.59-.92a.12.12,0,0,1,0-.16L23,35.92A1.68,1.68,0,0,0,22,33l-2.1-.14a.12.12,0,0,1-.11-.11l-.06-1.09a.12.12,0,0,1,.1-.13l2.07-.39a1.64,1.64,0,0,0,1.3-1.35,1.61,1.61,0,0,0-.69-1.68l-1.76-1.16a.12.12,0,0,1,0-.16l.48-1a.12.12,0,0,1,.15-.06l2,.69a1.69,1.69,0,0,0,2-2.33l-1-1.88a.12.12,0,0,1,0-.16l.9-.61a.12.12,0,0,1,.16,0l1.38,1.58a1.6,1.6,0,0,0,1.75.46q.35-.13.72-.22a1.6,1.6,0,0,0,1.19-1.36l.26-2.09a.12.12,0,0,1,.12-.11h1.09a.12.12,0,0,1,.12.11l.26,2.08a1.64,1.64,0,0,0,1.26,1.38,1.61,1.61,0,0,0,1.72-.59l1.26-1.68a.12.12,0,0,1,.16,0l.95.54a.12.12,0,0,1,.05.15L37,23.65a1.69,1.69,0,0,0,2.21,2.17L41.17,25a.12.12,0,0,1,.15,0l.56.93a.12.12,0,0,1,0,.16l-1.66,1.29a1.64,1.64,0,0,0-.54,1.8A1.61,1.61,0,0,0,41,30.38l2.1.22a.12.12,0,0,1,.11.12l0,1.09a.12.12,0,0,1-.1.12l-2.08.3h0a1.68,1.68,0,0,0-.73,3l1.71,1.23a.12.12,0,0,1,0,.16l-.52,1a.13.13,0,0,1-.15.06l-2-.77a1.64,1.64,0,0,0-1.82.45,1.61,1.61,0,0,0-.3,1.79L38.22,41a.12.12,0,0,1,0,.15l-.93.58a.12.12,0,0,1-.16,0L35.76,40.1a1.64,1.64,0,0,0-1.81-.5A1.61,1.61,0,0,0,32.81,41l-.18,2.09a.12.12,0,0,1-.12.11Z"></path><path d="M38.18,31.49a6.67,6.67,0,1,0-6.67,6.67A6.68,6.68,0,0,0,38.18,31.49Zm-6.67,5.17a5.17,5.17,0,1,1,5.17-5.17A5.17,5.17,0,0,1,31.51,36.66Z"></path><path d="M19.21,23.45l-.47-1,1,.4a1.35,1.35,0,0,0,1.67-.61l.35-.65a1.34,1.34,0,0,0-.4-1.73l-.9-.65L21.6,19a1.35,1.35,0,0,0,1.15-1.36l0-.74a1.35,1.35,0,0,0-1.2-1.31l-1.11-.12.88-.68a1.34,1.34,0,0,0,.33-1.75l-.38-.63a1.35,1.35,0,0,0-1.69-.54l-1,.45.43-1a1.34,1.34,0,0,0-.58-1.68l-.64-.36A1.35,1.35,0,0,0,16,9.65l-.66.89-.14-1.1a1.34,1.34,0,0,0-1.33-1.18h-.74A1.34,1.34,0,0,0,11.8,9.44l-.17,1.31-.37.12-.87-1a1.34,1.34,0,0,0-1.76-.23L8,10.06a1.34,1.34,0,0,0-.44,1.72l.5,1L7,12.41a1.34,1.34,0,0,0-1.65.68l-.33.66a1.34,1.34,0,0,0,.47,1.71l.93.61-1.09.2a1.35,1.35,0,0,0-1.09,1.4l0,.74a1.34,1.34,0,0,0,1.25,1.26l1.11.07-.85.72a1.34,1.34,0,0,0-.26,1.75l.4.62a1.34,1.34,0,0,0,1.71.48l1-.49-.38,1a1.34,1.34,0,0,0,.64,1.66l.66.34a1.34,1.34,0,0,0,1.72-.43l.63-.91.18,1.1a1.35,1.35,0,0,0,1.32,1.12h.05l.74,0a1.35,1.35,0,0,0,1.29-1.23l.09-1.11.7.86a1.34,1.34,0,0,0,1.75.3l.63-.39A1.34,1.34,0,0,0,19.21,23.45Zm-1.71-2.16a1.33,1.33,0,0,0-.25,1.49L17.79,24l-.39.24-.81-1a1.35,1.35,0,0,0-1.48-.42,1.33,1.33,0,0,0-.95,1.17L14,25.23l-.46,0L13.36,24a1.35,1.35,0,0,0-1.08-1.1,1.37,1.37,0,0,0-.3,0,1.33,1.33,0,0,0-1.1.58l-.73,1.06-.41-.21.45-1.21a1.35,1.35,0,0,0-.39-1.49,1.33,1.33,0,0,0-1.49-.22l-1.16.56-.25-.39,1-.83a1.39,1.39,0,0,0-.8-2.42l-1.29-.08,0-.46L7,17.49a1.35,1.35,0,0,0,1.08-1.1A1.33,1.33,0,0,0,7.54,15l-1.08-.71.2-.41,1.22.42a1.39,1.39,0,0,0,1.67-1.92L9,11.23,9.35,11l.85,1a1.32,1.32,0,0,0,1.45.38l.47-.14a1.33,1.33,0,0,0,1-1.13l.16-1.28h.46L13.9,11a1.38,1.38,0,0,0,2.46.65l.77-1,.4.23L17,12.08a1.38,1.38,0,0,0,1.82,1.78L20,13.35l.23.39-1,.79A1.35,1.35,0,0,0,18.8,16,1.33,1.33,0,0,0,20,17l1.29.14v.46L20,17.77a1.38,1.38,0,0,0-.6,2.47l1,.75-.22.41L19,20.93A1.35,1.35,0,0,0,17.49,21.29Z"></path><path d="M13.5,12.73a4.77,4.77,0,1,0,4.77,4.77A4.78,4.78,0,0,0,13.5,12.73Zm0,8a3.27,3.27,0,1,1,3.27-3.27A3.27,3.27,0,0,1,13.5,20.77Z"></path><path d="M49.53,49.64l-1.11-.12.88-.68a1.35,1.35,0,0,0,.33-1.75l-.38-.64a1.35,1.35,0,0,0-1.69-.54l-1,.45.42-1a1.34,1.34,0,0,0-.58-1.68l-.64-.36a1.34,1.34,0,0,0-1.74.36l-.66.89-.14-1.1a1.34,1.34,0,0,0-1.33-1.18h-.74a1.34,1.34,0,0,0-1.33,1.18l-.16,1.31-.38.12-.87-1a1.35,1.35,0,0,0-1.76-.23l-.61.42a1.35,1.35,0,0,0-.44,1.72l.5,1L35,46.41a1.34,1.34,0,0,0-1.64.68l-.33.67a1.35,1.35,0,0,0,.47,1.71l.93.61-1.09.2a1.34,1.34,0,0,0-1.09,1.4l0,.74a1.34,1.34,0,0,0,1.25,1.26l1.11.07-.85.72a1.35,1.35,0,0,0-.26,1.76l.4.62a1.35,1.35,0,0,0,1.71.48l1-.49-.38,1a1.34,1.34,0,0,0,.64,1.66l.66.34a1.35,1.35,0,0,0,1.72-.43l.63-.91.18,1.1a1.35,1.35,0,0,0,1.32,1.12h.05l.74,0a1.34,1.34,0,0,0,1.29-1.23l.09-1.11.7.86a1.34,1.34,0,0,0,1.75.3l.63-.39a1.35,1.35,0,0,0,.51-1.7l-.47-1,1,.41a1.35,1.35,0,0,0,1.67-.61l.35-.65a1.34,1.34,0,0,0-.4-1.73l-.9-.65L49.6,53a1.35,1.35,0,0,0,1.15-1.35V51A1.35,1.35,0,0,0,49.53,49.64ZM48,51.77a1.35,1.35,0,0,0-1.1,1l0,.05a1.35,1.35,0,0,0,.52,1.43l1,.75-.22.41L47,54.93a1.35,1.35,0,0,0-1.5.37,1.33,1.33,0,0,0-.25,1.49L45.79,58l-.39.24-.81-1a1.36,1.36,0,0,0-1.49-.42,1.33,1.33,0,0,0-.95,1.17L42,59.23l-.46,0L41.36,58a1.35,1.35,0,0,0-1.08-1.1,1.37,1.37,0,0,0-.3,0,1.33,1.33,0,0,0-1.1.58l-.73,1.06-.41-.21.45-1.21a1.35,1.35,0,0,0-.39-1.49,1.33,1.33,0,0,0-1.49-.22l-1.16.56-.25-.39,1-.83a1.38,1.38,0,0,0-.79-2.42l-1.29-.08,0-.46L35,51.49a1.35,1.35,0,0,0,1.08-1.1A1.33,1.33,0,0,0,35.54,49l-1.08-.71.2-.41,1.22.42a1.38,1.38,0,0,0,1.67-1.92L37,45.23l.38-.26.85,1a1.33,1.33,0,0,0,1.45.38l.47-.15a1.33,1.33,0,0,0,1-1.13l.16-1.28h.46L41.9,45a1.35,1.35,0,0,0,1,1.14,1.33,1.33,0,0,0,1.43-.49l.77-1,.4.23L45,46.08a1.31,1.31,0,0,0,.26,1.42l.07.07a1.35,1.35,0,0,0,1.49.29L48,47.35l.23.39-1,.79A1.35,1.35,0,0,0,46.8,50,1.33,1.33,0,0,0,48,51l1.29.14v.46Z"></path><path d="M41.5,46.73a4.77,4.77,0,1,0,4.77,4.77A4.78,4.78,0,0,0,41.5,46.73Zm0,8a3.27,3.27,0,1,1,3.27-3.27A3.28,3.28,0,0,1,41.5,54.77Z"></path><path d="M61.75,23.69V23a1.35,1.35,0,0,0-1.2-1.31l-1.11-.12.88-.68a1.35,1.35,0,0,0,.33-1.75l-.38-.64a1.35,1.35,0,0,0-1.69-.54l-1,.45.42-1a1.34,1.34,0,0,0-.58-1.68l-.64-.36a1.34,1.34,0,0,0-1.74.36l-.66.89-.14-1.1a1.34,1.34,0,0,0-1.33-1.18h-.74a1.34,1.34,0,0,0-1.33,1.18l-.16,1.31-.38.12-.87-1a1.35,1.35,0,0,0-1.76-.23l-.61.42a1.35,1.35,0,0,0-.44,1.72l.5,1L46,18.41a1.34,1.34,0,0,0-1.64.68l-.33.67a1.35,1.35,0,0,0,.47,1.71l.93.61-1.09.2a1.35,1.35,0,0,0-1.09,1.4l0,.74a1.34,1.34,0,0,0,1.25,1.26l1.11.07-.85.72a1.35,1.35,0,0,0-.26,1.76l.4.62a1.35,1.35,0,0,0,1.71.48l1-.49-.38,1a1.34,1.34,0,0,0,.64,1.66l.66.34a1.35,1.35,0,0,0,1.72-.43l.63-.91.18,1.1a1.35,1.35,0,0,0,1.32,1.12h.05l.74,0a1.34,1.34,0,0,0,1.29-1.23l.09-1.11.7.86a1.34,1.34,0,0,0,1.75.3l.63-.39a1.35,1.35,0,0,0,.51-1.7l-.47-1,1,.41a1.35,1.35,0,0,0,1.67-.61l.35-.65a1.34,1.34,0,0,0-.4-1.73l-.9-.65L60.6,25A1.35,1.35,0,0,0,61.75,23.69ZM59,23.77a1.35,1.35,0,0,0-1.1,1l0,.05a1.35,1.35,0,0,0,.52,1.43l1,.75-.22.41L58,26.93a1.35,1.35,0,0,0-1.5.37,1.33,1.33,0,0,0-.25,1.49L56.79,30l-.39.24-.81-1a1.35,1.35,0,0,0-1.49-.42,1.33,1.33,0,0,0-.95,1.17L53,31.23l-.46,0L52.36,30a1.35,1.35,0,0,0-1.08-1.1,1.37,1.37,0,0,0-.3,0,1.33,1.33,0,0,0-1.1.58l-.73,1.06-.41-.21.45-1.21a1.35,1.35,0,0,0-.39-1.49,1.33,1.33,0,0,0-1.49-.22l-1.16.56-.25-.39,1-.83a1.38,1.38,0,0,0-.79-2.42l-1.29-.08,0-.46L46,23.49a1.35,1.35,0,0,0,1.08-1.1A1.33,1.33,0,0,0,46.54,21l-1.08-.71.2-.41,1.22.42a1.38,1.38,0,0,0,1.67-1.92L48,17.23l.38-.26.85,1a1.33,1.33,0,0,0,1.45.38l.47-.15a1.33,1.33,0,0,0,1-1.13l.16-1.28h.46L52.9,17a1.35,1.35,0,0,0,1,1.14,1.33,1.33,0,0,0,1.43-.49l.77-1,.4.23L56,18.08a1.31,1.31,0,0,0,.26,1.42l.07.07a1.35,1.35,0,0,0,1.49.29L59,19.35l.23.39-1,.79A1.35,1.35,0,0,0,57.8,22,1.33,1.33,0,0,0,59,23l1.29.14v.46Z"></path><path d="M52.5,18.73a4.77,4.77,0,1,0,4.77,4.77A4.78,4.78,0,0,0,52.5,18.73Zm0,8a3.27,3.27,0,1,1,3.27-3.27A3.28,3.28,0,0,1,52.5,26.77Z"></path></g></g><g id="SvgjsG7355" featureKey="PPkF4s-0" transform="matrix(2.078384873429065,0,0,2.078384873429065,-2.3277903248627116,135.24109435785414)" fill="#ffffff"><path d="M6.38 11.9 c1.52 0.72 3.5 1.86 3.5 3.92 c0 0.6 -0.1 1.76 -0.76 2.74 c-0.74 1.1 -1.9 1.64 -3.5 1.64 c-1.7 0 -3.68 -0.82 -4.3 -2.68 c-0.02 -0.06 0 -0.12 0.06 -0.16 l1.84 -1.58 c0.08 -0.06 0.2 -0.06 0.26 0.04 c0.04 0.1 0.12 0.26 0.22 0.46 c0.3 0.62 1.02 1.24 1.82 1.24 c0.62 0 1.46 -0.34 1.46 -1.3 c0 -0.92 -1.26 -1.44 -2.04 -1.74 c-0.9 -0.36 -1.82 -0.82 -2.6 -1.5 c-0.82 -0.76 -1.22 -1.6 -1.22 -2.6 c0 -2.5 2.3 -3.76 4.48 -3.76 c1.72 0 3 0.9 3.84 2.68 c0.04 0.08 0 0.18 -0.06 0.22 l-1.78 1.24 c-0.08 0.04 -0.12 0.04 -0.2 -0.06 c-0.68 -0.98 -1.28 -1.44 -2.08 -1.44 c-0.42 0 -1.4 0.16 -1.4 0.9 c0 0.9 1.66 1.36 2.46 1.74 z M2.74 17.42 c0.5 1 1.88 1.58 3 1.58 c1.46 0 2.64 -1 2.8 -2.52 c0.2 -1.86 -1.26 -2.66 -2.7 -3.38 l-0.64 -0.28 c-1.48 -0.66 -2.56 -1.16 -2.56 -2.54 c0 -1.52 1.4 -2.22 2.78 -2.22 c1.26 0 1.92 0.74 2.26 1.2 c0.12 0.16 0.32 0.02 0.2 -0.14 c-0.34 -0.42 -1.06 -1.3 -2.46 -1.3 c-1.58 0 -3.02 0.78 -3.02 2.46 c0 1.5 1.2 2.08 2.72 2.78 l0.62 0.3 c1.98 0.94 2.7 1.82 2.54 3.1 c-0.3 2.04 -1.86 2.3 -2.54 2.3 c-1.5 0 -2.5 -0.9 -2.8 -1.46 c-0.1 -0.1 -0.24 0 -0.2 0.12 z M14.94 9.3 l-2.84 0 c-0.1 0 -0.18 -0.08 -0.18 -0.18 l0 -2.14 c0 -0.1 0.08 -0.18 0.18 -0.18 l8.34 0 c0.1 0 0.18 0.08 0.18 0.18 l0 2.14 c0 0.1 -0.08 0.18 -0.18 0.18 l-2.84 0 l0 10.52 c0 0.1 -0.08 0.18 -0.18 0.18 l-2.3 0 c-0.1 0 -0.18 -0.08 -0.18 -0.18 l0 -10.52 z M19.22 7.9 l-6.04 0 c-0.14 0 -0.14 0.26 0 0.26 l2.96 0 l0 10.6 c0 0.14 0.26 0.14 0.26 0 l0 -10.6 l2.82 0 c0.2 0 0.18 -0.26 0 -0.26 z M23.58 20 c-0.1 0 -0.16 -0.08 -0.16 -0.18 l0 -12.84 c0 -0.1 0.06 -0.18 0.16 -0.18 l6.8 0 c0.1 0 0.18 0.08 0.18 0.18 l0 2.14 c0 0.1 -0.08 0.18 -0.18 0.18 l-4.32 0 l0 2.72 l3.36 0 c0.1 0 0.16 0.08 0.16 0.18 l0 2.18 c0 0.1 -0.06 0.18 -0.16 0.18 l-3.36 0 l0 2.94 l4.32 0 c0.1 0 0.18 0.08 0.18 0.18 l0 2.14 c0 0.1 -0.08 0.18 -0.18 0.18 l-6.8 0 z M24.58 8.06 l0 10.64 c0 0.12 0.08 0.16 0.16 0.16 l4.6 0 c0.18 0 0.14 -0.24 0 -0.24 l-4.5 0 l0 -5.22 l3.68 0 c0.12 0 0.12 -0.28 0 -0.28 l-3.68 0 l0 -4.96 l4.5 0 c0.14 0 0.18 -0.26 0 -0.26 l-4.6 0 c-0.08 0 -0.16 0.06 -0.16 0.16 z M38.24 6.800000000000001 c2.22 0 3.56 1.26 3.56 3.6 l0 2.52 c0 2.14 -1.32 3.58 -3.56 3.58 l-1.68 0 l0 3.32 c0 0.1 -0.08 0.18 -0.18 0.18 l-2.3 0 c-0.08 0 -0.14 -0.08 -0.14 -0.18 l0 -12.84 c0 -0.1 0.06 -0.18 0.14 -0.18 l4.16 0 z M39.18 12.32 l0 -1.32 c0 -1.38 -0.64 -1.52 -2.04 -1.52 l-0.58 0 l0 4.4 l0.58 0 c1.1 0 2.04 -0.2 2.04 -1.56 z M40.6 12.780000000000001 l0 -2.5 c0 -2.2 -1.7 -2.38 -2.62 -2.38 l-2.7 0 c-0.04 0 -0.12 0.06 -0.12 0.12 l0 10.76 c0 0.14 0.24 0.14 0.24 0 l0 -3.4 l2.4 0 c1.76 0 2.8 -0.62 2.8 -2.6 z M35.400000000000006 8.16 l2.58 0 c2.22 0 2.36 1.46 2.36 2.12 l0 2.5 c0 2.04 -1.28 2.32 -2.54 2.32 l-2.4 0 l0 -6.94 z M50.480000000000004 12 l0 -5.02 c0 -0.1 0.08 -0.18 0.18 -0.18 l2.28 0 c0.1 0 0.18 0.08 0.18 0.18 l0 12.84 c0 0.1 -0.08 0.18 -0.18 0.18 l-2.28 0 c-0.1 0 -0.18 -0.08 -0.18 -0.18 l0 -5.32 l-3.24 0 l0 5.32 c0 0.1 -0.08 0.18 -0.18 0.18 l-2.28 0 c-0.1 0 -0.16 -0.08 -0.16 -0.18 l0 -12.84 c0 -0.1 0.06 -0.18 0.16 -0.18 l2.28 0 c0.1 0 0.18 0.08 0.18 0.18 l0 5.02 l3.24 0 z M45.78 18.76 c0 0.16 0.26 0.14 0.26 0 l0 -5.36 l5.62 0 l0 5.36 c0 0.14 0.22 0.16 0.22 0 l0 -10.76 c0 -0.14 -0.22 -0.18 -0.22 0 l0 5.12 l-5.62 0 l0 -5.12 c0 -0.14 -0.26 -0.14 -0.26 0 l0 10.76 z M61.2 6.619999999999999 c1.72 0 2.92 0.38 3.68 1.2 c0.6 0.66 0.88 1.6 0.88 2.94 l0 5.26 c0 1.38 -0.28 2.34 -0.88 2.98 c-0.78 0.8 -1.96 1.2 -3.68 1.2 c-1.78 0 -2.94 -0.4 -3.7 -1.2 c-0.58 -0.64 -0.9 -1.6 -0.9 -2.98 l0 -5.26 c0 -1.34 0.32 -2.28 0.9 -2.96 c0.78 -0.8 1.96 -1.18 3.7 -1.18 z M63.1 15.42 l0 -4 c0 -1.76 -0.94 -2.12 -1.8 -2.12 l-0.24 0 c-1.28 0 -1.78 0.82 -1.78 2.12 l0 4 c0 1.76 0.94 2.14 1.78 2.14 l0.24 0 c1.28 0 1.78 -0.86 1.8 -2.14 z M57.86000000000001 10.9 l0 4.96 c0 0.94 0.24 1.72 0.8 2.3 c0.52 0.52 1.32 0.8 2.3 0.8 l0.52 0 c1.88 0 3.1 -1.2 3.1 -3.1 l0 -4.96 c0 -2.04 -1.08 -3.14 -3.1 -3.14 l-0.52 0 c-2.04 0 -3.1 1.1 -3.1 3.14 z M61.480000000000004 18.7 l-0.52 0 c-0.94 0 -1.64 -0.24 -2.14 -0.74 s-0.76 -1.2 -0.76 -2.1 l0 -4.96 c0 -1.9 1.02 -2.9 2.9 -2.9 l0.52 0 c1.9 0 2.84 0.98 2.84 2.9 l0 4.96 c0 0.84 -0.26 1.6 -0.8 2.12 c-0.52 0.44 -1.22 0.72 -2.04 0.72 z M74.72000000000001 6.98 c0 -0.1 0.08 -0.18 0.18 -0.18 l2.3 0 c0.1 0 0.18 0.08 0.18 0.18 l0 12.84 c0 0.1 -0.08 0.18 -0.18 0.18 l-2.22 0 c-0.08 0 -0.16 -0.04 -0.18 -0.1 l-2.92 -6.58 l0 6.5 c0 0.1 -0.08 0.18 -0.18 0.18 l-2.28 0 c-0.1 0 -0.16 -0.08 -0.16 -0.18 l0 -12.84 c0 -0.1 0.06 -0.18 0.16 -0.18 l2.36 0 c0.08 0 0.12 0.06 0.14 0.1 l2.8 6.46 l0 -6.38 z M76.16000000000001 18.8 l0 -10.8 c0 -0.14 -0.26 -0.18 -0.26 0 l0 10.28 l-5.22 -10.32 c-0.06 -0.08 -0.22 -0.08 -0.22 0.04 l0 10.78 c0 0.18 0.24 0.18 0.24 0 l0 -10.26 l5.2 10.3 c0.08 0.14 0.26 0.1 0.26 -0.02 z M86.30000000000001 6.800000000000001 c1.36 0 2.38 0.38 3.06 1.12 c0.6 0.66 0.9 1.64 0.9 2.84 l0 5.3 c0 2.42 -1.4 3.94 -3.96 3.94 l-5 0 c-0.1 0 -0.16 -0.08 -0.16 -0.18 l0 -12.84 c0 -0.1 0.06 -0.18 0.16 -0.18 l5 0 z M87.64 15.46 l0 -4.1 c0 -1.26 -0.66 -2.06 -2.06 -2.06 l-1.8 0 l0 8.2 l1.8 0 c1.2 0 2.06 -0.78 2.06 -2.04 z M82.36 8.02 l0 10.76 c0 0.08 0.08 0.1 0.12 0.1 l3.26 0 c2.3 0 3.34 -1.38 3.34 -2.66 l0 -5.12 c0 -2.12 -1.12 -3.2 -3.4 -3.2 l-3.2 0 c-0.04 0 -0.12 0.02 -0.12 0.12 z M88.84 11.1 l0 5.12 c0 1.6 -1.6 2.44 -3.1 2.44 l-3.14 0 l0 -10.5 l3.08 0 c2.1 0 3.16 0.94 3.16 2.94 z M98.10000000000001 6.619999999999999 c1.72 0 2.92 0.38 3.68 1.2 c0.6 0.66 0.88 1.6 0.88 2.94 l0 5.26 c0 1.38 -0.28 2.34 -0.88 2.98 c-0.78 0.8 -1.96 1.2 -3.68 1.2 c-1.78 0 -2.94 -0.4 -3.7 -1.2 c-0.58 -0.64 -0.9 -1.6 -0.9 -2.98 l0 -5.26 c0 -1.34 0.32 -2.28 0.9 -2.96 c0.78 -0.8 1.96 -1.18 3.7 -1.18 z M100.00000000000001 15.42 l0 -4 c0 -1.76 -0.94 -2.12 -1.8 -2.12 l-0.24 0 c-1.28 0 -1.78 0.82 -1.78 2.12 l0 4 c0 1.76 0.94 2.14 1.78 2.14 l0.24 0 c1.28 0 1.78 -0.86 1.8 -2.14 z M94.76 10.9 l0 4.96 c0 0.94 0.24 1.72 0.8 2.3 c0.52 0.52 1.32 0.8 2.3 0.8 l0.52 0 c1.88 0 3.1 -1.2 3.1 -3.1 l0 -4.96 c0 -2.04 -1.08 -3.14 -3.1 -3.14 l-0.52 0 c-2.04 0 -3.1 1.1 -3.1 3.14 z M98.38000000000001 18.7 l-0.52 0 c-0.94 0 -1.64 -0.24 -2.14 -0.74 s-0.76 -1.2 -0.76 -2.1 l0 -4.96 c0 -1.9 1.02 -2.9 2.9 -2.9 l0.52 0 c1.9 0 2.84 0.98 2.84 2.9 l0 4.96 c0 0.84 -0.26 1.6 -0.8 2.12 c-0.52 0.44 -1.22 0.72 -2.04 0.72 z M106.32000000000002 20 c-0.1 0 -0.16 -0.08 -0.16 -0.18 l0 -12.84 c0 -0.1 0.06 -0.18 0.16 -0.18 l6.8 0 c0.1 0 0.18 0.08 0.18 0.18 l0 2.14 c0 0.1 -0.08 0.18 -0.18 0.18 l-4.32 0 l0 2.72 l3.36 0 c0.1 0 0.16 0.08 0.16 0.18 l0 2.18 c0 0.1 -0.06 0.18 -0.16 0.18 l-3.36 0 l0 2.94 l4.32 0 c0.1 0 0.18 0.08 0.18 0.18 l0 2.14 c0 0.1 -0.08 0.18 -0.18 0.18 l-6.8 0 z M107.32000000000002 8.06 l0 10.64 c0 0.12 0.08 0.16 0.16 0.16 l4.6 0 c0.18 0 0.14 -0.24 0 -0.24 l-4.5 0 l0 -5.22 l3.68 0 c0.12 0 0.12 -0.28 0 -0.28 l-3.68 0 l0 -4.96 l4.5 0 c0.14 0 0.18 -0.26 0 -0.26 l-4.6 0 c-0.08 0 -0.16 0.06 -0.16 0.16 z M121.18 11.9 c1.52 0.72 3.5 1.86 3.5 3.92 c0 0.6 -0.1 1.76 -0.76 2.74 c-0.74 1.1 -1.9 1.64 -3.5 1.64 c-1.7 0 -3.68 -0.82 -4.3 -2.68 c-0.02 -0.06 0 -0.12 0.06 -0.16 l1.84 -1.58 c0.08 -0.06 0.2 -0.06 0.26 0.04 c0.04 0.1 0.12 0.26 0.22 0.46 c0.3 0.62 1.02 1.24 1.82 1.24 c0.62 0 1.46 -0.34 1.46 -1.3 c0 -0.92 -1.26 -1.44 -2.04 -1.74 c-0.9 -0.36 -1.82 -0.82 -2.6 -1.5 c-0.82 -0.76 -1.22 -1.6 -1.22 -2.6 c0 -2.5 2.3 -3.76 4.48 -3.76 c1.72 0 3 0.9 3.84 2.68 c0.04 0.08 0 0.18 -0.06 0.22 l-1.78 1.24 c-0.08 0.04 -0.12 0.04 -0.2 -0.06 c-0.68 -0.98 -1.28 -1.44 -2.08 -1.44 c-0.42 0 -1.4 0.16 -1.4 0.9 c0 0.9 1.66 1.36 2.46 1.74 z M117.54 17.42 c0.5 1 1.88 1.58 3 1.58 c1.46 0 2.64 -1 2.8 -2.52 c0.2 -1.86 -1.26 -2.66 -2.7 -3.38 l-0.64 -0.28 c-1.48 -0.66 -2.56 -1.16 -2.56 -2.54 c0 -1.52 1.4 -2.22 2.78 -2.22 c1.26 0 1.92 0.74 2.26 1.2 c0.12 0.16 0.32 0.02 0.2 -0.14 c-0.34 -0.42 -1.06 -1.3 -2.46 -1.3 c-1.58 0 -3.02 0.78 -3.02 2.46 c0 1.5 1.2 2.08 2.72 2.78 l0.62 0.3 c1.98 0.94 2.7 1.82 2.54 3.1 c-0.3 2.04 -1.86 2.3 -2.54 2.3 c-1.5 0 -2.5 -0.9 -2.8 -1.46 c-0.1 -0.1 -0.24 0 -0.2 0.12 z M129.74 9.3 l-2.84 0 c-0.1 0 -0.18 -0.08 -0.18 -0.18 l0 -2.14 c0 -0.1 0.08 -0.18 0.18 -0.18 l8.34 0 c0.1 0 0.18 0.08 0.18 0.18 l0 2.14 c0 0.1 -0.08 0.18 -0.18 0.18 l-2.84 0 l0 10.52 c0 0.1 -0.08 0.18 -0.18 0.18 l-2.3 0 c-0.1 0 -0.18 -0.08 -0.18 -0.18 l0 -10.52 z M134.02 7.9 l-6.04 0 c-0.14 0 -0.14 0.26 0 0.26 l2.96 0 l0 10.6 c0 0.14 0.26 0.14 0.26 0 l0 -10.6 l2.82 0 c0.2 0 0.18 -0.26 0 -0.26 z M138.38 20 c-0.1 0 -0.16 -0.08 -0.16 -0.18 l0 -12.84 c0 -0.1 0.06 -0.18 0.16 -0.18 l6.8 0 c0.1 0 0.18 0.08 0.18 0.18 l0 2.14 c0 0.1 -0.08 0.18 -0.18 0.18 l-4.32 0 l0 2.72 l3.36 0 c0.1 0 0.16 0.08 0.16 0.18 l0 2.18 c0 0.1 -0.06 0.18 -0.16 0.18 l-3.36 0 l0 2.94 l4.32 0 c0.1 0 0.18 0.08 0.18 0.18 l0 2.14 c0 0.1 -0.08 0.18 -0.18 0.18 l-6.8 0 z M139.38 8.06 l0 10.64 c0 0.12 0.08 0.16 0.16 0.16 l4.6 0 c0.18 0 0.14 -0.24 0 -0.24 l-4.5 0 l0 -5.22 l3.68 0 c0.12 0 0.12 -0.28 0 -0.28 l-3.68 0 l0 -4.96 l4.5 0 c0.14 0 0.18 -0.26 0 -0.26 l-4.6 0 c-0.08 0 -0.16 0.06 -0.16 0.16 z M155 15.379999999999999 l0 -0.62 c0 -0.1 0.08 -0.18 0.18 -0.18 l2.28 0 c0.1 0 0.18 0.08 0.18 0.18 l0 1.26 c0 2.94 -1.58 4.18 -4.56 4.18 c-2.78 0 -4.6 -1.1 -4.6 -4.18 l0 -5.26 c0 -2.96 1.62 -4.14 4.6 -4.14 c2.82 0 4.56 1.08 4.56 4.14 l0 0.42 c0 0.1 -0.08 0.18 -0.18 0.18 l-2.3 0 c-0.1 0 -0.18 -0.08 -0.18 -0.18 l0 -0.32 c0 -1.1 -0.82 -1.56 -1.8 -1.56 l-0.24 0 c-0.66 0 -1.1 0.18 -1.4 0.58 c-0.28 0.38 -0.38 0.88 -0.38 1.54 l0 3.96 c0 1.74 0.98 2.12 1.78 2.12 l0.24 0 c1.26 0 1.78 -0.84 1.82 -2.12 z M153.04000000000002 7.859999999999999 c-2.14 0 -3.38 0.76 -3.38 3.2 l0 4.82 c0 2.22 1.14 3.04 3.38 3.04 c2.1 0 3.36 -0.76 3.36 -3.06 c0 -0.16 -0.24 -0.16 -0.24 0 c0 2.02 -1.1 2.84 -3.12 2.84 c-1.96 0 -3.16 -0.68 -3.16 -2.82 l0 -4.82 c0 -2.08 0.98 -2.98 3.16 -2.98 c2.84 0 2.94 1.8 2.94 2 c0 0.18 0.28 0.2 0.28 0 c0 -1.66 -1.68 -2.22 -3.22 -2.22 z M166.88000000000002 12 l0 -5.02 c0 -0.1 0.08 -0.18 0.18 -0.18 l2.28 0 c0.1 0 0.18 0.08 0.18 0.18 l0 12.84 c0 0.1 -0.08 0.18 -0.18 0.18 l-2.28 0 c-0.1 0 -0.18 -0.08 -0.18 -0.18 l0 -5.32 l-3.24 0 l0 5.32 c0 0.1 -0.08 0.18 -0.18 0.18 l-2.28 0 c-0.1 0 -0.16 -0.08 -0.16 -0.18 l0 -12.84 c0 -0.1 0.06 -0.18 0.16 -0.18 l2.28 0 c0.1 0 0.18 0.08 0.18 0.18 l0 5.02 l3.24 0 z M162.18 18.76 c0 0.16 0.26 0.14 0.26 0 l0 -5.36 l5.62 0 l0 5.36 c0 0.14 0.22 0.16 0.22 0 l0 -10.76 c0 -0.14 -0.22 -0.18 -0.22 0 l0 5.12 l-5.62 0 l0 -5.12 c0 -0.14 -0.26 -0.14 -0.26 0 l0 10.76 z"></path></g><g id="SvgjsG7356" featureKey="uwAHB0-0" transform="matrix(0.2297367243997695,0,0,0.2297367243997695,4.554310631971799,185.74108864610324)" fill="#facf39"><path d="M10.6 5.84 l0 1.2 l-7.34 0 l0 5.04 l6.88 0 l0 1.2 l-6.88 0 l0 5.52 l7.66 0 l0 1.2 l-8.98 0 l0 -14.16 l8.66 0 z M26.308 5.84 l5.16 11.88 l5.16 -11.88 l1.88 0 l0 14.16 l-1.32 0 l0 -12.48 l-0.04 0 l-5.4 12.48 l-0.58 0 l-5.48 -12.48 l-0.04 0 l0 12.48 l-1.32 0 l0 -14.16 l1.98 0 z M57.296 12.08 q1.28 0 2.1 -0.63 t0.84 -1.87 q0 -1.16 -0.82 -1.85 t-2.18 -0.69 l-3 0 l0 5.04 l3.06 0 z M56.956 5.84 q2.16 0 3.36 0.96 t1.24 2.78 q0 1.7 -1.16 2.69 t-3.02 1.01 l-3.14 0 l0 6.72 l-1.32 0 l0 -14.16 l4.04 0 z M75.464 12.92 q0 2.7 1.66 4.45 t4.34 1.79 q2.7 0 4.34 -1.77 t1.66 -4.47 q0 -2.74 -1.64 -4.47 t-4.38 -1.77 q-2.68 0 -4.32 1.76 t-1.66 4.48 z M81.464 5.48 q2.16 0 3.82 0.95 t2.57 2.66 t0.93 3.83 q0 3.26 -2.06 5.33 t-5.26 2.11 q-3.22 0 -5.24 -2.09 t-2.08 -5.35 q0.02 -3.26 2.04 -5.32 t5.28 -2.12 z M101.93199999999999 5.84 l3.52 12.54 l0.04 0 l3.58 -12.54 l1.68 0 l3.58 12.54 l0.04 0 l3.52 -12.54 l1.36 0 l-4.12 14.14 l-0.02 0.02 l-1.6 0 l-3.58 -12.6 l-0.04 0 l-3.58 12.6 l-1.62 0 l-4.12 -14.16 l1.36 0 z M140.61999999999998 5.84 l0 1.2 l-7.34 0 l0 5.04 l6.88 0 l0 1.2 l-6.88 0 l0 5.52 l7.66 0 l0 1.2 l-8.98 0 l0 -14.16 l8.66 0 z M158.70799999999997 12.08 q1.54 0 2.38 -0.69 t0.84 -1.83 t-0.82 -1.82 t-2.44 -0.7 l-2.86 0 l0 5.04 l2.9 0 z M158.30799999999996 5.84 q4.9 0 4.94 3.72 q0 3.14 -3.62 3.64 l4.12 6.8 l-1.5 0 l-3.98 -6.72 l-2.46 0 l0 6.72 l-1.32 0 l0 -14.16 l3.82 0 z M178.33599999999996 5.84 l0 14.16 l-1.32 0 l0 -14.16 l1.32 0 z M194.58399999999995 5.84 l8.62 12.4 l0.04 0 l0 -12.4 l1.32 0 l0 14.16 l-1.7 0 l-8.62 -12.4 l-0.04 0 l0 12.4 l-1.32 0 l0 -14.16 l1.7 0 z M225.51199999999997 5.48 q3.2 -0.02 5.1 1.96 l-0.96 1 q-0.6 -0.74 -1.77 -1.25 t-2.37 -0.51 q-2.66 0 -4.32 1.76 t-1.68 4.48 q0 2.7 1.64 4.44 t4.38 1.8 q2.6 0 3.94 -0.84 l0 -4.76 l-3.4 0 l0 -1.2 l4.72 0 l0 6.72 q-2.3 1.28 -5.28 1.28 q-3.2 0 -5.23 -2.09 t-2.09 -5.35 q0.02 -3.28 2.06 -5.34 t5.26 -2.1 z M260.72799999999995 5.84 l4.28 6.72 l4.38 -6.72 l1.48 0 l-5.2 8.06 l0 6.1 l-1.32 0 l0 -6.1 l-5.2 -8.06 l1.58 0 z M283.756 12.92 q0 2.7 1.66 4.45 t4.34 1.79 q2.7 0 4.34 -1.77 t1.66 -4.47 q0 -2.74 -1.64 -4.47 t-4.38 -1.77 q-2.68 0 -4.32 1.76 t-1.66 4.48 z M289.756 5.48 q2.16 0 3.82 0.95 t2.57 2.66 t0.93 3.83 q0 3.26 -2.06 5.33 t-5.26 2.11 q-3.22 0 -5.24 -2.09 t-2.08 -5.35 q0.02 -3.26 2.04 -5.32 t5.28 -2.12 z M311.764 5.84 l0 8.5 q0 2.3 0.95 3.54 t2.89 1.28 q3.8 0 3.84 -5.02 l0 -8.3 l1.32 0 l0 8.64 q0 2.78 -1.3 4.32 t-3.86 1.56 q-2.52 0 -3.83 -1.53 t-1.33 -4.25 l0 -8.74 l1.32 0 z M339.27200000000005 12.08 q1.54 0 2.38 -0.69 t0.84 -1.83 t-0.82 -1.82 t-2.44 -0.7 l-2.86 0 l0 5.04 l2.9 0 z M338.872 5.84 q4.9 0 4.94 3.72 q0 3.14 -3.62 3.64 l4.12 6.8 l-1.5 0 l-3.98 -6.72 l-2.46 0 l0 6.72 l-1.32 0 l0 -14.16 l3.82 0 z M377.408 18.8 q3.04 0 4.8 -1.54 t1.78 -4.24 q0 -2.88 -1.75 -4.42 t-4.89 -1.56 l-2.76 0 l0 11.76 l2.82 0 z M377.68800000000005 5.84 q3.56 0 5.57 1.92 t2.05 5.26 q0 1.96 -0.89 3.55 t-2.56 2.51 t-4.09 0.92 l-4.5 0 l0 -14.16 l4.42 0 z M400.25600000000003 5.84 l0 14.16 l-1.32 0 l0 -14.16 l1.32 0 z M421.204 5.48 q3.2 -0.02 5.1 1.96 l-0.96 1 q-0.6 -0.74 -1.77 -1.25 t-2.37 -0.51 q-2.66 0 -4.32 1.76 t-1.68 4.48 q0 2.7 1.64 4.44 t4.38 1.8 q2.6 0 3.94 -0.84 l0 -4.76 l-3.4 0 l0 -1.2 l4.72 0 l0 6.72 q-2.3 1.28 -5.28 1.28 q-3.2 0 -5.23 -2.09 t-2.09 -5.35 q0.02 -3.28 2.06 -5.34 t5.26 -2.1 z M442.35200000000003 5.84 l0 14.16 l-1.32 0 l0 -14.16 l1.32 0 z M466.20000000000005 5.84 l0 1.2 l-4.84 0 l0 12.96 l-1.32 0 l0 -12.96 l-4.84 0 l0 -1.2 l11 0 z M480.7080000000001 15.04 l6.5 0 l-3.2 -7.76 z M484.74800000000005 5.84 l5.96 14.16 l-1.48 0 l-1.54 -3.76 l-7.5 0 l-1.6 3.76 l-1.38 0 l6.18 -14.16 l1.36 0 z M504.73600000000005 5.84 l0 12.96 l6.6 0 l0 1.2 l-7.92 0 l0 -14.16 l1.32 0 z M539.4720000000001 5.84 l3.52 12.54 l0.04 0 l3.58 -12.54 l1.68 0 l3.58 12.54 l0.04 0 l3.52 -12.54 l1.36 0 l-4.12 14.14 l-0.02 0.02 l-1.6 0 l-3.58 -12.6 l-0.04 0 l-3.58 12.6 l-1.62 0 l-4.12 -14.16 l1.36 0 z M569.9000000000001 12.92 q0 2.7 1.66 4.45 t4.34 1.79 q2.7 0 4.34 -1.77 t1.66 -4.47 q0 -2.74 -1.64 -4.47 t-4.38 -1.77 q-2.68 0 -4.32 1.76 t-1.66 4.48 z M575.9000000000001 5.48 q2.16 0 3.82 0.95 t2.57 2.66 t0.93 3.83 q0 3.26 -2.06 5.33 t-5.26 2.11 q-3.22 0 -5.24 -2.09 t-2.08 -5.35 q0.02 -3.26 2.04 -5.32 t5.28 -2.12 z M601.068 12.08 q1.54 0 2.38 -0.69 t0.84 -1.83 t-0.82 -1.82 t-2.44 -0.7 l-2.86 0 l0 5.04 l2.9 0 z M600.668 5.84 q4.9 0 4.94 3.72 q0 3.14 -3.62 3.64 l4.12 6.8 l-1.5 0 l-3.98 -6.72 l-2.46 0 l0 6.72 l-1.32 0 l0 -14.16 l3.82 0 z M620.696 5.84 l0 12.96 l6.6 0 l0 1.2 l-7.92 0 l0 -14.16 l1.32 0 z M644.004 18.8 q3.04 0 4.8 -1.54 t1.78 -4.24 q0 -2.88 -1.75 -4.42 t-4.89 -1.56 l-2.76 0 l0 11.76 l2.82 0 z M644.284 5.84 q3.56 0 5.57 1.92 t2.05 5.26 q0 1.96 -0.89 3.55 t-2.56 2.51 t-4.09 0.92 l-4.5 0 l0 -14.16 l4.42 0 z M680.9200000000002 5.84 l3.52 12.54 l0.04 0 l3.58 -12.54 l1.68 0 l3.58 12.54 l0.04 0 l3.52 -12.54 l1.36 0 l-4.12 14.14 l-0.02 0.02 l-1.6 0 l-3.58 -12.6 l-0.04 0 l-3.58 12.6 l-1.62 0 l-4.12 -14.16 l1.36 0 z M712.2680000000001 5.84 l0 14.16 l-1.32 0 l0 -14.16 l1.32 0 z M736.1160000000002 5.84 l0 1.2 l-4.84 0 l0 12.96 l-1.32 0 l0 -12.96 l-4.84 0 l0 -1.2 l11 0 z M750.2840000000002 5.84 l0 6.24 l7.92 0 l0 -6.24 l1.32 0 l0 14.16 l-1.32 0 l0 -6.72 l-7.92 0 l0 6.72 l-1.32 0 l0 -14.16 l1.32 0 z M791.2600000000002 5.84 l0 14.16 l-1.32 0 l0 -14.16 l1.32 0 z M807.5080000000003 5.84 l8.62 12.4 l0.04 0 l0 -12.4 l1.32 0 l0 14.16 l-1.7 0 l-8.62 -12.4 l-0.04 0 l0 12.4 l-1.32 0 l0 -14.16 l1.7 0 z M833.7360000000002 5.84 l8.62 12.4 l0.04 0 l0 -12.4 l1.32 0 l0 14.16 l-1.7 0 l-8.62 -12.4 l-0.04 0 l0 12.4 l-1.32 0 l0 -14.16 l1.7 0 z M858.6640000000002 12.92 q0 2.7 1.66 4.45 t4.34 1.79 q2.7 0 4.34 -1.77 t1.66 -4.47 q0 -2.74 -1.64 -4.47 t-4.38 -1.77 q-2.68 0 -4.32 1.76 t-1.66 4.48 z M864.6640000000002 5.48 q2.16 0 3.82 0.95 t2.57 2.66 t0.93 3.83 q0 3.26 -2.06 5.33 t-5.26 2.11 q-3.22 0 -5.24 -2.09 t-2.08 -5.35 q0.02 -3.26 2.04 -5.32 t5.28 -2.12 z M885.0320000000002 5.84 l4.56 12.42 l4.6 -12.42 l1.4 0 l-5.38 14.16 l-1.32 0 l-5.28 -14.16 l1.42 0 z M909.8000000000002 15.04 l6.5 0 l-3.2 -7.76 z M913.8400000000001 5.84 l5.96 14.16 l-1.48 0 l-1.54 -3.76 l-7.5 0 l-1.6 3.76 l-1.38 0 l6.18 -14.16 l1.36 0 z M941.8080000000002 5.84 l0 1.2 l-4.84 0 l0 12.96 l-1.32 0 l0 -12.96 l-4.84 0 l0 -1.2 l11 0 z M955.9760000000002 5.84 l0 14.16 l-1.32 0 l0 -14.16 l1.32 0 z M969.9440000000003 5.84 l4.56 12.42 l4.6 -12.42 l1.4 0 l-5.38 14.16 l-1.32 0 l-5.28 -14.16 l1.42 0 z M1001.7120000000003 5.84 l0 1.2 l-7.34 0 l0 5.04 l6.88 0 l0 1.2 l-6.88 0 l0 5.52 l7.66 0 l0 1.2 l-8.98 0 l0 -14.16 l8.66 0 z M1040.7480000000003 5.84 l0 1.2 l-4.84 0 l0 12.96 l-1.32 0 l0 -12.96 l-4.84 0 l0 -1.2 l11 0 z M1062.256 5.84 l0 1.2 l-7.34 0 l0 5.04 l6.88 0 l0 1.2 l-6.88 0 l0 5.52 l7.66 0 l0 1.2 l-8.98 0 l0 -14.16 l8.66 0 z M1082.5240000000001 5.48 q3.14 0 4.88 2.22 l-1.08 0.9 q-0.6 -0.9 -1.6 -1.41 t-2.2 -0.51 q-2.64 0 -4.3 1.74 t-1.7 4.5 q0 2.74 1.67 4.47 t4.33 1.77 q1.14 0 2.32 -0.57 t1.86 -1.63 l1.08 0.82 q-1.88 2.58 -5.26 2.58 q-3.28 -0.02 -5.27 -2.12 t-2.05 -5.32 q0 -3.26 2.05 -5.33 t5.27 -2.11 z M1102.1920000000002 5.84 l0 6.24 l7.92 0 l0 -6.24 l1.32 0 l0 14.16 l-1.32 0 l0 -6.72 l-7.92 0 l0 6.72 l-1.32 0 l0 -14.16 l1.32 0 z M1127.6800000000003 5.84 l8.62 12.4 l0.04 0 l0 -12.4 l1.32 0 l0 14.16 l-1.7 0 l-8.62 -12.4 l-0.04 0 l0 12.4 l-1.32 0 l0 -14.16 l1.7 0 z M1152.6080000000002 12.92 q0 2.7 1.66 4.45 t4.34 1.79 q2.7 0 4.34 -1.77 t1.66 -4.47 q0 -2.74 -1.64 -4.47 t-4.38 -1.77 q-2.68 0 -4.32 1.76 t-1.66 4.48 z M1158.6080000000002 5.48 q2.16 0 3.82 0.95 t2.57 2.66 t0.93 3.83 q0 3.26 -2.06 5.33 t-5.26 2.11 q-3.22 0 -5.24 -2.09 t-2.08 -5.35 q0.02 -3.26 2.04 -5.32 t5.28 -2.12 z M1180.8760000000002 5.84 l0 12.96 l6.6 0 l0 1.2 l-7.92 0 l0 -14.16 l1.32 0 z M1200.624 12.92 q0 2.7 1.66 4.45 t4.34 1.79 q2.7 0 4.34 -1.77 t1.66 -4.47 q0 -2.74 -1.64 -4.47 t-4.38 -1.77 q-2.68 0 -4.32 1.76 t-1.66 4.48 z M1206.624 5.48 q2.16 0 3.82 0.95 t2.57 2.66 t0.93 3.83 q0 3.26 -2.06 5.33 t-5.26 2.11 q-3.22 0 -5.24 -2.09 t-2.08 -5.35 q0.02 -3.26 2.04 -5.32 t5.28 -2.12 z M1233.972 5.48 q3.2 -0.02 5.1 1.96 l-0.96 1 q-0.6 -0.74 -1.77 -1.25 t-2.37 -0.51 q-2.66 0 -4.32 1.76 t-1.68 4.48 q0 2.7 1.64 4.44 t4.38 1.8 q2.6 0 3.94 -0.84 l0 -4.76 l-3.4 0 l0 -1.2 l4.72 0 l0 6.72 q-2.3 1.28 -5.28 1.28 q-3.2 0 -5.23 -2.09 t-2.09 -5.35 q0.02 -3.28 2.06 -5.34 t5.26 -2.1 z M1253.3200000000002 5.84 l4.28 6.72 l4.38 -6.72 l1.48 0 l-5.2 8.06 l0 6.1 l-1.32 0 l0 -6.1 l-5.2 -8.06 l1.58 0 z M1295.856 5.48 q2.46 0 3.86 1.78 l-1.14 0.82 q-1.04 -1.4 -2.76 -1.4 q-1.4 0 -2.27 0.72 t-0.91 1.96 q0 1.08 0.66 1.75 t2.3 1.13 q2.16 0.64 2.88 1.13 t1.09 1.21 t0.37 1.8 q0 1.72 -1.23 2.83 t-3.17 1.15 q-3.06 0 -4.6 -2.14 l1.26 -0.84 q1.06 1.76 3.24 1.78 q1.42 0 2.3 -0.79 t0.88 -1.99 q0 -0.7 -0.25 -1.15 t-0.76 -0.78 t-1.3 -0.6 t-1.85 -0.63 q-1.6 -0.52 -2.37 -1.46 t-0.77 -2.4 q0 -1.72 1.29 -2.8 t3.25 -1.08 z M1314.004 12.92 q0 2.7 1.66 4.45 t4.34 1.79 q2.7 0 4.34 -1.77 t1.66 -4.47 q0 -2.74 -1.64 -4.47 t-4.38 -1.77 q-2.68 0 -4.32 1.76 t-1.66 4.48 z M1320.004 5.48 q2.16 0 3.82 0.95 t2.57 2.66 t0.93 3.83 q0 3.26 -2.06 5.33 t-5.26 2.11 q-3.22 0 -5.24 -2.09 t-2.08 -5.35 q0.02 -3.26 2.04 -5.32 t5.28 -2.12 z M1342.272 5.84 l0 12.96 l6.6 0 l0 1.2 l-7.92 0 l0 -14.16 l1.32 0 z M1362.6799999999998 5.84 l0 8.5 q0 2.3 0.95 3.54 t2.89 1.28 q3.8 0 3.84 -5.02 l0 -8.3 l1.32 0 l0 8.64 q0 2.78 -1.3 4.32 t-3.86 1.56 q-2.52 0 -3.83 -1.53 t-1.33 -4.25 l0 -8.74 l1.32 0 z M1395.2679999999998 5.84 l0 1.2 l-4.84 0 l0 12.96 l-1.32 0 l0 -12.96 l-4.84 0 l0 -1.2 l11 0 z M1409.4359999999997 5.84 l0 14.16 l-1.32 0 l0 -14.16 l1.32 0 z M1424.3839999999996 12.92 q0 2.7 1.66 4.45 t4.34 1.79 q2.7 0 4.34 -1.77 t1.66 -4.47 q0 -2.74 -1.64 -4.47 t-4.38 -1.77 q-2.68 0 -4.32 1.76 t-1.66 4.48 z M1430.3839999999996 5.48 q2.16 0 3.82 0.95 t2.57 2.66 t0.93 3.83 q0 3.26 -2.06 5.33 t-5.26 2.11 q-3.22 0 -5.24 -2.09 t-2.08 -5.35 q0.02 -3.26 2.04 -5.32 t5.28 -2.12 z M1453.0319999999997 5.84 l8.62 12.4 l0.04 0 l0 -12.4 l1.32 0 l0 14.16 l-1.7 0 l-8.62 -12.4 l-0.04 0 l0 12.4 l-1.32 0 l0 -14.16 l1.7 0 z M1481.5999999999997 5.48 q2.46 0 3.86 1.78 l-1.14 0.82 q-1.04 -1.4 -2.76 -1.4 q-1.4 0 -2.27 0.72 t-0.91 1.96 q0 1.08 0.66 1.75 t2.3 1.13 q2.16 0.64 2.88 1.13 t1.09 1.21 t0.37 1.8 q0 1.72 -1.23 2.83 t-3.17 1.15 q-3.06 0 -4.6 -2.14 l1.26 -0.84 q1.06 1.76 3.24 1.78 q1.42 0 2.3 -0.79 t0.88 -1.99 q0 -0.7 -0.25 -1.15 t-0.76 -0.78 t-1.3 -0.6 t-1.85 -0.63 q-1.6 -0.52 -2.37 -1.46 t-0.77 -2.4 q0 -1.72 1.29 -2.8 t3.25 -1.08 z"></path></g>
			</g>
		</svg>
	