<?xml version="1.0" standalone="no"?>
<!DOCTYPE svg PUBLIC "-//W3C//DTD SVG 20010904//EN"
 "http://www.w3.org/TR/2001/REC-SVG-20010904/DTD/svg10.dtd">
<svg version="1.0" xmlns="http://www.w3.org/2000/svg"
 width="160.000000pt" height="160.000000pt" viewBox="0 0 160.000000 160.000000"
 preserveAspectRatio="xMidYMid meet">
<metadata>
Created by potrace 1.16, written by Peter Selinger 2001-2019
</metadata>
<g transform="translate(0.000000,160.000000) scale(0.015625,-0.015625)"
fill="#000000" stroke="none">
<path d="M5370 8500 c0 -20 4 -20 238 -18 203 3 237 5 237 18 0 13 -34 15
-237 18 -234 2 -238 2 -238 -18z"/>
<path d="M5415 8359 c28 -4 -48 -5 -168 -2 -210 5 -219 5 -215 -13 3 -17 17
-20 113 -26 61 -4 132 -12 160 -18 49 -11 201 -78 193 -86 -2 -2 -42 9 -89 25
-46 15 -106 31 -134 35 l-50 6 45 -27 c25 -14 56 -35 69 -45 22 -17 22 -18 3
-18 -11 0 -73 18 -138 41 -241 83 -597 137 -611 93 -2 -7 38 -13 122 -18 158
-9 307 -31 343 -51 18 -10 20 -14 7 -11 -11 3 -42 11 -70 17 -71 17 -605 20
-605 3 0 -15 105 -28 152 -20 38 7 31 3 -66 -39 -33 -14 -57 -27 -54 -30 2 -3
38 6 78 20 94 32 272 50 349 35 65 -12 77 -20 30 -20 -19 0 -90 -9 -159 -21
-69 -12 -174 -25 -235 -29 -134 -10 -360 -36 -418 -49 -23 -6 -54 -12 -69 -16
-23 -4 -28 -11 -28 -33 0 -25 -5 -29 -45 -40 -26 -7 -55 -23 -68 -38 -12 -15
-50 -40 -84 -56 -35 -15 -63 -33 -63 -38 0 -6 -8 -10 -17 -10 -9 0 -35 -9 -57
-19 -81 -39 -320 -114 -324 -102 -2 7 -29 11 -68 11 -50 0 -64 -3 -64 -15 0
-11 12 -15 44 -15 23 0 71 -3 105 -6 l61 -7 0 -98 0 -99 -40 0 c-38 0 -40 -2
-40 -31 0 -29 2 -30 38 -28 34 3 37 1 34 -21 -4 -37 -73 -102 -207 -196 -125
-87 -263 -213 -197 -180 17 9 32 13 32 8 0 -13 -114 -100 -173 -133 -50 -27
-51 -29 -22 -29 30 0 71 17 130 55 30 19 30 19 13 -1 -10 -11 -24 -36 -32 -56
-11 -26 -27 -41 -58 -55 -100 -46 -98 -44 -25 -39 77 6 72 16 57 -112 -7 -59
-6 -89 2 -101 9 -15 3 -31 -35 -92 -25 -41 -67 -94 -92 -119 l-45 -44 0 -443
c0 -436 0 -443 -20 -443 -11 0 -20 -5 -20 -11 0 -6 8 -9 19 -6 17 4 18 -9 23
-296 3 -165 3 -308 1 -318 -3 -10 -14 -21 -24 -24 -34 -11 -20 -25 26 -25 l45
0 0 766 0 765 32 -3 32 -3 3 -485 c1 -267 3 -743 3 -1057 l0 -573 45 0 45 0 0
-140 c0 -118 2 -140 15 -140 13 0 15 21 15 130 0 109 2 130 15 130 13 0 15 33
15 233 l0 234 30 -5 30 -4 0 -142 c0 -97 -4 -146 -12 -154 -9 -9 -9 -12 -1
-12 7 0 13 -19 15 -42 l3 -43 45 0 45 0 3 163 2 162 32 0 31 0 -5 -334 c-5
-280 -4 -336 8 -340 10 -4 14 3 14 27 0 18 3 49 6 70 6 34 9 37 40 37 l34 0 0
264 0 264 30 4 30 5 0 -349 0 -348 -350 0 c-304 0 -350 -2 -350 -15 0 -13 25
-15 163 -15 89 0 259 -3 377 -7 l215 -6 0 -136 0 -136 31 -3 32 -3 7 147 c5
104 4 153 -4 166 -6 10 -11 58 -11 108 l0 91 38 -3 37 -3 3 -140 c2 -123 0
-141 -15 -152 -16 -12 -16 -13 0 -13 19 0 18 71 17 -1204 0 -636 5 -819 24
-813 8 3 12 230 16 786 5 846 2 800 57 801 12 0 27 8 32 18 11 18 12 17 15
-40 2 -28 16 -33 16 -5 0 15 5 27 10 27 17 0 12 -80 -5 -86 -8 -4 -15 -13 -15
-21 0 -9 6 -13 15 -9 12 4 15 -4 16 -42 1 -26 2 -60 3 -77 1 -16 3 -67 4 -112
2 -66 5 -83 17 -83 16 0 17 16 15 603 0 163 3 247 10 247 7 0 10 129 10 390 0
215 3 390 8 390 21 -1 33 -22 38 -66 2 -27 7 -230 10 -451 5 -333 9 -403 20
-403 11 0 14 -28 14 -140 l0 -140 25 0 25 0 0 -165 c0 -140 2 -165 15 -165 13
0 15 25 15 166 l0 165 33 -3 32 -3 3 -713 c2 -672 3 -713 20 -710 16 3 17 54
23 808 3 443 7 824 8 848 1 41 2 42 36 42 l35 0 0 -85 0 -85 34 0 c33 0 33 -1
40 -52 3 -29 6 -160 6 -290 0 -193 3 -238 13 -238 17 0 27 138 27 357 0 135 1
143 20 143 10 0 23 7 28 16 17 31 22 -139 22 -803 0 -583 2 -663 15 -663 13 0
15 39 15 288 0 159 3 397 7 530 l6 242 29 0 c18 0 28 5 28 15 0 10 -10 15 -30
15 l-30 0 0 158 1 157 49 -55 50 -55 0 -71 c0 -55 -4 -73 -15 -78 -8 -3 -15
-13 -15 -22 0 -10 5 -14 15 -10 13 5 15 -13 15 -119 l0 -125 50 0 50 0 0 320
0 320 30 0 30 0 2 -327 c2 -181 1 -453 -1 -605 l-4 -278 27 0 c26 0 26 1 26
75 0 73 1 75 25 75 l25 0 0 265 0 265 33 0 34 0 6 -227 c4 -124 7 -399 7 -610
l0 -383 35 0 35 0 0 223 c0 122 3 360 7 530 l6 307 34 0 33 0 0 -196 0 -195
38 3 c35 3 37 5 40 40 3 33 6 37 35 40 31 3 32 5 35 55 l3 52 35 -21 34 -20 0
-319 c0 -312 0 -319 20 -319 20 0 20 7 20 333 0 359 0 360 53 369 l27 5 1
-251 c0 -138 3 -245 6 -238 3 7 23 12 49 12 l44 0 0 153 0 153 35 -4 35 -4 0
-309 c0 -268 2 -309 15 -309 17 0 21 64 16 245 -3 117 17 658 25 680 4 9 19
15 35 15 l29 0 0 -132 c0 -114 -3 -138 -20 -165 -20 -33 -14 -48 14 -37 13 5
16 -2 15 -37 0 -24 -4 -66 -9 -94 -4 -27 -7 -51 -5 -53 2 -2 19 4 40 12 58 25
114 74 140 125 19 37 25 43 30 28 19 -47 -70 -222 -154 -301 -37 -35 -39 -46
-8 -38 12 3 49 32 81 66 46 47 58 54 53 35 -7 -28 -19 -169 -13 -154 2 6 12
44 21 85 10 45 28 91 46 117 16 23 29 44 29 48 0 16 97 162 149 224 29 36 72
104 94 151 43 92 55 92 56 3 1 -35 4 -41 17 -36 15 6 16 -5 10 -120 l-8 -127
26 0 26 0 0 123 c1 237 23 377 60 377 6 0 10 -160 10 -440 0 -436 0 -440 20
-440 21 0 21 3 18 451 -2 368 -1 445 10 420 21 -53 37 -38 40 34 1 35 6 93 12
127 5 35 13 112 16 171 4 64 10 103 15 95 16 -28 52 -174 64 -258 l13 -85 1
110 c1 83 9 152 35 275 18 91 37 187 41 215 l7 50 12 -30 c12 -27 14 -16 20
107 9 152 3 221 -25 285 -12 29 -14 42 -6 40 7 -1 15 -6 19 -12 4 -6 8 -1 8
10 1 17 3 16 11 -5 6 -14 8 -50 5 -80 -4 -42 -3 -48 4 -25 5 17 12 47 15 68 6
38 6 38 31 22 42 -28 57 -2 26 43 -20 29 -53 122 -43 122 12 0 27 -15 50 -48
17 -25 28 -31 47 -28 16 3 24 0 24 -10 0 -8 5 -14 10 -14 6 0 10 5 10 10 0 6
4 10 9 10 5 0 9 -6 8 -12 0 -7 1 -26 1 -42 2 -28 3 -29 16 -10 8 10 18 16 22
12 4 -4 13 0 21 10 12 15 13 14 7 -13 -4 -23 -3 -26 5 -15 9 12 11 11 11 -9 0
-24 0 -24 15 -5 14 18 14 18 15 -10 0 -21 4 -27 15 -22 10 4 19 -2 25 -17 5
-13 9 -16 10 -7 1 10 4 9 9 -5 7 -17 9 -16 15 10 6 22 9 26 17 14 7 -12 9 -11
9 4 0 9 5 17 10 17 6 0 10 14 10 31 0 20 -4 28 -11 23 -9 -5 -10 1 -4 22 4 16
8 43 9 61 0 20 4 29 10 23 6 -6 15 -10 20 -10 6 0 5 4 -3 9 -7 5 -10 14 -7 20
10 16 26 14 26 -3 0 -24 15 -26 29 -4 7 11 8 17 2 13 -15 -9 -14 8 2 24 10 10
8 12 -7 9 -13 -2 -24 6 -33 22 -11 22 -10 27 10 42 30 24 40 22 27 -3 -7 -11
-9 -27 -6 -36 5 -13 9 -13 22 -2 8 7 13 20 11 29 -2 9 2 25 9 35 12 16 14 14
20 -25 5 -33 9 -39 16 -26 6 11 6 22 -2 32 -10 11 -10 14 -1 14 7 0 9 5 5 11
-4 7 -1 10 7 7 8 -3 13 -17 12 -32 -2 -24 0 -26 14 -14 9 7 18 12 20 11 1 -2
2 0 1 5 -2 4 -6 6 -9 5 -4 -1 -9 7 -12 18 -4 16 -3 18 9 8 11 -9 14 -9 14 2 0
9 3 10 11 2 6 -6 10 -30 7 -52 -2 -27 0 -40 7 -37 7 2 10 -7 7 -24 -2 -15 1
-31 7 -34 10 -7 16 7 12 28 -1 5 1 16 5 25 13 27 12 50 -1 44 -9 -3 -14 10
-17 41 -2 25 -2 46 -1 46 1 0 9 -12 17 -27 l15 -28 1 34 c0 29 2 32 15 21 13
-11 14 -10 9 4 -4 11 -1 16 10 16 8 0 23 12 33 28 45 72 71 86 106 55 19 -17
19 -17 13 5 -8 24 1 62 14 62 5 0 11 -8 13 -17 3 -13 5 -12 6 5 0 13 5 21 10
18 5 -3 7 9 6 27 -2 17 1 37 5 42 5 6 16 33 26 60 23 68 64 125 131 182 90 76
233 226 233 245 0 2 -30 1 -66 -3 -36 -4 -81 -3 -99 1 -18 4 -54 3 -79 -3 -44
-10 -48 -9 -75 19 -21 22 -27 34 -20 45 6 10 9 10 9 2 0 -7 6 -12 13 -10 7 1
11 -7 9 -21 -2 -21 -1 -22 14 -8 8 9 20 16 26 16 6 0 8 3 5 7 -4 3 -1 13 6 21
6 9 8 13 2 10 -5 -3 -17 1 -25 10 -13 14 -12 15 2 9 23 -8 13 19 -19 54 l-23
26 25 11 c17 8 24 8 22 1 -2 -13 31 -21 38 -9 2 4 -4 15 -14 24 -16 14 -24 15
-40 6 -16 -8 -21 -8 -19 1 2 7 -5 14 -14 17 -14 3 -16 -2 -12 -25 3 -20 2 -24
-5 -13 -5 8 -8 17 -5 21 2 4 -9 10 -25 14 -20 4 -28 11 -24 21 7 20 -7 18 -23
-3 -10 -14 -15 -15 -24 -6 -9 8 -7 14 10 23 12 6 28 9 36 6 8 -3 14 -1 14 5 0
6 12 9 27 7 15 -2 28 2 31 10 3 9 -5 11 -28 7 -27 -5 -31 -3 -26 13 5 14 2 18
-12 17 -23 -1 -74 -40 -65 -49 3 -3 -2 -6 -12 -6 -15 0 -16 2 -4 18 8 9 22 23
32 30 16 12 16 15 2 29 -9 8 -13 18 -10 22 4 3 12 -2 19 -12 15 -20 60 -24 53
-4 -2 6 -14 12 -27 12 -13 0 -25 6 -28 13 -2 7 2 10 12 6 8 -3 23 -1 33 5 15
8 12 9 -15 7 -21 -1 -47 -14 -69 -34 -20 -18 -40 -32 -45 -32 -4 0 -8 -7 -8
-15 0 -13 -4 -14 -20 -5 -11 6 -18 15 -15 21 5 8 -15 14 -37 10 -15 -2 -8 17
8 23 21 8 26 8 20 -3 -4 -5 9 -6 29 -1 19 4 37 5 41 1 4 -3 4 0 0 7 -4 7 -11
10 -15 8 -3 -3 -7 8 -6 22 0 21 -4 26 -20 24 -15 -2 -17 0 -6 6 10 7 10 11 1
17 -6 4 -9 14 -6 22 3 8 1 11 -4 8 -6 -3 -13 1 -16 10 -4 9 -13 13 -24 10 -21
-7 -42 17 -34 39 5 13 0 16 -24 16 -16 0 -34 6 -39 13 -16 20 -22 56 -9 60 6
2 8 7 5 11 -9 10 -60 -4 -53 -15 3 -5 0 -9 -6 -9 -6 0 -8 10 -4 24 7 30 -9 40
-38 26 -20 -9 -21 -9 -7 2 18 15 19 69 0 91 -6 8 -9 21 -6 29 4 9 -2 23 -11
33 -15 14 -15 18 -3 26 8 5 17 9 22 9 14 0 7 15 -14 28 -19 12 -20 11 -14 -7
3 -12 2 -21 -4 -21 -20 0 -21 20 -2 39 13 13 16 21 8 24 -7 3 -1 9 12 14 16 7
20 12 13 17 -7 4 -10 12 -7 17 4 5 -1 9 -9 9 -8 0 -13 -6 -11 -12 6 -17 -12
-45 -22 -34 -4 5 -3 11 3 13 7 2 10 12 7 22 -3 12 -13 16 -34 15 -16 -1 -29 2
-29 7 0 5 5 9 11 9 6 0 9 6 6 14 -6 15 19 30 34 21 5 -4 6 1 3 9 -4 11 0 14
14 11 28 -5 35 19 11 41 -23 21 -35 13 -21 -13 8 -15 7 -19 -8 -19 -10 0 -16
6 -13 13 8 21 -6 34 -26 24 -15 -9 -17 -6 -16 20 1 19 -3 29 -12 29 -8 0 -12
4 -9 9 9 14 -5 41 -21 41 -8 0 -11 5 -8 11 4 6 13 8 21 5 18 -7 25 6 10 20
-19 18 -54 -1 -52 -28 1 -14 7 -22 16 -20 11 3 11 0 -1 -14 -9 -12 -10 -15 -1
-10 14 8 12 -28 -3 -41 -4 -5 -5 -2 0 6 5 9 4 12 -3 7 -16 -10 -15 -33 1 -39
9 -4 9 -8 1 -14 -14 -10 0 -53 16 -53 6 0 8 5 4 12 -4 7 -3 8 4 4 6 -4 9 -13
5 -21 -6 -18 8 -20 25 -3 9 9 12 9 12 0 0 -7 -4 -12 -9 -12 -5 0 -11 -10 -13
-22 -5 -36 -50 -36 -73 -1 -10 15 -18 33 -18 40 0 6 -5 11 -11 10 -6 -1 -10 6
-10 15 1 10 -3 16 -10 15 -6 -1 -11 8 -10 20 0 12 -3 20 -6 18 -13 -8 -49 40
-47 62 1 18 4 20 16 10 8 -7 12 -7 9 -2 -4 6 0 18 7 28 10 14 14 15 18 4 3 -8
20 -25 39 -37 18 -13 27 -17 21 -10 -7 8 -13 18 -13 23 0 5 6 5 13 -1 9 -8 12
-4 12 14 0 15 -6 24 -15 24 -8 0 -2 9 15 20 37 24 59 89 36 106 -11 9 -12 12
-1 19 9 5 11 4 6 -3 -10 -16 7 -15 23 1 11 10 13 10 7 0 -4 -7 -3 -13 2 -13 6
0 13 7 16 16 3 8 2 12 -4 9 -6 -3 -10 1 -10 9 0 9 -5 16 -11 16 -5 0 -7 -4 -4
-10 3 -5 -1 -10 -9 -10 -9 0 -16 7 -16 15 0 8 -4 15 -10 15 -13 0 -13 -13 1
-27 8 -8 8 -13 0 -17 -6 -4 -16 4 -23 18 -6 14 -15 26 -20 26 -5 0 -2 10 6 22
23 32 21 57 -4 51 -14 -4 -20 0 -20 11 0 10 -4 14 -10 11 -5 -3 -10 -2 -10 3
0 6 7 13 16 16 8 3 12 11 9 17 -4 6 -13 8 -21 5 -7 -3 -16 -1 -19 5 -4 5 -1 8
7 7 7 -2 13 3 12 10 -1 6 -2 24 -2 38 -1 14 -6 22 -12 19 -6 -4 -7 -11 -4 -17
4 -6 2 -8 -3 -5 -17 11 -36 -21 -37 -62 -1 -27 3 -37 12 -34 11 5 17 -11 12
-32 -2 -5 -2 -18 -2 -29 1 -16 -4 -17 -42 -12 -34 5 -45 4 -49 -8 -4 -9 -13
-13 -21 -10 -9 3 -27 -4 -42 -15 -32 -25 -44 -27 -44 -6 0 9 8 14 23 12 14 -1
21 3 19 11 -1 8 2 11 8 7 5 -3 10 1 10 11 0 11 -6 15 -20 11 -11 -3 -18 -1
-14 4 3 5 0 9 -5 9 -6 0 -11 -10 -11 -22 0 -21 0 -21 -14 -2 -9 11 -11 23 -6
28 6 6 2 14 -8 22 -13 10 -14 12 -2 10 8 -2 23 -6 33 -11 9 -4 23 -2 31 4 7 6
16 8 20 4 3 -4 14 -8 22 -9 9 -1 13 0 10 3 -3 4 1 14 9 23 14 16 14 18 1 23
-9 4 -18 2 -21 -3 -3 -6 -16 -15 -27 -21 -18 -10 -20 -9 -15 5 4 10 -1 20 -13
26 -28 15 -31 13 -20 -16 13 -34 13 -39 -5 -24 -8 7 -12 16 -9 21 3 5 1 9 -5
9 -5 0 -23 14 -39 30 -31 31 -32 42 -1 14 13 -12 19 -12 25 -3 4 7 3 10 -3 6
-6 -4 -13 2 -16 12 -5 21 -26 22 -50 2 -11 -9 -21 -9 -35 -2 -14 7 -19 7 -19
-4 0 -8 5 -11 10 -8 5 3 13 -1 18 -8 8 -12 10 -12 18 0 7 11 12 9 22 -10 7
-13 12 -28 11 -32 -1 -5 2 -6 8 -2 23 14 30 -7 10 -33 l-21 -26 27 -14 c21
-11 24 -16 13 -23 -12 -7 -12 -9 1 -9 8 -1 5 -5 -8 -11 -33 -13 -66 5 -53 30
11 20 -3 41 -27 41 -7 0 -10 5 -7 10 4 6 10 8 15 5 4 -3 14 3 21 13 12 15 12
16 -1 5 -18 -14 -36 -5 -35 17 1 16 -13 30 -30 30 -5 0 -3 -4 5 -10 12 -7 11
-12 -5 -31 -11 -12 -15 -19 -8 -15 15 8 38 -30 23 -39 -5 -3 -14 -3 -20 0 -5
3 -10 0 -10 -8 0 -8 7 -17 15 -21 8 -3 15 -11 15 -17 0 -8 -4 -8 -12 -2 -7 6
-21 13 -32 17 -18 6 -18 5 -2 -19 22 -33 8 -52 -35 -49 -26 2 -30 -1 -26 -17
3 -10 1 -19 -4 -19 -5 0 -9 -7 -9 -16 0 -8 -5 -12 -10 -9 -7 4 -9 -2 -4 -19 8
-31 -6 -34 -32 -5 -18 19 -18 21 -1 30 16 9 16 12 1 26 -17 17 -28 10 -39 -26
-6 -18 -4 -22 6 -16 11 6 11 5 3 -4 -9 -10 -17 -10 -32 -2 -27 14 -35 14 -26
-1 5 -9 2 -9 -9 1 -20 16 -22 41 -4 41 8 0 21 8 30 18 14 16 17 22 17 38 0 4
11 -1 24 -9 21 -14 25 -15 30 -1 3 8 2 13 -2 10 -5 -3 -9 1 -9 8 0 7 6 13 13
13 7 0 12 -3 11 -6 -1 -3 5 -16 14 -28 l16 -23 13 25 c10 19 10 27 1 39 -8 10
-9 16 -1 21 6 4 9 1 8 -7 -2 -7 8 -14 21 -16 15 -2 21 0 16 7 -3 6 -11 9 -16
5 -12 -7 -7 19 5 27 4 4 -6 8 -23 11 -20 3 -32 0 -36 -10 -5 -12 -8 -12 -25 3
-20 18 -45 12 -34 -8 4 -7 3 -8 -1 -4 -14 12 -15 38 -2 30 7 -4 5 2 -3 12 -14
17 -15 17 -18 -8 -2 -15 -8 -27 -14 -27 -7 0 -8 -13 -5 -35 6 -38 -1 -49 -23
-35 -12 8 -13 13 -3 29 17 27 -3 39 -25 16 -10 -10 -11 -15 -4 -11 15 9 16
-10 1 -19 -6 -4 -13 2 -16 14 -3 12 -13 21 -22 21 -9 0 -22 5 -28 11 -7 7 -10
3 -10 -15 0 -29 6 -32 27 -13 8 6 6 2 -4 -10 -19 -23 -19 -23 7 -23 31 0 33
-5 12 -26 -19 -19 -21 -41 -2 -26 7 6 18 8 23 4 13 -8 12 -48 0 -59 -5 -5 -6
4 -4 20 6 29 -1 34 -20 15 -9 -9 -12 -9 -12 0 0 7 -7 12 -16 12 -8 0 -12 -4
-9 -10 3 -5 1 -10 -6 -10 -7 0 -9 9 -6 23 l6 22 -20 -24 c-17 -20 -21 -22 -36
-10 -15 12 -16 12 -10 -3 3 -10 2 -18 -2 -18 -5 0 -17 -3 -25 -6 -13 -5 -15
-2 -7 17 4 13 12 23 17 22 15 -2 45 18 39 27 -3 4 4 6 15 3 16 -4 19 -2 14 11
-3 9 -10 13 -15 10 -17 -10 -31 7 -18 22 6 7 9 21 5 29 -3 8 -1 15 3 15 5 0
11 -6 14 -12 3 -9 7 -7 12 6 8 19 -11 39 -29 29 -5 -3 -6 -1 -2 5 9 15 33 15
38 0 3 -8 9 -8 24 0 18 10 18 11 2 17 -10 4 -15 11 -12 17 3 5 12 4 20 -3 12
-10 17 -9 27 0 9 10 9 12 -3 9 -9 -2 -14 4 -14 15 2 20 -31 24 -40 5 -3 -7 -4
-4 -1 7 6 27 -9 49 -28 42 -11 -4 -14 -1 -10 9 6 17 3 17 -31 4 -27 -10 -34
-38 -16 -56 7 -7 -12 -30 -57 -70 -63 -55 -87 -73 -187 -133 l-38 -24 5 39 c4
21 9 75 12 119 12 147 66 298 108 301 14 2 15 -1 6 -12 -7 -8 -7 -14 -1 -14
10 0 38 29 31 33 -2 1 -17 9 -34 17 -29 15 -65 64 -54 74 8 9 82 -14 101 -31
14 -13 15 -20 6 -37 -10 -20 -10 -20 7 -6 17 14 18 13 12 -30 -3 -25 -9 -60
-13 -79 -5 -22 -4 -32 3 -28 6 4 13 30 17 58 8 57 25 98 51 119 16 13 17 10
13 -41 -5 -56 -34 -108 -110 -197 -15 -18 -28 -41 -28 -50 0 -10 -16 -45 -36
-78 -39 -65 -70 -122 -61 -114 3 3 38 53 77 110 91 135 138 201 158 223 14 16
17 16 31 2 14 -14 14 -17 2 -25 -12 -7 -12 -11 -2 -23 9 -12 9 -16 -1 -20 -7
-2 0 -4 15 -4 21 0 27 3 22 15 -5 12 -3 13 10 2 13 -11 16 -11 13 0 -2 7 3 15
11 18 9 3 11 0 6 -8 -6 -9 -3 -9 14 -1 26 14 28 31 3 24 -10 -2 -24 2 -31 11
-7 8 -18 13 -26 10 -7 -3 -16 -1 -19 4 -3 6 4 9 18 8 18 -2 23 1 19 13 -2 9 1
7 8 -4 6 -11 13 -21 15 -23 1 -2 12 2 24 8 13 7 20 8 16 2 -4 -6 2 -10 13 -9
14 1 18 7 15 27 -3 14 -1 20 3 15 11 -15 38 -13 38 3 0 14 18 18 22 5 2 -5 -9
-16 -24 -25 -17 -11 -22 -18 -13 -18 9 0 22 6 30 13 12 10 12 9 1 -5 -7 -10
-11 -25 -7 -33 3 -8 4 -15 3 -15 -1 0 -18 4 -37 10 -25 7 -36 7 -42 -3 -13
-20 -9 -47 7 -47 13 0 19 11 16 32 -1 7 50 0 58 -8 3 -2 -2 -10 -11 -17 -22
-17 -32 -77 -14 -77 11 0 13 10 10 35 -3 26 -1 35 11 35 10 0 15 10 15 29 0
17 5 33 10 36 6 4 7 11 4 17 -4 6 1 6 14 -1 11 -6 24 -21 28 -33 6 -21 7 -21
21 5 7 15 19 27 25 27 6 0 5 6 -3 17 -10 11 -10 14 -1 9 23 -14 12 9 -14 27
-14 10 -32 16 -40 13 -12 -5 -12 -2 -3 15 10 20 11 20 25 2 12 -16 15 -16 24
-3 7 11 10 11 10 2 0 -7 5 -10 11 -6 8 5 6 10 -5 16 -9 5 -14 13 -11 19 4 5
-2 9 -12 9 -14 0 -15 2 -4 9 15 10 3 20 -19 16 -9 -1 -21 8 -27 21 -12 26 -5
32 15 12 19 -19 38 -17 38 4 0 15 -5 18 -23 13 -13 -3 -23 -1 -23 4 0 13 26
32 34 24 4 -4 4 0 0 10 -3 9 -10 17 -15 17 -5 0 -9 5 -9 11 0 6 -9 22 -20 36
-15 20 -17 29 -9 39 15 19 34 18 50 -3 11 -13 11 -17 2 -20 -7 -3 -13 -10 -13
-15 0 -6 3 -8 7 -5 3 4 13 1 22 -6 14 -10 14 -10 3 5 -10 12 -10 18 -1 23 8 6
7 10 -4 16 -15 9 -15 25 -3 77 4 21 3 22 -10 11 -14 -11 -18 -10 -30 6 -14 18
-14 18 -14 -3 0 -15 6 -22 20 -22 11 0 20 -5 20 -11 0 -6 -6 -9 -14 -6 -8 3
-19 -5 -26 -19 -18 -32 -30 -30 -69 10 l-34 35 39 16 c79 34 84 35 84 22 0 -8
3 -8 9 2 6 9 11 10 15 2 11 -17 26 -13 26 8 0 11 3 21 8 24 4 2 2 3 -4 1 -6
-1 -17 3 -24 9 -8 7 -11 8 -7 1 8 -13 -171 -86 -222 -90 -20 -2 -46 4 -60 13
-13 8 -20 10 -17 4 8 -12 -26 -16 -38 -3 -4 4 -13 7 -19 7 -22 0 -18 25 6 34
13 5 27 16 30 24 3 9 36 30 72 47 77 37 105 36 163 -7 28 -20 24 -15 -13 20
-27 25 -44 46 -37 47 7 0 10 5 7 10 -3 6 -1 10 4 10 6 0 11 -6 12 -12 0 -7 5
-2 10 12 l11 25 38 -42 c43 -48 70 -57 63 -19 -9 45 22 35 87 -30 40 -39 67
-59 71 -52 4 7 11 3 18 -11 7 -11 17 -21 23 -21 6 0 3 9 -7 20 -15 16 -16 23
-6 33 10 9 16 7 32 -12 10 -13 19 -32 19 -43 0 -12 4 -17 13 -12 9 5 9 3 -1
-7 -11 -12 -14 -12 -22 1 -6 9 -10 10 -10 3 0 -22 33 -33 46 -16 6 10 16 13
24 8 10 -6 9 -10 -4 -17 -9 -5 -16 -17 -16 -26 0 -15 2 -15 10 -2 8 12 10 9
10 -11 0 -28 31 -64 44 -52 4 5 7 4 6 -2 -4 -20 0 -35 10 -35 5 0 6 7 3 17 -5
12 -3 14 8 8 12 -7 12 -6 1 7 -9 11 -10 18 -2 23 16 10 12 22 -11 28 -15 4
-20 11 -15 22 3 9 2 13 -4 10 -6 -3 -10 3 -10 13 0 11 -11 44 -25 73 -13 29
-23 55 -21 56 2 2 38 8 81 12 80 9 125 32 215 111 l35 30 -49 -20 c-56 -24
-176 -25 -184 -2 -3 9 17 12 77 12 45 0 81 4 81 9 0 30 -13 39 -45 34 -50 -8
-96 3 -149 38 -54 34 -57 51 -5 21 54 -31 159 -59 159 -42 0 5 -11 10 -24 10
-14 0 -55 20 -92 45 -58 39 -72 44 -101 39 -33 -6 -34 -6 -31 22 2 22 8 29 23
27 34 -4 98 -13 130 -18 23 -4 14 4 -36 34 -37 21 -78 47 -93 57 -27 20 -35
40 -12 31 8 -3 17 0 19 7 6 16 -13 47 -56 94 l-31 32 52 0 c38 0 52 4 52 14 0
22 -32 28 -131 25 l-90 -3 -48 65 c-52 70 -98 112 -112 103 -5 -3 -8 0 -7 7 2
7 -40 41 -92 76 -52 35 -101 71 -108 81 -10 14 -14 14 -21 3 -7 -11 -13 -8
-26 13 -17 25 -44 38 -29 14 5 -9 2 -9 -9 1 -18 15 -23 26 -7 16 16 -10 11 1
-7 16 -11 10 -14 10 -9 2 15 -26 -15 -11 -86 42 -46 35 -83 55 -100 55 -15 0
-55 6 -90 14 -35 8 -107 18 -161 22 -80 6 -95 9 -86 20 10 12 0 14 -57 12
l-69 -1 50 -8z m-1359 -440 c-24 -20 -56 -35 -98 -45 -66 -15 -178 -53 -178
-61 0 -2 7 -11 15 -19 23 -23 19 -29 -37 -71 -29 -21 -79 -61 -110 -90 -46
-42 -179 -123 -203 -123 -3 0 -5 51 -5 114 l0 113 78 6 c42 2 78 4 79 3 1 -1
-11 -39 -27 -84 -16 -45 -26 -82 -24 -82 8 0 50 101 58 136 6 25 18 36 74 63
37 18 99 53 137 76 104 65 155 83 263 94 7 0 -3 -13 -22 -30z m1892 -51 c13 1
39 -5 58 -13 20 -8 38 -14 42 -14 57 8 30 -17 -44 -41 -94 -32 -197 -18 -259
35 -20 16 -19 16 6 11 19 -4 29 -1 33 10 9 23 59 12 111 -24 64 -44 73 -46 28
-7 -47 40 -56 60 -20 49 12 -4 32 -7 45 -6z m-1288 -167 c0 -95 -4 -152 -11
-156 -5 -4 -21 -4 -35 -1 l-24 6 0 150 0 150 35 0 35 0 0 -149z m1010 99 c0
-5 -5 -10 -10 -10 -6 0 -37 -17 -68 -37 -31 -20 -61 -38 -67 -39 -5 -1 -19 -5
-30 -10 -12 -4 -9 2 10 16 40 31 54 45 35 35 -45 -24 -69 -47 -64 -60 4 -8 10
-12 15 -9 5 3 9 1 9 -3 0 -21 37 -8 55 20 26 39 131 98 166 93 14 -2 40 -11
57 -20 45 -23 64 -19 22 5 -19 11 -26 17 -15 14 63 -21 74 -28 68 -38 -5 -9
-3 -9 8 -1 8 5 20 9 27 8 6 -1 20 -2 29 -3 30 -2 6 -12 -43 -17 -54 -7 -114
-31 -114 -46 0 -5 -12 0 -26 11 -15 11 -30 18 -35 15 -22 -13 -6 17 16 32 14
9 24 19 21 21 -5 6 -84 -38 -145 -80 -25 -17 -54 -31 -65 -32 -13 -1 -22 -10
-24 -23 -2 -11 -9 -26 -17 -32 -11 -9 -13 -3 -12 32 2 32 -2 43 -15 46 -14 3
-16 -4 -12 -40 6 -60 11 -68 31 -62 14 5 15 4 4 -4 -8 -6 -20 -8 -27 -5 -17 6
-28 -15 -15 -30 16 -20 -1 -36 -27 -26 -13 5 -21 13 -17 19 3 6 -10 8 -34 5
-49 -4 -62 -11 -55 -30 3 -7 1 -23 -6 -34 -6 -12 -7 -21 -3 -20 20 3 33 -2 31
-13 -2 -7 2 -12 9 -13 18 0 25 -12 12 -21 -8 -5 -10 -3 -4 6 5 9 4 11 -4 6 -6
-4 -9 -11 -6 -16 3 -4 -2 -13 -10 -20 -8 -7 -12 -17 -9 -22 4 -6 -2 -5 -14 1
-26 14 -32 14 -32 0 0 -5 6 -7 13 -3 9 5 9 4 0 -6 -6 -7 -9 -18 -7 -25 3 -7 1
-16 -5 -20 -10 -6 -15 14 -14 52 1 7 -3 11 -7 8 -4 -3 -10 2 -14 10 -3 8 -1
15 5 15 6 0 7 6 3 13 -4 6 2 4 13 -6 22 -19 48 -15 57 10 7 18 -1 33 -18 33
-23 0 -38 26 -23 39 8 6 17 7 22 3 4 -4 3 2 -2 12 -8 15 -4 28 21 64 52 75
101 123 113 111 8 -8 11 -6 10 6 -2 23 73 70 161 101 79 28 72 26 72 14z
m-1800 -440 l0 -390 -30 0 -30 0 -1 268 c0 371 1 494 7 504 3 4 16 8 30 8 l24
0 0 -390z m2216 329 c92 -43 97 -55 24 -62 -33 -4 -86 -18 -119 -31 -33 -13
-68 -23 -78 -22 -33 5 -26 41 17 85 23 24 40 45 38 47 -3 2 -20 -12 -38 -31
-36 -37 -49 -42 -68 -23 -9 9 0 19 36 44 56 40 92 39 188 -7z m121 -100 c2
-22 -4 -29 -27 -37 -15 -6 -32 -7 -36 -4 -4 4 -4 2 -1 -5 5 -7 -7 -16 -30 -24
-21 -6 -51 -22 -68 -34 -16 -12 -68 -42 -114 -65 -46 -24 -93 -53 -104 -64
-21 -22 -15 -8 15 36 l18 27 -32 -10 c-57 -16 -76 -11 -36 9 20 11 61 40 92
66 30 26 57 47 60 47 3 -1 14 -1 24 -1 14 0 15 2 2 10 -20 13 -33 12 -24 -2 4
-7 3 -8 -5 -4 -6 4 -18 4 -24 -1 -7 -4 -1 2 13 14 26 24 46 31 35 13 -9 -14 7
-12 28 4 10 8 14 16 10 18 -4 3 -2 3 6 1 7 -2 19 1 25 6 19 16 79 30 126 29
42 -1 45 -3 47 -29z m-2177 -594 l0 -565 -30 0 -30 0 0 565 0 565 30 0 30 0 0
-565z m178 93 l2 -466 -27 -5 c-16 -3 -29 -4 -30 -3 -1 1 -4 210 -7 464 l-5
463 22 9 c12 5 27 7 32 6 6 -2 11 -168 13 -468z m2010 421 c-51 -14 -106 -53
-89 -63 5 -4 17 -3 27 1 12 4 15 3 10 -5 -5 -8 -2 -10 9 -6 11 5 40 -18 96
-73 44 -44 82 -76 85 -72 2 4 -2 11 -10 16 -29 17 -178 164 -172 170 12 13 82
19 110 10 21 -7 31 -6 38 4 8 11 9 10 4 -4 -3 -10 0 -20 8 -23 14 -5 15 -22 2
-66 -6 -22 -2 -38 19 -74 15 -26 22 -44 16 -40 -6 4 -11 0 -11 -10 0 -13 -3
-14 -15 -4 -11 9 -27 7 -77 -13 -35 -14 -70 -26 -78 -28 -23 -3 -60 15 -114
56 -26 20 -50 34 -52 32 -5 -5 77 -67 115 -87 l25 -13 -37 -19 c-33 -16 -86
-75 -101 -111 -3 -8 -10 -6 -20 7 -12 15 -18 17 -30 7 -11 -10 -17 -6 -29 18
-14 28 -14 29 9 26 13 -1 30 5 36 14 12 14 11 15 -7 1 -15 -10 -17 -10 -8 0 7
7 24 15 39 16 15 2 30 8 34 15 4 6 12 9 18 5 6 -3 23 -1 39 5 27 10 28 11 8
26 -11 8 -32 19 -47 25 -16 6 -25 15 -21 21 3 6 1 7 -5 3 -6 -4 -28 2 -49 12
-36 19 -36 20 -12 27 13 4 27 13 31 19 11 16 116 10 145 -9 14 -9 27 -14 30
-12 3 3 -9 13 -26 22 -17 8 -31 20 -31 25 0 4 -8 10 -17 12 -15 3 -15 6 5 17
21 11 29 9 65 -14 l42 -26 -35 30 c-19 17 -41 31 -48 31 -7 0 -11 4 -7 9 3 6
-4 15 -16 21 -14 8 -19 8 -15 1 10 -15 -33 -39 -82 -45 -32 -3 -41 -1 -33 7 5
7 9 16 9 22 0 5 6 11 14 13 9 2 8 0 -2 -8 -13 -10 -13 -11 0 -7 8 2 14 9 13
15 -4 16 55 55 73 48 8 -3 12 -2 9 4 -6 9 55 30 88 30 9 0 17 5 17 11 0 8 5 7
16 -2 15 -12 14 -14 -8 -20z m-2668 -664 l0 -635 -22 -1 -23 -2 23 -4 22 -4 0
-365 0 -364 -30 0 -30 0 0 994 0 994 28 10 c15 6 28 11 30 11 1 1 2 -285 2
-634z m2763 147 c26 -27 27 -30 10 -43 -14 -12 -16 -12 -8 0 5 9 4 12 -3 7 -6
-4 -9 -12 -6 -19 4 -11 -185 -232 -192 -224 -6 6 -6 93 0 127 6 32 5 32 -4 9
-10 -25 -12 -26 -53 -13 -23 7 -64 18 -92 25 l-49 13 29 12 c16 6 36 9 45 7
10 -4 9 -1 -4 9 -18 14 -17 15 13 28 24 10 41 10 67 2 19 -5 32 -6 29 -2 -7
11 44 50 109 84 53 28 63 26 109 -22z m-2933 -723 l0 -571 -22 6 c-13 3 -26 6
-30 6 -9 0 -10 1051 -2 1098 5 25 11 32 30 32 l24 0 0 -571z m-327 85 c0 -173
-3 -317 -5 -319 -1 -2 -15 -6 -31 -10 l-27 -7 0 315 c0 290 1 317 18 326 48
28 47 33 45 -305z m2779 139 c0 -71 -5 -150 -9 -178 l-9 -50 -20 115 c-10 63
-20 105 -22 93 -2 -11 4 -58 12 -103 24 -126 25 -124 -46 -164 -34 -19 -63
-34 -65 -33 -1 1 16 89 37 195 37 185 61 253 93 265 25 9 31 -17 29 -140z
m-1622 17 l0 -100 -27 -1 -28 -1 25 -7 c21 -6 25 -14 27 -44 1 -35 -1 -37 -28
-37 l-29 0 0 119 c0 71 4 122 10 126 6 4 8 10 5 15 -5 8 21 29 38 30 4 0 7
-45 7 -100z m622 52 c-23 -15 -29 -37 -13 -46 5 -4 7 2 4 13 -3 12 2 20 16 24
12 3 23 2 26 -3 7 -12 -21 -63 -51 -91 -14 -13 -30 -33 -36 -44 -6 -11 7 -3
29 18 21 20 42 37 46 37 9 0 -11 -36 -40 -73 -24 -29 -31 -53 -13 -42 6 4 3
-9 -6 -29 -10 -19 -21 -33 -25 -31 -3 3 -6 -1 -6 -8 2 -20 -37 -117 -47 -117
-5 0 -6 32 -3 73 6 78 53 241 67 232 4 -3 6 5 2 17 -3 14 -1 19 6 14 8 -4 10
-2 6 8 -7 18 35 78 49 69 6 -4 1 -13 -11 -21z m-964 -160 l3 -143 -25 16 c-32
21 -36 40 -36 168 l0 108 28 -3 27 -3 3 -143z m1512 46 c-88 -101 -160 -196
-160 -211 0 -13 4 -8 44 46 15 21 32 34 38 31 7 -4 8 -2 4 4 -8 14 83 124 96
116 5 -3 7 0 6 8 -2 7 3 12 10 10 8 -1 11 1 8 6 -3 5 9 22 26 38 l31 29 -23
-40 c-32 -54 -116 -152 -187 -219 l-58 -55 -3 30 c-2 19 11 57 38 111 55 108
62 118 80 118 9 0 26 7 38 16 12 8 22 12 22 9 0 -4 12 3 28 14 15 11 28 21 30
21 1 0 -29 -37 -68 -82z m169 -95 c15 -73 17 -112 12 -213 -8 -131 -22 -182
-80 -277 l-26 -41 1 161 c1 182 11 300 25 292 5 -4 9 6 9 20 0 14 4 24 8 21 4
-2 8 10 9 27 3 46 15 109 20 104 2 -3 12 -45 22 -94z m-1520 -178 l-2 -224
-26 -11 -26 -10 27 3 27 4 1 -420 c0 -300 -3 -423 -11 -433 -6 -8 -7 -14 -2
-14 18 0 8 -40 -12 -46 -11 -4 -23 -12 -27 -18 -4 -6 -8 305 -8 692 l0 702 30
0 31 0 -2 -225z m171 -174 l0 -309 -22 4 -23 5 23 -17 c30 -22 29 -70 -3 -125
l-24 -43 -1 388 c0 214 -3 392 -6 397 -3 5 9 9 25 9 l31 0 0 -309z m1867 277
c-4 -12 -1 -28 5 -36 6 -7 7 -12 2 -11 -27 5 -33 -2 -24 -27 6 -14 10 -80 10
-147 0 -113 1 -120 16 -99 20 28 54 29 54 1 0 -13 -4 -18 -12 -13 -10 6 -9 3
0 -9 12 -14 11 -16 -5 -17 -62 -2 -59 3 -73 -105 -7 -55 -16 -109 -20 -119 -6
-17 -8 -15 -18 13 -7 18 -9 38 -5 44 3 5 1 7 -5 3 -17 -10 -56 102 -55 159 1
67 27 169 69 264 19 44 34 88 34 100 0 13 6 21 16 21 12 0 15 -6 11 -22z
m-132 -130 c-8 -120 -35 -272 -47 -260 -16 16 -47 144 -53 216 l-6 71 53 32
c29 18 54 32 56 33 2 0 1 -42 -3 -92z m-620 5 l36 -77 -20 -66 c-11 -36 -31
-90 -44 -120 l-25 -55 -7 128 c-8 144 1 267 21 267 2 0 19 -35 39 -77z m-489
58 c-3 -4 17 -54 45 -110 27 -56 47 -105 44 -110 -3 -6 -1 -12 5 -16 5 -3 10
-27 9 -53 l-1 -47 -14 33 c-8 18 -11 38 -8 45 4 7 4 9 -1 5 -4 -4 -28 20 -53
53 -35 46 -46 71 -49 107 -4 43 9 102 22 102 4 0 4 -4 1 -9z m-956 -327 l0
-314 -25 0 -24 0 -3 316 c-2 174 -2 317 0 318 1 2 14 1 27 -2 l25 -4 0 -314z
m1937 240 c2 -16 19 -85 38 -153 19 -69 35 -143 35 -165 l-1 -41 -16 30 c-9
17 -34 62 -57 100 -67 112 -112 225 -94 233 4 2 22 9 40 17 42 18 51 15 55
-21z m-368 -199 c0 -72 -16 -138 -19 -85 -2 14 -6 4 -11 -24 -6 -38 -27 -77
-87 -165 -44 -64 -93 -143 -111 -176 l-31 -60 5 50 c13 111 29 165 97 335 30
74 60 158 67 185 7 28 20 65 28 83 l16 34 23 -54 c17 -39 23 -72 23 -123z
m-649 118 c11 -21 26 -45 32 -55 10 -13 3 -33 -38 -112 l-49 -95 -3 102 c-3
111 4 171 19 162 8 -6 13 8 10 28 -3 18 10 4 29 -30z m2018 -71 c47 -34 71
-60 81 -86 9 -22 20 -35 28 -32 7 3 13 1 13 -4 0 -6 -4 -10 -9 -10 -5 0 -7 -9
-4 -21 l6 -20 21 20 c25 23 36 26 36 10 0 -5 -5 -7 -12 -3 -8 5 -9 2 -5 -10 5
-13 3 -17 -6 -13 -7 3 -19 -4 -25 -14 -11 -16 -9 -19 9 -19 13 0 18 4 13 12
-4 6 -3 8 3 5 6 -4 13 0 17 8 3 8 9 15 14 15 13 0 46 -76 38 -88 -3 -5 1 -12
9 -16 19 -7 20 -36 1 -36 -8 0 -21 -3 -30 -6 -9 -3 -16 -1 -16 5 0 6 12 14 26
17 17 4 22 9 14 14 -14 9 -48 2 -56 -12 -3 -5 1 -17 10 -27 15 -17 18 -38 14
-88 -2 -22 -28 -27 -45 -8 -5 4 -3 5 3 2 8 -5 11 2 10 18 0 13 -8 26 -18 28
-16 4 -23 -2 -61 -56 -11 -15 -12 -14 -13 13 -1 19 4 30 12 30 16 0 16 2 8 24
-5 14 -9 14 -23 4 -14 -11 -14 -11 -4 3 7 9 9 20 5 24 -4 5 -2 5 5 1 12 -7 36
26 28 38 -3 3 -1 3 4 -1 5 -5 11 -19 13 -33 2 -18 10 -26 28 -28 22 -4 23 -2
10 14 -9 11 -10 15 -2 10 6 -4 12 -3 12 3 0 5 -5 13 -11 16 -6 4 -8 13 -5 20
3 9 -2 11 -16 7 -17 -4 -20 -2 -15 11 4 10 10 24 13 32 4 9 3 15 -2 14 -33 -6
-44 3 -44 32 0 20 4 28 12 23 7 -4 8 -3 4 5 -4 6 -11 9 -16 6 -5 -3 -14 12
-21 33 -12 41 -59 79 -81 66 -6 -4 -8 -3 -5 3 4 6 0 17 -9 24 -20 16 -68 88
-78 114 -4 13 3 8 19 -12 14 -17 56 -54 93 -81z m-583 -13 c10 17 35 13 29 -4
-4 -9 0 -15 9 -15 9 0 19 9 22 20 4 11 11 18 16 14 5 -3 7 -9 4 -14 -7 -11 5
-40 17 -40 6 0 8 7 5 15 -4 8 -1 17 5 21 6 4 8 3 5 -3 -4 -6 0 -16 8 -23 12
-10 15 -9 15 4 0 10 4 15 10 11 15 -9 -11 -57 -28 -50 -12 4 -12 3 -3 -9 8 -9
8 -16 2 -20 -5 -4 -12 3 -16 13 -7 24 -29 18 -43 -12 -8 -17 -11 -18 -11 -5
-1 9 4 20 9 23 18 11 11 27 -7 16 -12 -6 -20 -5 -28 6 -9 12 -11 8 -10 -19 3
-54 4 -56 25 -51 28 7 36 -21 13 -51 -20 -28 -30 -31 -53 -16 -13 8 -13 13 -2
30 11 18 10 24 -10 40 -20 17 -21 19 -5 20 10 0 15 5 12 10 -3 6 0 10 7 10 10
0 10 2 0 9 -8 4 -14 12 -15 17 -1 4 -13 8 -27 8 -31 1 -40 34 -14 53 15 11 20
10 35 -3 11 -10 19 -12 24 -5z m-485 -84 c25 -49 53 -98 64 -110 16 -17 16
-15 -3 22 -35 70 -24 63 27 -17 38 -59 50 -88 55 -130 l5 -55 -13 37 c-25 69
-84 141 -165 203 -14 10 6 -12 43 -49 73 -74 96 -111 122 -199 16 -55 32 -80
22 -34 -2 12 -2 47 2 77 l7 55 27 -52 c24 -47 27 -62 27 -158 0 -58 -8 -152
-17 -208 l-18 -102 -7 60 c-10 90 -91 313 -164 455 -36 69 -67 141 -69 160 -2
19 -9 53 -14 75 -15 56 -14 67 7 63 10 -2 35 -38 62 -93z m-695 -103 c-2 -7 0
-10 5 -7 5 3 12 -7 16 -22 3 -15 10 -41 15 -57 13 -41 11 -84 -3 -88 -18 -6
-98 172 -104 232 -5 41 -3 49 13 52 13 3 24 -9 41 -46 12 -28 20 -56 17 -64z
m549 17 c12 -77 -6 -151 -62 -248 -47 -82 -187 -245 -202 -236 -4 3 -14 -3
-21 -13 -13 -15 -12 -16 4 -3 9 7 17 9 17 3 0 -15 -26 -33 -35 -24 -5 4 -5 2
-2 -4 7 -12 -16 -38 -25 -28 -3 3 -5 -3 -4 -13 0 -10 -5 -17 -12 -15 -8 1 -11
-1 -9 -5 3 -5 -8 -26 -24 -47 -16 -22 -29 -34 -29 -27 0 24 30 81 128 244 65
108 117 209 147 285 49 126 89 196 108 189 7 -2 16 -28 21 -58z m-2544 -104
l0 -135 -30 0 -30 0 0 135 0 135 30 0 30 0 0 -135z m2649 -97 c7 -112 12 -144
33 -190 l26 -55 -87 -34 c-47 -19 -90 -34 -95 -34 -5 0 -18 25 -29 55 -17 49
-17 55 -3 66 9 6 16 17 17 25 0 8 8 -6 17 -31 20 -52 42 -93 48 -88 2 2 -5 22
-16 44 -10 21 -22 53 -26 69 -7 28 -6 29 10 16 22 -18 56 -84 56 -108 0 -12 3
-14 10 -7 7 7 2 25 -16 58 -14 26 -23 50 -20 54 4 3 11 1 15 -6 5 -8 11 0 18
23 13 40 10 42 -19 15 -30 -28 -36 -26 -48 19 -9 33 -7 48 10 93 11 29 25 60
31 68 12 17 11 12 -15 -52 -14 -35 -17 -59 -12 -93 4 -25 12 -43 17 -40 5 4 5
14 -2 27 -13 24 -5 73 21 131 l20 42 -6 -45 c-3 -25 -7 -58 -10 -75 -3 -24 -2
-26 5 -10 5 11 11 45 15 75 12 98 18 131 22 127 3 -2 8 -65 13 -139z m355 40
c12 -45 6 -303 -9 -373 -20 -97 -79 -210 -175 -337 -45 -60 -83 -108 -85 -108
-2 0 5 21 15 46 11 25 20 52 20 59 0 8 6 20 13 27 24 24 41 112 40 208 0 93 0
94 15 60 8 -19 19 -45 25 -57 5 -12 6 -39 3 -60 -4 -21 -9 -49 -12 -63 l-4
-25 10 25 c41 93 100 358 100 448 0 58 20 172 30 172 4 0 10 -10 14 -22z
m-658 -52 c-2 -19 -21 -67 -42 -106 -36 -69 -56 -88 -114 -105 l-25 -7 24 26
c34 37 21 42 -14 6 -17 -18 -23 -30 -15 -30 9 0 8 -5 -5 -20 -13 -15 -3 -12
40 11 l57 31 -16 -28 c-9 -16 -36 -51 -60 -79 l-45 -50 3 65 c4 74 35 154 92
231 41 57 52 61 46 19 -3 -18 0 -30 7 -30 6 0 11 9 11 19 0 11 11 28 25 39 14
11 25 25 25 31 0 6 2 11 5 11 3 0 3 -16 1 -34z m-2018 -279 c-1 -116 -3 -187
-5 -157 -2 30 -8 59 -13 64 -5 5 -7 -1 -4 -15 5 -19 4 -21 -5 -9 -7 9 -11 10
-11 3 0 -6 5 -15 10 -18 8 -5 7 -11 0 -21 -7 -7 -10 -35 -8 -64 1 -27 0 -50
-4 -50 -5 0 -8 107 -8 238 l0 238 25 2 25 2 -2 -213z m3865 130 c-4 -6 -1 -7
8 -1 20 12 39 14 39 3 0 -6 6 -7 13 -4 6 4 4 0 -6 -9 -11 -8 -26 -12 -35 -9
-9 4 -13 2 -9 -4 3 -5 0 -10 -8 -10 -8 0 -12 4 -9 9 3 4 -5 8 -18 7 -13 0 -18
-3 -11 -5 7 -3 9 -12 6 -19 -4 -11 -10 -12 -25 -4 -15 8 -19 8 -13 0 4 -7 2
-18 -4 -25 -9 -11 -8 -18 4 -30 9 -9 20 -14 25 -11 4 3 11 -2 14 -11 3 -8 2
-12 -4 -9 -6 3 -10 2 -10 -4 0 -16 13 -19 38 -10 13 5 20 13 17 19 -4 6 -11 7
-17 4 -7 -4 -8 -2 -4 4 4 7 14 12 22 12 9 0 12 5 8 12 -4 7 -3 8 5 4 6 -4 9
-11 6 -16 -13 -22 7 -38 43 -34 20 2 32 1 27 -3 -6 -5 -10 -14 -9 -20 1 -7 2
-21 3 -30 1 -16 3 -16 11 -3 5 8 10 10 10 4 0 -6 -3 -14 -7 -17 -9 -9 -34 13
-27 24 5 9 -10 12 -51 11 -11 0 -23 5 -26 11 -4 5 -14 7 -24 4 -9 -4 -13 -11
-10 -17 4 -6 11 -8 16 -5 5 4 9 -2 9 -11 0 -16 -1 -16 -19 0 -15 14 -24 15
-40 6 -12 -6 -21 -17 -21 -25 0 -7 -4 -17 -10 -20 -6 -3 -7 1 -4 9 3 9 1 16
-5 16 -6 0 -11 -4 -11 -10 0 -5 -7 -7 -15 -4 -24 10 -17 24 13 24 15 0 36 7
46 15 14 11 16 15 5 15 -8 0 -20 9 -26 19 -10 16 -9 18 8 14 10 -3 19 -10 19
-16 0 -6 3 -8 6 -5 9 10 -16 49 -27 43 -5 -4 -9 -2 -9 2 0 5 -10 14 -21 22
-20 12 -21 11 -15 -5 4 -10 4 -15 0 -12 -4 4 -16 3 -26 -3 -16 -9 -19 -8 -15
3 2 7 10 12 16 10 8 -1 9 2 5 10 -13 21 -12 32 2 46 11 10 14 10 14 -1 0 -7
10 -23 23 -35 l22 -21 2 32 c0 18 -1 26 -4 20 -5 -15 -33 -18 -33 -4 0 16 27
31 44 25 26 -10 49 16 42 48 l-5 27 24 -21 c13 -11 22 -26 18 -31z m-3385 31
c13 -13 16 -533 4 -618 -6 -37 -11 -45 -29 -46 l-22 0 -1 331 c0 182 3 334 6
338 11 11 29 8 42 -5z m-648 -188 l0 -140 -24 0 c-31 0 -38 35 -35 175 l2 105
29 0 28 0 0 -140z m358 58 c17 -17 15 -75 -3 -85 -12 -7 -15 -54 -16 -288 -3
-498 -9 -633 -27 -631 -8 2 -18 14 -20 27 -7 33 -14 864 -7 858 3 -3 6 -32 7
-65 1 -50 2 -55 10 -31 5 15 14 27 19 27 5 0 8 21 6 48 -1 35 -8 52 -26 68
-19 16 -22 26 -16 52 5 26 11 32 34 32 15 0 32 -5 39 -12z m1902 -46 c0 -20 5
-44 11 -52 8 -11 9 -7 4 17 -4 18 -3 42 1 55 6 21 7 21 22 -8 8 -16 19 -32 25
-35 5 -4 -17 -25 -49 -47 -33 -21 -79 -61 -104 -88 -71 -79 -255 -271 -242
-253 7 9 11 21 10 25 -5 15 24 74 33 68 5 -3 6 1 4 8 -14 36 249 369 277 352
4 -3 8 -22 8 -42z m84 -114 c-4 -7 -8 -24 -8 -38 -1 -14 -4 -30 -9 -37 -4 -6
-3 -14 3 -18 11 -7 16 4 23 45 9 52 6 -170 -3 -290 -10 -122 -23 -188 -55
-264 -20 -47 -41 -36 -30 14 4 18 10 28 14 22 13 -21 11 213 -2 275 -11 51
-11 79 -2 145 7 45 17 84 24 86 6 2 11 12 11 22 0 10 7 26 16 34 18 19 28 21
18 4z m266 -118 c0 -84 -16 -159 -53 -237 l-24 -52 -18 59 c-14 47 -17 78 -12
147 6 75 33 202 36 166 1 -18 41 17 42 37 0 8 7 2 14 -15 8 -17 14 -64 15
-105z m-2762 -129 l2 -171 -33 0 -33 0 2 168 c0 92 2 170 2 174 1 4 14 5 30 4
l27 -3 3 -172z m4485 97 c3 -25 2 -44 -4 -47 -6 -1 -2 -9 8 -16 16 -12 16 -17
5 -35 -8 -12 -9 -19 -3 -15 6 3 11 -1 11 -11 0 -29 41 -105 52 -97 6 3 8 2 5
-4 -3 -5 1 -21 11 -34 35 -50 32 -79 -18 -194 -46 -104 -126 -203 -155 -191
-9 3 -15 0 -15 -9 0 -20 -40 -30 -52 -14 -8 11 -9 10 -4 -3 6 -20 -10 -34 -17
-16 -4 9 -6 8 -6 -3 -1 -9 -13 -21 -27 -28 -25 -11 -26 -10 -21 11 6 22 5 22
-8 4 -8 -10 -16 -24 -18 -30 -3 -8 -8 -7 -19 1 -8 7 -18 10 -21 6 -4 -3 -7 -4
-7 -1 0 16 48 53 68 52 21 -1 26 6 23 32 -1 6 10 10 25 8 27 -3 54 15 54 35 0
16 -18 23 -26 10 -4 -8 -3 -9 4 -5 17 10 15 -3 -3 -20 -10 -10 -15 -11 -15 -3
0 9 -4 8 -15 -1 -13 -11 -15 -8 -15 21 0 30 -1 31 -13 14 -10 -13 -16 -15 -21
-6 -12 18 14 42 37 35 15 -5 19 -3 14 9 -4 11 0 15 14 14 10 -1 19 -5 19 -10
0 -5 5 -7 12 -5 6 2 13 20 15 39 3 34 3 34 -15 13 -15 -18 -20 -19 -31 -7 -10
11 -15 10 -32 -9 -11 -13 -19 -18 -18 -13 4 29 -1 39 -13 27 -17 -17 -28 -15
-21 4 5 15 3 15 -20 -1 -17 -11 -27 -13 -27 -6 0 9 -5 9 -21 0 -15 -8 -19 -8
-15 0 11 18 -34 13 -93 -9 -29 -12 -55 -19 -58 -17 -10 11 141 59 185 59 30 1
52 7 60 17 12 15 13 15 9 0 -6 -17 1 -17 98 -6 24 2 33 42 11 50 -9 4 -23 -4
-36 -20 -22 -28 -26 -24 -9 8 10 19 9 19 -10 9 -16 -8 -21 -8 -21 2 -1 8 -7 5
-17 -7 -13 -16 -15 -17 -10 -2 8 21 -6 22 -23 1 -8 -8 -23 -20 -34 -26 -20
-11 -20 -10 -3 9 25 29 21 36 -13 18 -34 -17 -44 -19 -35 -5 3 6 2 10 -4 10
-5 0 -12 -4 -15 -9 -3 -5 -14 -11 -25 -14 -14 -3 -18 -1 -14 9 6 17 -9 18 -24
3 -8 -8 -17 -8 -30 -1 -11 6 -33 11 -49 10 -16 0 -33 1 -39 2 -5 1 -12 2 -15
1 -14 -4 -162 -10 -159 -7 11 11 284 36 434 40 165 5 251 12 267 22 14 9 8 44
-8 44 -9 0 -13 5 -9 13 4 6 -2 2 -12 -11 l-19 -23 -22 22 c-21 19 -23 19 -20
3 2 -11 -4 -20 -14 -22 -12 -2 -18 3 -19 15 0 16 -2 15 -16 -4 -28 -42 -43
-28 -34 31 0 4 15 6 31 4 17 -3 30 -2 30 1 0 3 24 7 53 9 44 2 62 4 96 11 2 1
-2 8 -9 16 -7 8 -17 12 -23 8 -6 -4 -8 0 -4 10 3 8 0 21 -8 27 -10 8 -13 7
-11 -7 1 -13 -7 -18 -27 -19 -19 -1 -26 3 -23 12 3 7 0 16 -7 20 -7 4 -9 4 -5
-1 12 -13 -17 -33 -44 -32 -19 2 -25 7 -24 23 1 18 8 21 69 22 38 1 72 4 76 6
15 10 -1 75 -20 81 -19 7 -27 25 -9 25 5 0 8 25 6 55 -3 47 0 55 14 55 13 0
19 -11 23 -42z m-1915 -55 c25 -129 23 -290 -5 -378 -5 -17 -4 -18 10 -7 9 8
19 38 23 70 5 39 9 51 14 38 6 -19 7 -19 15 0 4 10 10 29 12 42 2 12 8 32 14
45 l10 22 -5 -23 c-3 -14 1 -25 9 -28 10 -4 5 -19 -21 -60 -19 -29 -38 -64
-44 -76 -5 -13 -18 -36 -29 -53 -21 -30 -21 -30 -20 -5 0 14 -3 125 -7 248 -5
148 -4 222 3 222 6 0 15 -26 21 -57z m361 -7 c-7 -14 -16 -23 -22 -19 -6 3 -7
1 -3 -6 12 -18 -72 -127 -169 -219 -85 -82 -109 -96 -84 -50 20 38 102 128
111 122 5 -3 7 -1 6 4 -2 5 27 47 63 93 36 46 72 94 80 106 19 31 34 4 18 -31z
m94 -76 c12 26 -3 -99 -17 -139 -9 -29 -11 -55 -4 -102 14 -97 -5 -224 -45
-304 -22 -45 -79 -127 -84 -122 -12 13 22 213 52 309 72 226 67 200 49 279
-15 68 -13 99 6 69 7 -11 10 -2 11 30 l1 45 12 -40 c8 -28 14 -35 19 -25z
m987 -153 c0 -8 3 -8 12 1 7 7 25 12 41 12 23 0 28 -3 23 -17 -6 -16 -6 -16
12 0 21 19 62 23 62 6 0 -8 4 -8 13 -1 13 11 117 14 117 3 0 -13 -25 -38 -43
-45 -15 -5 -17 -2 -11 17 6 21 6 21 -13 5 -23 -21 -50 -23 -55 -6 -3 7 -10 8
-17 4 -7 -5 -83 -10 -169 -11 -87 -2 -150 -1 -142 2 8 2 25 9 37 15 12 6 29 8
37 5 9 -4 16 -2 16 3 0 8 17 13 63 17 9 1 17 -3 17 -10z m-3400 -927 l0 -90
40 0 40 0 -2 -162 -3 -163 -61 -3 -61 -3 -7 47 c-8 62 -8 449 1 457 3 4 17 7
30 7 22 0 23 -2 23 -90z m684 -117 c3 -21 6 -98 6 -170 0 -132 0 -133 -23
-133 -13 0 -29 -6 -36 -12 -11 -11 -12 1 -7 66 3 43 6 126 6 183 0 102 0 103
24 103 19 0 24 -6 30 -37z m631 -665 c3 -46 5 -119 3 -163 l-3 -80 -32 -3 -33
-3 0 159 c0 87 3 162 7 165 3 4 16 7 29 7 21 0 23 -6 29 -82z m1134 -306 c8
-27 7 -51 -3 -88 -22 -85 -45 -121 -144 -229 -72 -79 -98 -101 -107 -92 -7 6
-10 21 -7 32 5 19 6 18 12 -4 5 -23 8 -22 53 29 101 112 126 171 163 378 6 31
21 19 33 -26z"/>
<path d="M3460 8187 c0 -15 153 -27 347 -27 101 0 103 1 93 20 -10 19 -21 20
-225 20 -174 0 -215 -3 -215 -13z"/>
<path d="M2440 5200 l0 -120 40 0 40 0 0 120 0 120 -40 0 -40 0 0 -120z"/>
<path d="M7265 4060 c-4 -6 -4 -25 0 -43 4 -23 3 -28 -4 -17 -13 18 -16 14
-29 -35 -7 -30 -10 -34 -11 -15 -1 20 -3 22 -11 10 -7 -11 -10 -7 -10 17 0 17
-4 35 -10 38 -6 4 -10 -5 -10 -20 0 -15 -4 -24 -10 -20 -5 3 -10 1 -10 -5 0
-6 -4 -9 -9 -5 -6 3 -14 -3 -20 -12 -8 -15 -10 -11 -11 20 0 36 -15 54 -17 20
0 -10 -4 -48 -8 -84 -5 -43 -4 -73 3 -85 11 -18 11 -17 12 4 0 13 4 20 10 17
6 -3 14 4 19 17 7 17 10 19 10 6 1 -20 21 -25 22 -5 0 6 4 3 8 -8 7 -16 9 -14
14 14 4 18 11 30 17 26 5 -3 10 1 10 10 0 9 6 15 12 13 18 -6 38 17 38 44 0
17 3 19 9 9 7 -10 11 -5 16 18 4 17 11 29 16 25 14 -8 11 9 -7 34 -16 24 -29
28 -39 12z"/>
<path d="M4510 2494 l0 -135 43 3 42 3 3 133 3 132 -46 0 -45 0 0 -136z"/>
<path d="M4695 1380 c-66 -4 -138 -11 -160 -15 l-40 -8 37 -13 c55 -19 574
-38 807 -30 346 13 484 30 404 51 -82 21 -763 31 -1048 15z"/>
</g>
</svg>
