<svg xmlns="http://www.w3.org/2000/svg" xmlns:xlink="http://www.w3.org/1999/xlink" width="40" zoomAndPan="magnify" viewBox="0 0 375 374.999991" height="40" preserveAspectRatio="xMidYMid meet" version="1.0"><defs><clipPath id="70017b02ad"><path d="M 0 23.4375 L 375 23.4375 L 375 351.5625 L 0 351.5625 Z M 0 23.4375 " clip-rule="nonzero"/></clipPath><clipPath id="26940fd3eb"><path d="M 187.5 23.4375 L 375 351.5625 L 0 351.5625 Z M 187.5 23.4375 " clip-rule="nonzero"/></clipPath><clipPath id="9e28a3be0e"><path d="M 125.671875 133.402344 L 375 133.402344 L 375 351.5625 L 125.671875 351.5625 Z M 125.671875 133.402344 " clip-rule="nonzero"/></clipPath><clipPath id="03759ac260"><path d="M 250.335938 133.402344 L 375 351.5625 L 125.671875 351.5625 Z M 250.335938 133.402344 " clip-rule="nonzero"/></clipPath><clipPath id="9176f5044b"><path d="M 207.941406 205.386719 L 375 205.386719 L 375 351.5625 L 207.941406 351.5625 Z M 207.941406 205.386719 " clip-rule="nonzero"/></clipPath><clipPath id="77ae535c6d"><path d="M 291.472656 205.386719 L 375 351.5625 L 207.941406 351.5625 Z M 291.472656 205.386719 " clip-rule="nonzero"/></clipPath></defs><g clip-path="url(#70017b02ad)"><g clip-path="url(#26940fd3eb)"><path fill="#6366f1" d="M 0 23.4375 L 375.550781 23.4375 L 375.550781 351.5625 L 0 351.5625 Z M 0 23.4375 " fill-opacity="1" fill-rule="nonzero"/></g></g><g clip-path="url(#9e28a3be0e)"><g clip-path="url(#03759ac260)"><path fill="#7c80f4" d="M 125.671875 133.402344 L 375.363281 133.402344 L 375.363281 351.5625 L 125.671875 351.5625 Z M 125.671875 133.402344 " fill-opacity="1" fill-rule="nonzero"/></g></g><g clip-path="url(#9176f5044b)"><g clip-path="url(#77ae535c6d)"><path fill="#ec499a" d="M 207.941406 205.386719 L 375.246094 205.386719 L 375.246094 351.5625 L 207.941406 351.5625 Z M 207.941406 205.386719 " fill-opacity="1" fill-rule="nonzero"/></g></g></svg>