<svg xmlns="http://www.w3.org/2000/svg" width="64" height="64" viewBox="0 0 1024 1024"><path d="M0 0h1024v1024H0z" style="fill:none;fill-opacity:1;stroke-width:1.00472"/><g style="stroke-width:10;stroke-dasharray:none"><g style="stroke-width:10;stroke-dasharray:none"><path d="M938.47 939.352v31.796" style="fill-opacity:1;stroke:currentColor;stroke-width:10;stroke-dasharray:none;stroke-opacity:1" transform="translate(-.197 13.68)"/><path d="M920.509 123.469h35.92v811.606h-35.92z" style="fill:currentColor;fill-opacity:1;stroke:currentColor;stroke-width:10.3218;stroke-dasharray:none;stroke-opacity:1" transform="translate(-.197 13.68)"/><path d="M938.47 119.856v3.479" style="fill-opacity:1;stroke:currentColor;stroke-width:10;stroke-dasharray:none;stroke-opacity:1" transform="translate(-.197 13.68)"/></g><g style="stroke-width:10;stroke-dasharray:none"><path d="M890.147 234.675v11.91" style="fill-opacity:1;stroke:currentColor;stroke-width:10;stroke-dasharray:none;stroke-opacity:1" transform="translate(-4.197 13.68)"/><path d="M872.026 128.954h36.242v107.592h-36.242z" style="fill:none;fill-opacity:1;stroke:currentColor;stroke-width:10;stroke-dasharray:none;stroke-opacity:1" transform="translate(-4.197 13.68)"/><path d="M890.147 27.356v101.917" style="fill-opacity:1;stroke:currentColor;stroke-width:10;stroke-dasharray:none;stroke-opacity:1" transform="translate(-4.197 13.68)"/></g><g style="stroke-width:10;stroke-dasharray:none"><path d="M841.825 337.657v47.051" style="fill-opacity:1;stroke:currentColor;stroke-width:10;stroke-dasharray:none;stroke-opacity:1" transform="translate(-8.197 13.68)"/><path d="M823.704 228.064h36.242v107.592h-36.242z" style="fill:none;fill-opacity:1;stroke:currentColor;stroke-width:10;stroke-dasharray:none;stroke-opacity:1" transform="translate(-8.197 13.68)"/><path d="M841.825 188.489v38.96" style="fill-opacity:1;stroke:currentColor;stroke-width:10;stroke-dasharray:none;stroke-opacity:1" transform="translate(-8.197 13.68)"/></g><g style="stroke-width:10;stroke-dasharray:none"><path d="M793.756 538.485v4.81" style="fill-opacity:1;stroke:currentColor;stroke-width:10;stroke-dasharray:none;stroke-opacity:1" transform="translate(-12.197 13.68)"/><path d="M775.382 334.058h36.242v206.71h-36.242z" style="fill:none;fill-opacity:1;stroke:currentColor;stroke-width:10;stroke-dasharray:none;stroke-opacity:1" transform="translate(-12.197 13.68)"/><path d="M793.503 280.094v54.365" style="fill-opacity:1;stroke:currentColor;stroke-width:10;stroke-dasharray:none;stroke-opacity:1" transform="translate(-12.197 13.68)"/></g><g style="stroke-width:10;stroke-dasharray:none"><path d="M745.181 564.721v84.31" style="fill-opacity:1;stroke:currentColor;stroke-width:10;stroke-dasharray:none;stroke-opacity:1" transform="translate(-16.197 23.68)"/><path d="M727.466 380.667h35.43v185.85h-35.43z" style="fill:currentColor;fill-opacity:1;stroke:currentColor;stroke-width:10;stroke-dasharray:none;stroke-opacity:1" transform="translate(-16.197 23.68)"/><path d="M745.181 376.156v2.854" style="fill-opacity:1;stroke:currentColor;stroke-width:10;stroke-dasharray:none;stroke-opacity:1" transform="translate(-16.197 23.68)"/></g><g style="stroke-width:10;stroke-dasharray:none"><path d="M696.859 453.136v40.905" style="fill-opacity:1;stroke:currentColor;stroke-width:10;stroke-dasharray:none;stroke-opacity:1" transform="translate(-20.197 13.68)"/><path d="M678.738 377.747h36.242v74.27h-36.242z" style="fill:none;fill-opacity:1;stroke:currentColor;stroke-width:10;stroke-dasharray:none;stroke-opacity:1" transform="translate(-20.197 13.68)"/><path d="M696.859 329.25v45.456" style="fill-opacity:1;stroke:currentColor;stroke-width:10;stroke-dasharray:none;stroke-opacity:1" transform="translate(-20.197 13.68)"/></g><g style="stroke-width:10;stroke-dasharray:none"><path d="M648.537 452.86v99.101" style="fill-opacity:1;stroke:currentColor;stroke-width:10;stroke-dasharray:none;stroke-opacity:1" transform="translate(-24.197 13.68)"/><path d="M630.416 246.951h36.242V452.04h-36.242z" style="fill:currentColor;fill-opacity:1;stroke:currentColor;stroke-width:10;stroke-dasharray:none;stroke-opacity:1" transform="translate(-24.197 13.68)"/><path d="M648.537 206.604v38.424" style="fill-opacity:1;stroke:currentColor;stroke-width:10;stroke-dasharray:none;stroke-opacity:1" transform="translate(-24.197 13.68)"/></g><g style="stroke-width:10;stroke-dasharray:none"><path d="M582.094 120.764h36.242v267.407h-36.242z" style="fill:currentColor;fill-opacity:1;stroke:currentColor;stroke-width:10;stroke-dasharray:none;stroke-opacity:1" transform="translate(-28.197 13.68)"/><path d="M600.215 388.422v18.94M600.215 45.01v73.163" style="fill-opacity:1;stroke:currentColor;stroke-width:10;stroke-dasharray:none;stroke-opacity:1" transform="translate(-28.197 13.68)"/></g></g><g style="stroke:currentColor;stroke-opacity:1"><g style="fill:none;fill-opacity:1;stroke:currentColor;stroke-width:32;stroke-dasharray:none;stroke-opacity:1" transform="translate(-30.197 13.68)"><circle cx="141.854" cy="92.962" r="24.161" style="fill:none;fill-opacity:1;stroke:currentColor;stroke-width:32;stroke-dasharray:none;stroke-opacity:1"/><circle cx="270.981" cy="92.962" r="24.161" style="fill:none;fill-opacity:1;stroke:currentColor;stroke-width:32;stroke-dasharray:none;stroke-opacity:1"/><circle cx="467.289" cy="131.461" r="24.161" style="fill:none;fill-opacity:1;stroke:currentColor;stroke-width:32;stroke-dasharray:none;stroke-opacity:1"/><circle cx="141.854" cy="262.089" r="24.161" style="fill:none;fill-opacity:1;stroke:currentColor;stroke-width:32;stroke-dasharray:none;stroke-opacity:1"/><circle cx="270.981" cy="262.089" r="24.161" style="fill:none;fill-opacity:1;stroke:currentColor;stroke-width:32;stroke-dasharray:none;stroke-opacity:1"/><circle cx="521.651" cy="276.427" r="24.161" style="fill:none;fill-opacity:1;stroke:currentColor;stroke-width:32;stroke-dasharray:none;stroke-opacity:1"/><circle cx="491.45" cy="418.373" r="24.161" style="fill:none;fill-opacity:1;stroke:currentColor;stroke-width:32;stroke-dasharray:none;stroke-opacity:1"/><circle cx="141.854" cy="431.216" r="24.161" style="fill:none;fill-opacity:1;stroke:currentColor;stroke-width:32;stroke-dasharray:none;stroke-opacity:1"/><circle cx="270.981" cy="431.216" r="24.161" style="fill:none;fill-opacity:1;stroke:currentColor;stroke-width:32;stroke-dasharray:none;stroke-opacity:1"/><circle cx="400.846" cy="502.936" r="24.161" style="fill:none;fill-opacity:1;stroke:currentColor;stroke-width:32;stroke-dasharray:none;stroke-opacity:1"/><circle cx="141.854" cy="600.343" r="24.161" style="fill:none;fill-opacity:1;stroke:currentColor;stroke-width:32;stroke-dasharray:none;stroke-opacity:1"/><circle cx="530.712" cy="581.46" r="24.161" style="fill:none;fill-opacity:1;stroke:currentColor;stroke-width:32;stroke-dasharray:none;stroke-opacity:1"/><circle cx="270.981" cy="600.343" r="24.161" style="fill:none;fill-opacity:1;stroke:currentColor;stroke-width:32;stroke-dasharray:none;stroke-opacity:1"/><circle cx="554.873" cy="738.506" r="24.161" style="fill:none;fill-opacity:1;stroke:currentColor;stroke-width:32;stroke-dasharray:none;stroke-opacity:1"/><circle cx="141.854" cy="769.471" r="24.161" style="fill:none;fill-opacity:1;stroke:currentColor;stroke-width:32;stroke-dasharray:none;stroke-opacity:1"/><circle cx="270.981" cy="769.471" r="24.161" style="fill:none;fill-opacity:1;stroke:currentColor;stroke-width:32;stroke-dasharray:none;stroke-opacity:1"/><circle cx="494.47" cy="886.493" r="24.161" style="fill:none;fill-opacity:1;stroke:currentColor;stroke-width:32;stroke-dasharray:none;stroke-opacity:1"/><circle cx="141.854" cy="938.598" r="24.161" style="fill:none;fill-opacity:1;stroke:currentColor;stroke-width:32;stroke-dasharray:none;stroke-opacity:1"/><circle cx="270.981" cy="938.598" r="24.161" style="fill:none;fill-opacity:1;stroke:currentColor;stroke-width:32;stroke-dasharray:none;stroke-opacity:1"/></g><g style="stroke:currentColor;stroke-width:3.97334;stroke-dasharray:none;stroke-opacity:1"><path d="M315.245 291.253H342M357.85 292.792l49.3 9.668M417.809 311.49l12.382 33.02M431.335 359.825l-6.67 31.35M417.152 404.458l-18.304 17.084M399.846 431.14l29.308 17.72M437.216 460.907l5.568 36.186M440.977 512.407l-13.954 34.186M416.21 555.816l-58.42 13.62M342 571.253h-26.755M307.245 563.253v-40M307.245 507.253v-40M307.245 451.253v-40M307.245 395.253v-40M307.245 339.253v-40M350 299.253v40M350 355.253v40M350 411.253v40M350 467.253v40M350 523.253v40M315.245 347.253H342M315.245 403.253H342M315.245 459.253H342M315.245 515.253H342" style="fill-rule:evenodd;stroke:currentColor;stroke-width:3.97334;stroke-dasharray:none;stroke-opacity:1" transform="matrix(3.02013 0 0 3.02013 -816.261 -772.979)"/></g><g style="stroke:currentColor;stroke-width:6;stroke-dasharray:none;stroke-opacity:1"><path d="m156.516 242.886 99.803-130.72M256.32 281.293l-99.804 130.72M156.516 281.293l99.803 130.72M156.516 581.14l99.803-130.72M156.516 450.42l99.803 130.72M156.516 750.267l99.803-130.72M156.516 619.547l99.803 130.72M256.32 788.674l-99.804 130.72M156.516 788.674l99.803 130.72M290.73 924.679l244.394-172.253M497.32 862.5l30.541-257.048M292.385 780.678l180.681 94.607M541.65 718.285 414.069 523.158M412.216 481.618l98.066-183.873M489.423 394.297l-20.106-238.76M502.155 262.157 290.477 107.231M447.175 144.845l-156.08 103.86M290.309 585.846l91.21-68.413M379.696 491.256l-87.565-48.36M156.516 112.166l99.803 130.72" style="fill-rule:evenodd;stroke:currentColor;stroke-width:6;stroke-dasharray:none;stroke-opacity:1" transform="translate(-30.197 13.68)"/></g></g></svg>