<svg width="50" height="50" viewBox="0 0 50 50" fill="none" xmlns="http://www.w3.org/2000/svg">
<path fill-rule="evenodd" clip-rule="evenodd" d="M16.5507 28.8585C16.551 28.8174 16.5523 28.776 16.5545 28.7344C16.6262 27.4341 17.7009 26.4163 19.0029 26.4154C20.3551 26.4145 21.4528 27.5074 21.4586 28.8585H16.5507ZM13.1608 28.8585C13.1451 28.2271 12.6469 27.7023 12.0052 27.6658C11.3293 27.6272 10.7499 28.1438 10.7113 28.8198C10.7106 28.8327 10.71 28.8456 10.7097 28.8585H13.1608ZM8.15668 28.8585C8.13945 28.4575 7.82087 28.1268 7.41154 28.1032L7.40911 28.1029C6.97195 28.0785 6.59778 28.4129 6.57319 28.85C6.57303 28.8528 6.57289 28.8557 6.57275 28.8585H8.15668ZM43.0008 28.8585C43.0228 28.4231 42.6895 28.051 42.2537 28.0261C41.8165 28.0017 41.4424 28.3361 41.4178 28.7732C41.4161 28.8019 41.4161 28.8305 41.4175 28.8585H43.0008ZM38.8628 28.8585C38.8798 28.1995 38.3703 27.6415 37.7072 27.6037C37.0313 27.5651 36.4519 28.0817 36.4134 28.7577C36.4114 28.7916 36.4109 28.8251 36.4117 28.8585H38.8628ZM33.0227 28.8585C33.0228 28.8522 33.0228 28.8458 33.0228 28.8394C33.0228 27.5383 32.0069 26.4635 30.7078 26.3904V26.3941C29.3552 26.3172 28.1963 27.3513 28.1194 28.7039C28.1163 28.7556 28.1151 28.8072 28.1154 28.8585H33.0227ZM16.7458 13.4294C16.9445 13.8196 16.7892 14.2969 16.3991 14.4955C16.3986 14.4958 16.3979 14.496 16.3974 14.4963C16.0055 14.6936 15.5277 14.5358 15.3303 14.1438C15.1354 13.7542 15.2913 13.2803 15.6796 13.0827C16.0699 12.884 16.5471 13.0393 16.7458 13.4294ZM19.4304 17.1898C19.735 17.794 19.4922 18.5306 18.888 18.8351C18.2836 19.1391 17.5471 18.8963 17.2425 18.2921C16.9383 17.6882 17.1813 16.952 17.7851 16.6475C18.3892 16.3428 19.1259 16.5857 19.4304 17.1898ZM11.9114 21.5283C11.606 21.9946 10.9803 22.125 10.514 21.8195C10.0478 21.5141 9.91776 20.8884 10.2229 20.4221C10.5283 19.9558 11.1539 19.8254 11.6202 20.1309C12.0866 20.4363 12.2169 21.062 11.9114 21.5283ZM17.4082 24.7143C16.9717 25.3802 16.0779 25.5658 15.4122 25.1293C15.4116 25.1288 15.4109 25.1285 15.4103 25.1281C14.7453 24.6912 14.5604 23.7979 14.9973 23.1329C15.4339 22.4673 16.3275 22.2817 16.9932 22.7182C17.6591 23.1548 17.8448 24.0485 17.4082 24.7143ZM32.2132 18.3856C31.8417 18.9517 31.0816 19.1094 30.5155 18.738C29.95 18.3665 29.7918 17.6059 30.1632 17.0403C30.5347 16.4743 31.2948 16.3166 31.8609 16.688C32.4269 17.0594 32.5846 17.8196 32.2132 18.3856ZM34.1271 14.1829C33.8873 14.5493 33.3959 14.6517 33.0296 14.4121L33.0283 14.4111C32.6625 14.1706 32.5609 13.6791 32.8013 13.3132C33.0415 12.9479 33.5321 12.846 33.8979 13.0854C34.2643 13.3252 34.3669 13.8164 34.1271 14.1829ZM21.8859 26.3057C20.9589 26.3096 20.1098 25.7879 19.6943 24.9593V24.9565C19.0844 23.7466 19.5709 22.2715 20.7809 21.6618C21.9908 21.0519 23.4659 21.5384 24.0756 22.7483C24.2484 23.0906 24.3384 23.4688 24.3384 23.8523C24.3387 25.207 23.2406 26.3054 21.8859 26.3057ZM39.3631 20.4591C39.616 20.9559 39.4184 21.5637 38.9216 21.8166L38.9179 21.8184C38.4194 22.069 37.8121 21.8682 37.5614 21.3697C37.3124 20.8735 37.511 20.2694 38.0057 20.0176C38.5025 19.7647 39.1102 19.9623 39.3631 20.4591ZM32.0662 24.5341C31.7077 23.8233 31.9934 22.9562 32.7042 22.5977C33.4158 22.2399 34.2824 22.5261 34.6412 23.2369C34.9988 23.9477 34.713 24.8137 34.0026 25.1721C33.2918 25.5306 32.4248 25.2449 32.0662 24.5341ZM25.7587 13.0907C25.7276 13.6472 25.2511 14.0731 24.6945 14.042C24.6924 14.042 24.6904 14.0417 24.6883 14.0417C24.1324 14.0075 23.7094 13.5292 23.7435 12.9734C23.7769 12.4187 24.2526 11.9954 24.8074 12.0265C25.3639 12.0576 25.7898 12.5343 25.7587 13.0907ZM26.2016 19.0323C26.1578 19.8272 25.4777 20.4362 24.6828 20.3925L24.6802 20.3922C23.8853 20.3471 23.2775 19.666 23.3228 18.8711C23.368 18.0772 24.0474 17.4697 24.8414 17.5135C25.6365 17.5573 26.2453 18.2373 26.2016 19.0323ZM26.3209 25.8882C25.1887 25.1473 24.8716 23.6288 25.6125 22.4966C26.0667 21.8047 26.8385 21.3881 27.6661 21.3882C28.1415 21.389 28.6065 21.5279 29.0041 21.7882C30.1364 22.5291 30.4534 24.0476 29.7126 25.1798C28.9717 26.312 27.4531 26.6291 26.3209 25.8882Z" fill="#FF9600"/>
<path fill-rule="evenodd" clip-rule="evenodd" d="M16.5507 28.8585C16.551 28.8174 16.5523 28.776 16.5545 28.7344C16.6262 27.4341 17.7009 26.4163 19.0029 26.4154C20.3551 26.4145 21.4528 27.5074 21.4586 28.8585H16.5507ZM13.1608 28.8585C13.1451 28.2271 12.6469 27.7023 12.0052 27.6658C11.3293 27.6272 10.7499 28.1438 10.7113 28.8198C10.7106 28.8327 10.71 28.8456 10.7097 28.8585H13.1608ZM8.15668 28.8585C8.13945 28.4575 7.82087 28.1268 7.41154 28.1032L7.40911 28.1029C6.97195 28.0785 6.59778 28.4129 6.57319 28.85C6.57303 28.8528 6.57289 28.8557 6.57275 28.8585H8.15668ZM43.0008 28.8585C43.0228 28.4231 42.6895 28.051 42.2537 28.0261C41.8165 28.0017 41.4424 28.3361 41.4178 28.7732C41.4161 28.8019 41.4161 28.8305 41.4175 28.8585H43.0008ZM38.8628 28.8585C38.8798 28.1995 38.3703 27.6415 37.7072 27.6037C37.0313 27.5651 36.4519 28.0817 36.4134 28.7577C36.4114 28.7916 36.4109 28.8251 36.4117 28.8585H38.8628ZM33.0227 28.8585C33.0228 28.8522 33.0228 28.8458 33.0228 28.8394C33.0228 27.5383 32.0069 26.4635 30.7078 26.3904V26.3941C29.3552 26.3172 28.1963 27.3513 28.1194 28.7039C28.1163 28.7556 28.1151 28.8072 28.1154 28.8585H33.0227ZM16.7458 13.4294C16.9445 13.8196 16.7892 14.2969 16.3991 14.4955C16.3986 14.4958 16.3979 14.496 16.3974 14.4963C16.0055 14.6936 15.5277 14.5358 15.3303 14.1438C15.1354 13.7542 15.2913 13.2803 15.6796 13.0827C16.0699 12.884 16.5471 13.0393 16.7458 13.4294ZM19.4304 17.1898C19.735 17.794 19.4922 18.5306 18.888 18.8351C18.2836 19.1391 17.5471 18.8963 17.2425 18.2921C16.9383 17.6882 17.1813 16.952 17.7851 16.6475C18.3892 16.3428 19.1259 16.5857 19.4304 17.1898ZM11.9114 21.5283C11.606 21.9946 10.9803 22.125 10.514 21.8195C10.0478 21.5141 9.91776 20.8884 10.2229 20.4221C10.5283 19.9558 11.1539 19.8254 11.6202 20.1309C12.0866 20.4363 12.2169 21.062 11.9114 21.5283ZM17.4082 24.7143C16.9717 25.3802 16.0779 25.5658 15.4122 25.1293C15.4116 25.1288 15.4109 25.1285 15.4103 25.1281C14.7453 24.6912 14.5604 23.7979 14.9973 23.1329C15.4339 22.4673 16.3275 22.2817 16.9932 22.7182C17.6591 23.1548 17.8448 24.0485 17.4082 24.7143ZM32.2132 18.3856C31.8417 18.9517 31.0816 19.1094 30.5155 18.738C29.95 18.3665 29.7918 17.6059 30.1632 17.0403C30.5347 16.4743 31.2948 16.3166 31.8609 16.688C32.4269 17.0594 32.5846 17.8196 32.2132 18.3856ZM34.1271 14.1829C33.8873 14.5493 33.3959 14.6517 33.0296 14.4121L33.0283 14.4111C32.6625 14.1706 32.5609 13.6791 32.8013 13.3132C33.0415 12.9479 33.5321 12.846 33.8979 13.0854C34.2643 13.3252 34.3669 13.8164 34.1271 14.1829ZM21.8859 26.3057C20.9589 26.3096 20.1098 25.7879 19.6943 24.9593V24.9565C19.0844 23.7466 19.5709 22.2715 20.7809 21.6618C21.9908 21.0519 23.4659 21.5384 24.0756 22.7483C24.2484 23.0906 24.3384 23.4688 24.3384 23.8523C24.3387 25.207 23.2406 26.3054 21.8859 26.3057ZM39.3631 20.4591C39.616 20.9559 39.4184 21.5637 38.9216 21.8166L38.9179 21.8184C38.4194 22.069 37.8121 21.8682 37.5614 21.3697C37.3124 20.8735 37.511 20.2694 38.0057 20.0176C38.5025 19.7647 39.1102 19.9623 39.3631 20.4591ZM32.0662 24.5341C31.7077 23.8233 31.9934 22.9562 32.7042 22.5977C33.4158 22.2399 34.2824 22.5261 34.6412 23.2369C34.9988 23.9477 34.713 24.8137 34.0026 25.1721C33.2918 25.5306 32.4248 25.2449 32.0662 24.5341ZM25.7587 13.0907C25.7276 13.6472 25.2511 14.0731 24.6945 14.042C24.6924 14.042 24.6904 14.0417 24.6883 14.0417C24.1324 14.0075 23.7094 13.5292 23.7435 12.9734C23.7769 12.4187 24.2526 11.9954 24.8074 12.0265C25.3639 12.0576 25.7898 12.5343 25.7587 13.0907ZM26.2016 19.0323C26.1578 19.8272 25.4777 20.4362 24.6828 20.3925L24.6802 20.3922C23.8853 20.3471 23.2775 19.666 23.3228 18.8711C23.368 18.0772 24.0474 17.4697 24.8414 17.5135C25.6365 17.5573 26.2453 18.2373 26.2016 19.0323ZM26.3209 25.8882C25.1887 25.1473 24.8716 23.6288 25.6125 22.4966C26.0667 21.8047 26.8385 21.3881 27.6661 21.3882C28.1415 21.389 28.6065 21.5279 29.0041 21.7882C30.1364 22.5291 30.4534 24.0476 29.7126 25.1798C28.9717 26.312 27.4531 26.6291 26.3209 25.8882Z" fill="#FF9600"/>
<path d="M49.5067 28.8584H0.493321C0.220867 28.8584 0 29.0793 0 29.3517C0 29.6242 0.220867 29.845 0.493321 29.845H49.5067C49.7791 29.845 50 29.6242 50 29.3517C50 29.0793 49.7791 28.8584 49.5067 28.8584Z" fill="#0096FF"/>
<path d="M15.4447 31.5146H2.80045C2.528 31.5146 2.30713 31.7355 2.30713 32.008C2.30713 32.2804 2.528 32.5013 2.80045 32.5013H15.4447C15.7171 32.5013 15.938 32.2804 15.938 32.008C15.938 31.7355 15.7171 31.5146 15.4447 31.5146Z" fill="#0096FF"/>
<path d="M44.5355 31.5146H32.711C32.4175 31.5146 32.1797 31.7525 32.1797 32.0459C32.1797 32.3393 32.4175 32.5772 32.711 32.5772H44.5355C44.8289 32.5772 45.0668 32.3393 45.0668 32.0459C45.0668 31.7525 44.8289 31.5146 44.5355 31.5146Z" fill="#0096FF"/>
<path d="M28.2024 31.5146H19.9911C19.5886 31.5146 19.2622 31.7185 19.2622 31.97C19.2622 32.2215 19.5886 32.4254 19.9911 32.4254H28.2024C28.605 32.4254 28.9313 32.2215 28.9313 31.97C28.9313 31.7185 28.605 31.5146 28.2024 31.5146Z" fill="#0096FF"/>
<path d="M40.824 34.1714H30.821C30.5485 34.1714 30.3276 34.3922 30.3276 34.6647C30.3276 34.9372 30.5485 35.158 30.821 35.158H40.824C41.0965 35.158 41.3173 34.9372 41.3173 34.6647C41.3173 34.3922 41.0965 34.1714 40.824 34.1714Z" fill="#0096FF"/>
<path d="M26.131 34.1714H8.91791C8.68737 34.1714 8.50049 34.3582 8.50049 34.5888C8.50049 34.8194 8.68737 35.0062 8.91791 35.0062H26.131C26.3616 35.0062 26.5485 34.8194 26.5485 34.5888C26.5485 34.3582 26.3616 34.1714 26.131 34.1714Z" fill="#0096FF"/>
<path d="M29.7587 36.8276H22.0477C21.7334 36.8276 21.4785 37.0825 21.4785 37.3969C21.4785 37.7112 21.7334 37.9661 22.0477 37.9661H29.7587C30.0731 37.9661 30.3279 37.7112 30.3279 37.3969C30.3279 37.0825 30.0731 36.8276 29.7587 36.8276Z" fill="#0096FF"/>
</svg>
