<svg viewBox="0 0 992 992" class="fill-current" xmlns="http://www.w3.org/2000/svg">
<path fill-rule="evenodd" clip-rule="evenodd" d="M944 496C944 743.424 743.424 944 496 944C248.576 944 48 743.424 48 496C48 248.576 248.576 48 496 48C743.424 48 944 248.576 944 496ZM496 912C725.75 912 912 725.75 912 496C912 266.25 725.75 80 496 80C266.25 80 80 266.25 80 496C80 725.75 266.25 912 496 912Z"/>
<path fill-rule="evenodd" clip-rule="evenodd" d="M992 496C992 769.933 769.933 992 496 992C222.067 992 0 769.933 0 496C0 222.067 222.067 0 496 0C769.933 0 992 222.067 992 496ZM496 960C752.26 960 960 752.26 960 496C960 239.74 752.26 32 496 32C239.74 32 32 239.74 32 496C32 752.26 239.74 960 496 960Z"/>
<path fill-rule="evenodd" clip-rule="evenodd" d="M992 496C992 769.933 769.933 992 496 992C222.067 992 0 769.933 0 496C0 222.067 222.067 0 496 0C769.933 0 992 222.067 992 496ZM496 960C752.26 960 960 752.26 960 496C960 239.74 752.26 32 496 32C239.74 32 32 239.74 32 496C32 752.26 239.74 960 496 960Z"/>
<path d="M184 279.252L360 530.31L536 279.252V697.993H535.993L503.993 665.993H504V380.645L360 586.057L216 380.645V665.993H216.007L184.007 697.993H184V279.252Z"/>
<path d="M488.007 665.993L456.007 697.993H456V532.735L360 669.676L264 532.735V697.993H263.993L231.993 665.993H232V431.342L360 613.93L488 431.342V665.993H488.007Z"/>
<path d="M688 377.993C665.909 377.993 648 395.902 648 417.993V577.993C648 600.085 665.909 617.993 688 617.993C710.091 617.993 728 600.085 728 577.993V569.993H680.007L712.007 537.993H760V577.993C760 617.758 727.765 649.993 688 649.993C648.235 649.993 616 617.758 616 577.993V417.993C616 378.229 648.235 345.993 688 345.993C727.765 345.993 760 378.229 760 417.993V425.993H760.007L728.007 457.993H728V417.993C728 395.902 710.091 377.993 688 377.993Z"/>
<path d="M776 425.993H775.993L807.993 457.993H808V417.993C808 351.719 754.274 297.993 688 297.993C621.726 297.993 568 351.719 568 417.993V577.993C568 644.268 621.726 697.993 688 697.993C754.274 697.993 808 644.268 808 577.993V489.993H680V490L712 522V521.993H776V577.993C776 626.594 736.601 665.993 688 665.993C639.399 665.993 600 626.594 600 577.993V417.993C600 369.392 639.399 329.993 688 329.993C736.601 329.993 776 369.392 776 417.993V425.993Z"/>
</svg>
