
        <svg xmlns="http://www.w3.org/2000/svg" xmlns:xlink="http://www.w3.org/1999/xlink" version="1.1" width="3250" height="3050" viewBox="0 0 3250 3050">
			
			<g transform="scale(12.5) translate(10, 10)">
				<defs id="SvgjsDefs2858"/><g id="SvgjsG2859" featureKey="rootContainer" transform="matrix(1,0,0,1,0,0)" fill="#000"><rect xmlns="http://www.w3.org/2000/svg" width="240" height="224" rx="10" ry="10"/></g><g id="SvgjsG2860" featureKey="q4o0QG-0" transform="matrix(12.195120816568439,0,0,12.195120816568439,15.365855238183627,-41.95121281775379)" fill="#ffffff"><path d="M5.72 5.119999999999999 l1.64 0.48 l0.22 0.76 l0.14 2.64 l-0.12 0.94 l-1.36 -0.04 l-1.64 0.06 l0 -0.82 l-0.18 -1.06 l-2.32 -0.02 l-0.22 0.58 l0.2 2.24 l1.46 0.04 c0.78 0.02 1.54 0.04 1.7 0.1 c0.1 0.06 0.66 0.08 1.22 0.14 l1.04 0.06 l0.22 3.36 l0 1.74 l-0.18 3.02 l-1.58 0.76 l-3.86 0.04 l-1.38 -0.66 l-0.34 -1.78 l0.08 -2.68 l0.06 -0.82 l0.76 0.04 l1.68 0.22 l0.06 2.8 l1.82 0.14 l0.06 -4.08 l-1.22 -0.04 l-1.46 -0.04 l-1.52 -0.4 l-0.18 -4.26 l0.28 -2.88 l1.94 -0.6 z M9.040000000000001 5.08 l1.64 0.02 l1.46 0.1 l0.48 1.46 l2.8 9.92 l-0.48 -10.12 l-0.04 -1.04 l0.84 0.08 l0.78 0 l0.14 1.12 c0.02 0.62 0.12 1.32 0.12 1.66 c0 0.36 -0.12 2.94 -0.12 5.42 c0 1.46 0 3.08 -0.02 4.88 l-0.12 1.38 l-1.26 0.2 l-1.62 -0.06 l-1.42 -4.62 l-0.46 -3.08 l-0.02 7.66 l-2.52 0.04 l-0.4 -0.24 l0.18 -6.18 z"/></g>
			</g>
		</svg>
	