<svg version="1.2" xmlns="http://www.w3.org/2000/svg" viewBox="0 0 2200 1466" width="1440" height="960"><style>.a{fill:#fff}.b{fill:#324c8e}.c{fill:#c91620}.d{fill:#e20612}.e{fill:#be0e1b}.f{fill:#3554b7}.g{fill:#ddd}</style><path class="a" d="m2200 1466h-2200v-1466h2200z"/><path class="b" d="m1773.5 692.2l-0.2 0.1"/><path class="c" d="m1773.3 687.3l-91.3 45.5 1.5-18.4 63.8-67.3z"/><path class="b" d="m1773.5 692.6l-0.2-0.3"/><path class="d" d="m1685 612.6l209 194.4c9.8 9.1 25.8 5.2 30.2-7.5l151.1-431.7c4.9-14.1-8-27.9-22.4-24.1l-478.4 127.1c-14.1 3.8-18.6 21.7-7.9 31.6z"/><path class="e" d="m2014.1 398.9l-267.3 262.3-63.5 69.6c-4.8 4.8-13 0.7-12-6l17.8-117.2z"/><path class="f" d="m123.7 1071.1q-0.6 0-1.1-0.2c-1.5-0.6-2.3-2.4-1.7-3.9 1.1-2.9 2.2-5.8 3.4-8.6 0.6-1.6 2.3-2.3 3.9-1.7 1.5 0.6 2.3 2.4 1.6 3.9-1.1 2.8-2.2 5.7-3.3 8.5-0.5 1.2-1.6 2-2.8 2zm661.6-2.3q-0.1 0-0.2 0c-4.1-0.3-8.3-0.7-12.4-1.3-1.6-0.2-2.8-1.7-2.6-3.4 0.3-1.6 1.8-2.8 3.4-2.5 4 0.5 8 0.9 12 1.2 1.7 0.1 2.9 1.5 2.8 3.1-0.1 1.6-1.4 2.9-3 2.9zm30.6-1.2c-1.5 0-2.8-1.1-3-2.6-0.2-1.7 0.9-3.2 2.6-3.4 3.9-0.6 7.9-1.3 11.8-2.1 1.6-0.4 3.2 0.6 3.6 2.2 0.3 1.7-0.7 3.3-2.3 3.6-4.1 0.9-8.2 1.7-12.3 2.2q-0.2 0.1-0.4 0.1zm-72.6-7.1q-0.4 0-0.9-0.1c-3.9-1.3-7.8-2.7-11.7-4.2-1.6-0.7-2.3-2.4-1.7-3.9 0.6-1.6 2.4-2.3 3.9-1.7 3.8 1.5 7.6 2.9 11.4 4.1 1.5 0.5 2.4 2.2 1.9 3.8-0.4 1.2-1.6 2-2.9 2zm113.9-4.3c-1.2 0-2.3-0.7-2.8-1.9-0.6-1.5 0.1-3.3 1.6-3.9 3.7-1.5 7.4-3.2 11-4.9 1.5-0.8 3.3-0.2 4 1.3 0.8 1.5 0.1 3.3-1.3 4-3.8 1.9-7.6 3.6-11.4 5.2q-0.6 0.2-1.1 0.2zm-153-13.1q-0.8 0-1.5-0.3c-3.5-2-7.1-4.2-10.7-6.3-1.4-0.9-1.8-2.8-0.9-4.2 0.8-1.4 2.7-1.8 4.1-0.9 3.4 2.1 7 4.2 10.4 6.1 1.5 0.8 2 2.7 1.2 4.1-0.6 1-1.6 1.5-2.6 1.5zm339.5-5.2c-1.7 0-3-1.3-3-3 0-1.7 1.3-3 3-3 4 0 8-0.1 12.1-0.3 1.6 0 3 1.2 3.1 2.9 0.1 1.6-1.2 3-2.9 3.1-4.1 0.2-8.3 0.3-12.3 0.3q0 0 0 0zm-30.6-1.6q-0.2 0-0.4-0.1c-2.4-0.2-4.9-0.5-7.3-0.9q-2.5-0.3-5-0.7c-1.6-0.3-2.7-1.8-2.5-3.5 0.3-1.6 1.9-2.7 3.5-2.5q2.4 0.4 4.8 0.8c2.4 0.3 4.8 0.6 7.2 0.9 1.6 0.2 2.8 1.6 2.6 3.3-0.1 1.5-1.4 2.7-2.9 2.7zm-118.3-0.6c-1 0-1.9-0.4-2.5-1.3-0.9-1.4-0.6-3.2 0.8-4.2 3.3-2.2 6.6-4.6 9.8-7.1 1.3-1 3.2-0.7 4.2 0.6 1 1.3 0.8 3.2-0.5 4.2-3.3 2.5-6.7 5-10.1 7.3-0.5 0.3-1.1 0.5-1.7 0.5zm191.6-0.8c-1.4 0-2.7-1.1-2.9-2.6-0.3-1.7 0.9-3.2 2.5-3.4 4-0.6 8-1.2 12.1-1.9 1.6-0.2 3.1 0.9 3.4 2.5 0.3 1.6-0.8 3.2-2.4 3.5-4.1 0.6-8.2 1.3-12.3 1.8q-0.2 0.1-0.4 0.1zm-947-0.4q-0.6 0-1.3-0.3c-1.4-0.8-2.1-2.6-1.4-4 1.8-3.8 3.7-7.5 5.6-11.1 0.7-1.5 2.5-2 4-1.3 1.5 0.8 2.1 2.6 1.3 4.1-1.9 3.5-3.7 7.2-5.5 10.9-0.5 1-1.5 1.7-2.7 1.7zm831.6-6.7q-0.4 0-0.8-0.1c-3.9-1.2-7.9-2.5-11.8-3.9-1.6-0.5-2.4-2.2-1.9-3.8 0.6-1.5 2.3-2.4 3.9-1.8 3.8 1.3 7.6 2.6 11.5 3.7 1.6 0.5 2.5 2.1 2 3.7-0.4 1.3-1.6 2.2-2.9 2.2zm157.6-1.1c-1.4 0-2.6-0.9-3-2.2-0.3-1.7 0.6-3.3 2.3-3.7 3.8-0.9 7.8-1.9 11.8-3 1.6-0.4 3.2 0.5 3.6 2.1 0.5 1.6-0.5 3.2-2.1 3.7-4 1.1-8 2.1-11.9 3.1q-0.4 0-0.7 0zm-460.2-7.2c-0.7 0-1.3-0.2-1.8-0.6-3.2-2.4-6.5-5-9.8-7.6-1.3-1.1-1.5-3-0.4-4.2 1-1.3 2.9-1.5 4.2-0.5 3.2 2.6 6.4 5.1 9.6 7.5 1.3 1 1.6 2.9 0.6 4.2-0.6 0.8-1.5 1.2-2.4 1.2zm501.4-4.6c-1.3 0-2.4-0.8-2.8-2.1-0.6-1.6 0.3-3.3 1.9-3.8 3.7-1.2 7.6-2.5 11.5-3.9 1.6-0.5 3.3 0.3 3.9 1.9 0.5 1.5-0.3 3.2-1.9 3.8-3.9 1.4-7.9 2.7-11.7 3.9q-0.4 0.2-0.9 0.2zm-238.7-2.8q-0.6 0-1.3-0.3c-3.7-1.8-7.4-3.8-11-5.8-1.4-0.8-1.9-2.6-1.1-4 0.8-1.5 2.6-2 4-1.2q2.1 1.1 4.2 2.3c2.8-2.8 5.6-5.7 8.2-8.6 1.2-1.2 3.1-1.3 4.3-0.1 1.2 1.1 1.3 3 0.2 4.2-2.3 2.5-4.7 5-7.1 7.4q0.5 0.2 1 0.4c1.5 0.8 2.1 2.6 1.3 4.1-0.5 1-1.6 1.6-2.7 1.6zm279.1-11.7c-1.2 0-2.3-0.7-2.8-1.9-0.6-1.6 0.2-3.3 1.7-3.9q5.7-2.2 11.4-4.5c1.6-0.6 3.3 0.2 3.9 1.7 0.6 1.5-0.1 3.3-1.7 3.9q-5.7 2.3-11.4 4.5-0.6 0.2-1.1 0.2zm-1050.2-3.6q-0.8 0-1.5-0.4c-1.5-0.9-1.9-2.7-1-4.1 2.2-3.6 4.4-7 6.7-10.4 0.9-1.4 2.7-1.8 4.1-0.9 1.4 1 1.8 2.8 0.9 4.2-2.3 3.3-4.5 6.8-6.6 10.2-0.6 0.9-1.6 1.4-2.6 1.4zm475.5-4.9c-0.7 0-1.4-0.3-2-0.8-2.9-2.6-5.8-5.4-9-8.4-1.2-1.1-1.3-3-0.1-4.2 1.1-1.2 3-1.3 4.2-0.1 3.2 2.9 6.1 5.6 9 8.3 1.2 1.1 1.3 3 0.2 4.2-0.6 0.6-1.4 1-2.3 1zm259-2c-0.6 0-1.3-0.2-1.8-0.6-3.3-2.4-6.6-5-9.8-7.5-1.3-1.1-1.5-3-0.5-4.3 1.1-1.2 2.9-1.4 4.2-0.4 3.2 2.5 6.4 5 9.6 7.4 1.4 1 1.7 2.8 0.7 4.2-0.6 0.8-1.5 1.2-2.4 1.2zm355.5-5.6c-1.2 0-2.3-0.7-2.8-1.8-0.6-1.6 0.1-3.3 1.6-4q5.7-2.3 11.3-4.7c1.5-0.7 3.3 0 3.9 1.6 0.7 1.5 0 3.2-1.5 3.9q-5.7 2.4-11.3 4.8-0.6 0.2-1.2 0.2zm-294.3-8.5c-0.6 0-1.2-0.2-1.8-0.5-1.3-1-1.6-2.9-0.6-4.2 2.3-3.3 4.6-6.6 6.8-10 1-1.4 2.8-1.8 4.2-0.9 1.4 0.9 1.8 2.8 0.9 4.2-2.3 3.4-4.7 6.9-7.1 10.2-0.6 0.8-1.5 1.2-2.4 1.2zm333.7-8.5c-1.2 0-2.3-0.7-2.7-1.8-0.7-1.5 0-3.3 1.5-4q5.6-2.4 11.1-5c1.6-0.6 3.3 0 4 1.5 0.7 1.5 0 3.3-1.5 4q-5.6 2.5-11.2 5-0.6 0.3-1.2 0.3zm-685-5c-0.8 0-1.5-0.2-2.1-0.8q-4.4-4.2-8.8-8.5c-1.2-1.1-1.3-3-0.1-4.2 1.1-1.2 3-1.3 4.2-0.1q4.5 4.2 8.9 8.5c1.2 1.1 1.2 3 0.1 4.2-0.6 0.6-1.4 0.9-2.2 0.9zm-419.7-0.5c-0.6 0-1.3-0.2-1.8-0.7-1.3-1-1.5-2.9-0.5-4.2 2.6-3.2 5.2-6.4 7.9-9.5 1.1-1.2 3-1.4 4.3-0.3 1.2 1.1 1.3 3 0.3 4.3-2.7 3-5.3 6.1-7.8 9.3-0.6 0.7-1.5 1.1-2.4 1.1zm677.5-0.1c-0.8 0-1.6-0.3-2.2-0.9-2.9-3-5.7-6.1-8.4-9.2-1.1-1.2-0.9-3.1 0.3-4.2 1.3-1.1 3.2-1 4.3 0.3 2.6 3 5.3 6 8.1 8.9 1.2 1.2 1.1 3.1-0.1 4.3-0.5 0.5-1.3 0.8-2 0.8zm466.2-12.3c-1.1 0-2.2-0.6-2.7-1.7-0.7-1.5-0.1-3.3 1.4-4q5.6-2.6 11.1-5.2c1.5-0.8 3.3-0.1 4 1.4 0.7 1.5 0.1 3.3-1.4 4q-5.6 2.6-11.1 5.2-0.6 0.3-1.3 0.3zm-350.4-10.2q-0.7 0-1.3-0.3c-1.5-0.7-2.1-2.6-1.4-4 1.9-3.6 3.6-7.3 5.3-11 0.7-1.5 2.4-2.1 4-1.5 1.5 0.7 2.1 2.5 1.5 4-1.7 3.8-3.6 7.5-5.4 11.2-0.5 1-1.6 1.6-2.7 1.6zm-404.8-6.3c-0.7 0-1.5-0.3-2-0.8-3.1-2.8-6.2-5.5-9.2-8.1-1.2-1.1-1.3-3-0.3-4.2 1.1-1.3 3-1.4 4.3-0.3 2.9 2.6 6 5.3 9.2 8.2 1.2 1.1 1.3 3 0.2 4.2-0.6 0.7-1.4 1-2.2 1zm793.8-2.2c-1.1 0-2.1-0.6-2.6-1.6-0.8-1.5-0.2-3.3 1.3-4.1q5.5-2.7 10.9-5.5c1.5-0.7 3.3-0.1 4.1 1.4 0.7 1.4 0.1 3.3-1.3 4q-5.5 2.8-11 5.5-0.7 0.3-1.4 0.3zm-1153.2-0.4c-0.8 0-1.6-0.3-2.2-1-1.1-1.2-1.1-3.1 0.1-4.2 3-2.8 6.1-5.6 9.2-8.3 1.3-1.1 3.2-0.9 4.3 0.3 1 1.3 0.9 3.2-0.3 4.2-3.1 2.7-6.1 5.4-9.1 8.2-0.5 0.5-1.3 0.8-2 0.8zm621.6-2.1c-0.9 0-1.9-0.5-2.5-1.3-2.2-3.5-4.4-7.1-6.5-10.6-0.8-1.5-0.3-3.3 1.1-4.1 1.4-0.8 3.3-0.4 4.1 1.1 2 3.4 4.1 6.9 6.3 10.3 1 1.4 0.6 3.2-0.8 4.1-0.5 0.4-1.1 0.5-1.7 0.5zm569.8-17c-1 0-2.1-0.6-2.6-1.6-0.8-1.5-0.2-3.3 1.3-4.1q5.4-2.8 10.8-5.7c1.4-0.8 3.2-0.2 4 1.2 0.8 1.5 0.3 3.3-1.2 4.1q-5.4 2.9-10.9 5.7-0.6 0.4-1.4 0.4zm-865-5.8c-0.6 0-1.2-0.2-1.8-0.6-3.3-2.4-6.6-4.8-9.8-7.1-1.4-0.9-1.7-2.8-0.8-4.1 1-1.4 2.8-1.7 4.2-0.8 3.3 2.3 6.7 4.7 10 7.2 1.3 1 1.6 2.9 0.6 4.2-0.6 0.8-1.5 1.2-2.4 1.2zm-293.1-2c-0.9 0-1.9-0.5-2.4-1.3-1-1.4-0.6-3.3 0.7-4.2 3.5-2.3 6.9-4.6 10.4-6.8 1.4-0.8 3.3-0.4 4.2 1 0.8 1.4 0.4 3.3-1 4.1-3.4 2.1-6.8 4.4-10.2 6.6-0.5 0.4-1.1 0.6-1.7 0.6zm747.3-3.8q-0.4 0-0.9-0.1c-1.6-0.5-2.4-2.2-1.9-3.8 1.2-3.8 2.4-7.7 3.5-11.6 0.5-1.6 2.1-2.5 3.7-2.1 1.6 0.5 2.6 2.1 2.1 3.7-1.1 4-2.3 8-3.6 11.9-0.4 1.2-1.6 2-2.9 2zm448.6-8.8c-1 0-2.1-0.5-2.6-1.5-0.8-1.5-0.3-3.3 1.2-4.1q5.3-3 10.7-6c1.4-0.8 3.2-0.3 4 1.2 0.9 1.4 0.3 3.2-1.1 4.1q-5.4 3-10.7 5.9-0.7 0.4-1.5 0.4zm-627.4-0.6c-1.2 0-2.3-0.7-2.7-1.9-1.6-3.8-3-7.7-4.3-11.6-0.6-1.6 0.3-3.3 1.8-3.8 1.6-0.6 3.3 0.3 3.8 1.9 1.3 3.8 2.7 7.6 4.2 11.3 0.6 1.5-0.1 3.3-1.6 3.9q-0.6 0.2-1.2 0.2zm-311.6-7.6q-0.7 0-1.4-0.3c-3.5-1.8-7.2-3.5-10.9-5.1-1.6-0.6-2.3-2.4-1.6-3.9 0.6-1.5 2.4-2.3 3.9-1.6 3.8 1.6 7.6 3.4 11.3 5.2 1.5 0.7 2.1 2.5 1.4 4-0.6 1.1-1.6 1.7-2.7 1.7zm-219.6-0.5c-1.2 0-2.3-0.6-2.8-1.7-0.7-1.5 0-3.3 1.5-4 3.7-1.7 7.5-3.4 11.3-5 1.6-0.6 3.3 0.1 4 1.7 0.6 1.5-0.2 3.2-1.7 3.9-3.7 1.5-7.4 3.1-11.1 4.8q-0.6 0.3-1.2 0.3zm1195.9-12.5c-1 0-2-0.5-2.6-1.5-0.8-1.4-0.3-3.2 1.1-4.1q5.3-3.1 10.6-6.2c1.4-0.8 3.3-0.3 4.1 1.1 0.8 1.4 0.4 3.3-1.1 4.1q-5.2 3.1-10.6 6.2-0.7 0.4-1.5 0.4zm-1016.4-2.2q-0.4 0-0.8-0.1c-3.9-1.1-7.8-2.1-11.8-3-1.6-0.4-2.6-2-2.2-3.6 0.3-1.6 2-2.6 3.6-2.2 4 0.9 8.1 1.9 12 3 1.6 0.4 2.5 2.1 2.1 3.7-0.4 1.3-1.6 2.2-2.9 2.2zm-139.3-0.1c-1.4 0-2.6-0.9-2.9-2.2-0.5-1.6 0.5-3.2 2.1-3.7 3.9-1.1 8-2.1 12-3 1.6-0.4 3.2 0.6 3.6 2.3 0.3 1.6-0.7 3.2-2.3 3.6-3.9 0.8-7.9 1.8-11.7 2.9q-0.4 0.1-0.8 0.1zm97.2-7.9q-0.2 0-0.3 0c-4-0.4-8.1-0.8-12.1-1-1.7-0.1-2.9-1.5-2.8-3.2 0.1-1.6 1.5-2.9 3.1-2.8 4.1 0.3 8.3 0.6 12.4 1 1.6 0.2 2.8 1.7 2.7 3.3-0.2 1.6-1.5 2.7-3 2.7zm-55.1 0c-1.5 0-2.8-1.2-3-2.7-0.2-1.7 1-3.1 2.7-3.3 4.1-0.4 8.2-0.8 12.3-1 1.7-0.1 3.1 1.2 3.2 2.8 0.1 1.7-1.2 3.1-2.8 3.2-4 0.2-8.1 0.5-12.1 1q-0.2 0-0.3 0zm638-1.4q-0.2 0-0.5 0c-1.6-0.3-2.7-1.9-2.4-3.5 0.7-4 1.3-8 1.8-12 0.2-1.6 1.7-2.8 3.3-2.6 1.6 0.2 2.8 1.7 2.6 3.3-0.5 4.1-1.1 8.3-1.8 12.3-0.2 1.5-1.5 2.5-3 2.5zm-201.1-8.9c-1.4 0-2.6-1-2.9-2.5-0.8-4-1.4-8.1-2-12.2-0.2-1.7 1-3.2 2.6-3.4 1.6-0.2 3.1 0.9 3.4 2.6 0.5 4 1.2 8 1.9 11.9 0.3 1.6-0.8 3.2-2.4 3.5q-0.3 0.1-0.6 0.1zm713.6-1.5c-1 0-2-0.5-2.6-1.4-0.8-1.4-0.4-3.3 1-4.1q5.2-3.2 10.4-6.5c1.4-0.8 3.3-0.4 4.2 1 0.8 1.4 0.4 3.3-1 4.1q-5.2 3.3-10.5 6.5-0.7 0.4-1.5 0.4zm36.3-22.8c-0.9 0-1.9-0.5-2.5-1.4-0.9-1.4-0.5-3.2 0.9-4.1q5.2-3.3 10.3-6.7c1.4-0.9 3.2-0.5 4.1 0.9 0.9 1.4 0.6 3.3-0.8 4.2q-5.2 3.3-10.3 6.6c-0.5 0.4-1.1 0.5-1.7 0.5zm-544.8-9.5q0 0-0.1 0c-1.6 0-2.9-1.4-2.9-3q0-2.4 0-4.8c0-2.4 0-4.9-0.1-7.4 0-1.6 1.3-3 3-3 1.6-0.1 3 1.2 3 2.9 0.1 2.5 0.1 5 0.1 7.5q0 2.4 0 4.9c0 1.6-1.4 2.9-3 2.9zm-209-8.9q0 0 0 0c-1.7 0-3-1.3-3-3 0-4.1 0.1-8.3 0.3-12.4 0.1-1.7 1.5-2.9 3.1-2.8 1.7 0 3 1.5 2.9 3.1-0.2 4-0.3 8.1-0.3 12.1 0 1.7-1.4 3-3 3zm789.7-5.2c-1 0-1.9-0.5-2.5-1.3-0.9-1.4-0.6-3.3 0.8-4.2q5.1-3.4 10.1-6.9c1.4-0.9 3.3-0.5 4.2 0.8 0.9 1.4 0.6 3.3-0.8 4.2q-5.1 3.5-10.1 6.9c-0.6 0.3-1.1 0.5-1.7 0.5zm35.3-24.4c-1 0-1.9-0.4-2.5-1.3-0.9-1.3-0.6-3.2 0.8-4.1q5-3.6 9.9-7.1c1.4-1 3.2-0.7 4.2 0.7 1 1.3 0.7 3.2-0.7 4.1q-5 3.6-10 7.2c-0.5 0.3-1.1 0.5-1.7 0.5zm-618.6-4.3c-1.4 0-2.7-1.1-2.9-2.6-0.6-4-1.2-8-2-11.9-0.3-1.7 0.8-3.2 2.4-3.5 1.7-0.3 3.2 0.7 3.5 2.4 0.8 4 1.4 8.1 2 12.2 0.2 1.6-0.9 3.2-2.6 3.4q-0.2 0-0.4 0zm-202.4-8.8q-0.3 0-0.6 0c-1.6-0.3-2.7-1.9-2.4-3.5 0.8-4.1 1.7-8.2 2.7-12.2 0.3-1.6 2-2.6 3.6-2.2 1.6 0.4 2.6 2.1 2.2 3.7-1 3.9-1.8 7.8-2.6 11.8-0.3 1.4-1.5 2.4-2.9 2.4zm193.2-33.1c-1.3 0-2.5-0.8-2.9-2.1-1.2-3.8-2.5-7.7-3.8-11.5-0.6-1.5 0.2-3.2 1.8-3.8 1.6-0.6 3.3 0.2 3.8 1.8 1.4 3.9 2.7 7.8 4 11.8 0.4 1.5-0.4 3.2-2 3.7q-0.5 0.1-0.9 0.1zm-181.3-8q-0.6 0-1.1-0.2c-1.5-0.6-2.3-2.4-1.7-3.9 1.5-3.9 3.2-7.7 4.9-11.4 0.7-1.5 2.5-2.2 4-1.5 1.5 0.7 2.2 2.5 1.5 4-1.7 3.6-3.3 7.4-4.8 11.1-0.5 1.2-1.6 1.9-2.8 1.9zm165.1-31.6c-1 0-2.1-0.6-2.6-1.6-2-3.6-4-7.1-6.1-10.4-0.9-1.4-0.5-3.2 0.8-4.1 1.4-0.9 3.3-0.5 4.2 0.9 2.2 3.4 4.3 7 6.4 10.7 0.8 1.5 0.2 3.3-1.2 4.1q-0.7 0.4-1.5 0.4zm-145.2-6.3c-0.6 0-1.2-0.2-1.7-0.6-1.4-0.9-1.7-2.8-0.8-4.2 2.4-3.4 4.9-6.8 7.6-9.9 1-1.3 2.9-1.5 4.2-0.4 1.3 1 1.4 2.9 0.4 4.2-2.5 3-5 6.2-7.2 9.6-0.6 0.8-1.6 1.3-2.5 1.3zm119.3-27.7c-0.7 0-1.4-0.3-2-0.8-3-2.7-6.2-5.1-9.3-7.2-1.4-0.9-1.8-2.8-0.9-4.1 0.9-1.4 2.8-1.8 4.2-0.9 3.4 2.3 6.8 4.9 10 7.8 1.2 1.1 1.4 3 0.2 4.2-0.5 0.7-1.4 1-2.2 1zm-89.8-3.2c-0.9 0-1.8-0.5-2.4-1.3-1-1.3-0.7-3.2 0.7-4.2 3.5-2.5 7.1-4.8 10.6-6.7 1.5-0.8 3.3-0.3 4.1 1.2 0.8 1.4 0.3 3.3-1.2 4-3.4 1.9-6.7 4-10 6.4-0.6 0.4-1.2 0.6-1.8 0.6zm51.7-15q-0.2 0-0.4-0.1-0.4 0-0.8-0.1c-3.6-0.4-7.2-0.4-10.8-0.2-1.7 0.1-3.1-1.1-3.2-2.8-0.1-1.6 1.1-3.1 2.8-3.2 3.9-0.3 7.9-0.2 11.8 0.3q0.5 0 1 0.1c1.6 0.2 2.8 1.7 2.6 3.3-0.2 1.6-1.5 2.7-3 2.7z"/><path class="g" d="m1984.5 1100.6c0 12.3-69.8 22.3-156 22.3-86.2 0-156-10-156-22.3 0-12.4 69.8-22.4 156-22.4 86.2 0 156 10 156 22.4z"/></svg>