<svg width="142" height="44" viewBox="0 0 142 44" fill="none" xmlns="http://www.w3.org/2000/svg">
<g clip-path="url(#clip0_2_2)">
<path d="M133.236 0H8.24137C3.68979 0 0 3.69365 0 8.25V35.75C0 40.3064 3.68979 44 8.24137 44H133.236C137.787 44 141.477 40.3064 141.477 35.75V8.25C141.477 3.69365 137.787 0 133.236 0Z" fill="#1A1A1A"/>
<path d="M133.236 0.6875H8.24136C4.06907 0.6875 0.686768 4.07335 0.686768 8.25V35.75C0.686768 39.9267 4.06907 43.3125 8.24136 43.3125H133.236C137.408 43.3125 140.79 39.9267 140.79 35.75V8.25C140.79 4.07335 137.408 0.6875 133.236 0.6875Z" stroke="white" stroke-opacity="0.2" stroke-width="2"/>
<mask id="mask0_2_2" style="mask-type:luminance" maskUnits="userSpaceOnUse" x="13" y="13" width="18" height="18">
<path d="M13.7356 13.75H30.2183V30.25H13.7356V13.75Z" fill="white"/>
</mask>
<g mask="url(#mask0_2_2)">
<path fill-rule="evenodd" clip-rule="evenodd" d="M21.977 14.7812L30.2183 29.2188H13.7356L21.977 14.7812Z" fill="#EDEDED"/>
</g>
<path d="M43.2672 1.375V42.625" stroke="white" stroke-opacity="0.14"/>
<path d="M55.1816 28.0293C54.752 28.0293 54.5176 27.9382 54.4785 27.7559L51.5098 16.3496C51.5033 16.3171 51.4935 16.2747 51.4805 16.2227C51.4674 16.1706 51.4609 16.1315 51.4609 16.1055C51.4609 16.0143 51.5228 15.9427 51.6465 15.8906C51.7702 15.832 51.959 15.8027 52.2129 15.8027H52.3789C52.5677 15.8027 52.724 15.8255 52.8477 15.8711C52.9714 15.9167 53.0462 15.9883 53.0723 16.0859L55.2793 24.6309C55.3184 24.8001 55.403 25.2331 55.5332 25.9297C55.5658 26.1315 55.5853 26.2389 55.5918 26.252C55.735 25.653 55.875 25.0964 56.0117 24.582L58.1113 16.1055C58.1569 15.9036 58.3815 15.8027 58.7852 15.8027H59.0586C59.4688 15.8027 59.6966 15.9036 59.7422 16.1055L61.8906 24.6504C61.9557 24.9043 62.0176 25.207 62.0762 25.5586C62.1413 25.9102 62.1803 26.1413 62.1934 26.252C62.3301 25.6921 62.4701 25.1419 62.6133 24.6016L64.7129 16.0859C64.7585 15.8971 64.9863 15.8027 65.3965 15.8027H65.5039C65.9987 15.8027 66.2461 15.9036 66.2461 16.1055C66.2461 16.151 66.2298 16.2324 66.1973 16.3496L63.1992 27.7559C63.1471 27.9382 62.9128 28.0293 62.4961 28.0293H61.793C61.3698 28.0293 61.1387 27.9382 61.0996 27.7559L59.1953 20.6855L58.8438 18.4297L58.4727 20.6855L56.5781 27.7559C56.5391 27.9382 56.3112 28.0293 55.8945 28.0293H55.1816ZM68.7754 28.0293C68.528 28.0293 68.349 28 68.2383 27.9414C68.1276 27.8763 68.0723 27.7786 68.0723 27.6484V21.5547C68.0723 20.7995 68.0365 20.2559 67.9648 19.9238C67.8932 19.5853 67.8574 19.3997 67.8574 19.3672C67.8574 19.224 67.9648 19.123 68.1797 19.0645C68.401 18.9993 68.6094 18.9668 68.8047 18.9668C68.9609 18.9668 69.0781 19.0514 69.1562 19.2207C69.2344 19.3835 69.3027 19.6146 69.3613 19.9141L69.4102 20.1191C70.0286 19.2533 70.6992 18.8203 71.4219 18.8203C71.7539 18.8203 72.0046 18.8822 72.1738 19.0059C72.3431 19.123 72.4277 19.2826 72.4277 19.4844C72.4277 19.6797 72.3919 19.888 72.3203 20.1094C72.2552 20.3242 72.1771 20.4316 72.0859 20.4316C72.0404 20.4316 71.959 20.4121 71.8418 20.373C71.7376 20.3275 71.6335 20.2949 71.5293 20.2754C71.4251 20.2493 71.2917 20.2363 71.1289 20.2363C70.862 20.2363 70.6081 20.3145 70.3672 20.4707C70.1328 20.627 69.9342 20.7995 69.7715 20.9883C69.6087 21.1771 69.5273 21.2812 69.5273 21.3008V27.6484C69.5273 27.7786 69.472 27.8763 69.3613 27.9414C69.2507 28 69.0781 28.0293 68.8438 28.0293H68.7754ZM75.0645 16.7305C74.6022 16.7305 74.3711 16.6035 74.3711 16.3496V15.3242C74.3711 15.0703 74.6022 14.9434 75.0645 14.9434H75.2695C75.7383 14.9434 75.9727 15.0703 75.9727 15.3242V16.3496C75.9727 16.6035 75.7383 16.7305 75.2695 16.7305H75.0645ZM75.1328 28.0293C74.6706 28.0293 74.4395 27.9023 74.4395 27.6484V19.2695C74.4395 19.0156 74.6706 18.8887 75.1328 18.8887H75.2012C75.6699 18.8887 75.9043 19.0156 75.9043 19.2695V27.6484C75.9043 27.9023 75.6699 28.0293 75.2012 28.0293H75.1328ZM81.5684 28.0977C80.9889 28.0977 80.4714 27.9219 80.0156 27.5703C79.5599 27.2188 79.332 26.597 79.332 25.7051V20.168H78.4629C78.3392 20.168 78.248 20.1289 78.1895 20.0508C78.1374 19.9661 78.1113 19.8327 78.1113 19.6504V19.4355C78.1113 19.2533 78.1374 19.123 78.1895 19.0449C78.248 18.9603 78.3392 18.918 78.4629 18.918H79.332L79.5371 17.1016C79.5501 16.8477 79.7357 16.7207 80.0938 16.7207H80.2598C80.4421 16.7207 80.5755 16.7533 80.6602 16.8184C80.7448 16.877 80.7871 16.9714 80.7871 17.1016V18.918H82.2422C82.3659 18.918 82.4538 18.9603 82.5059 19.0449C82.5645 19.123 82.5938 19.2533 82.5938 19.4355V19.6504C82.5938 19.8327 82.5645 19.9661 82.5059 20.0508C82.4538 20.1289 82.3659 20.168 82.2422 20.168H80.7871V25.5684C80.7871 26.0436 80.8685 26.3757 81.0312 26.5645C81.2005 26.7533 81.4284 26.8477 81.7148 26.8477C81.9362 26.8477 82.1055 26.8346 82.2227 26.8086C82.3464 26.7826 82.4277 26.7695 82.4668 26.7695C82.571 26.7695 82.6556 26.8737 82.7207 27.082C82.7923 27.2904 82.8281 27.4564 82.8281 27.5801C82.8281 27.9251 82.4082 28.0977 81.5684 28.0977ZM88.6387 28.0977C87.1999 28.0977 86.1289 27.7233 85.4258 26.9746C84.7292 26.2194 84.3809 25.0671 84.3809 23.5176C84.3809 21.9811 84.7227 20.8158 85.4062 20.0215C86.0898 19.2207 87.0957 18.8203 88.4238 18.8203C89.6087 18.8203 90.5007 19.2044 91.0996 19.9727C91.7051 20.7409 92.0078 21.8672 92.0078 23.3516C92.0078 23.4167 91.972 23.5078 91.9004 23.625C91.8353 23.7357 91.7539 23.8366 91.6562 23.9277C91.5651 24.0124 91.487 24.0547 91.4219 24.0547H85.9434C86.015 25.0247 86.2624 25.7344 86.6855 26.1836C87.1152 26.6263 87.7598 26.8477 88.6191 26.8477C89.1009 26.8477 89.5143 26.7891 89.8594 26.6719C90.2109 26.5547 90.5495 26.4115 90.875 26.2422C90.9076 26.2292 90.9564 26.2064 91.0215 26.1738C91.0866 26.1413 91.1322 26.125 91.1582 26.125C91.2298 26.125 91.3112 26.1836 91.4023 26.3008C91.5 26.4115 91.5814 26.5384 91.6465 26.6816C91.7181 26.8184 91.7539 26.9193 91.7539 26.9844C91.7539 27.1276 91.6107 27.2871 91.3242 27.4629C91.0378 27.6387 90.6536 27.7884 90.1719 27.9121C89.6966 28.0358 89.1855 28.0977 88.6387 28.0977ZM90.4551 22.8047C90.4551 20.9818 89.7617 20.0703 88.375 20.0703C86.8841 20.0703 86.0736 20.9818 85.9434 22.8047H90.4551ZM99.2441 28.0293C98.9967 28.0293 98.8177 28 98.707 27.9414C98.5964 27.8763 98.541 27.7786 98.541 27.6484V16.1934C98.541 15.9329 98.7754 15.8027 99.2441 15.8027H99.6055C99.7878 15.8027 99.931 15.8288 100.035 15.8809C100.146 15.9329 100.243 16.0176 100.328 16.1348L105.875 24.5039L106.393 25.4805V16.1934C106.393 15.9329 106.62 15.8027 107.076 15.8027H107.213C107.669 15.8027 107.896 15.9329 107.896 16.1934V27.6484C107.896 27.7786 107.841 27.8763 107.73 27.9414C107.62 28 107.447 28.0293 107.213 28.0293H106.861C106.699 28.0293 106.568 28.0098 106.471 27.9707C106.373 27.9316 106.298 27.8698 106.246 27.7852L100.523 19.1523L100.055 18.2539V27.6484C100.055 27.9023 99.8236 28.0293 99.3613 28.0293H99.2441ZM114.674 28.0977C113.235 28.0977 112.164 27.7233 111.461 26.9746C110.764 26.2194 110.416 25.0671 110.416 23.5176C110.416 21.9811 110.758 20.8158 111.441 20.0215C112.125 19.2207 113.131 18.8203 114.459 18.8203C115.644 18.8203 116.536 19.2044 117.135 19.9727C117.74 20.7409 118.043 21.8672 118.043 23.3516C118.043 23.4167 118.007 23.5078 117.936 23.625C117.87 23.7357 117.789 23.8366 117.691 23.9277C117.6 24.0124 117.522 24.0547 117.457 24.0547H111.979C112.05 25.0247 112.298 25.7344 112.721 26.1836C113.15 26.6263 113.795 26.8477 114.654 26.8477C115.136 26.8477 115.549 26.7891 115.895 26.6719C116.246 26.5547 116.585 26.4115 116.91 26.2422C116.943 26.2292 116.992 26.2064 117.057 26.1738C117.122 26.1413 117.167 26.125 117.193 26.125C117.265 26.125 117.346 26.1836 117.438 26.3008C117.535 26.4115 117.617 26.5384 117.682 26.6816C117.753 26.8184 117.789 26.9193 117.789 26.9844C117.789 27.1276 117.646 27.2871 117.359 27.4629C117.073 27.6387 116.689 27.7884 116.207 27.9121C115.732 28.0358 115.221 28.0977 114.674 28.0977ZM116.49 22.8047C116.49 20.9818 115.797 20.0703 114.41 20.0703C112.919 20.0703 112.109 20.9818 111.979 22.8047H116.49ZM122.428 28.0293C122.005 28.0293 121.773 27.9382 121.734 27.7559L119.449 19.5234C119.384 19.3411 119.352 19.2272 119.352 19.1816C119.352 18.9863 119.618 18.8887 120.152 18.8887C120.569 18.8887 120.8 18.9798 120.846 19.1621L122.311 24.7188C122.337 24.8099 122.421 25.181 122.564 25.832C122.597 26.0078 122.659 26.2975 122.75 26.7012C122.88 25.9004 123.023 25.2331 123.18 24.6992L124.615 19.1816C124.661 18.9863 124.889 18.8887 125.299 18.8887H125.416C125.813 18.8887 126.041 18.9863 126.1 19.1816L127.545 24.6992C127.701 25.2721 127.831 25.8353 127.936 26.3887C127.942 26.4277 127.958 26.5254 127.984 26.6816C128.167 25.7181 128.3 25.0703 128.385 24.7383L129.85 19.1621C129.895 18.9798 130.13 18.8887 130.553 18.8887C131.015 18.8887 131.246 18.9863 131.246 19.1816C131.246 19.2533 131.23 19.3314 131.197 19.416L128.863 27.7559C128.824 27.9382 128.596 28.0293 128.18 28.0293H127.652C127.242 28.0293 127.018 27.9382 126.979 27.7559L125.582 22.248C125.497 21.89 125.413 21.4408 125.328 20.9004C125.243 21.4668 125.156 21.9128 125.064 22.2383L123.648 27.7559C123.609 27.9382 123.375 28.0293 122.945 28.0293H122.428Z" fill="white"/>
</g>
<defs>
<clipPath id="clip0_2_2">
<rect width="141.477" height="44" fill="white"/>
</clipPath>
</defs>
</svg>
