<svg width="418" height="130" viewBox="0 0 418 130" fill="none" xmlns="http://www.w3.org/2000/svg">
<g clip-path="url(#clip0_2_2)">
<path d="M393.65 0H24.3495C10.9016 0 0 10.9131 0 24.375V105.625C0 119.087 10.9016 130 24.3495 130H393.65C407.098 130 418 119.087 418 105.625V24.375C418 10.9131 407.098 0 393.65 0Z" fill="#1A1A1A"/>
<path d="M393.65 2.03125H24.3495C12.0223 2.03125 2.02911 12.0349 2.02911 24.375V105.625C2.02911 117.965 12.0223 127.969 24.3495 127.969H393.65C405.978 127.969 415.971 117.965 415.971 105.625V24.375C415.971 12.0349 405.978 2.03125 393.65 2.03125Z" stroke="white" stroke-opacity="0.2" stroke-width="2"/>
<mask id="mask0_2_2" style="mask-type:luminance" maskUnits="userSpaceOnUse" x="40" y="40" width="50" height="50">
<path d="M40.5825 40.625H89.2815V89.375H40.5825V40.625Z" fill="white"/>
</mask>
<g mask="url(#mask0_2_2)">
<path fill-rule="evenodd" clip-rule="evenodd" d="M64.932 43.6719L89.2815 86.3281H40.5825L64.932 43.6719Z" fill="#EDEDED"/>
</g>
<path d="M127.835 4.0625V125.938" stroke="white" stroke-opacity="0.14"/>
<path d="M181.836 79.0703C180.805 79.0703 180.242 78.8516 180.148 78.4141L173.023 51.0391C173.008 50.9609 172.984 50.8594 172.953 50.7344C172.922 50.6094 172.906 50.5156 172.906 50.4531C172.906 50.2344 173.055 50.0625 173.352 49.9375C173.648 49.7969 174.102 49.7266 174.711 49.7266H175.109C175.562 49.7266 175.938 49.7812 176.234 49.8906C176.531 50 176.711 50.1719 176.773 50.4062L182.07 70.9141C182.164 71.3203 182.367 72.3594 182.68 74.0312C182.758 74.5156 182.805 74.7734 182.82 74.8047C183.164 73.3672 183.5 72.0312 183.828 70.7969L188.867 50.4531C188.977 49.9688 189.516 49.7266 190.484 49.7266H191.141C192.125 49.7266 192.672 49.9688 192.781 50.4531L197.938 70.9609C198.094 71.5703 198.242 72.2969 198.383 73.1406C198.539 73.9844 198.633 74.5391 198.664 74.8047C198.992 73.4609 199.328 72.1406 199.672 70.8438L204.711 50.4062C204.82 49.9531 205.367 49.7266 206.352 49.7266H206.609C207.797 49.7266 208.391 49.9688 208.391 50.4531C208.391 50.5625 208.352 50.7578 208.273 51.0391L201.078 78.4141C200.953 78.8516 200.391 79.0703 199.391 79.0703H197.703C196.688 79.0703 196.133 78.8516 196.039 78.4141L191.469 61.4453L190.625 56.0312L189.734 61.4453L185.188 78.4141C185.094 78.8516 184.547 79.0703 183.547 79.0703H181.836ZM214.461 79.0703C213.867 79.0703 213.438 79 213.172 78.8594C212.906 78.7031 212.773 78.4688 212.773 78.1562V63.5312C212.773 61.7188 212.688 60.4141 212.516 59.6172C212.344 58.8047 212.258 58.3594 212.258 58.2812C212.258 57.9375 212.516 57.6953 213.031 57.5547C213.562 57.3984 214.062 57.3203 214.531 57.3203C214.906 57.3203 215.188 57.5234 215.375 57.9297C215.562 58.3203 215.727 58.875 215.867 59.5938L215.984 60.0859C217.469 58.0078 219.078 56.9688 220.812 56.9688C221.609 56.9688 222.211 57.1172 222.617 57.4141C223.023 57.6953 223.227 58.0781 223.227 58.5625C223.227 59.0312 223.141 59.5312 222.969 60.0625C222.812 60.5781 222.625 60.8359 222.406 60.8359C222.297 60.8359 222.102 60.7891 221.82 60.6953C221.57 60.5859 221.32 60.5078 221.07 60.4609C220.82 60.3984 220.5 60.3672 220.109 60.3672C219.469 60.3672 218.859 60.5547 218.281 60.9297C217.719 61.3047 217.242 61.7188 216.852 62.1719C216.461 62.625 216.266 62.875 216.266 62.9219V78.1562C216.266 78.4688 216.133 78.7031 215.867 78.8594C215.602 79 215.188 79.0703 214.625 79.0703H214.461ZM229.555 51.9531C228.445 51.9531 227.891 51.6484 227.891 51.0391V48.5781C227.891 47.9688 228.445 47.6641 229.555 47.6641H230.047C231.172 47.6641 231.734 47.9688 231.734 48.5781V51.0391C231.734 51.6484 231.172 51.9531 230.047 51.9531H229.555ZM229.719 79.0703C228.609 79.0703 228.055 78.7656 228.055 78.1562V58.0469C228.055 57.4375 228.609 57.1328 229.719 57.1328H229.883C231.008 57.1328 231.57 57.4375 231.57 58.0469V78.1562C231.57 78.7656 231.008 79.0703 229.883 79.0703H229.719ZM245.164 79.2344C243.773 79.2344 242.531 78.8125 241.438 77.9688C240.344 77.125 239.797 75.6328 239.797 73.4922V60.2031H237.711C237.414 60.2031 237.195 60.1094 237.055 59.9219C236.93 59.7188 236.867 59.3984 236.867 58.9609V58.4453C236.867 58.0078 236.93 57.6953 237.055 57.5078C237.195 57.3047 237.414 57.2031 237.711 57.2031H239.797L240.289 52.8438C240.32 52.2344 240.766 51.9297 241.625 51.9297H242.023C242.461 51.9297 242.781 52.0078 242.984 52.1641C243.188 52.3047 243.289 52.5312 243.289 52.8438V57.2031H246.781C247.078 57.2031 247.289 57.3047 247.414 57.5078C247.555 57.6953 247.625 58.0078 247.625 58.4453V58.9609C247.625 59.3984 247.555 59.7188 247.414 59.9219C247.289 60.1094 247.078 60.2031 246.781 60.2031H243.289V73.1641C243.289 74.3047 243.484 75.1016 243.875 75.5547C244.281 76.0078 244.828 76.2344 245.516 76.2344C246.047 76.2344 246.453 76.2031 246.734 76.1406C247.031 76.0781 247.227 76.0469 247.32 76.0469C247.57 76.0469 247.773 76.2969 247.93 76.7969C248.102 77.2969 248.188 77.6953 248.188 77.9922C248.188 78.8203 247.18 79.2344 245.164 79.2344ZM262.133 79.2344C258.68 79.2344 256.109 78.3359 254.422 76.5391C252.75 74.7266 251.914 71.9609 251.914 68.2422C251.914 64.5547 252.734 61.7578 254.375 59.8516C256.016 57.9297 258.43 56.9688 261.617 56.9688C264.461 56.9688 266.602 57.8906 268.039 59.7344C269.492 61.5781 270.219 64.2812 270.219 67.8438C270.219 68 270.133 68.2188 269.961 68.5C269.805 68.7656 269.609 69.0078 269.375 69.2266C269.156 69.4297 268.969 69.5312 268.812 69.5312H255.664C255.836 71.8594 256.43 73.5625 257.445 74.6406C258.477 75.7031 260.023 76.2344 262.086 76.2344C263.242 76.2344 264.234 76.0938 265.062 75.8125C265.906 75.5312 266.719 75.1875 267.5 74.7812C267.578 74.75 267.695 74.6953 267.852 74.6172C268.008 74.5391 268.117 74.5 268.18 74.5C268.352 74.5 268.547 74.6406 268.766 74.9219C269 75.1875 269.195 75.4922 269.352 75.8359C269.523 76.1641 269.609 76.4062 269.609 76.5625C269.609 76.9062 269.266 77.2891 268.578 77.7109C267.891 78.1328 266.969 78.4922 265.812 78.7891C264.672 79.0859 263.445 79.2344 262.133 79.2344ZM266.492 66.5312C266.492 62.1562 264.828 59.9688 261.5 59.9688C257.922 59.9688 255.977 62.1562 255.664 66.5312H266.492ZM287.586 79.0703C286.992 79.0703 286.562 79 286.297 78.8594C286.031 78.7031 285.898 78.4688 285.898 78.1562V50.6641C285.898 50.0391 286.461 49.7266 287.586 49.7266H288.453C288.891 49.7266 289.234 49.7891 289.484 49.9141C289.75 50.0391 289.984 50.2422 290.188 50.5234L303.5 70.6094L304.742 72.9531V50.6641C304.742 50.0391 305.289 49.7266 306.383 49.7266H306.711C307.805 49.7266 308.352 50.0391 308.352 50.6641V78.1562C308.352 78.4688 308.219 78.7031 307.953 78.8594C307.688 79 307.273 79.0703 306.711 79.0703H305.867C305.477 79.0703 305.164 79.0234 304.93 78.9297C304.695 78.8359 304.516 78.6875 304.391 78.4844L290.656 57.7656L289.531 55.6094V78.1562C289.531 78.7656 288.977 79.0703 287.867 79.0703H287.586ZM324.617 79.2344C321.164 79.2344 318.594 78.3359 316.906 76.5391C315.234 74.7266 314.398 71.9609 314.398 68.2422C314.398 64.5547 315.219 61.7578 316.859 59.8516C318.5 57.9297 320.914 56.9688 324.102 56.9688C326.945 56.9688 329.086 57.8906 330.523 59.7344C331.977 61.5781 332.703 64.2812 332.703 67.8438C332.703 68 332.617 68.2188 332.445 68.5C332.289 68.7656 332.094 69.0078 331.859 69.2266C331.641 69.4297 331.453 69.5312 331.297 69.5312H318.148C318.32 71.8594 318.914 73.5625 319.93 74.6406C320.961 75.7031 322.508 76.2344 324.57 76.2344C325.727 76.2344 326.719 76.0938 327.547 75.8125C328.391 75.5312 329.203 75.1875 329.984 74.7812C330.062 74.75 330.18 74.6953 330.336 74.6172C330.492 74.5391 330.602 74.5 330.664 74.5C330.836 74.5 331.031 74.6406 331.25 74.9219C331.484 75.1875 331.68 75.4922 331.836 75.8359C332.008 76.1641 332.094 76.4062 332.094 76.5625C332.094 76.9062 331.75 77.2891 331.062 77.7109C330.375 78.1328 329.453 78.4922 328.297 78.7891C327.156 79.0859 325.93 79.2344 324.617 79.2344ZM328.977 66.5312C328.977 62.1562 327.312 59.9688 323.984 59.9688C320.406 59.9688 318.461 62.1562 318.148 66.5312H328.977ZM343.227 79.0703C342.211 79.0703 341.656 78.8516 341.562 78.4141L336.078 58.6562C335.922 58.2188 335.844 57.9453 335.844 57.8359C335.844 57.3672 336.484 57.1328 337.766 57.1328C338.766 57.1328 339.32 57.3516 339.43 57.7891L342.945 71.125C343.008 71.3438 343.211 72.2344 343.555 73.7969C343.633 74.2188 343.781 74.9141 344 75.8828C344.312 73.9609 344.656 72.3594 345.031 71.0781L348.477 57.8359C348.586 57.3672 349.133 57.1328 350.117 57.1328H350.398C351.352 57.1328 351.898 57.3672 352.039 57.8359L355.508 71.0781C355.883 72.4531 356.195 73.8047 356.445 75.1328C356.461 75.2266 356.5 75.4609 356.562 75.8359C357 73.5234 357.32 71.9688 357.523 71.1719L361.039 57.7891C361.148 57.3516 361.711 57.1328 362.727 57.1328C363.836 57.1328 364.391 57.3672 364.391 57.8359C364.391 58.0078 364.352 58.1953 364.273 58.3984L358.672 78.4141C358.578 78.8516 358.031 79.0703 357.031 79.0703H355.766C354.781 79.0703 354.242 78.8516 354.148 78.4141L350.797 65.1953C350.594 64.3359 350.391 63.2578 350.188 61.9609C349.984 63.3203 349.773 64.3906 349.555 65.1719L346.156 78.4141C346.062 78.8516 345.5 79.0703 344.469 79.0703H343.227Z" fill="white"/>
</g>
<defs>
<clipPath id="clip0_2_2">
<rect width="418" height="130" fill="white"/>
</clipPath>
</defs>
</svg>
