<svg width="142" height="44" viewBox="0 0 142 44" fill="none" xmlns="http://www.w3.org/2000/svg">
<g clip-path="url(#clip0_4_46)">
<path d="M133.236 0H8.24137C3.68979 0 0 3.69365 0 8.25V35.75C0 40.3064 3.68979 44 8.24137 44H133.236C137.787 44 141.477 40.3064 141.477 35.75V8.25C141.477 3.69365 137.787 0 133.236 0Z" fill="#1A1A1A"/>
<path d="M133.236 0.6875H8.24136C4.06907 0.6875 0.686768 4.07335 0.686768 8.25V35.75C0.686768 39.9267 4.06907 43.3125 8.24136 43.3125H133.236C137.408 43.3125 140.79 39.9267 140.79 35.75V8.25C140.79 4.07335 137.408 0.6875 133.236 0.6875Z" stroke="white" stroke-opacity="0.2" stroke-width="2"/>
<mask id="mask0_4_46" style="mask-type:luminance" maskUnits="userSpaceOnUse" x="13" y="13" width="18" height="18">
<path d="M13.7356 13.75H30.2183V30.25H13.7356V13.75Z" fill="white"/>
</mask>
<g mask="url(#mask0_4_46)">
<path fill-rule="evenodd" clip-rule="evenodd" d="M21.977 14.7812L30.2183 29.2188H13.7356L21.977 14.7812Z" fill="#EDEDED"/>
</g>
<path d="M43.2672 1.375V42.625" stroke="white" stroke-opacity="0.14"/>
<path d="M57.5547 28C57.3724 28 57.2389 27.9577 57.1543 27.873C57.0697 27.7884 57.0273 27.6582 57.0273 27.4824V16.3691C57.0273 16.1868 57.0697 16.0566 57.1543 15.9785C57.2389 15.8939 57.3724 15.8516 57.5547 15.8516H63.6094C63.7331 15.8516 63.821 15.8906 63.873 15.9688C63.9316 16.0469 63.9609 16.1803 63.9609 16.3691V16.6523C63.9609 16.8281 63.9316 16.9583 63.873 17.043C63.821 17.1276 63.7331 17.1699 63.6094 17.1699H58.5605V21.125H63.0918C63.2155 21.125 63.3034 21.1673 63.3555 21.252C63.4141 21.3366 63.4434 21.4701 63.4434 21.6523V21.916C63.4434 22.0983 63.4141 22.2318 63.3555 22.3164C63.3034 22.3945 63.2155 22.4336 63.0918 22.4336H58.5605V26.6816H63.6289C63.7526 26.6816 63.8405 26.724 63.8926 26.8086C63.9512 26.8867 63.9805 27.0169 63.9805 27.1992V27.4824C63.9805 27.6582 63.9512 27.7884 63.8926 27.873C63.8405 27.9577 63.7526 28 63.6289 28H57.5547ZM69.1074 28.0977C68.4303 28.0977 67.8379 27.9023 67.3301 27.5117C66.8223 27.1146 66.4284 26.5645 66.1484 25.8613C65.875 25.1582 65.7383 24.3607 65.7383 23.4688C65.7383 22.4857 65.8848 21.6458 66.1777 20.9492C66.4772 20.2461 66.8939 19.7155 67.4277 19.3574C67.9616 18.9993 68.5768 18.8203 69.2734 18.8203C69.7747 18.8203 70.2174 18.8952 70.6016 19.0449C70.9922 19.1947 71.3763 19.4128 71.7539 19.6992V15.3242C71.7539 15.0703 71.9818 14.9434 72.4375 14.9434H72.5156C72.9779 14.9434 73.209 15.0703 73.209 15.3242V25.4316C73.209 26.1868 73.2448 26.7337 73.3164 27.0723C73.388 27.4043 73.4238 27.5866 73.4238 27.6191C73.4238 27.7624 73.3132 27.8665 73.0918 27.9316C72.877 27.9902 72.6751 28.0195 72.4863 28.0195C72.3561 28.0195 72.252 27.9577 72.1738 27.834C72.0957 27.7103 72.0404 27.5866 72.0078 27.4629C71.9818 27.3327 71.9362 27.1113 71.8711 26.7988C71.0443 27.6647 70.123 28.0977 69.1074 28.0977ZM69.4102 26.8379C69.7943 26.8379 70.1914 26.7337 70.6016 26.5254C71.0182 26.3171 71.4023 26.0208 71.7539 25.6367V20.8809C71.1289 20.36 70.416 20.0996 69.6152 20.0996C68.8405 20.1191 68.2546 20.4023 67.8574 20.9492C67.4668 21.4961 67.2715 22.2904 67.2715 23.332C67.2715 24.4518 67.4538 25.3177 67.8184 25.9297C68.1895 26.5352 68.7201 26.8379 69.4102 26.8379ZM76.8711 16.7305C76.4089 16.7305 76.1777 16.6035 76.1777 16.3496V15.3242C76.1777 15.0703 76.4089 14.9434 76.8711 14.9434H77.0762C77.5449 14.9434 77.7793 15.0703 77.7793 15.3242V16.3496C77.7793 16.6035 77.5449 16.7305 77.0762 16.7305H76.8711ZM76.9395 28.0293C76.4772 28.0293 76.2461 27.9023 76.2461 27.6484V19.2695C76.2461 19.0156 76.4772 18.8887 76.9395 18.8887H77.0078C77.4766 18.8887 77.7109 19.0156 77.7109 19.2695V27.6484C77.7109 27.9023 77.4766 28.0293 77.0078 28.0293H76.9395ZM83.375 28.0977C82.7956 28.0977 82.278 27.9219 81.8223 27.5703C81.3665 27.2188 81.1387 26.597 81.1387 25.7051V20.168H80.2695C80.1458 20.168 80.0547 20.1289 79.9961 20.0508C79.944 19.9661 79.918 19.8327 79.918 19.6504V19.4355C79.918 19.2533 79.944 19.123 79.9961 19.0449C80.0547 18.9603 80.1458 18.918 80.2695 18.918H81.1387L81.3438 17.1016C81.3568 16.8477 81.5423 16.7207 81.9004 16.7207H82.0664C82.2487 16.7207 82.3822 16.7533 82.4668 16.8184C82.5514 16.877 82.5938 16.9714 82.5938 17.1016V18.918H84.0488C84.1725 18.918 84.2604 18.9603 84.3125 19.0449C84.3711 19.123 84.4004 19.2533 84.4004 19.4355V19.6504C84.4004 19.8327 84.3711 19.9661 84.3125 20.0508C84.2604 20.1289 84.1725 20.168 84.0488 20.168H82.5938V25.5684C82.5938 26.0436 82.6751 26.3757 82.8379 26.5645C83.0072 26.7533 83.235 26.8477 83.5215 26.8477C83.7428 26.8477 83.9121 26.8346 84.0293 26.8086C84.153 26.7826 84.2344 26.7695 84.2734 26.7695C84.3776 26.7695 84.4622 26.8737 84.5273 27.082C84.599 27.2904 84.6348 27.4564 84.6348 27.5801C84.6348 27.9251 84.2148 28.0977 83.375 28.0977ZM91.5781 28.0293C91.3372 28.0293 91.1615 28 91.0508 27.9414C90.9466 27.8763 90.8945 27.7786 90.8945 27.6484V16.3691C90.8945 16.1803 90.9336 16.0469 91.0117 15.9688C91.0964 15.8906 91.2298 15.8516 91.4121 15.8516H94.9277C95.9434 15.8516 96.8418 16.0957 97.623 16.584C98.4108 17.0658 98.8047 17.9544 98.8047 19.25C98.8047 20.2135 98.5801 20.9622 98.1309 21.4961C97.6816 22.0234 97.1771 22.3783 96.6172 22.5605C96.0573 22.7363 95.5527 22.8242 95.1035 22.8242H92.4082V27.6484C92.4082 27.7786 92.3529 27.8763 92.2422 27.9414C92.1315 28 91.959 28.0293 91.7246 28.0293H91.5781ZM95.123 21.5059C95.416 21.5059 95.722 21.444 96.041 21.3203C96.36 21.1901 96.6367 20.959 96.8711 20.627C97.1055 20.2884 97.2227 19.8294 97.2227 19.25C97.2227 18.4753 96.9915 17.9349 96.5293 17.6289C96.0736 17.3229 95.5234 17.1699 94.8789 17.1699H92.4082V21.5059H95.123ZM103.131 28.0977C102.245 28.0977 101.529 27.8796 100.982 27.4434C100.436 27.0072 100.162 26.3594 100.162 25.5C100.162 24.5951 100.439 23.9147 100.992 23.459C101.546 22.9967 102.219 22.7005 103.014 22.5703C103.814 22.4336 104.785 22.3555 105.924 22.3359V21.5156C105.924 21.0794 105.774 20.7311 105.475 20.4707C105.182 20.2038 104.697 20.0703 104.02 20.0703C103.505 20.0703 103.053 20.1322 102.662 20.2559C102.278 20.373 101.917 20.5163 101.578 20.6855C101.435 20.7572 101.347 20.793 101.314 20.793C101.236 20.793 101.148 20.7376 101.051 20.627C100.96 20.5098 100.878 20.3796 100.807 20.2363C100.742 20.0931 100.709 19.9889 100.709 19.9238C100.709 19.7741 100.862 19.6113 101.168 19.4355C101.48 19.2598 101.887 19.1133 102.389 18.9961C102.89 18.8789 103.414 18.8203 103.961 18.8203C105.048 18.8203 105.891 19.0579 106.49 19.5332C107.089 20.0085 107.389 20.6758 107.389 21.5352V25.4316C107.389 26.1868 107.421 26.7337 107.486 27.0723C107.558 27.4043 107.594 27.5866 107.594 27.6191C107.594 27.7624 107.483 27.8665 107.262 27.9316C107.047 27.9902 106.845 28.0195 106.656 28.0195C106.5 28.0195 106.383 27.9316 106.305 27.7559C106.233 27.5801 106.161 27.3262 106.09 26.9941L106.051 26.7988C105.693 27.196 105.27 27.5117 104.781 27.7461C104.299 27.9805 103.749 28.0977 103.131 28.0977ZM103.209 26.8379C103.782 26.8379 104.27 26.7337 104.674 26.5254C105.077 26.3171 105.494 26.0208 105.924 25.6367V23.5859C105.064 23.5924 104.358 23.6283 103.805 23.6934C103.251 23.7585 102.766 23.9245 102.35 24.1914C101.933 24.4518 101.725 24.8587 101.725 25.4121C101.725 25.8743 101.848 26.2292 102.096 26.4766C102.35 26.7174 102.721 26.8379 103.209 26.8379ZM113.18 31.6816C112.073 31.6816 111.197 31.5091 110.553 31.1641C109.908 30.819 109.586 30.2754 109.586 29.5332C109.586 29.0254 109.732 28.5827 110.025 28.2051C110.318 27.8275 110.699 27.5443 111.168 27.3555L111.188 27.3164C110.96 27.1406 110.784 26.9388 110.66 26.7109C110.543 26.4831 110.484 26.2129 110.484 25.9004C110.484 25.1452 110.81 24.5397 111.461 24.084C110.973 23.8496 110.602 23.5208 110.348 23.0977C110.094 22.668 109.967 22.1862 109.967 21.6523C109.967 21.1185 110.097 20.6367 110.357 20.207C110.624 19.7773 111.015 19.4388 111.529 19.1914C112.044 18.944 112.662 18.8203 113.385 18.8203C113.769 18.8203 114.111 18.8529 114.41 18.918H117.564C117.688 18.918 117.776 18.9603 117.828 19.0449C117.887 19.123 117.916 19.2533 117.916 19.4355V19.6504C117.916 19.8327 117.887 19.9661 117.828 20.0508C117.776 20.1289 117.688 20.168 117.564 20.168C117.128 20.168 116.725 20.1517 116.354 20.1191L116.334 20.1484C116.484 20.3568 116.594 20.5911 116.666 20.8516C116.744 21.1055 116.783 21.3724 116.783 21.6523C116.783 22.1862 116.65 22.668 116.383 23.0977C116.122 23.5273 115.735 23.8659 115.221 24.1133C114.713 24.3607 114.094 24.4844 113.365 24.4844C112.818 24.5039 112.405 24.6048 112.125 24.7871C111.852 24.9694 111.715 25.2689 111.715 25.6855C111.715 25.9915 111.812 26.2259 112.008 26.3887C112.21 26.5514 112.46 26.6654 112.76 26.7305C113.059 26.7956 113.476 26.8574 114.01 26.916L114.518 26.9746C115.058 27.0462 115.51 27.1439 115.875 27.2676C116.24 27.3913 116.539 27.5964 116.773 27.8828C117.014 28.1693 117.135 28.5632 117.135 29.0645C117.135 29.9043 116.799 30.5488 116.129 30.998C115.458 31.4538 114.475 31.6816 113.18 31.6816ZM113.365 23.332C114.003 23.332 114.511 23.2018 114.889 22.9414C115.266 22.681 115.455 22.2546 115.455 21.6621C115.455 20.5423 114.758 19.9824 113.365 19.9824C111.992 19.9824 111.305 20.5423 111.305 21.6621C111.305 22.2546 111.49 22.681 111.861 22.9414C112.239 23.2018 112.74 23.332 113.365 23.332ZM113.365 30.5C114.173 30.5 114.771 30.3926 115.162 30.1777C115.553 29.9694 115.748 29.6504 115.748 29.2207C115.748 28.9408 115.644 28.7227 115.436 28.5664C115.227 28.4167 114.97 28.3092 114.664 28.2441C114.365 28.1855 113.967 28.1302 113.473 28.0781C113.134 28.0391 112.854 28.0033 112.633 27.9707C112.418 27.9382 112.219 27.8926 112.037 27.834C111.269 28.1595 110.885 28.6315 110.885 29.25C110.885 30.0833 111.712 30.5 113.365 30.5ZM123.492 28.0977C122.053 28.0977 120.982 27.7233 120.279 26.9746C119.583 26.2194 119.234 25.0671 119.234 23.5176C119.234 21.9811 119.576 20.8158 120.26 20.0215C120.943 19.2207 121.949 18.8203 123.277 18.8203C124.462 18.8203 125.354 19.2044 125.953 19.9727C126.559 20.7409 126.861 21.8672 126.861 23.3516C126.861 23.4167 126.826 23.5078 126.754 23.625C126.689 23.7357 126.607 23.8366 126.51 23.9277C126.419 24.0124 126.34 24.0547 126.275 24.0547H120.797C120.868 25.0247 121.116 25.7344 121.539 26.1836C121.969 26.6263 122.613 26.8477 123.473 26.8477C123.954 26.8477 124.368 26.7891 124.713 26.6719C125.064 26.5547 125.403 26.4115 125.729 26.2422C125.761 26.2292 125.81 26.2064 125.875 26.1738C125.94 26.1413 125.986 26.125 126.012 26.125C126.083 26.125 126.165 26.1836 126.256 26.3008C126.354 26.4115 126.435 26.5384 126.5 26.6816C126.572 26.8184 126.607 26.9193 126.607 26.9844C126.607 27.1276 126.464 27.2871 126.178 27.4629C125.891 27.6387 125.507 27.7884 125.025 27.9121C124.55 28.0358 124.039 28.0977 123.492 28.0977ZM125.309 22.8047C125.309 20.9818 124.615 20.0703 123.229 20.0703C121.738 20.0703 120.927 20.9818 120.797 22.8047H125.309Z" fill="white"/>
</g>
<defs>
<clipPath id="clip0_4_46">
<rect width="141.477" height="44" fill="white"/>
</clipPath>
</defs>
</svg>
