<svg width="418" height="130" viewBox="0 0 418 130" fill="none" xmlns="http://www.w3.org/2000/svg">
<g clip-path="url(#clip0_2_36)">
<path d="M393.65 0H24.3495C10.9016 0 0 10.9131 0 24.375V105.625C0 119.087 10.9016 130 24.3495 130H393.65C407.098 130 418 119.087 418 105.625V24.375C418 10.9131 407.098 0 393.65 0Z" fill="#1A1A1A"/>
<path d="M393.65 2.03125H24.3495C12.0223 2.03125 2.02911 12.0349 2.02911 24.375V105.625C2.02911 117.965 12.0223 127.969 24.3495 127.969H393.65C405.978 127.969 415.971 117.965 415.971 105.625V24.375C415.971 12.0349 405.978 2.03125 393.65 2.03125Z" stroke="white" stroke-opacity="0.2" stroke-width="2"/>
<mask id="mask0_2_36" style="mask-type:luminance" maskUnits="userSpaceOnUse" x="40" y="40" width="50" height="50">
<path d="M40.5825 40.625H89.2815V89.375H40.5825V40.625Z" fill="white"/>
</mask>
<g mask="url(#mask0_2_36)">
<path fill-rule="evenodd" clip-rule="evenodd" d="M64.932 43.6719L89.2815 86.3281H40.5825L64.932 43.6719Z" fill="#EDEDED"/>
</g>
<path d="M127.835 4.0625V125.938" stroke="white" stroke-opacity="0.14"/>
<path d="M209.055 79.0703C207.93 79.0703 207.367 78.7656 207.367 78.1562V51.0859C207.367 50.6484 207.469 50.3359 207.672 50.1484C207.875 49.9453 208.195 49.8438 208.633 49.8438H221.758C222.055 49.8438 222.266 49.9453 222.391 50.1484C222.516 50.3359 222.578 50.6484 222.578 51.0859V51.7656C222.578 52.1875 222.516 52.5 222.391 52.7031C222.266 52.9062 222.055 53.0078 221.758 53.0078H211.047V62.5H221.008C221.289 62.5 221.5 62.6016 221.641 62.8047C221.781 63.0078 221.852 63.3281 221.852 63.7656V64.3984C221.852 64.8359 221.781 65.1562 221.641 65.3594C221.5 65.5469 221.289 65.6406 221.008 65.6406H211.047V78.1562C211.047 78.7656 210.492 79.0703 209.383 79.0703H209.055ZM230.008 79.0703C228.883 79.0703 228.32 78.7656 228.32 78.1562V50.6641C228.32 50.0391 228.883 49.7266 230.008 49.7266H230.336C231.445 49.7266 232 50.0391 232 50.6641V78.1562C232 78.7656 231.445 79.0703 230.336 79.0703H230.008ZM238.82 79.0703C238.133 79.0703 237.641 79.0156 237.344 78.9062C237.047 78.7969 236.898 78.6172 236.898 78.3672C236.898 78.1797 237.008 77.9297 237.227 77.6172L246.555 63.7891L238.211 51.2031C237.992 50.875 237.883 50.625 237.883 50.4531C237.883 49.9688 238.523 49.7266 239.805 49.7266H240.414C241.289 49.7266 241.875 49.9375 242.172 50.3594L248.852 60.4141L255.719 50.3359C255.859 50.1328 256.094 49.9844 256.422 49.8906C256.75 49.7812 257.117 49.7266 257.523 49.7266H257.758C258.445 49.7266 258.938 49.7891 259.234 49.9141C259.531 50.0234 259.68 50.2031 259.68 50.4531C259.68 50.5469 259.641 50.6641 259.562 50.8047C259.5 50.9297 259.43 51.0625 259.352 51.2031L251.008 63.5781L260.406 77.6172C260.625 77.9297 260.734 78.1797 260.734 78.3672C260.734 78.6016 260.586 78.7812 260.289 78.9062C259.992 79.0156 259.5 79.0703 258.812 79.0703H258.133C257.664 79.0703 257.289 79.0312 257.008 78.9531C256.727 78.8594 256.508 78.6875 256.352 78.4375L248.688 67L240.93 78.4844C240.695 78.875 240.094 79.0703 239.125 79.0703H238.82ZM277.023 79.0703C276.43 79.0703 276 79 275.734 78.8594C275.469 78.7031 275.336 78.4688 275.336 78.1562V50.6641C275.336 50.0391 275.898 49.7266 277.023 49.7266H278.5C279.422 49.7266 280.008 49.9844 280.258 50.5L288.133 64.1641L289.211 66.7891L290.289 64.3984L298.188 50.5C298.453 49.9844 299.031 49.7266 299.922 49.7266H301.305C302.414 49.7266 302.969 50.0391 302.969 50.6641V78.1562C302.969 78.7656 302.414 79.0703 301.305 79.0703H301.023C300.43 79.0703 300 79 299.734 78.8594C299.469 78.7031 299.336 78.4688 299.336 78.1562V55.7266L299.266 55.9141L290.969 70.3281C290.859 70.5156 290.734 70.6562 290.594 70.75C290.453 70.8281 290.273 70.8672 290.055 70.8672H288.391C287.969 70.8672 287.656 70.6875 287.453 70.3281L278.969 55.4922V78.1562C278.969 78.7656 278.414 79.0703 277.305 79.0703H277.023ZM311.992 79C311.555 79 311.234 78.8984 311.031 78.6953C310.828 78.4922 310.727 78.1797 310.727 77.7578V51.0859C310.727 50.6484 310.828 50.3359 311.031 50.1484C311.234 49.9453 311.555 49.8438 311.992 49.8438H320.406C324.312 49.8438 327.438 51 329.781 53.3125C332.125 55.625 333.297 59.3203 333.297 64.3984C333.297 69.5078 332.125 73.2188 329.781 75.5312C327.438 77.8438 324.312 79 320.406 79H311.992ZM320.125 75.8359C322.938 75.8359 325.203 74.9219 326.922 73.0938C328.641 71.25 329.5 68.3516 329.5 64.3984C329.5 61.7422 329.094 59.5703 328.281 57.8828C327.469 56.1797 326.359 54.9453 324.953 54.1797C323.547 53.3984 321.938 53.0078 320.125 53.0078H314.406V75.8359H320.125Z" fill="white"/>
</g>
<defs>
<clipPath id="clip0_2_36">
<rect width="418" height="130" fill="white"/>
</clipPath>
</defs>
</svg>
